<svg width="550" height="450" viewBox="0 0 550 450" fill="none" xmlns="http://www.w3.org/2000/svg">
<g clip-path="url(#clip0)">
<path d="M120.507 51.6153L122.879 247.092L225.381 296.964L223.009 101.488L120.507 51.6153Z" fill="#F2F2F2"/>
<path d="M89.3585 36L12.7666 193.057L116.691 243.621L114.319 48.1445L89.3585 36Z" fill="#F2F2F2"/>
<path d="M550 256.638L343.135 155.988L345.507 351.465L473.408 413.694L550 256.638Z" fill="#F2F2F2"/>
<path d="M232.275 101.488L234.647 296.964L337.15 346.837L334.778 151.36L232.275 101.488Z" fill="#F2F2F2"/>
<path d="M267.903 257.523L265.007 322.312C265.007 322.312 272.536 383.63 270.798 385.366C269.061 387.101 264.428 390.572 267.903 394.621C271.378 398.67 284.119 401.563 284.698 399.249C285.277 396.935 286.435 330.989 286.435 330.989L290.489 252.895L267.903 257.523Z" fill="#2F2E41"/>
<path opacity="0.2" d="M267.903 257.523L265.007 322.312C265.007 322.312 272.536 383.63 270.798 385.366C269.061 387.101 264.428 390.572 267.903 394.621C271.378 398.67 284.119 401.563 284.698 399.249C285.277 396.935 286.435 330.989 286.435 330.989L290.489 252.895L267.903 257.523Z" fill="black"/>
<path d="M270.798 393.464C270.798 393.464 256.32 404.455 254.582 404.455C252.845 404.455 237.208 409.661 248.212 411.975C259.216 414.289 285.856 413.132 286.435 409.661C287.014 406.191 284.698 395.657 284.698 395.657L270.798 393.464Z" fill="#2F2E41"/>
<path opacity="0.2" d="M270.798 393.464C270.798 393.464 256.32 404.455 254.582 404.455C252.845 404.455 237.208 409.661 248.212 411.975C259.216 414.289 285.856 413.132 286.435 409.661C287.014 406.191 284.698 395.657 284.698 395.657L270.798 393.464Z" fill="black"/>
<path d="M234.892 208.931C234.892 208.931 228.521 211.245 228.521 212.981C228.521 214.716 222.73 236.698 221.572 237.855C220.413 239.012 219.834 244.218 219.834 244.218C219.834 244.218 214.043 257.523 215.201 257.523C216.359 257.523 226.205 255.209 226.784 257.523C227.363 259.837 231.996 243.061 231.996 243.061L241.841 223.393L234.892 208.931Z" fill="#60A3D9"/>
<path d="M215.201 259.837C215.201 259.837 216.938 272.563 221.571 273.72C226.205 274.877 221.571 257.523 221.571 257.523L215.201 259.837Z" fill="#FFB8B8"/>
<path d="M230.259 201.99C230.259 201.99 233.733 209.51 235.471 213.559C237.208 217.608 253.424 203.147 253.424 203.147C253.424 203.147 244.737 196.783 244.737 193.891C244.737 190.999 230.259 201.99 230.259 201.99Z" fill="#FFB8B8"/>
<path d="M63.1992 390.025C67.0832 404.366 80.3864 413.248 80.3864 413.248C80.3864 413.248 87.3926 398.878 83.5087 384.538C79.6248 370.197 66.3215 361.315 66.3215 361.315C66.3215 361.315 59.3153 375.685 63.1992 390.025Z" fill="#3F3D56"/>
<path d="M68.9065 386.943C79.564 397.306 80.8658 413.236 80.8658 413.236C80.8658 413.236 64.8883 412.365 54.2307 402.002C43.5732 391.639 42.2715 375.709 42.2715 375.709C42.2715 375.709 58.249 376.581 68.9065 386.943Z" fill="#60A3D9"/>
<path d="M201.302 413.711C190.878 413.711 180.689 410.623 172.022 404.839C163.355 399.055 156.6 390.833 152.612 381.215C148.623 371.596 147.579 361.011 149.613 350.8C151.646 340.589 156.665 331.209 164.036 323.847C171.406 316.485 180.797 311.471 191.02 309.44C201.243 307.409 211.84 308.451 221.47 312.436C231.1 316.42 239.331 323.167 245.122 331.824C250.913 340.481 254.003 350.658 254.003 361.07C253.988 375.026 248.43 388.406 238.55 398.275C228.67 408.144 215.274 413.695 201.302 413.711ZM201.302 309.586C191.107 309.586 181.142 312.605 172.666 318.262C164.189 323.919 157.583 331.96 153.682 341.368C149.78 350.775 148.76 361.127 150.749 371.114C152.737 381.101 157.646 390.274 164.855 397.474C172.063 404.675 181.248 409.578 191.246 411.564C201.244 413.551 211.608 412.531 221.026 408.635C230.445 404.738 238.495 398.139 244.158 389.673C249.822 381.206 252.845 371.252 252.845 361.07C252.83 347.42 247.394 334.334 237.731 324.682C228.068 315.03 214.967 309.601 201.302 309.586Z" fill="#2F2E41"/>
<path d="M363.461 413.711C353.037 413.711 342.848 410.623 334.181 404.839C325.515 399.055 318.76 390.833 314.771 381.215C310.782 371.596 309.738 361.011 311.772 350.8C313.805 340.589 318.825 331.209 326.195 323.847C333.566 316.485 342.956 311.471 353.179 309.44C363.402 307.409 373.999 308.451 383.629 312.436C393.259 316.42 401.49 323.167 407.281 331.824C413.072 340.481 416.163 350.658 416.163 361.07C416.147 375.026 410.589 388.406 400.709 398.275C390.829 408.144 377.433 413.695 363.461 413.711ZM363.461 309.586C353.266 309.586 343.301 312.605 334.825 318.262C326.349 323.919 319.742 331.96 315.841 341.368C311.94 350.775 310.919 361.127 312.908 371.114C314.897 381.101 319.806 390.274 327.014 397.474C334.223 404.675 343.407 409.578 353.405 411.564C363.404 413.551 373.767 412.531 383.186 408.635C392.604 404.738 400.654 398.139 406.318 389.673C411.981 381.206 415.004 371.252 415.004 361.07C414.989 347.42 409.554 334.334 399.891 324.682C390.228 315.03 377.126 309.601 363.461 309.586Z" fill="#2F2E41"/>
<path d="M201.301 364.541C203.221 364.541 204.776 362.987 204.776 361.07C204.776 359.153 203.221 357.599 201.301 357.599C199.382 357.599 197.827 359.153 197.827 361.07C197.827 362.987 199.382 364.541 201.301 364.541Z" fill="#2F2E41"/>
<path d="M364.619 364.541C366.538 364.541 368.094 362.987 368.094 361.07C368.094 359.153 366.538 357.599 364.619 357.599C362.7 357.599 361.144 359.153 361.144 361.07C361.144 362.987 362.7 364.541 364.619 364.541Z" fill="#2F2E41"/>
<path d="M206.467 356.09L205.402 355.636L235.671 284.703L321.505 286.453L321.671 286.713L363.949 352.659L362.973 353.283L320.862 287.598L236.429 285.876L206.467 356.09Z" fill="#2F2E41"/>
<path d="M296.643 369.275L318.889 290.917L320.003 291.232L298.235 367.905L356.438 360.496L356.584 361.644L296.643 369.275Z" fill="#2F2E41"/>
<path d="M233.568 302.239L232.741 303.049L292.392 363.789L293.219 362.979L233.568 302.239Z" fill="#2F2E41"/>
<path d="M324.676 272.411L321.207 285.138L322.324 285.442L325.794 272.715L324.676 272.411Z" fill="#2F2E41"/>
<path d="M237.774 281.369L236.643 281.112L239.378 269.093H229.679V261.573H230.838V267.936H240.83L237.774 281.369Z" fill="#2F2E41"/>
<path d="M303.809 260.994C303.809 260.994 303.809 257.523 311.338 259.259C318.867 260.994 342.033 265.622 343.77 265.043C345.507 264.465 344.928 268.514 337.399 270.249C329.871 271.985 321.184 267.936 319.446 266.779C317.709 265.622 303.809 260.994 303.809 260.994Z" fill="#2F2E41"/>
<path d="M282.96 364.541H267.903V370.325H282.96V364.541Z" fill="#60A3D9"/>
<path d="M297.439 380.159C295.148 380.159 292.908 379.481 291.004 378.209C289.099 376.938 287.614 375.131 286.738 373.017C285.861 370.903 285.632 368.577 286.079 366.333C286.525 364.088 287.629 362.027 289.248 360.409C290.868 358.791 292.932 357.689 295.179 357.243C297.426 356.796 299.755 357.025 301.871 357.901C303.988 358.777 305.797 360.26 307.07 362.162C308.342 364.065 309.022 366.302 309.022 368.59C309.018 371.657 307.797 374.598 305.625 376.767C303.454 378.936 300.51 380.156 297.439 380.159ZM297.439 358.177C295.377 358.177 293.362 358.788 291.647 359.932C289.933 361.076 288.597 362.702 287.808 364.605C287.019 366.508 286.812 368.601 287.215 370.621C287.617 372.641 288.61 374.496 290.068 375.953C291.525 377.409 293.383 378.4 295.405 378.802C297.427 379.204 299.523 378.998 301.428 378.21C303.333 377.422 304.961 376.087 306.106 374.375C307.252 372.662 307.863 370.649 307.863 368.59C307.86 365.829 306.761 363.183 304.806 361.231C302.852 359.279 300.203 358.181 297.439 358.177Z" fill="#2F2E41"/>
<path d="M235.471 207.774C243.147 207.774 249.37 201.559 249.37 193.891C249.37 186.223 243.147 180.008 235.471 180.008C227.794 180.008 221.572 186.223 221.572 193.891C221.572 201.559 227.794 207.774 235.471 207.774Z" fill="#FFB8B8"/>
<path d="M279.485 258.68C279.485 258.68 239.525 281.819 240.104 289.339C240.683 296.859 270.798 337.931 270.798 337.931C270.798 337.931 273.115 350.079 275.431 350.079C277.748 350.079 292.226 355.285 292.806 351.814C293.385 348.343 288.173 344.294 288.752 341.98C289.331 339.666 263.269 297.438 263.269 297.438C263.269 297.438 319.045 276.613 307.373 258.68C295.701 240.747 279.485 258.68 279.485 258.68Z" fill="#2F2E41"/>
<path d="M280.644 347.765C280.644 347.765 273.694 349.5 272.536 351.814C271.377 354.128 251.108 361.648 256.899 363.384C262.69 365.119 296.281 365.697 297.439 364.541C298.597 363.384 297.439 349.956 292.806 350.017C288.173 350.079 282.96 351.814 280.644 347.765Z" fill="#2F2E41"/>
<path d="M235.471 215.295L248.501 199.387C248.501 199.387 263.27 195.048 269.64 203.725C276.011 212.402 293.385 233.806 299.176 238.433C304.968 243.061 313.076 260.994 310.18 261.572C307.284 262.151 291.068 255.209 284.698 259.837C278.327 264.465 266.165 265.043 265.586 262.729C265.007 260.415 230.259 221.658 230.259 216.451C230.259 211.245 233.961 210.128 233.961 210.128L235.471 215.295Z" fill="#60A3D9"/>
<path d="M242.47 261.286L224.997 255.116C224.093 254.796 223.1 255.27 222.78 256.173C222.46 257.077 222.934 258.069 223.839 258.388L241.312 264.558C242.216 264.878 243.209 264.404 243.529 263.501C243.849 262.597 243.375 261.605 242.47 261.286Z" fill="#2F2E41"/>
<path d="M203.039 254.052C203.039 254.052 182.769 259.837 184.507 266.2C186.244 272.563 204.776 258.68 204.776 258.68L203.039 254.052Z" fill="#FFB8B8"/>
<path d="M255.741 203.725C255.741 203.725 247.633 210.667 245.895 218.765C244.158 226.864 235.471 241.326 235.471 241.326L200.143 252.895C200.143 252.895 197.827 263.886 201.302 263.886C204.777 263.886 243.579 255.788 244.737 254.052C245.895 252.317 270.799 219.344 270.799 219.344C270.799 219.344 273.115 201.411 255.741 203.725Z" fill="#60A3D9"/>
<path d="M226.838 177.822C226.495 178.117 226.085 178.322 225.644 178.42C225.423 178.46 225.195 178.41 225.01 178.282C224.825 178.154 224.698 177.958 224.657 177.737C224.402 178.445 223.927 179.053 223.303 179.472C222.639 179.818 221.614 179.528 221.518 178.787C221.421 179.35 221.172 179.875 220.798 180.306C220.603 180.513 220.334 180.634 220.05 180.643C219.766 180.653 219.49 180.55 219.281 180.357C219.571 181.942 219.392 183.573 219.483 185.182C219.575 186.791 220.004 188.497 221.221 189.555C222.996 191.098 225.665 190.717 228 190.425C228.353 190.351 228.72 190.371 229.063 190.483C229.937 190.855 229.897 192.07 229.909 193.019C229.98 194.685 230.64 196.271 231.771 197.496C232.902 198.722 234.432 199.507 236.088 199.713C237.015 199.856 237.96 199.625 238.717 199.072C239.38 198.511 239.718 197.596 240.478 197.174C241.714 196.488 243.212 197.489 244.116 198.575C245.019 199.661 245.91 200.996 247.309 201.195C249.16 201.458 250.57 199.574 251.261 197.839C252.216 195.407 252.673 192.81 252.606 190.199C252.539 187.588 251.95 185.017 250.872 182.637C247.007 174.222 233.805 172.891 226.838 177.822Z" fill="#2F2E41"/>
<path d="M471.406 413.687L470.377 413.156C483.745 387.342 476.596 353.819 468.246 330.242C462.576 314.395 455.345 299.15 446.657 284.731L447.636 284.113C456.369 298.605 463.638 313.928 469.338 329.856C477.765 353.648 484.963 387.506 471.406 413.687Z" fill="#2F2E41"/>
<path d="M481.32 284.32L473.806 325.394L474.945 325.602L482.459 284.528L481.32 284.32Z" fill="#2F2E41"/>
<path d="M431.355 319.315L430.507 320.103L469.309 361.753L470.157 360.965L431.355 319.315Z" fill="#2F2E41"/>
<path d="M501.112 365.066L481.43 392.261L482.369 392.939L502.051 365.744L501.112 365.066Z" fill="#2F2E41"/>
<path d="M484.791 273.431C487.989 273.431 490.582 270.841 490.582 267.646C490.582 264.451 487.989 261.862 484.791 261.862C481.592 261.862 479 264.451 479 267.646C479 270.841 481.592 273.431 484.791 273.431Z" fill="#60A3D9"/>
<path d="M421.664 317.974C424.863 317.974 427.456 315.384 427.456 312.189C427.456 308.994 424.863 306.404 421.664 306.404C418.466 306.404 415.873 308.994 415.873 312.189C415.873 315.384 418.466 317.974 421.664 317.974Z" fill="#3F3D56"/>
<path d="M447.147 323.758C450.345 323.758 452.938 321.168 452.938 317.973C452.938 314.779 450.345 312.189 447.147 312.189C443.948 312.189 441.355 314.779 441.355 317.973C441.355 321.168 443.948 323.758 447.147 323.758Z" fill="#3F3D56"/>
<path d="M435.564 346.319C438.762 346.319 441.355 343.729 441.355 340.534C441.355 337.339 438.762 334.749 435.564 334.749C432.365 334.749 429.772 337.339 429.772 340.534C429.772 343.729 432.365 346.319 435.564 346.319Z" fill="#60A3D9"/>
<path d="M507.956 360.78C511.155 360.78 513.748 358.191 513.748 354.996C513.748 351.801 511.155 349.211 507.956 349.211C504.758 349.211 502.165 351.801 502.165 354.996C502.165 358.191 504.758 360.78 507.956 360.78Z" fill="#3F3D56"/>
<path d="M488.845 367.144C492.043 367.144 494.636 364.554 494.636 361.359C494.636 358.164 492.043 355.574 488.845 355.574C485.646 355.574 483.053 358.164 483.053 361.359C483.053 364.554 485.646 367.144 488.845 367.144Z" fill="#3F3D56"/>
<path d="M502.165 385.655C505.363 385.655 507.956 383.065 507.956 379.87C507.956 376.675 505.363 374.085 502.165 374.085C498.966 374.085 496.374 376.675 496.374 379.87C496.374 383.065 498.966 385.655 502.165 385.655Z" fill="#3F3D56"/>
<path d="M441.355 280.373C444.554 280.373 447.147 277.783 447.147 274.588C447.147 271.393 444.554 268.803 441.355 268.803C438.157 268.803 435.564 271.393 435.564 274.588C435.564 277.783 438.157 280.373 441.355 280.373Z" fill="#3F3D56"/>
<path d="M529.964 412.843H7V414H529.964V412.843Z" fill="#2F2E41"/>
<path d="M96.7293 293.057L47.5774 264.712L19.1995 313.807L68.3514 342.152L96.7293 293.057Z" fill="#F2F2F2"/>
<path d="M69.5472 352.024C67.0273 352.024 64.5639 351.277 62.4687 349.879C60.3734 348.481 58.7404 346.493 57.776 344.168C56.8117 341.842 56.5594 339.283 57.051 336.815C57.5426 334.346 58.7561 332.078 60.5379 330.298C62.3198 328.519 64.5901 327.307 67.0616 326.815C69.5331 326.324 72.0949 326.576 74.4231 327.54C76.7512 328.503 78.7411 330.134 80.1411 332.227C81.5411 334.32 82.2883 336.78 82.2883 339.297C82.2845 342.671 80.9409 345.906 78.5523 348.292C76.1638 350.678 72.9252 352.02 69.5472 352.024ZM69.5472 327.728C67.2564 327.728 65.017 328.406 63.1122 329.678C61.2074 330.949 59.7228 332.756 58.8461 334.87C57.9695 336.984 57.7401 339.31 58.187 341.554C58.6339 343.799 59.7371 345.86 61.357 347.478C62.9768 349.096 65.0407 350.198 67.2875 350.645C69.5344 351.091 71.8633 350.862 73.9798 349.986C76.0963 349.11 77.9053 347.628 79.178 345.725C80.4507 343.822 81.1301 341.586 81.1301 339.297C81.1266 336.23 79.9052 333.289 77.7338 331.12C75.5623 328.951 72.6181 327.731 69.5472 327.728Z" fill="#3F3D56"/>
</g>
<defs>
<clipPath id="clip0">
<rect width="550" height="450" fill="white"/>
</clipPath>
</defs>
</svg>
