<svg width="550" height="450" viewBox="0 0 550 450" fill="none" xmlns="http://www.w3.org/2000/svg">
<path opacity="0.1" d="M271.576 425.603C386.745 425.603 480.108 419.081 480.108 411.036C480.108 402.991 386.745 396.469 271.576 396.469C156.406 396.469 63.0432 402.991 63.0432 411.036C63.0432 419.081 156.406 425.603 271.576 425.603Z" fill="#60A3D9"/>
<path opacity="0.1" d="M541.597 344.164C539.326 347.543 536.538 350.57 533.33 353.143C532.447 353.848 531.531 354.533 530.601 355.173C518.689 363.439 502.739 367.071 487.244 369.425C457.161 373.993 426.45 374.883 395.868 375.754C370.121 376.495 344.359 377.236 318.601 377.728C281.785 378.441 244.965 378.654 208.206 377.728C188.113 377.218 168.035 376.319 147.973 375.031C110.75 372.571 72.567 368.225 40.163 353.046C34.2335 350.308 28.5669 347.068 23.2297 343.363C14.4297 337.168 7.18356 329.671 3.3087 320.794C-2.9256 306.523 0.368987 290.488 7.49048 276.495C11.8065 268.035 17.4126 260.112 23.2297 252.259C26.6729 247.597 30.1929 242.964 33.5403 238.261C33.8904 237.798 34.2308 237.302 34.5665 236.82C35.2139 235.894 35.8566 234.967 36.4848 234.041C39.1128 230.135 41.6017 226.104 43.8844 221.994C46.1599 217.894 48.2167 213.685 50.0468 209.382C51.7253 205.451 53.1664 201.428 54.3628 197.336C55.1589 194.579 55.8303 191.813 56.3482 189.047C59.1824 173.984 57.6862 158.931 49.2939 145.304C49.2123 145.17 49.126 145.026 49.0397 144.892L48.9342 144.73C46.5652 140.972 43.707 137.432 40.8967 133.878C37.5398 129.616 34.2356 125.325 31.9098 120.632C25.7906 108.229 27.1141 94.2824 29.3393 81.0359C32.3078 63.4295 37.8323 44.433 54.9383 33.4568C72.7061 22.0312 97.931 22.6103 119.986 26.6969C154.256 33.0306 185.902 46.3142 217.855 58.3004C249.808 70.2867 283.262 81.249 318.395 82.4213C349.418 83.4637 385.601 75.6798 406.188 55.4324C426.186 35.7735 463.779 34.2769 490.884 46.1659C516.742 57.4942 533.464 81.4761 532.208 105.421C530.376 140.295 495.588 167.043 474.833 197.558C473.903 198.92 472.996 200.315 472.133 201.728C463.98 215.039 458.959 230.325 464.973 244.183C473.039 262.748 496.989 271.806 517.188 283.468C526.942 289.098 535.843 295.339 541.597 303.567C541.813 303.864 542.01 304.156 542.207 304.448C550.326 316.587 549.712 332.09 541.597 344.164Z" fill="#60A3D9"/>
<path opacity="0.3" d="M36.4803 234.031C39.1083 230.125 41.5973 226.094 43.88 221.984C46.1568 217.888 48.2152 213.682 50.0471 209.382C51.7257 205.45 53.1668 201.428 54.3632 197.335C55.1593 194.579 55.8307 191.813 56.3486 189.046C59.1828 173.984 57.6866 158.93 49.2942 145.304C49.2127 145.169 49.1264 145.026 49.0401 144.891L40.8875 133.878H101.384V172.686H118.212V289.097H139.927V251.336H165.981V289.097H187.681V224.588H188.765V191.025H209.386V224.588H257.156V274.933H283.757V259.18H300.062V274.933H326.658V125.992H361.398V102.39H367.368V125.992H377.137V172.668H394.512V133.86H409.167V94.0134H439.562V133.86H454.222V172.668H472.133V201.723C463.981 215.035 458.96 230.32 464.974 244.178C473.04 262.743 496.989 271.801 517.188 283.463C526.943 289.097 535.843 295.338 541.598 303.567V344.178C539.325 347.551 536.538 350.574 533.33 353.143C532.448 353.847 531.532 354.533 530.602 355.173C518.689 363.438 502.739 367.071 487.244 369.424C457.162 373.993 426.45 374.882 395.869 375.753C370.121 376.495 344.359 377.236 318.602 377.727H208.197C188.103 377.218 168.026 376.319 147.964 375.031C110.74 372.57 72.5578 368.224 40.1538 353.046C34.2243 350.308 28.5576 347.067 23.2205 343.362V252.258C26.6637 247.597 30.1837 242.964 33.531 238.261L36.4803 234.031Z" fill="#5E5A6B"/>
<path opacity="0.4" d="M56.3293 189.028V197.317H54.363C55.1399 194.56 55.8017 191.794 56.3293 189.028Z" fill="white"/>
<path opacity="0.4" d="M84.5564 197.317H107.355V184.728H84.5564V197.317Z" fill="white"/>
<path opacity="0.4" d="M56.3295 209.382V221.966H43.8608C46.1436 217.876 48.2084 213.676 50.0472 209.382H56.3295Z" fill="white"/>
<path opacity="0.4" d="M84.5564 221.966H107.355V209.377H84.5564V221.966Z" fill="white"/>
<path opacity="0.4" d="M36.4803 234.026H56.3294V246.615H33.531V238.261L36.4803 234.026Z" fill="white"/>
<path opacity="0.4" d="M84.5564 246.615H107.355V234.026H84.5564V246.615Z" fill="white"/>
<path opacity="0.4" d="M56.3294 258.68H33.531V271.269H56.3294V258.68Z" fill="white"/>
<path opacity="0.4" d="M84.5564 271.264H107.355V258.675H84.5564V271.264Z" fill="white"/>
<path opacity="0.4" d="M56.3294 283.329H33.531V295.918H56.3294V283.329Z" fill="white"/>
<path opacity="0.4" d="M84.5564 295.913H107.355V283.324H84.5564V295.913Z" fill="white"/>
<path opacity="0.4" d="M56.3294 307.978H33.531V320.567H56.3294V307.978Z" fill="white"/>
<path opacity="0.4" d="M84.5564 320.562H107.355V307.973H84.5564V320.562Z" fill="white"/>
<path opacity="0.4" d="M56.3294 332.627H33.531V345.216H56.3294V332.627Z" fill="white"/>
<path opacity="0.4" d="M84.5564 345.211H107.355V332.622H84.5564V345.211Z" fill="white"/>
<path opacity="0.4" d="M179.553 301.681H126.355V307.973H179.553V301.681Z" fill="white"/>
<path opacity="0.4" d="M179.553 311.124H126.355V317.416H179.553V311.124Z" fill="white"/>
<path opacity="0.4" d="M179.553 320.562H126.355V326.854H179.553V320.562Z" fill="white"/>
<path opacity="0.4" d="M318.515 304.832H265.318V311.124H318.515V304.832Z" fill="white"/>
<path opacity="0.4" d="M318.515 314.27H265.318V320.562H318.515V314.27Z" fill="white"/>
<path opacity="0.4" d="M318.515 323.708H265.318V330H318.515V323.708Z" fill="white"/>
<path opacity="0.4" d="M179.553 330.005H126.355V336.297H179.553V330.005Z" fill="white"/>
<path opacity="0.4" d="M179.553 339.443H126.355V345.734H179.553V339.443Z" fill="white"/>
<path opacity="0.4" d="M179.553 348.885H126.355V355.177H179.553V348.885Z" fill="white"/>
<path opacity="0.4" d="M213.745 236.653H199.09V255.01H213.745V236.653Z" fill="white"/>
<path opacity="0.4" d="M231.12 255.006H245.775V236.649H231.12V255.006Z" fill="white"/>
<path opacity="0.4" d="M213.745 266.019H199.09V284.376H213.745V266.019Z" fill="white"/>
<path opacity="0.4" d="M231.12 284.376H245.775V266.019H231.12V284.376Z" fill="white"/>
<path opacity="0.4" d="M213.745 295.389H199.09V313.746H213.745V295.389Z" fill="white"/>
<path opacity="0.4" d="M231.12 313.746H245.775V295.389H231.12V313.746Z" fill="white"/>
<path opacity="0.4" d="M213.745 324.76H199.09V343.117H213.745V324.76Z" fill="white"/>
<path opacity="0.4" d="M231.12 343.117H245.775V324.76H231.12V343.117Z" fill="white"/>
<path opacity="0.4" d="M346.196 138.057H326.654V162.183H346.196V138.057Z" fill="white"/>
<path opacity="0.4" d="M346.196 172.668H326.654V196.793H346.196V172.668Z" fill="white"/>
<path opacity="0.4" d="M346.196 207.283H326.654V231.409H346.196V207.283Z" fill="white"/>
<path opacity="0.4" d="M346.196 241.898H326.654V266.024H346.196V241.898Z" fill="white"/>
<path opacity="0.4" d="M346.196 276.509H326.654V300.634H346.196V276.509Z" fill="white"/>
<path opacity="0.4" d="M346.196 311.124H326.654V335.249H346.196V311.124Z" fill="white"/>
<path opacity="0.4" d="M461.008 187.355H388.268V207.807H461.008V187.355Z" fill="white"/>
<path opacity="0.4" d="M461.276 231.409H388.536V251.86H461.276V231.409Z" fill="white"/>
<path opacity="0.4" d="M461.549 275.462H388.81V295.913H461.549V275.462Z" fill="white"/>
<path opacity="0.4" d="M461.818 319.515H389.078V339.966H461.818V319.515Z" fill="white"/>
<path opacity="0.4" d="M49.2749 144.873V145.285C49.1934 145.151 49.1071 145.007 49.0208 144.873H49.2749Z" fill="white"/>
<path opacity="0.4" d="M541.598 303.567V311.138H517.188V283.477C526.942 289.097 535.843 295.338 541.598 303.567Z" fill="white"/>
<path opacity="0.4" d="M541.598 324.76V344.164C539.326 347.542 536.539 350.57 533.33 353.143C532.448 353.847 531.532 354.533 530.602 355.173H517.174V324.76H541.598Z" fill="white"/>
<path opacity="0.1" d="M166.897 119.01H163.161C163.854 119.01 164.519 118.744 165.009 118.27C165.499 117.797 165.775 117.154 165.775 116.485C165.775 115.815 165.499 115.173 165.009 114.699C164.519 114.226 163.854 113.96 163.161 113.96H132.906C132.212 113.96 131.548 114.226 131.057 114.699C130.567 115.173 130.292 115.815 130.292 116.485C130.292 117.154 130.567 117.797 131.057 118.27C131.548 118.744 132.212 119.01 132.906 119.01H136.641C135.967 119.038 135.33 119.316 134.863 119.787C134.396 120.258 134.135 120.885 134.135 121.537C134.135 122.19 134.396 122.817 134.863 123.287C135.33 123.758 135.967 124.037 136.641 124.065H131.414C130.721 124.065 130.056 124.331 129.566 124.804C129.076 125.278 128.801 125.92 128.801 126.59C128.801 127.26 129.076 127.902 129.566 128.375C130.056 128.849 130.721 129.115 131.414 129.115H161.665C162.358 129.115 163.023 128.849 163.513 128.375C164.003 127.902 164.279 127.26 164.279 126.59C164.279 125.92 164.003 125.278 163.513 124.804C163.023 124.331 162.358 124.065 161.665 124.065H166.897C167.571 124.037 168.209 123.758 168.676 123.287C169.143 122.817 169.403 122.19 169.403 121.537C169.403 120.885 169.143 120.258 168.676 119.787C168.209 119.316 167.571 119.038 166.897 119.01Z" fill="#60A3D9"/>
<path opacity="0.1" d="M300.431 182.467H296.695C297.388 182.467 298.053 182.201 298.543 181.728C299.033 181.254 299.309 180.612 299.309 179.942C299.309 179.272 299.033 178.63 298.543 178.157C298.053 177.683 297.388 177.417 296.695 177.417H266.44C265.746 177.417 265.082 177.683 264.591 178.157C264.101 178.63 263.826 179.272 263.826 179.942C263.826 180.612 264.101 181.254 264.591 181.728C265.082 182.201 265.746 182.467 266.44 182.467H270.166C269.491 182.495 268.854 182.774 268.387 183.245C267.92 183.716 267.659 184.343 267.659 184.995C267.659 185.647 267.92 186.274 268.387 186.745C268.854 187.216 269.491 187.494 270.166 187.522H264.939C264.595 187.522 264.255 187.587 263.938 187.714C263.621 187.841 263.333 188.027 263.09 188.262C262.848 188.496 262.655 188.775 262.524 189.081C262.393 189.387 262.325 189.716 262.325 190.047C262.325 190.379 262.393 190.707 262.524 191.014C262.655 191.32 262.848 191.598 263.09 191.833C263.333 192.067 263.621 192.253 263.938 192.38C264.255 192.507 264.595 192.572 264.939 192.572H295.199C295.892 192.572 296.557 192.306 297.047 191.833C297.537 191.359 297.813 190.717 297.813 190.047C297.813 189.378 297.537 188.735 297.047 188.262C296.557 187.788 295.892 187.522 295.199 187.522H300.431C301.105 187.494 301.743 187.216 302.21 186.745C302.677 186.274 302.937 185.647 302.937 184.995C302.937 184.343 302.677 183.716 302.21 183.245C301.743 182.774 301.105 182.495 300.431 182.467Z" fill="#60A3D9"/>
<path opacity="0.1" d="M527.873 99.6057H524.137C524.83 99.6057 525.495 99.3397 525.985 98.8661C526.475 98.3926 526.751 97.7503 526.751 97.0806C526.751 96.4109 526.475 95.7686 525.985 95.2951C525.495 94.8215 524.83 94.5555 524.137 94.5555H493.882C493.188 94.5555 492.524 94.8215 492.034 95.2951C491.543 95.7686 491.268 96.4109 491.268 97.0806C491.268 97.7503 491.543 98.3926 492.034 98.8661C492.524 99.3397 493.188 99.6057 493.882 99.6057H497.617C496.924 99.6057 496.259 99.8718 495.769 100.345C495.279 100.819 495.004 101.461 495.004 102.131C495.004 102.801 495.279 103.443 495.769 103.916C496.259 104.39 496.924 104.656 497.617 104.656H492.39C491.716 104.684 491.079 104.962 490.612 105.433C490.144 105.904 489.884 106.531 489.884 107.183C489.884 107.836 490.144 108.463 490.612 108.934C491.079 109.405 491.716 109.683 492.39 109.711H522.641C522.994 109.726 523.346 109.671 523.677 109.551C524.007 109.43 524.309 109.246 524.564 109.01C524.82 108.774 525.023 108.49 525.161 108.177C525.3 107.863 525.371 107.525 525.371 107.183C525.371 106.842 525.3 106.504 525.161 106.19C525.023 105.876 524.82 105.593 524.564 105.357C524.309 105.121 524.007 104.937 523.677 104.816C523.346 104.696 522.994 104.641 522.641 104.656H527.873C528.566 104.656 529.231 104.39 529.721 103.916C530.211 103.443 530.487 102.801 530.487 102.131C530.487 101.461 530.211 100.819 529.721 100.345C529.231 99.8718 528.566 99.6057 527.873 99.6057Z" fill="#60A3D9"/>
<path d="M429.86 398.484L421.108 407.612C421.108 407.612 413.008 407.7 414.595 403.382C414.907 402.447 415.132 401.487 415.267 400.514C415.668 397.44 415.859 394.345 415.837 391.247C415.837 389.222 415.804 387.805 415.804 387.805C415.804 387.805 428.555 382.407 427.251 388.027C427.083 388.743 426.993 389.475 426.982 390.209C426.973 392.29 427.466 394.344 428.421 396.209C428.823 397.011 429.305 397.773 429.86 398.484Z" fill="#ECB4B6"/>
<path opacity="0.1" d="M429.86 398.484L421.108 407.612C421.108 407.612 413.008 407.7 414.595 403.382C414.907 402.447 415.132 401.487 415.267 400.514C416.422 401.375 418.087 403.924 418.087 403.924C418.087 403.924 423.669 405.499 425.203 400.778C426.066 398.137 427.419 396.83 428.45 396.191C428.842 396.998 429.314 397.766 429.86 398.484Z" fill="black"/>
<path d="M450.16 412.231C447.196 414.687 443.402 416.006 439.499 415.938C432.282 415.836 418.791 415.632 415.66 415.507C411.469 415.331 412.859 411.875 412.994 409.484C412.994 409.4 412.994 409.322 412.994 409.243C413.042 406.861 413.555 401.691 414.375 400.903C415.195 400.115 418.072 404.498 418.072 404.498C418.072 404.498 423.654 406.074 425.189 401.352C426.723 396.631 429.86 396.145 429.86 396.145C431.298 395.551 431.351 399.11 431.351 399.11L443.172 405.003L450.107 406.06C450.332 406.157 450.534 406.259 450.726 406.356C453.838 408.034 452.457 410.313 450.16 412.231Z" fill="#60A3D9"/>
<path opacity="0.25" d="M428.316 403.159C428.599 403.159 428.829 402.937 428.829 402.664C428.829 402.39 428.599 402.168 428.316 402.168C428.032 402.168 427.803 402.39 427.803 402.664C427.803 402.937 428.032 403.159 428.316 403.159Z" fill="white"/>
<path opacity="0.25" d="M433.111 405.453C433.395 405.453 433.624 405.231 433.624 404.957C433.624 404.683 433.395 404.461 433.111 404.461C432.828 404.461 432.598 404.683 432.598 404.957C432.598 405.231 432.828 405.453 433.111 405.453Z" fill="white"/>
<path opacity="0.25" d="M435.582 406.523C435.865 406.523 436.095 406.301 436.095 406.027C436.095 405.754 435.865 405.532 435.582 405.532C435.298 405.532 435.068 405.754 435.068 406.027C435.068 406.301 435.298 406.523 435.582 406.523Z" fill="white"/>
<path opacity="0.25" d="M440.698 408.423C440.982 408.423 441.211 408.201 441.211 407.927C441.211 407.653 440.982 407.431 440.698 407.431C440.415 407.431 440.185 407.653 440.185 407.927C440.185 408.201 440.415 408.423 440.698 408.423Z" fill="white"/>
<path opacity="0.25" d="M438.094 407.612C438.378 407.612 438.607 407.39 438.607 407.116C438.607 406.842 438.378 406.62 438.094 406.62C437.811 406.62 437.581 406.842 437.581 407.116C437.581 407.39 437.811 407.612 438.094 407.612Z" fill="white"/>
<path d="M450.16 412.231C447.196 414.687 443.402 416.006 439.499 415.938C432.282 415.836 418.791 415.632 415.66 415.507C411.469 415.331 412.859 411.874 412.994 409.484L439.302 411.059C439.302 411.059 450.078 409.479 450.721 406.379C453.838 408.033 452.457 410.313 450.16 412.231Z" fill="#60A3D9"/>
<path opacity="0.25" d="M450.16 412.129C447.192 414.575 443.399 415.884 439.499 415.808C432.282 415.706 418.791 415.507 415.66 415.377C411.469 415.201 412.859 411.745 412.994 409.354L439.302 410.925C439.302 410.925 450.078 409.345 450.721 406.245C453.838 407.932 452.457 410.211 450.16 412.129Z" fill="white"/>
<path d="M401.182 375.55C400.213 376.311 399.328 377.166 398.54 378.102C395.931 381.035 392.703 385.423 391.102 387.642C390.483 388.504 390.104 389.032 390.104 389.032L386.613 388.532C386.613 388.532 382.844 382.972 382.892 382.824C382.94 382.676 385.87 376.708 385.87 376.708L387.006 375.424L390.584 371.384L392.2 369.559C392.2 369.559 404.347 373.344 401.182 375.55Z" fill="#ECB4B6"/>
<path opacity="0.1" d="M391.102 387.643C390.483 388.504 390.104 389.033 390.104 389.033L386.613 388.532C386.613 388.532 382.844 382.972 382.892 382.824C382.94 382.676 385.87 376.708 385.87 376.708L387.006 375.425L387.38 375.489H388.263C385.146 378.635 388.498 385.562 388.498 385.562C388.498 385.562 389.946 385.701 391.102 387.643Z" fill="black"/>
<path d="M387.179 394.699C387.179 394.699 384.848 399.555 383.592 402.344C382.335 405.133 382.801 407.158 382.801 407.158C382.712 407.519 382.578 407.869 382.403 408.2C381.955 409.057 381.276 409.781 380.436 410.294C379.597 410.807 378.629 411.091 377.636 411.115C377.561 411.122 377.485 411.122 377.41 411.115C373.185 411.008 371.833 399.105 371.833 399.105C371.833 399.105 372.48 376.444 373.694 375.012C373.859 374.848 374.074 374.738 374.308 374.697C375.541 374.491 376.8 374.458 378.043 374.6C381.88 374.864 386.819 375.777 386.819 375.777H387.702C384.585 378.923 387.932 385.849 387.932 385.849C387.932 385.849 389.423 385.984 390.589 388.008C391.754 390.033 387.179 394.699 387.179 394.699Z" fill="#60A3D9"/>
<path opacity="0.25" d="M382.072 388.453C382.355 388.453 382.585 388.231 382.585 387.958C382.585 387.684 382.355 387.462 382.072 387.462C381.788 387.462 381.559 387.684 381.559 387.958C381.559 388.231 381.788 388.453 382.072 388.453Z" fill="white"/>
<path opacity="0.25" d="M381.817 392.378C382.101 392.378 382.33 392.156 382.33 391.882C382.33 391.608 382.101 391.386 381.817 391.386C381.534 391.386 381.304 391.608 381.304 391.882C381.304 392.156 381.534 392.378 381.817 392.378Z" fill="white"/>
<path d="M382.072 408.117C381.496 409.215 380.153 410.823 377.305 411.031H377.108C372.864 410.925 371.512 399.022 371.512 399.022C371.512 399.022 372.164 376.36 373.372 374.929C373.539 374.765 373.753 374.655 373.986 374.614C375.222 374.408 376.482 374.375 377.727 374.516C377.655 378.584 377.458 391.465 377.727 392.744C377.995 394.022 380.384 404.688 382.072 408.117Z" fill="#60A3D9"/>
<path opacity="0.25" d="M382.383 408.2C381.936 409.058 381.257 409.781 380.417 410.295C379.578 410.808 378.61 411.091 377.616 411.115C377.541 411.122 377.466 411.122 377.391 411.115C373.147 411.008 371.799 399.105 371.799 399.105C371.799 399.105 372.452 376.444 373.66 375.012C373.826 374.849 374.041 374.739 374.274 374.697C375.509 374.491 376.769 374.458 378.014 374.6C377.943 378.668 377.741 391.548 378.014 392.827C378.288 394.106 380.69 404.772 382.383 408.2Z" fill="white"/>
<path d="M377.108 411.031C372.864 410.925 371.512 399.022 371.512 399.022C371.512 399.022 372.164 376.361 373.372 374.929C373.539 374.765 373.753 374.655 373.986 374.614C374.878 375.893 375.66 378.723 374.945 384.955C373.622 396.761 375.219 397.502 375.219 397.502C375.219 397.502 377.18 407.51 377.108 411.031Z" fill="#60A3D9"/>
<path opacity="0.1" d="M377.051 411.031C372.792 410.925 371.454 399.013 371.454 399.013C371.454 399.013 372.106 376.351 373.315 374.92C373.481 374.756 373.695 374.646 373.929 374.604C374.821 375.883 375.598 378.714 374.888 384.946C373.564 396.752 375.161 397.493 375.161 397.493C375.161 397.493 377.147 407.51 377.051 411.031Z" fill="black"/>
<path opacity="0.1" d="M465.909 250.521C465.353 250.854 464.736 251.081 464.091 251.188C461.693 251.253 459.775 245.049 459.775 245.049C459.775 245.049 460.451 244.386 461.525 243.46C462.269 245.155 464.412 249.682 465.909 250.521Z" fill="black"/>
<path opacity="0.1" d="M401.182 375.55C400.213 376.311 399.328 377.166 398.54 378.103C394.334 376.397 391.615 372.923 390.584 371.394L392.2 369.568C392.2 369.568 404.347 373.344 401.182 375.55Z" fill="black"/>
<path d="M421.103 337.279C421.103 337.279 414.274 346.082 411.78 347.083C409.287 348.084 390.68 370.106 390.68 370.106C390.68 370.106 394.67 377.236 402.045 378.381C402.045 378.381 406.05 376.852 407.536 373.437C409.023 370.022 420.748 360.394 420.748 360.394L421.103 337.279Z" fill="#5E5A6B"/>
<path opacity="0.1" d="M421.103 337.279C421.103 337.279 414.274 346.082 411.78 347.083C409.287 348.084 390.68 370.106 390.68 370.106C390.68 370.106 394.67 377.236 402.045 378.381C402.045 378.381 406.05 376.852 407.536 373.437C409.023 370.022 420.748 360.394 420.748 360.394L421.103 337.279Z" fill="black"/>
<path opacity="0.1" d="M400.415 366.802C402.487 367.015 404.577 367.015 406.649 366.802C410.332 366.464 407.537 368.623 400.415 366.802Z" fill="black"/>
<path opacity="0.1" d="M398.741 369.095C398.741 369.095 403.628 371.792 405.513 370.444C407.397 369.095 403.695 371.746 398.741 369.095Z" fill="black"/>
<path opacity="0.1" d="M427.246 388.05C427.081 388.759 426.993 389.483 426.983 390.209C423.208 393.518 418.667 392.498 415.828 391.289C415.828 389.264 415.794 387.846 415.794 387.846C415.794 387.846 428.551 382.43 427.246 388.05Z" fill="black"/>
<path d="M449.867 270.726L449.728 273.215L448.563 294.111C448.563 294.111 447.604 298.786 448.002 307.779C448.4 316.772 442.808 330.982 442.808 330.982C442.808 330.982 440.108 340.61 439.269 345.016C438.43 349.423 435.826 350.771 435.826 350.771C435.826 350.771 436.478 355.719 434.617 357.424C432.756 359.129 432.665 362.011 432.665 362.011C432.665 362.011 429.788 377.482 428.829 379.011C427.87 380.54 427.989 388.634 427.989 388.634C421.937 395.561 413.094 389.264 413.094 389.264L413.185 367.59C413.185 367.59 415.703 347.625 417.564 344.836C419.424 342.046 419.424 334.402 419.424 334.402L418.595 316.596C418.595 316.596 417.933 314.705 418.504 313.626C419.074 312.546 416.912 309.59 416.912 309.59C411.699 303.474 410.955 289.714 412.466 287.012C413.977 284.311 418.504 273.525 418.504 273.525L424.738 270.013L435.993 270.337L449.867 270.726Z" fill="#5E5A6B"/>
<path opacity="0.1" d="M423.386 376.717C423.386 376.717 424.858 381.642 426.043 382.18C427.227 382.717 423.386 376.717 423.386 376.717Z" fill="black"/>
<path opacity="0.1" d="M425.41 360.325C425.41 360.325 429.246 363.234 430.824 363.225C432.402 363.216 425.41 360.325 425.41 360.325Z" fill="black"/>
<path d="M448.381 238.572V244.507L444.324 242.82L440.281 241.134L431.486 232.771C431.486 232.771 424.527 228.401 420.801 224.431C418.672 222.16 417.598 220.015 419.478 218.871C420.383 218.295 421.201 217.601 421.909 216.809C423.782 214.678 425.411 212.357 426.767 209.887L426.94 209.586C428.752 206.37 429.947 203.627 429.947 203.627C429.947 203.627 435.049 205.207 438.334 207.445C438.598 207.621 438.847 207.807 439.087 207.997C440.919 209.447 441.825 211.124 440.142 212.801C439.707 213.236 439.304 213.7 438.938 214.191C438.666 214.554 438.417 214.933 438.195 215.326C438.094 215.502 437.998 215.679 437.907 215.85C436.777 218.084 436.387 220.599 436.79 223.055L448.381 238.572Z" fill="#ECB4B6"/>
<path opacity="0.1" d="M440.142 212.806C439.706 213.241 439.304 213.705 438.938 214.196C438.665 214.559 438.417 214.938 438.195 215.331C438.094 215.507 437.998 215.683 437.907 215.855C435.755 215.74 433.656 215.167 431.76 214.177C429.864 213.187 428.218 211.804 426.939 210.128C426.875 210.051 426.818 209.972 426.767 209.892L426.939 209.59C428.752 206.375 429.946 203.632 429.946 203.632C429.946 203.632 435.049 205.212 438.334 207.45C438.597 207.626 438.847 207.811 439.087 208.001C440.918 209.451 441.849 211.129 440.142 212.806Z" fill="black"/>
<path d="M453.392 201.172C453.396 203.033 453.019 204.876 452.283 206.596C451.547 208.315 450.468 209.878 449.106 211.194C447.744 212.51 446.126 213.553 444.346 214.264C442.566 214.974 440.658 215.339 438.732 215.336H438.67C438.512 215.336 438.349 215.336 438.19 215.336C435.385 215.236 432.668 214.359 430.362 212.811C428.057 211.263 426.261 209.108 425.186 206.601C424.112 204.095 423.805 201.344 424.302 198.674C424.799 196.004 426.079 193.529 427.99 191.541C429.9 189.554 432.362 188.139 435.081 187.463C437.8 186.788 440.663 186.881 443.329 187.732C445.995 188.583 448.352 190.156 450.12 192.263C451.887 194.37 452.992 196.924 453.301 199.62C453.361 200.135 453.391 200.653 453.392 201.172Z" fill="#ECB4B6"/>
<path opacity="0.1" d="M440.655 236.19C440.655 236.19 448.04 240.216 446.146 236.82L436.511 223.059L447.45 236.639C447.45 236.639 454.433 245.906 450.615 252.286C450.615 252.286 450.054 257.596 450.706 258.851C451.359 260.107 450.519 273.516 450.519 273.516C450.519 273.516 447.915 271.199 446.52 271.625C445.124 272.052 435.255 272.886 435.255 272.886L440.655 236.19Z" fill="black"/>
<path opacity="0.1" d="M449.867 270.726L449.728 273.215C448.846 272.594 447.613 271.899 446.798 272.163C445.403 272.626 435.533 273.423 435.533 273.423L435.989 270.328L449.867 270.726Z" fill="black"/>
<path d="M440.933 236.19C440.933 236.19 448.318 240.216 446.424 236.82L436.79 223.059L447.728 236.639C447.728 236.639 454.711 245.906 450.894 252.286C450.894 252.286 450.337 257.596 450.985 258.851C451.632 260.107 450.802 273.516 450.802 273.516C450.802 273.516 448.194 271.199 446.798 271.625C445.403 272.052 435.533 272.886 435.533 272.886L440.933 236.19Z" fill="#464353"/>
<path opacity="0.1" d="M444.88 243.089C444.448 247.412 442.607 252.555 442.607 252.555C442.607 252.555 441.307 265.329 439.629 269.109C437.95 272.89 438.698 278.103 437.768 287.726C437.432 291.187 436.277 293.568 434.718 295.176C432.157 297.817 428.484 298.369 425.606 298.206C425.371 298.206 425.127 298.179 424.921 298.155C420.264 297.692 415.809 276.032 415.809 276.032C415.809 276.032 413.67 257.596 414.505 255.075C415.339 252.555 413.67 238.168 413.109 235.018C412.754 233.026 413.824 229.764 414.648 227.646C415.128 226.418 415.531 225.575 415.531 225.575C415.531 225.575 417.113 220.72 419.717 218.204C420.076 217.847 420.506 217.564 420.981 217.372C421.455 217.179 421.965 217.081 422.48 217.082C423.705 217.126 424.895 217.486 425.928 218.125L426.048 218.204C426.048 218.204 442.99 234.93 444.573 238.799C445.005 239.873 445.048 241.421 444.88 243.089Z" fill="black"/>
<path d="M444.324 242.82C443.892 247.143 442.051 252.286 442.051 252.286C442.051 252.286 440.746 265.06 439.073 268.836C437.399 272.612 438.113 277.829 437.212 287.453C436.876 290.918 435.72 293.3 434.162 294.908C431.596 297.549 427.928 298.1 425.05 297.938L424.369 297.887C419.713 297.423 415.258 275.763 415.258 275.763C415.258 275.763 413.119 257.322 413.958 254.807C414.797 252.291 413.119 237.9 412.562 234.749C412.207 232.757 413.272 229.495 414.102 227.373C414.581 226.15 414.979 225.306 414.979 225.306C414.979 225.306 416.562 220.451 419.171 217.93C419.53 217.575 419.959 217.294 420.432 217.102C420.906 216.91 421.415 216.812 421.928 216.814C423.155 216.857 424.347 217.217 425.381 217.856L425.501 217.93C425.501 217.93 442.444 234.661 444.022 238.525C444.444 239.628 444.492 241.152 444.324 242.82Z" fill="#60A3D9"/>
<path opacity="0.1" d="M425.343 308.664C425.343 308.664 421.506 311.967 420.173 311.833C418.84 311.699 425.343 308.664 425.343 308.664Z" fill="black"/>
<path opacity="0.1" d="M426.364 311.833C426.364 311.833 422.316 313.649 421.089 313.918C419.861 314.187 424.8 311.365 426.364 311.833Z" fill="black"/>
<path opacity="0.1" d="M442.026 262.183C442.026 262.183 448.03 262.248 448.937 264.068C449.843 265.889 443.983 261.441 442.026 262.183Z" fill="black"/>
<path opacity="0.1" d="M441.188 265.352C441.188 265.352 445.796 266.279 447.192 267.377C448.587 268.475 441.188 265.352 441.188 265.352Z" fill="black"/>
<path opacity="0.1" d="M433.442 254.357C433.442 254.357 432.886 272.635 430.824 274.998C428.762 277.361 433.442 254.357 433.442 254.357Z" fill="black"/>
<path opacity="0.1" d="M428.273 306.027C428.273 306.027 424.436 322.146 432.152 323.17C439.868 324.194 437.49 304.823 437.49 304.823L428.273 306.027Z" fill="black"/>
<path d="M427.994 305.754C427.994 305.754 424.158 321.878 431.869 322.897C439.581 323.916 437.212 304.549 437.212 304.549L427.994 305.754Z" fill="#ECB4B6"/>
<path opacity="0.1" d="M434.594 238.08C434.196 228.392 420.164 226.391 416.888 235.555C416.864 235.615 416.845 235.676 416.821 235.741C414.682 241.945 415.612 257.656 415.612 257.656C415.612 257.656 415.891 268.206 416.917 271.713C417.943 275.221 420.825 285.293 420.825 286.915C420.825 288.537 423.501 294.741 424.628 295.19C425.755 295.64 426.326 299.147 426.599 299.777C426.873 300.407 427.717 308.58 427.717 308.58C427.717 308.58 438.233 307.95 438.42 306.333C438.607 304.716 436.095 296.807 436.095 296.807C436.095 296.807 434.239 293.564 434.004 290.96C433.769 288.356 432.277 287.184 432.565 285.4C432.853 283.616 431.726 282.699 431.726 281.531C431.726 280.364 430.891 277.213 430.891 277.213C430.891 277.213 429.122 275.865 429.4 274.248C429.678 272.631 426.887 269.392 427.63 268.224C428.374 267.057 428.561 264.18 428.561 264.18C428.561 264.18 429.491 251.206 430.143 247.718C430.795 244.229 434.613 238.548 434.613 238.548C434.613 238.548 434.603 238.368 434.594 238.08Z" fill="black"/>
<path opacity="0.1" d="M434.176 294.908C431.611 297.548 427.942 298.1 425.065 297.938C424.734 296.71 424.244 295.204 423.53 294.917C422.403 294.453 419.727 288.263 419.727 286.646C419.727 285.029 416.85 274.952 415.819 271.445C414.788 267.937 414.514 257.387 414.514 257.387C414.514 257.387 413.555 241.676 415.708 235.458C415.708 235.393 415.747 235.333 415.771 235.268C419.046 226.103 433.078 228.11 433.476 237.798C433.476 238.085 433.476 238.261 433.476 238.261C433.476 238.261 429.64 243.928 429.011 247.435C428.383 250.942 427.424 263.892 427.424 263.892C427.424 263.892 427.237 266.774 426.494 267.942C425.75 269.109 428.541 272.348 428.263 273.965C427.985 275.582 429.75 276.93 429.75 276.93C429.75 276.93 430.589 280.076 430.589 281.249C430.589 282.421 431.706 283.315 431.428 285.117C431.15 286.92 432.642 288.083 432.867 290.677C433.078 292.144 433.519 293.57 434.176 294.908Z" fill="black"/>
<path d="M434.032 237.812C433.634 228.123 419.607 226.117 416.331 235.282C416.331 235.347 416.284 235.407 416.264 235.472C414.126 241.676 415.056 257.387 415.056 257.387C415.056 257.387 415.334 267.937 416.355 271.445C417.377 274.952 420.269 285.034 420.269 286.646C420.269 288.259 422.94 294.467 424.072 294.917C425.203 295.366 425.769 298.878 426.043 299.504C426.316 300.129 427.155 308.307 427.155 308.307C427.155 308.307 437.677 307.677 437.859 306.055C438.041 304.434 435.533 296.525 435.533 296.525C435.533 296.525 433.682 293.281 433.442 290.677C433.202 288.073 431.716 286.901 432.004 285.117C432.291 283.334 431.164 282.416 431.164 281.249C431.164 280.081 430.325 276.93 430.325 276.93C430.325 276.93 428.555 275.582 428.838 273.965C429.121 272.348 426.321 269.105 427.069 267.942C427.817 266.779 427.999 263.897 427.999 263.897C427.999 263.897 428.93 250.924 429.582 247.435C430.234 243.946 434.051 238.261 434.051 238.261C434.051 238.261 434.046 238.099 434.032 237.812Z" fill="#60A3D9"/>
<path opacity="0.1" d="M416.753 262.72C417.032 262.451 422.34 256.785 424.014 258.81C425.688 260.834 416.753 262.72 416.753 262.72Z" fill="black"/>
<path opacity="0.1" d="M417.243 267.103C417.449 266.904 422.547 266.7 423.803 263.934C425.059 261.168 417.243 267.103 417.243 267.103Z" fill="black"/>
<g opacity="0.1">
<path opacity="0.1" d="M411.435 217.388C411.562 217.53 411.656 217.696 411.713 217.875C411.818 217.566 411.847 217.238 411.799 216.917C411.751 216.595 411.626 216.289 411.435 216.021C411.186 215.743 410.821 215.581 410.596 215.289C410.596 215.266 410.567 215.238 410.548 215.211C410.422 215.43 410.36 215.679 410.368 215.931C410.376 216.182 410.455 216.426 410.596 216.638C410.821 216.925 411.186 217.092 411.435 217.388Z" fill="black"/>
<path opacity="0.1" d="M418.538 199.888C418.538 199.374 418.562 198.864 418.538 198.359C418.437 196.506 418.087 194.653 418.006 192.799C417.895 195.051 418.413 197.433 418.538 199.708V199.888Z" fill="black"/>
</g>
<path opacity="0.1" d="M455.234 199.439C455.027 198.471 454.207 197.762 453.642 196.937C452.232 194.884 452.452 192.169 453.109 189.788C453.351 189.138 453.454 188.448 453.411 187.758C453.317 187.323 453.131 186.911 452.863 186.549C452.596 186.187 452.253 185.882 451.858 185.655C450.126 184.557 447.906 184.543 445.964 183.848C443.139 182.838 440.583 180.35 437.639 180.952C436.027 181.281 434.79 182.486 433.399 183.334C431.862 184.27 430.094 184.793 428.278 184.849C426.753 184.895 425.213 184.608 423.712 184.849C423.442 184.895 423.178 184.965 422.921 185.057C421.644 184.637 420.303 184.431 418.955 184.446C417.632 184.416 416.33 184.768 415.214 185.456C413.186 186.846 412.644 189.51 412.677 191.905C412.711 194.301 413.128 196.77 412.366 199.05C411.407 201.89 408.759 204.054 408.222 206.991C407.858 208.988 408.539 211.004 409.148 212.945C410.893 218.505 412.049 224.676 409.733 230.056C409.143 231.418 408.261 232.766 406.855 233.392L411.776 233.109C411.829 233.445 411.813 233.788 411.729 234.118C411.645 234.447 411.494 234.758 411.286 235.032C411.077 235.306 410.815 235.537 410.514 235.712C410.213 235.888 409.879 236.005 409.531 236.056C410.772 235.98 411.992 235.709 413.143 235.254C413.717 235.023 414.225 234.66 414.621 234.196C415.018 233.733 415.293 233.183 415.42 232.595C415.516 231.951 415.372 231.279 415.56 230.658C415.881 229.588 416.998 228.999 417.933 228.314C420.331 226.507 421.473 223.462 421.564 220.52C421.655 217.578 420.849 214.687 419.986 211.861C419.123 209.034 418.197 206.194 418.068 203.252C418.012 202.176 418.115 201.098 418.375 200.051C418.552 200.37 418.749 200.685 418.955 200.977C420.144 202.729 421.535 204.392 422.264 206.366C422.521 207.301 422.868 208.212 423.3 209.085C423.808 209.919 424.738 210.61 425.741 210.475C426.743 210.341 427.472 209.294 427.803 208.312C428.134 207.329 428.282 206.259 428.891 205.421C430.061 203.836 432.402 203.692 434.416 203.753C438.66 203.882 444.515 204.503 447.844 201.353C448.477 200.755 448.803 199.842 449.762 200.064C450.644 200.264 451.138 201.654 452.083 201.964C453.627 202.478 455.584 201.088 455.234 199.439Z" fill="black"/>
<path d="M455.234 198.915C455.027 197.947 454.207 197.234 453.642 196.413C452.232 194.356 452.452 191.641 453.109 189.264C453.351 188.615 453.454 187.924 453.411 187.235C453.317 186.799 453.131 186.388 452.863 186.025C452.596 185.663 452.253 185.359 451.858 185.131C450.126 184.033 447.906 184.015 445.964 183.324C443.139 182.314 440.583 179.826 437.639 180.429C436.027 180.758 434.79 181.962 433.399 182.81C431.861 183.744 430.093 184.267 428.278 184.325C426.753 184.372 425.213 184.084 423.712 184.325C423.442 184.372 423.178 184.442 422.921 184.534C421.644 184.114 420.303 183.907 418.955 183.922C417.633 183.894 416.331 184.244 415.214 184.928C413.186 186.318 412.644 188.986 412.677 191.382C412.711 193.777 413.128 196.247 412.366 198.526C411.407 201.366 408.759 203.53 408.222 206.468C407.858 208.465 408.539 210.48 409.148 212.421C410.893 217.981 412.049 224.153 409.733 229.527C409.143 230.894 408.261 232.243 406.855 232.868L411.776 232.585C411.829 232.921 411.813 233.263 411.729 233.593C411.645 233.923 411.494 234.233 411.286 234.506C411.077 234.78 410.815 235.011 410.514 235.186C410.213 235.361 409.879 235.477 409.531 235.527C410.772 235.456 411.992 235.186 413.143 234.731C413.717 234.499 414.225 234.136 414.621 233.673C415.018 233.209 415.293 232.66 415.42 232.071C415.516 231.427 415.372 230.755 415.56 230.134C415.881 229.064 416.998 228.476 417.933 227.79C420.331 225.983 421.473 222.939 421.564 219.997C421.655 217.055 420.849 214.159 419.986 211.337C419.123 208.516 418.197 205.671 418.068 202.729C418.012 201.653 418.115 200.575 418.375 199.527C418.552 199.847 418.749 200.162 418.955 200.454C420.144 202.205 421.535 203.868 422.264 205.842C422.52 206.776 422.867 207.685 423.3 208.557C423.808 209.391 424.738 210.086 425.741 209.947C426.743 209.808 427.472 208.77 427.803 207.788C428.134 206.806 428.282 205.736 428.891 204.897C430.061 203.312 432.402 203.169 434.416 203.229C438.66 203.359 444.515 203.98 447.844 200.829C448.477 200.231 448.803 199.318 449.762 199.541C450.644 199.74 451.138 201.13 452.083 201.441C453.627 201.955 455.584 200.565 455.234 198.915Z" fill="#464353"/>
<g opacity="0.1">
<path opacity="0.1" d="M412.691 190.469C412.691 190.778 412.691 191.087 412.691 191.396C412.691 192.396 412.778 193.411 412.816 194.416C412.859 193.119 412.739 191.789 412.691 190.469Z" fill="black"/>
<path opacity="0.1" d="M411.013 221.98C411.143 218.273 410.27 214.451 409.148 210.86C408.697 209.574 408.376 208.249 408.189 206.903C407.982 208.756 408.601 210.61 409.148 212.435C410.187 215.527 410.814 218.735 411.013 221.98Z" fill="black"/>
<path opacity="0.1" d="M452.629 191.877C452.709 190.994 452.869 190.12 453.109 189.264C453.351 188.614 453.454 187.924 453.411 187.235C453.391 187.114 453.361 186.994 453.32 186.878C453.262 187.151 453.186 187.42 453.109 187.689C452.702 189.048 452.54 190.465 452.629 191.877Z" fill="black"/>
<path opacity="0.1" d="M411.79 231.033L408.817 231.2C408.336 231.921 407.664 232.503 406.87 232.886L411.512 232.622C411.791 232.139 411.889 231.578 411.79 231.033Z" fill="black"/>
<path opacity="0.1" d="M455.104 198.508C454.85 199.046 454.406 199.479 453.852 199.729C453.297 199.98 452.668 200.031 452.078 199.874C451.119 199.564 450.639 198.174 449.757 197.975C448.798 197.752 448.472 198.67 447.839 199.267C444.515 202.413 438.66 201.793 434.411 201.663C432.397 201.603 430.057 201.746 428.886 203.331C428.263 204.169 428.124 205.244 427.798 206.227C427.472 207.209 426.791 208.228 425.736 208.386C424.681 208.543 423.817 207.844 423.295 206.996C422.864 206.123 422.517 205.214 422.259 204.281C421.53 202.307 420.139 200.639 418.95 198.888C418.744 198.591 418.547 198.276 418.37 197.961C418.11 199.01 418.007 200.09 418.063 201.167C418.063 201.241 418.063 201.32 418.063 201.394C418.101 200.769 418.197 200.149 418.35 199.541C418.528 199.861 418.725 200.176 418.931 200.467C420.12 202.219 421.511 203.882 422.24 205.856C422.496 206.79 422.843 207.699 423.276 208.571C423.784 209.405 424.714 210.1 425.717 209.961C426.719 209.822 427.448 208.784 427.779 207.802C428.11 206.82 428.258 205.749 428.867 204.911C430.037 203.326 432.378 203.183 434.392 203.243C438.636 203.373 444.491 203.993 447.82 200.843C448.453 200.245 448.779 199.332 449.738 199.555C450.62 199.754 451.114 201.144 452.059 201.454C453.608 201.959 455.564 200.569 455.214 198.92C455.187 198.78 455.15 198.643 455.104 198.508Z" fill="black"/>
<path opacity="0.1" d="M417.947 226.233C417.036 226.919 415.895 227.507 415.574 228.578C415.386 229.203 415.53 229.87 415.434 230.514C415.307 231.104 415.033 231.654 414.636 232.118C414.24 232.583 413.732 232.946 413.157 233.178C412.703 233.38 412.229 233.535 411.742 233.642C411.609 234.132 411.33 234.574 410.939 234.912C410.549 235.251 410.064 235.471 409.545 235.546C410.786 235.474 412.006 235.205 413.157 234.749C413.731 234.518 414.239 234.154 414.635 233.691C415.032 233.228 415.307 232.678 415.434 232.09C415.53 231.446 415.386 230.774 415.574 230.153C415.895 229.083 417.012 228.494 417.947 227.808C420.345 226.001 421.487 222.957 421.578 220.015C421.578 219.575 421.578 219.14 421.578 218.704C421.405 221.558 420.268 224.482 417.947 226.233Z" fill="black"/>
</g>
<path d="M142.852 302.599C142.463 302.863 142.252 303.016 142.252 303.016C142.473 302.906 142.675 302.766 142.852 302.599Z" fill="url(#paint0_linear)"/>
<path d="M143.322 303.044L142.722 303.465C142.943 303.354 143.145 303.212 143.322 303.044Z" fill="url(#paint1_linear)"/>
<path d="M143.322 302.599C142.933 302.863 142.722 303.016 142.722 303.016C142.942 302.906 143.144 302.766 143.322 302.599Z" fill="url(#paint2_linear)"/>
<path d="M197.037 404.021C197.037 404.021 188.799 415.298 183.308 415.076C183.308 415.076 167.962 417.949 178.512 420.604C189.062 423.258 219.941 413.306 219.941 413.306L216.268 401.723L197.037 404.021Z" fill="#333333"/>
<path d="M160.188 325.742L171.856 354.709L181.927 371.514C181.927 371.514 195.776 401.255 194.875 407.005L216.935 403.576C216.935 403.576 199.771 358.027 194.966 351.837C194.966 351.837 189.93 348.959 190.17 344.094L183.993 315.15C183.993 315.15 190.002 309.549 186.645 302.529C186.467 302.157 186.268 301.793 186.051 301.44C181.476 293.925 164.082 298.123 164.082 298.123L160.188 325.742Z" fill="#535461"/>
<path opacity="0.03" d="M160.188 325.742L171.856 354.709L181.927 371.514C181.927 371.514 195.776 401.255 194.875 407.005L216.935 403.576C216.935 403.576 199.771 358.027 194.966 351.837C194.966 351.837 189.93 348.959 190.17 344.094L183.993 315.15C183.993 315.15 190.002 309.549 186.645 302.529C186.467 302.157 186.268 301.793 186.051 301.44C181.476 293.925 164.082 298.123 164.082 298.123L160.188 325.742Z" fill="black"/>
<g opacity="0.1">
<path opacity="0.1" d="M194.98 351.837C194.98 351.837 189.945 348.959 190.185 344.094L183.993 315.15C183.993 315.15 190.002 309.549 186.645 302.529C186.467 302.157 186.269 301.793 186.051 301.44C183.83 297.794 178.598 296.904 173.793 296.955C178.402 296.997 183.25 297.97 185.365 301.44C185.583 301.792 185.78 302.156 185.955 302.529C189.312 309.549 183.308 315.15 183.308 315.15L189.484 344.118C189.259 348.982 194.28 351.86 194.28 351.86C199.076 358.05 216.249 403.599 216.249 403.599L194.875 406.889C194.875 406.922 194.875 406.963 194.875 406.996L216.935 403.567C216.935 403.567 199.785 358.027 194.98 351.837Z" fill="black"/>
</g>
<path d="M119.679 399.156C119.679 399.156 110.525 406.671 101.6 406.894C101.6 406.894 86.0381 406.43 90.3829 409.771C94.7278 413.112 133.414 417.949 133.414 417.949L135.136 405.036L119.679 399.156Z" fill="#333333"/>
<g opacity="0.1">
<path opacity="0.1" d="M153.325 296.335C153.325 296.335 138.219 316.897 132.268 337.682C132.268 337.682 126.993 346.527 127.693 355.594L118.078 400.481L135.702 406.889C135.702 406.889 134.786 401.362 138.219 398.267C141.653 395.172 149.662 363.772 148.976 358.907C148.976 358.907 159.963 332.372 170.949 321.98C181.936 311.587 187.398 309.187 189.014 300.203C189.014 300.217 163.166 288.152 153.325 296.335Z" fill="black"/>
</g>
<path d="M152.865 296.335C152.865 296.335 137.759 316.897 131.812 337.682C131.812 337.682 126.537 346.527 127.233 355.594L117.641 400.481L135.241 406.889C135.241 406.889 134.33 401.362 137.759 398.267C141.188 395.172 149.206 363.772 148.516 358.907C148.516 358.907 159.502 332.372 170.489 321.98C181.476 311.587 186.943 309.187 188.559 300.203C188.559 300.217 162.706 288.152 152.865 296.335Z" fill="#535461"/>
<g opacity="0.1">
<path opacity="0.1" d="M162.624 293.272C173.97 293.402 188.098 299.999 188.098 299.999C186.482 308.969 181.015 311.37 170.033 321.776C159.051 332.182 148.06 358.703 148.06 358.703C148.746 363.568 140.737 394.968 137.303 398.063C134.316 400.759 134.622 405.295 134.752 406.426L135.471 406.685C135.471 406.685 134.555 401.158 137.989 398.063C141.423 394.968 149.431 363.568 148.746 358.703C148.746 358.703 159.732 332.168 170.719 321.776C181.706 311.383 187.173 308.983 188.784 299.999C188.784 299.999 174.076 293.133 162.624 293.272Z" fill="black"/>
</g>
<path d="M141.643 264.268C141.643 264.268 130.719 277.412 123.343 280.266C122.533 280.581 121.747 280.952 120.994 281.378C119.969 282.007 118.83 282.441 117.637 282.657C116.754 282.737 115.89 282.956 115.081 283.306C111.244 285.011 102.406 289.626 108.242 293.68C115.565 298.776 125.406 287.045 125.406 287.045C125.406 287.045 129.583 284.515 132.043 283.95C134.503 283.385 145.772 275.767 145.772 275.767L141.643 264.268Z" fill="#ECB4B6"/>
<path d="M143.71 261.617L139.361 265.375L145.768 273.113L143.71 261.617Z" fill="#60A3D9"/>
<g opacity="0.1">
<path opacity="0.1" d="M143.71 261.617L139.361 265.375L145.768 273.113L143.71 261.617Z" fill="black"/>
</g>
<path d="M154.731 217.611C154.731 217.611 144.314 226.238 148.678 228.67L141.643 245.475L144.065 306.945L153.997 291.025L147.211 256.53C147.211 256.53 145.293 235.968 150.846 231.103L156.174 220.909L154.731 217.611Z" fill="#60A3D9"/>
<g opacity="0.1">
<path opacity="0.1" d="M156.107 214.529C156.107 214.529 145.691 223.157 150.05 225.589L143.024 242.408L145.446 303.877L155.378 287.958L148.597 253.449C148.597 253.449 146.679 232.887 152.227 228.022L157.56 217.828L156.107 214.529Z" fill="black"/>
</g>
<path d="M146.688 208.548C146.688 208.548 155.158 218.496 154.927 224.245C154.697 229.995 170.95 214.298 170.95 214.298C170.95 214.298 164.768 207 166.37 199.258C167.971 191.516 146.688 208.548 146.688 208.548Z" fill="#ECB4B6"/>
<path d="M194.98 258.522L197.273 276.231V293.698C197.273 293.698 194.069 316.253 204.14 312.051C214.211 307.848 206.864 292.355 206.864 292.355C206.864 292.355 206.864 283.727 208.24 279.307C209.616 274.887 207.554 255.423 207.554 255.423L194.98 258.522Z" fill="#ECB4B6"/>
<path d="M163.622 216.73C163.622 216.73 157.469 222.485 154.241 220.488L149.849 231.038C147.164 237.491 145.945 244.426 146.276 251.373L147.83 291.247L154.697 290.362L156.989 252.55L160.423 229.555L163.622 216.73Z" fill="#F2F2F2"/>
<g opacity="0.1">
<path opacity="0.1" d="M168.772 210.647C168.772 210.647 160.648 216.063 158.361 220.71C158.361 220.71 158.131 225.807 156.299 228.008C154.467 230.208 152.64 241.273 152.179 254.542C151.719 267.812 149.662 285.497 149.662 285.497C149.662 285.497 146.228 302.747 142.569 304.494C142.569 304.494 159.502 292.114 167.741 296.316C175.98 300.518 185.365 310.679 188.113 309.141C188.113 309.141 187.451 289.76 190.453 279.423C190.511 279.229 190.568 279.034 190.631 278.844C193.834 268.674 191.777 254.751 195.426 248.774C195.426 248.774 195.426 237.965 193.316 229.893C192.77 227.832 191.763 225.912 190.367 224.266C188.971 222.621 187.22 221.29 185.235 220.367L175.069 215.623C175.069 215.623 169.688 214.849 168.772 210.647Z" fill="black"/>
</g>
<g opacity="0.1">
<path opacity="0.1" d="M168.772 210.647C168.772 210.647 161.099 216.508 158.816 221.15C158.816 221.15 158.586 226.247 156.759 228.448C154.932 230.649 153.095 241.718 152.64 254.983C152.184 268.248 150.122 285.961 150.122 285.961C150.122 285.961 146.688 303.206 143.024 304.957C143.024 304.957 159.963 292.572 168.201 296.775C176.44 300.977 185.825 311.138 188.568 309.6C188.568 309.6 187.911 290.223 190.913 279.886C190.971 279.687 191.029 279.497 191.086 279.307C194.294 269.114 192.232 255.214 195.882 249.233C195.882 249.233 195.882 238.423 193.767 230.357C193.222 228.295 192.217 226.374 190.822 224.727C189.427 223.081 187.675 221.749 185.691 220.826L175.51 216.063C175.51 216.063 169.688 214.849 168.772 210.647Z" fill="black"/>
</g>
<path d="M168.657 210.536C168.657 210.536 161.104 216.063 158.816 220.729C158.816 220.729 158.586 225.825 156.759 228.026C154.932 230.227 153.095 241.291 152.64 254.561C152.184 267.831 150.122 285.497 150.122 285.497C150.122 285.497 146.688 302.747 143.024 304.494C143.024 304.494 159.963 292.114 168.201 296.316C176.44 300.518 185.825 310.679 188.568 309.141C188.568 309.141 187.911 289.76 190.913 279.423L191.086 278.844C194.294 268.674 192.232 254.751 195.882 248.774C195.882 248.774 195.882 237.965 193.767 229.893C193.222 227.832 192.217 225.912 190.822 224.266C189.426 222.62 187.675 221.29 185.691 220.367L175.51 215.604C175.51 215.604 170.374 214.404 168.657 210.536Z" fill="#60A3D9"/>
<g opacity="0.1">
<path opacity="0.1" d="M189.599 223.472C189.599 223.472 212.829 249.01 209.626 261.173C209.626 261.173 197.723 258.522 194.52 262.058C194.52 262.058 192.002 253.875 184.449 249.233C176.896 244.59 169.937 214.849 189.599 223.472Z" fill="black"/>
</g>
<path d="M189.599 223.032C189.599 223.032 212.829 248.57 209.626 260.732C209.626 260.732 197.723 258.078 194.52 261.617C194.52 261.617 192.002 253.435 184.449 248.793C176.896 244.15 169.937 214.404 189.599 223.032Z" fill="#60A3D9"/>
<g opacity="0.1">
<path opacity="0.1" d="M166.94 204.234C166.581 202.451 166.883 202.316 167.286 200.366C168.887 192.628 147.624 209.632 147.624 209.632C147.624 209.632 148.808 211.022 150.276 213.07C151.359 213.286 152.463 213.395 153.57 213.394C159.387 213.413 164.072 208.668 166.94 204.234Z" fill="black"/>
</g>
<path d="M152.635 212.301C161.608 212.301 168.883 205.273 168.883 196.603C168.883 187.934 161.608 180.906 152.635 180.906C143.662 180.906 136.387 187.934 136.387 196.603C136.387 205.273 143.662 212.301 152.635 212.301Z" fill="#ECB4B6"/>
<g opacity="0.1">
<path opacity="0.1" d="M138.037 192.308C135.639 192.619 132.594 191.845 132.133 189.556C131.553 186.665 135.558 184.779 136.176 181.893C136.411 180.809 136.133 179.678 136.267 178.58C136.536 176.365 138.387 174.66 140.272 173.377C146.242 169.329 153.505 167.459 160.768 168.099C161.674 168.109 162.557 168.378 163.305 168.873C164.096 169.503 164.398 170.518 164.935 171.357C166.791 174.252 170.949 174.6 173.937 176.398C177.433 178.506 179.159 182.643 179.318 186.623C179.476 190.603 178.301 194.5 177.136 198.322C176.148 201.566 175.112 204.902 172.944 207.561C170.777 210.221 167.189 212.083 163.77 211.268C165.334 210.179 164.202 207.658 162.509 206.773C160.816 205.888 158.72 205.736 157.277 204.517C155.833 203.298 155.397 201.297 154.922 199.481C154.328 197.164 153.484 194.847 151.738 193.184C148.357 189.913 142.209 191.766 138.037 192.308Z" fill="black"/>
</g>
<path d="M138.497 192.086C136.1 192.401 133.054 191.623 132.589 189.338C132.009 186.443 136.013 184.561 136.637 181.67C136.867 180.586 136.589 179.46 136.723 178.358C136.992 176.143 138.848 174.442 140.732 173.154C146.701 169.108 153.962 167.239 161.224 167.877C162.131 167.888 163.014 168.159 163.761 168.655C164.552 169.281 164.859 170.296 165.396 171.134C167.247 174.03 171.41 174.378 174.397 176.175C177.889 178.283 179.62 182.426 179.773 186.401C179.927 190.376 178.757 194.277 177.596 198.1C176.603 201.343 175.572 204.684 173.4 207.343C171.228 210.003 167.645 211.861 164.231 211.05C165.789 209.966 164.658 207.441 162.97 206.556C161.281 205.671 159.181 205.522 157.733 204.299C156.284 203.076 155.853 201.079 155.383 199.263C154.788 196.969 153.944 194.63 152.199 192.971C148.798 189.691 142.665 191.544 138.497 192.086Z" fill="#464353"/>
<g opacity="0.1">
<path opacity="0.1" d="M136.459 182.249C136.797 181.753 137.041 181.202 137.179 180.623C137.409 179.539 137.131 178.408 137.265 177.31C137.315 176.919 137.413 176.535 137.557 176.166C137.114 176.827 136.829 177.576 136.723 178.358C136.589 179.46 136.867 180.586 136.632 181.67C136.592 181.868 136.534 182.062 136.459 182.249Z" fill="black"/>
<path opacity="0.1" d="M173.942 206.292C171.808 208.914 168.283 210.749 164.926 210.04C164.834 210.452 164.586 210.815 164.231 211.059C167.636 211.861 171.232 210.003 173.4 207.353C174.214 206.337 174.9 205.231 175.443 204.058C175.013 204.845 174.511 205.592 173.942 206.292Z" fill="black"/>
<path opacity="0.1" d="M164.95 209.859C166.23 208.71 165.127 206.366 163.511 205.518C161.818 204.633 159.723 204.48 158.275 203.261C156.826 202.043 156.395 200.041 155.925 198.22C155.33 195.927 154.486 193.587 152.74 191.928C149.34 188.643 143.207 190.497 139.039 191.039C136.641 191.349 133.596 190.575 133.136 188.287C133.027 187.746 133.073 187.187 133.27 186.67C132.981 187.049 132.771 187.48 132.655 187.938C132.538 188.396 132.515 188.872 132.589 189.338C133.069 191.627 136.104 192.401 138.497 192.086C142.665 191.544 148.798 189.69 152.198 192.98C153.925 194.653 154.788 196.979 155.383 199.272C155.862 201.088 156.27 203.076 157.733 204.308C159.195 205.541 161.277 205.698 162.969 206.565C164.183 207.195 165.099 208.678 164.95 209.859Z" fill="black"/>
</g>
<g opacity="0.1">
<path opacity="0.1" d="M154.812 204.674C159.235 204.674 162.821 201.21 162.821 196.937C162.821 192.664 159.235 189.199 154.812 189.199C150.389 189.199 146.803 192.664 146.803 196.937C146.803 201.21 150.389 204.674 154.812 204.674Z" fill="black"/>
</g>
<path opacity="0.05" d="M162.581 175.505L156.293 174.319L156.249 174.537L162.537 175.724L162.581 175.505Z" fill="black"/>
<path d="M118.296 296.092C118.637 295.933 118.736 295.447 118.516 295.007C118.296 294.567 117.841 294.339 117.5 294.497C117.159 294.656 117.061 295.142 117.28 295.582C117.5 296.023 117.955 296.251 118.296 296.092Z" fill="#F2F2F2"/>
<g opacity="0.1">
<path opacity="0.1" d="M160.059 282.203C163.279 282.238 166.465 282.844 169.458 283.992C174.254 285.873 179.332 283.992 179.332 283.992C179.332 283.992 164.869 279.937 160.059 282.203Z" fill="black"/>
</g>
<path d="M325.138 365.76C325.138 365.76 328.121 369.526 323.762 375.216C319.403 380.906 315.811 385.706 317.264 389.25C317.264 389.25 323.839 378.686 329.191 378.538C334.542 378.39 331.027 372.112 325.138 365.76Z" fill="#60A3D9"/>
<path opacity="0.1" d="M325.138 365.76C325.398 366.123 325.604 366.521 325.747 366.941C330.97 372.867 333.756 378.399 328.735 378.524C324.059 378.654 318.448 386.734 317.105 388.773C317.149 388.93 317.202 389.085 317.264 389.236C317.264 389.236 323.839 378.672 329.19 378.524C334.542 378.376 331.027 372.112 325.138 365.76Z" fill="black"/>
<path d="M330.682 370.56C330.682 371.889 330.528 372.964 330.341 372.964C330.154 372.964 329.996 371.889 329.996 370.56C329.996 369.23 330.188 369.86 330.38 369.86C330.572 369.86 330.682 369.235 330.682 370.56Z" fill="#FFD037"/>
<path d="M332.586 372.14C331.382 372.774 330.332 373.159 330.241 372.997C330.15 372.835 331.051 372.191 332.255 371.556C333.459 370.921 332.989 371.384 333.08 371.556C333.171 371.727 333.789 371.509 332.586 372.14Z" fill="#FFD037"/>
<path d="M309.389 365.76C309.389 365.76 306.406 369.526 310.766 375.216C315.125 380.906 318.717 385.706 317.264 389.25C317.264 389.25 310.689 378.686 305.337 378.538C299.985 378.39 303.5 372.112 309.389 365.76Z" fill="#60A3D9"/>
<path opacity="0.1" d="M309.389 365.76C309.129 366.123 308.924 366.521 308.78 366.941C303.558 372.867 300.776 378.399 305.797 378.524C310.473 378.654 316.079 386.734 317.422 388.773C317.378 388.93 317.326 389.085 317.264 389.236C317.264 389.236 310.689 378.672 305.337 378.524C299.985 378.376 303.5 372.112 309.389 365.76Z" fill="black"/>
<path d="M303.846 370.56C303.846 371.889 303.999 372.964 304.191 372.964C304.383 372.964 304.536 371.889 304.536 370.56C304.536 369.23 304.34 369.86 304.153 369.86C303.966 369.86 303.846 369.235 303.846 370.56Z" fill="#FFD037"/>
<path d="M301.942 372.14C303.15 372.774 304.2 373.159 304.291 372.997C304.383 372.835 303.476 372.191 302.272 371.556C301.069 370.921 301.544 371.384 301.452 371.556C301.361 371.727 300.738 371.509 301.942 372.14Z" fill="#FFD037"/>
<path d="M304.795 388.759C304.795 388.759 313.135 388.509 315.647 386.781C318.16 385.052 328.471 382.991 329.075 385.761C329.679 388.532 341.601 399.55 332.192 399.624C322.783 399.698 310.319 398.206 307.811 396.728C305.303 395.25 304.795 388.759 304.795 388.759Z" fill="#A8A8A8"/>
<path opacity="0.2" d="M332.379 398.656C322.965 398.73 310.506 397.243 307.998 395.765C306.08 394.643 305.327 390.608 305.073 388.75H304.795C304.795 388.75 305.322 395.236 307.831 396.719C310.339 398.202 322.798 399.689 332.211 399.615C334.926 399.592 335.866 398.66 335.813 397.275C335.439 398.118 334.398 398.642 332.379 398.656Z" fill="black"/>
<path d="M288.72 394.671C289.41 394.12 289.912 393.38 290.159 392.549C290.346 391.711 289.972 390.696 289.142 390.395C288.183 390.047 287.224 390.673 286.457 391.321C285.689 391.97 284.831 392.674 283.843 392.54C284.352 392.094 284.733 391.529 284.948 390.899C285.163 390.268 285.205 389.595 285.071 388.944C285.028 388.675 284.91 388.422 284.73 388.212C284.212 387.68 283.291 387.911 282.654 388.333C280.683 389.672 280.131 392.257 280.122 394.588C279.92 393.749 280.088 392.873 280.083 392.012C280.078 391.15 279.834 390.195 279.081 389.732C278.614 389.487 278.087 389.367 277.556 389.385C276.669 389.352 275.681 389.436 275.077 390.066C274.324 390.844 274.52 392.151 275.173 393.003C275.825 393.856 276.822 394.393 277.738 394.991C278.474 395.412 279.101 395.991 279.57 396.682C279.629 396.777 279.675 396.878 279.709 396.983H285.267C286.522 396.368 287.684 395.59 288.72 394.671Z" fill="#60A3D9"/>
<path d="M251.046 391.664C251.046 391.664 245.713 374.183 252.043 361.316C254.729 355.934 255.535 349.855 254.34 343.992C253.751 341.213 252.902 338.492 251.804 335.861" stroke="#535461" stroke-width="2" stroke-miterlimit="10"/>
<path d="M255.779 327.73C255.779 329.87 251.76 336.07 251.76 336.07C251.76 336.07 247.746 329.856 247.746 327.73C247.782 326.724 248.221 325.771 248.971 325.071C249.72 324.372 250.721 323.981 251.763 323.981C252.804 323.981 253.806 324.372 254.555 325.071C255.304 325.771 255.743 326.724 255.779 327.73Z" fill="#60A3D9"/>
<path d="M262.392 339.595C261.184 341.398 254.321 344.502 254.321 344.502C254.321 344.502 254.446 337.177 255.65 335.379C256.228 334.515 257.139 333.909 258.18 333.693C259.221 333.478 260.309 333.671 261.203 334.23C262.097 334.789 262.725 335.669 262.948 336.675C263.171 337.681 262.971 338.732 262.392 339.595Z" fill="#60A3D9"/>
<path d="M262.1 359.875C260.119 360.844 252.571 360.176 252.571 360.176C252.571 360.176 256.503 353.912 258.484 352.949C258.955 352.719 259.467 352.582 259.993 352.544C260.519 352.506 261.047 352.568 261.548 352.728C262.049 352.887 262.512 353.14 262.912 353.473C263.311 353.805 263.639 354.21 263.876 354.665C264.114 355.12 264.256 355.616 264.295 356.123C264.335 356.631 264.27 357.142 264.105 357.626C263.94 358.11 263.678 358.557 263.334 358.943C262.99 359.329 262.57 359.646 262.1 359.875Z" fill="#60A3D9"/>
<path d="M258.306 375.174C256.523 376.448 248.965 377.028 248.965 377.028C248.965 377.028 251.746 370.212 253.53 368.938C254.387 368.324 255.461 368.063 256.516 368.214C257.572 368.365 258.522 368.914 259.158 369.742C259.794 370.569 260.063 371.607 259.907 372.627C259.751 373.647 259.182 374.565 258.326 375.179L258.306 375.174Z" fill="#60A3D9"/>
<path d="M245.89 344.919C247.478 346.411 254.892 347.959 254.892 347.959C254.892 347.959 253.074 340.846 251.487 339.355C251.111 338.993 250.664 338.706 250.172 338.512C249.68 338.318 249.154 338.221 248.622 338.225C248.091 338.229 247.566 338.335 247.078 338.536C246.59 338.738 246.147 339.031 245.777 339.399C245.407 339.767 245.116 340.202 244.921 340.679C244.726 341.157 244.631 341.667 244.642 342.18C244.652 342.693 244.768 343.199 244.982 343.668C245.197 344.137 245.505 344.561 245.89 344.915V344.919Z" fill="#60A3D9"/>
<path d="M241.685 362.873C243.665 363.841 251.214 363.174 251.214 363.174C251.214 363.174 247.281 356.91 245.301 355.946C244.828 355.717 244.314 355.58 243.787 355.542C243.26 355.505 242.73 355.568 242.228 355.729C241.726 355.889 241.262 356.144 240.862 356.478C240.462 356.811 240.134 357.218 239.896 357.675C239.659 358.131 239.517 358.628 239.478 359.137C239.439 359.647 239.505 360.158 239.671 360.643C239.837 361.128 240.101 361.577 240.446 361.963C240.792 362.35 241.213 362.667 241.685 362.896V362.873Z" fill="#60A3D9"/>
<path d="M240.073 380.841C241.857 382.115 249.415 382.694 249.415 382.694C249.415 382.694 246.634 375.879 244.85 374.604C244.426 374.3 243.944 374.08 243.432 373.955C242.92 373.831 242.388 373.805 241.865 373.88C241.343 373.954 240.841 374.127 240.388 374.389C239.935 374.651 239.54 374.997 239.225 375.406C238.91 375.816 238.681 376.281 238.553 376.776C238.424 377.27 238.397 377.785 238.474 378.289C238.551 378.794 238.731 379.279 239.002 379.717C239.273 380.155 239.63 380.537 240.054 380.841H240.073Z" fill="#60A3D9"/>
<path d="M255.779 327.73C255.779 329.87 251.76 336.07 251.76 336.07C251.76 336.07 247.746 329.856 247.746 327.73C247.782 326.724 248.221 325.771 248.971 325.071C249.72 324.372 250.721 323.981 251.763 323.981C252.804 323.981 253.806 324.372 254.555 325.071C255.304 325.771 255.743 326.724 255.779 327.73Z" fill="#60A3D9"/>
<path d="M262.392 339.595C261.184 341.398 254.321 344.502 254.321 344.502C254.321 344.502 254.446 337.177 255.65 335.379C256.228 334.515 257.139 333.909 258.18 333.693C259.221 333.478 260.309 333.671 261.203 334.23C262.097 334.789 262.725 335.669 262.948 336.675C263.171 337.681 262.971 338.732 262.392 339.595Z" fill="#60A3D9"/>
<path d="M262.1 359.875C260.119 360.844 252.571 360.176 252.571 360.176C252.571 360.176 256.503 353.912 258.484 352.949C258.955 352.719 259.467 352.582 259.993 352.544C260.519 352.506 261.047 352.568 261.548 352.728C262.049 352.887 262.512 353.14 262.912 353.473C263.311 353.805 263.639 354.21 263.876 354.665C264.114 355.12 264.256 355.616 264.295 356.123C264.335 356.631 264.27 357.142 264.105 357.626C263.94 358.11 263.678 358.557 263.334 358.943C262.99 359.329 262.57 359.646 262.1 359.875Z" fill="#60A3D9"/>
<path d="M258.306 375.174C256.523 376.448 248.965 377.028 248.965 377.028C248.965 377.028 251.746 370.212 253.53 368.938C254.387 368.324 255.461 368.063 256.516 368.214C257.572 368.365 258.522 368.914 259.158 369.742C259.794 370.569 260.063 371.607 259.907 372.627C259.751 373.647 259.182 374.565 258.326 375.179L258.306 375.174Z" fill="#60A3D9"/>
<path d="M245.89 344.919C247.478 346.411 254.892 347.959 254.892 347.959C254.892 347.959 253.074 340.846 251.487 339.355C251.111 338.993 250.664 338.706 250.172 338.512C249.68 338.318 249.154 338.221 248.622 338.225C248.091 338.229 247.566 338.335 247.078 338.536C246.59 338.738 246.147 339.031 245.777 339.399C245.407 339.767 245.116 340.202 244.921 340.679C244.726 341.157 244.631 341.667 244.642 342.18C244.652 342.693 244.768 343.199 244.982 343.668C245.197 344.137 245.505 344.561 245.89 344.915V344.919Z" fill="#60A3D9"/>
<path d="M241.685 362.873C243.665 363.841 251.214 363.174 251.214 363.174C251.214 363.174 247.281 356.91 245.301 355.946C244.828 355.717 244.314 355.58 243.787 355.542C243.26 355.505 242.73 355.568 242.228 355.729C241.726 355.889 241.262 356.144 240.862 356.478C240.462 356.811 240.134 357.218 239.896 357.675C239.659 358.131 239.517 358.628 239.478 359.137C239.439 359.647 239.505 360.158 239.671 360.643C239.837 361.128 240.101 361.577 240.446 361.963C240.792 362.35 241.213 362.667 241.685 362.896V362.873Z" fill="#60A3D9"/>
<path d="M240.073 380.841C241.857 382.115 249.415 382.694 249.415 382.694C249.415 382.694 246.634 375.879 244.85 374.604C244.426 374.3 243.944 374.08 243.432 373.955C242.92 373.831 242.388 373.805 241.865 373.88C241.343 373.954 240.841 374.127 240.388 374.389C239.935 374.651 239.54 374.997 239.225 375.406C238.91 375.816 238.681 376.281 238.553 376.776C238.424 377.27 238.397 377.785 238.474 378.289C238.551 378.794 238.731 379.279 239.002 379.717C239.273 380.155 239.63 380.537 240.054 380.841H240.073Z" fill="#60A3D9"/>
<path d="M238.448 390.561C238.448 390.561 244.936 389.315 246.667 387.656C248.399 385.998 256.187 383.093 257.05 385.164C257.913 387.235 268.732 394.296 261.366 395.542C254 396.789 244.063 397.201 241.901 396.372C239.738 395.542 238.448 390.561 238.448 390.561Z" fill="#A8A8A8"/>
<path opacity="0.2" d="M261.38 394.768C254.024 396.015 244.073 396.427 241.91 395.598C240.261 394.968 239.119 391.928 238.664 390.501L238.448 390.548C238.448 390.548 239.747 395.528 241.91 396.358C244.073 397.187 254.024 396.77 261.38 395.528C263.5 395.167 264.109 394.324 263.879 393.253C263.697 393.967 262.973 394.5 261.38 394.768Z" fill="black"/>
<defs>
<linearGradient id="paint0_linear" x1="337.238" y1="560.431" x2="337.987" y2="560.431" gradientUnits="userSpaceOnUse">
<stop stop-color="#808080" stop-opacity="0.25"/>
<stop offset="0.54" stop-color="#808080" stop-opacity="0.12"/>
<stop offset="1" stop-color="#808080" stop-opacity="0.1"/>
</linearGradient>
<linearGradient id="paint1_linear" x1="338.295" y1="564.153" x2="339.045" y2="564.153" gradientUnits="userSpaceOnUse">
<stop stop-color="#808080" stop-opacity="0.25"/>
<stop offset="0.54" stop-color="#808080" stop-opacity="0.12"/>
<stop offset="1" stop-color="#808080" stop-opacity="0.1"/>
</linearGradient>
<linearGradient id="paint2_linear" x1="338.295" y1="560.431" x2="339.045" y2="560.431" gradientUnits="userSpaceOnUse">
<stop stop-color="#808080" stop-opacity="0.25"/>
<stop offset="0.54" stop-color="#808080" stop-opacity="0.12"/>
<stop offset="1" stop-color="#808080" stop-opacity="0.1"/>
</linearGradient>
</defs>
</svg>
