<svg
  width="550"
  height="450"
  viewBox="0 0 550 450"
  fill="none"
  xmlns="http://www.w3.org/2000/svg"
>
  <style>
    #wind1 {
      animation: rotateW1 6s linear infinite;
      transform-origin: 23.5% 42.32%;
    }

    @keyframes rotateW1 {
      from {
        -webkit-transform: rotate(0deg);
      }
      to {
        -webkit-transform: rotate(360deg);
      }
		}
		
		#wind2 {
      animation: rotateW2 8s linear infinite;
      transform-origin: 48.8% 47%;
    }

    @keyframes rotateW2 {
      from {
        -webkit-transform: rotate(0deg);
      }
      to {
        -webkit-transform: rotate(360deg);
      }
		}
		
		#wind3 {
      animation: rotateW1 10s linear infinite;
      transform-origin: 73.5% 42.4%;
    }

    @keyframes rotateW3 {
      from {
        -webkit-transform: rotate(0deg);
      }
      to {
        -webkit-transform: rotate(360deg);
      }
		}
  </style>
  <g id="wind1">
    <path
      id="Vector_37"
      d="M134.933 166.336C134.555 168.433 133.261 172.862 129.084 172.751C127.547 172.681 126.099 172.005 125.058 170.873C124.016 169.74 123.464 168.242 123.523 166.705L124.725 123.303L125.113 109.151C125.113 109.151 127.182 105.235 129.242 122.79V122.852L134.962 164.503C135.046 165.112 135.036 165.73 134.933 166.336Z"
      fill="white"
    />
    <path
      id="Vector_38"
      d="M132.15 170.545H126.014V183.667H132.15V170.545Z"
      fill="white"
    />
    <path
      id="Vector_39"
      d="M131.489 180.55H126.766V186.309H131.489V180.55Z"
      fill="white"
    />
    <path
      id="Vector_40"
      d="M129.252 122.857C127.106 122.235 125.64 122.709 124.725 123.307L125.113 109.156C125.113 109.156 127.182 105.24 129.242 122.795L129.252 122.857Z"
      fill="#60A3D9"
    />
    <path
      id="Vector_41"
      d="M132.15 174.465V183.657H126.014V174.652C127.96 173.807 130.156 173.74 132.15 174.465Z"
      fill="#60A3D9"
    />
    <path
      id="Vector_42"
      d="M146.602 203.712C144.882 202.453 141.467 199.35 143.397 195.645C144.134 194.294 145.376 193.289 146.851 192.849C148.326 192.41 149.916 192.572 151.272 193.299L189.776 213.406L202.336 219.96C202.336 219.96 204.947 223.536 188.258 217.691H188.195L148.255 204.578C147.662 204.378 147.104 204.086 146.602 203.712Z"
      fill="white"
    />
    <path
      id="Vector_43"
      d="M134.926 188.107L132.236 193.619L144.037 199.371L146.727 193.859L134.926 188.107Z"
      fill="white"
    />
    <path
      id="Vector_44"
      d="M135.328 194.392L137.399 190.15L132.22 187.625L130.149 191.867L135.328 194.392Z"
      fill="white"
    />
    <path
      id="Vector_45"
      d="M188.195 217.672C189.699 216.015 189.915 214.493 189.776 213.406L202.336 219.96C202.336 219.96 204.947 223.536 188.258 217.691L188.195 217.672Z"
      fill="#60A3D9"
    />
    <path
      id="Vector_46"
      d="M140.509 197.651L132.236 193.615L134.928 188.105L143.033 192.054C142.94 194.174 142.036 196.177 140.509 197.651Z"
      fill="#60A3D9"
    />
    <path
      id="Vector_47"
      d="M111.562 203.712C113.286 202.453 116.702 199.35 114.771 195.645C114.034 194.294 112.791 193.289 111.315 192.849C109.839 192.41 108.249 192.571 106.891 193.299L68.3877 213.406L55.8325 219.96C55.8325 219.96 53.2171 223.536 69.9062 217.691H69.9684L109.914 204.578C110.506 204.378 111.062 204.086 111.562 203.712Z"
      fill="white"
    />
    <path
      id="Vector_48"
      d="M123.241 188.106L111.44 193.858L114.13 199.37L125.931 193.618L123.241 188.106Z"
      fill="white"
    />
    <path
      id="Vector_49"
      d="M128.019 191.868L125.948 187.626L120.769 190.15L122.839 194.393L128.019 191.868Z"
      fill="white"
    />
    <path
      id="Vector_50"
      d="M69.9685 217.672C68.4691 216.015 68.2536 214.493 68.3877 213.406L55.8325 219.96C55.8325 219.96 53.2171 223.536 69.9062 217.691L69.9685 217.672Z"
      fill="#60A3D9"
    />
    <path
      id="Vector_51"
      d="M117.655 197.651L125.927 193.615L123.24 188.105L115.13 192.054C115.228 194.173 116.131 196.174 117.655 197.651Z"
      fill="#60A3D9"
    />
    <path
      id="Vector_52"
      d="M129.084 192.681C131.301 192.681 133.099 190.885 133.099 188.67C133.099 186.454 131.301 184.658 129.084 184.658C126.868 184.658 125.07 186.454 125.07 188.67C125.07 190.885 126.868 192.681 129.084 192.681Z"
      fill="#60A3D9"
    />
  </g>
  <g id="07_affordable_energy">
    <g id="Group 17">
      <path
        id="Vector"
        opacity="0.1"
        d="M310.511 43.2392C270.423 59.3692 226.969 60.1193 186.605 44.9345C129.4 23.4196 54.6914 17.9129 27.0078 116.504C-20.2398 284.946 76.4215 345.069 76.4215 345.069C76.4215 345.069 143.906 360.827 181.272 389.3C234.351 429.744 299.354 443.264 360.586 424.299C399.744 412.169 433.305 392.27 442.9 359.711C469.734 268.651 452.699 213.919 501.264 189.91C549.829 165.901 522.807 76.9567 488.268 74.9382C453.729 72.9197 372.359 93.5503 347.187 52.5147C338.212 37.9458 324.485 37.6104 310.511 43.2392Z"
        fill="#40414D"
      />
    </g>
    <path
      id="Vector_2"
      d="M277.231 422.433H259.436L265.088 212.97H271.579L277.231 422.433Z"
      fill="white"
    />
    <g id="wind2">
      <path
        id="Vector_3"
        d="M277.72 177.376C277.155 180.478 275.243 187.028 269.069 186.865C264.355 186.745 260.724 182.633 260.849 177.922L262.626 113.771L263.206 92.8499C263.206 92.8499 266.262 87.062 269.304 113.01V113.105L277.753 174.633C277.889 175.543 277.878 176.469 277.72 177.376Z"
        fill="white"
      />
      <path
        id="Vector_4"
        d="M273.605 183.604H264.532V202.998H273.605V183.604Z"
        fill="white"
      />
      <path
        id="Vector_5"
        d="M272.628 198.393H265.648V206.905H272.628V198.393Z"
        fill="white"
      />
      <path
        id="Vector_6"
        d="M269.318 113.11C266.142 112.186 263.981 112.89 262.611 113.776L263.191 92.8547C263.191 92.8547 266.247 87.0668 269.289 113.014L269.318 113.11Z"
        fill="#60A3D9"
      />
      <path
        id="Vector_7"
        d="M273.605 189.402V202.998H264.532V189.67C267.411 188.424 270.658 188.328 273.605 189.402Z"
        fill="#60A3D9"
      />
      <path
        id="Vector_8"
        d="M294.964 232.627C292.421 230.76 287.372 226.174 290.222 220.697C292.397 216.518 297.685 215.053 301.867 217.231L358.779 246.951L377.341 256.641C377.341 256.641 381.202 261.907 356.533 253.29L356.442 253.261L297.402 233.872C296.529 233.588 295.707 233.168 294.964 232.627Z"
        fill="white"
      />
      <path
        id="Vector_9"
        d="M277.708 209.555L273.731 217.705L291.172 226.206L295.149 218.057L277.708 209.555Z"
        fill="white"
      />
      <path
        id="Vector_10"
        d="M278.299 218.846L281.359 212.577L273.704 208.845L270.644 215.115L278.299 218.846Z"
        fill="white"
      />
      <path
        id="Vector_11"
        d="M356.442 253.256C358.665 250.805 358.981 248.555 358.78 246.951L377.342 256.641C377.342 256.641 381.202 261.907 356.533 253.29L356.442 253.256Z"
        fill="#60A3D9"
      />
      <path
        id="Vector_12"
        d="M285.959 223.661L273.729 217.7L277.705 209.562L289.681 215.402C289.541 218.529 288.21 221.484 285.959 223.661Z"
        fill="#60A3D9"
      />
      <path
        id="Vector_13"
        d="M243.173 232.627C245.716 230.76 250.765 226.174 247.915 220.697C245.74 216.518 240.452 215.053 236.27 217.231L179.358 246.951L160.796 256.641C160.796 256.641 156.935 261.907 181.604 253.29L181.695 253.261L240.735 233.877C241.608 233.591 242.431 233.169 243.173 232.627Z"
        fill="white"
      />
      <path
        id="Vector_14"
        d="M260.43 209.554L242.988 218.055L246.965 226.205L264.407 217.703L260.43 209.554Z"
        fill="white"
      />
      <path
        id="Vector_15"
        d="M267.491 215.112L264.432 208.843L256.777 212.574L259.836 218.844L267.491 215.112Z"
        fill="white"
      />
      <path
        id="Vector_16"
        d="M181.695 253.256C179.473 250.805 179.156 248.555 179.358 246.951L160.796 256.641C160.796 256.641 156.935 261.907 181.604 253.29L181.695 253.256Z"
        fill="#60A3D9"
      />
      <path
        id="Vector_17"
        d="M252.178 223.661L264.407 217.7L260.432 209.562L248.456 215.402C248.596 218.529 249.927 221.484 252.178 223.661Z"
        fill="#60A3D9"
      />
      <path
        id="Vector_18"
        d="M269.068 216.317C272.344 216.317 274.999 213.663 274.999 210.39C274.999 207.117 272.344 204.463 269.068 204.463C265.793 204.463 263.138 207.117 263.138 210.39C263.138 213.663 265.793 216.317 269.068 216.317Z"
        fill="#60A3D9"
      />
    </g>
    <path
      id="Vector_19"
      d="M412.231 402.433H394.436L400.088 192.97H406.579L412.231 402.433Z"
      fill="white"
    />
    <g id="wind3">
      <path
        id="Vector_20"
        d="M406.706 170.545H400.569V183.667H406.706V170.545Z"
        fill="white"
      />
      <path
        id="Vector_21"
        d="M406.044 180.55H401.321V186.309H406.044V180.55Z"
        fill="white"
      />
      <path
        id="Vector_22"
        d="M409.489 166.336C409.11 168.433 407.817 172.862 403.64 172.751C402.102 172.681 400.654 172.006 399.612 170.873C398.569 169.741 398.017 168.243 398.074 166.705L399.281 123.303L399.669 109.151C399.669 109.151 401.738 105.235 403.798 122.79V122.852L409.513 164.503C409.601 165.111 409.593 165.73 409.489 166.336Z"
        fill="white"
      />
      <path
        id="Vector_23"
        d="M403.808 122.857C401.657 122.235 400.196 122.709 399.281 123.307L399.669 109.156C399.669 109.156 401.738 105.24 403.798 122.795L403.808 122.857Z"
        fill="#60A3D9"
      />
      <path
        id="Vector_24"
        d="M406.706 174.465V183.657H400.569V174.652C402.515 173.807 404.712 173.74 406.706 174.465Z"
        fill="#60A3D9"
      />
      <path
        id="Vector_25"
        d="M421.143 203.712C419.424 202.453 416.003 199.35 417.934 195.645C418.672 194.294 419.914 193.289 421.39 192.849C422.866 192.41 424.457 192.571 425.814 193.299L464.318 213.406L476.873 219.96C476.873 219.96 479.488 223.536 462.799 217.691H462.737L422.791 204.578C422.2 204.378 421.643 204.086 421.143 203.712Z"
        fill="white"
      />
      <path
        id="Vector_26"
        d="M409.48 188.105L406.79 193.617L418.591 199.37L421.281 193.858L409.48 188.105Z"
        fill="white"
      />
      <path
        id="Vector_27"
        d="M409.886 194.394L411.956 190.151L406.777 187.626L404.706 191.869L409.886 194.394Z"
        fill="white"
      />
      <path
        id="Vector_28"
        d="M462.751 217.672C464.255 216.015 464.471 214.493 464.332 213.406L476.887 219.96C476.887 219.96 479.502 223.536 462.813 217.691L462.751 217.672Z"
        fill="#60A3D9"
      />
      <path
        id="Vector_29"
        d="M415.065 197.651L406.773 193.615L409.46 188.105L417.57 192.054C417.48 194.171 416.583 196.173 415.065 197.651Z"
        fill="#60A3D9"
      />
      <path
        id="Vector_30"
        d="M386.117 203.712C387.837 202.453 391.257 199.35 389.327 195.645C388.589 194.294 387.347 193.289 385.871 192.849C384.394 192.41 382.804 192.571 381.447 193.299L342.943 213.406L330.388 219.96C330.388 219.96 327.773 223.536 344.462 217.691H344.524L384.47 204.578C385.061 204.378 385.617 204.086 386.117 203.712Z"
        fill="white"
      />
      <path
        id="Vector_31"
        d="M397.798 188.107L385.997 193.86L388.687 199.372L400.488 193.619L397.798 188.107Z"
        fill="white"
      />
      <path
        id="Vector_32"
        d="M402.571 191.865L400.5 187.623L395.321 190.147L397.392 194.39L402.571 191.865Z"
        fill="white"
      />
      <path
        id="Vector_33"
        d="M344.524 217.672C343.02 216.015 342.804 214.493 342.943 213.406L330.388 219.96C330.388 219.96 327.773 223.536 344.462 217.691L344.524 217.672Z"
        fill="#60A3D9"
      />
      <path
        id="Vector_34"
        d="M392.21 197.651L400.483 193.615L397.796 188.105L389.686 192.054C389.782 194.173 390.685 196.176 392.21 197.651Z"
        fill="#60A3D9"
      />
      <path
        id="Vector_35"
        d="M403.64 192.681C405.857 192.681 407.654 190.885 407.654 188.67C407.654 186.454 405.857 184.658 403.64 184.658C401.423 184.658 399.626 186.454 399.626 188.67C399.626 190.885 401.423 192.681 403.64 192.681Z"
        fill="#60A3D9"
      />
    </g>
    <path
      id="Vector_36"
      d="M137.796 402.463H120L125.652 193H132.143L137.796 402.463Z"
      fill="white"
    />
    <g id="wind1">
      <path
        id="Vector_37"
        d="M134.933 166.336C134.555 168.433 133.261 172.862 129.084 172.751C127.547 172.681 126.099 172.005 125.058 170.873C124.016 169.74 123.464 168.242 123.523 166.705L124.725 123.303L125.113 109.151C125.113 109.151 127.182 105.235 129.242 122.79V122.852L134.962 164.503C135.046 165.112 135.036 165.73 134.933 166.336Z"
        fill="white"
      />
      <path
        id="Vector_38"
        d="M132.15 170.545H126.014V183.667H132.15V170.545Z"
        fill="white"
      />
      <path
        id="Vector_39"
        d="M131.489 180.55H126.766V186.309H131.489V180.55Z"
        fill="white"
      />
      <path
        id="Vector_40"
        d="M129.252 122.857C127.106 122.235 125.64 122.709 124.725 123.307L125.113 109.156C125.113 109.156 127.182 105.24 129.242 122.795L129.252 122.857Z"
        fill="#60A3D9"
      />
      <path
        id="Vector_41"
        d="M132.15 174.465V183.657H126.014V174.652C127.96 173.807 130.156 173.74 132.15 174.465Z"
        fill="#60A3D9"
      />
      <path
        id="Vector_42"
        d="M146.602 203.712C144.882 202.453 141.467 199.35 143.397 195.645C144.134 194.294 145.376 193.289 146.851 192.849C148.326 192.41 149.916 192.572 151.272 193.299L189.776 213.406L202.336 219.96C202.336 219.96 204.947 223.536 188.258 217.691H188.195L148.255 204.578C147.662 204.378 147.104 204.086 146.602 203.712Z"
        fill="white"
      />
      <path
        id="Vector_43"
        d="M134.926 188.107L132.236 193.619L144.037 199.371L146.727 193.859L134.926 188.107Z"
        fill="white"
      />
      <path
        id="Vector_44"
        d="M135.328 194.392L137.399 190.15L132.22 187.625L130.149 191.867L135.328 194.392Z"
        fill="white"
      />
      <path
        id="Vector_45"
        d="M188.195 217.672C189.699 216.015 189.915 214.493 189.776 213.406L202.336 219.96C202.336 219.96 204.947 223.536 188.258 217.691L188.195 217.672Z"
        fill="#60A3D9"
      />
      <path
        id="Vector_46"
        d="M140.509 197.651L132.236 193.615L134.928 188.105L143.033 192.054C142.94 194.174 142.036 196.177 140.509 197.651Z"
        fill="#60A3D9"
      />
      <path
        id="Vector_47"
        d="M111.562 203.712C113.286 202.453 116.702 199.35 114.771 195.645C114.034 194.294 112.791 193.289 111.315 192.849C109.839 192.41 108.249 192.571 106.891 193.299L68.3877 213.406L55.8325 219.96C55.8325 219.96 53.2171 223.536 69.9062 217.691H69.9684L109.914 204.578C110.506 204.378 111.062 204.086 111.562 203.712Z"
        fill="white"
      />
      <path
        id="Vector_48"
        d="M123.241 188.106L111.44 193.858L114.13 199.37L125.931 193.618L123.241 188.106Z"
        fill="white"
      />
      <path
        id="Vector_49"
        d="M128.019 191.868L125.948 187.626L120.769 190.15L122.839 194.393L128.019 191.868Z"
        fill="white"
      />
      <path
        id="Vector_50"
        d="M69.9685 217.672C68.4691 216.015 68.2536 214.493 68.3877 213.406L55.8325 219.96C55.8325 219.96 53.2171 223.536 69.9062 217.691L69.9685 217.672Z"
        fill="#60A3D9"
      />
      <path
        id="Vector_51"
        d="M117.655 197.651L125.927 193.615L123.24 188.105L115.13 192.054C115.228 194.173 116.131 196.174 117.655 197.651Z"
        fill="#60A3D9"
      />
      <path
        id="Vector_52"
        d="M129.084 192.681C131.301 192.681 133.099 190.885 133.099 188.67C133.099 186.454 131.301 184.658 129.084 184.658C126.868 184.658 125.07 186.454 125.07 188.67C125.07 190.885 126.868 192.681 129.084 192.681Z"
        fill="#60A3D9"
      />
    </g>
    <path
      id="Vector_53"
      d="M518.172 381.363C514.073 396.308 505.175 409.495 492.847 418.894C480.518 428.294 465.442 433.386 449.936 433.387H89.1994C72.527 433.377 56.1836 428.749 41.9842 420.016C27.7848 411.284 16.2851 398.789 8.76221 383.919C8.76221 383.919 61.0473 311.639 196.835 358.862C309.568 398.066 361.566 360.992 375.989 347.271C377.551 345.793 379.395 344.645 381.412 343.898C383.429 343.151 385.577 342.82 387.725 342.925C415.35 344.231 511.044 350.924 518.187 381.353L518.172 381.363Z"
      fill="#DFE6F5"
    />
    <g id="Group 16">
      <path
        id="Vector_54"
        d="M131.413 414.185C131.413 414.185 127.623 413.739 125.157 411.901L124.97 411.753C125.119 411.529 125.228 411.281 125.291 411.02C125.026 410.504 124.886 409.934 124.883 409.354C124.891 408.81 124.78 408.271 124.558 407.774V405.084C124.558 405.084 123.739 404.212 123.657 401.996C123.576 399.779 123.494 388.854 123.494 388.854C123.368 388.282 123.34 387.693 123.413 387.112C123.494 385.848 123.494 385.374 123.494 385.374C123.226 384.639 123.142 383.85 123.25 383.076C123.494 382.119 122.675 381.017 122.675 381.017L123.901 375.005C123.901 375.005 124.582 354.232 122.603 347.97V347.932C122.603 347.932 122.603 347.879 122.603 347.855C122.771 343.815 120.318 337.088 121.708 332.421C123.097 327.753 123.26 326.719 123.26 326.719C123.26 326.719 117.138 311.361 115.595 307.722C114.527 305.214 113.421 302.456 112.328 300.886C112.233 300.749 112.137 300.62 112.041 300.498C111.988 300.431 111.936 300.364 111.883 300.307C112.217 299.75 112.418 299.125 112.472 298.478C112.558 297.348 112.395 296.046 113.219 295.247C113.534 294.99 113.872 294.763 114.23 294.572C114.861 294.156 115.363 293.573 115.681 292.888C115.998 292.203 116.118 291.443 116.026 290.694C115.854 289.502 115.169 288.511 114.388 287.548C114.655 286.088 114.549 284.584 114.078 283.176C113.607 281.768 112.788 280.502 111.696 279.496C111.696 279.348 111.696 279.194 111.696 279.046C111.718 277.949 111.382 276.875 110.738 275.987L110.968 276.15C110.839 276.035 110.714 275.925 110.58 275.815C110.391 275.624 110.175 275.463 109.938 275.336C108.122 274.095 105.999 273.378 103.802 273.264C101.605 273.15 99.4186 273.643 97.4835 274.689C96.5146 275.207 95.6823 275.947 95.0548 276.849C93.7759 278.821 94.0968 281.373 93.4358 283.613C92.7939 285.753 91.2802 287.524 90.0251 289.392C88.7701 291.259 87.721 293.47 88.1953 295.653C88.5354 297.238 89.6659 298.66 89.6323 300.283C89.5761 301.133 89.2247 301.937 88.6387 302.556C88.0528 303.174 87.2691 303.569 86.4229 303.672H86.3798C86.2212 303.697 86.0611 303.71 85.9007 303.711C87.424 304.759 89.3162 305.147 91.17 305.391C91.1317 305.535 91.0933 305.678 91.0598 305.827C89.5605 311.481 88.224 318.662 88.224 318.662C88.224 318.662 89.1198 325.939 87.242 331.64C85.3642 337.342 85.6085 349.057 85.6085 349.057C85.6085 349.057 90.8347 346.362 91.1604 348.099C91.4861 349.837 91.1604 350.316 91.1604 350.316C91.1604 350.316 92.2286 350.857 93.4837 351.336L93.431 352.03L93.201 355.142C93.1131 355.794 93.2128 356.458 93.4884 357.057C93.9387 357.928 93.4884 360.302 93.4884 360.302C93.4884 360.302 93.1052 360.542 93.4884 361.652C93.8717 362.763 93.1867 364.343 93.1867 364.343C93.1867 364.343 92.7076 370.279 92.6454 371.524C92.5831 372.769 91.0119 376.355 91.0119 376.355C91.0119 376.355 92.4011 378.092 91.0119 378.332C89.6227 378.571 89.4599 380.725 89.4599 380.725C89.4599 380.725 87.8264 382.071 87.8264 382.545C87.8264 382.545 80.4782 389.989 78.7633 402.254C78.7633 402.254 77.0484 403.839 77.2927 405.342C77.4317 406.194 77.1538 406.486 76.8856 406.582C77.1874 406.62 77.5179 406.817 77.3646 407.54C77.1203 408.804 76.4688 411.499 76.4688 411.499H76.5838C75.2473 413.045 73.2929 415.635 72.9959 417.909C72.9959 418.005 72.9863 418.101 72.9672 418.196L72.2295 419.858L78.6819 422.73L79.2519 421.859C79.2519 421.859 82.1261 425.105 85.3786 425.813C85.9406 425.935 86.5137 425.997 87.0887 426C88.904 425.968 90.6987 425.61 92.3867 424.942C92.3867 424.942 94.7531 422.017 88.6264 421.461C88.6264 421.461 85.0385 417.344 85.3642 415.602C85.4872 414.868 85.5624 414.128 85.5894 413.385C85.5894 413.222 85.5894 413.063 85.5894 412.906L86.0061 412.969L86.0828 411.642C86.2619 411.418 86.3492 411.134 86.3271 410.848C86.3271 410.297 85.8481 410.216 86.3271 409.89C86.8061 409.565 86.8061 409.89 86.8061 409.1C86.8061 408.31 86.4804 408.545 87.2133 407.755C87.9462 406.965 87.1318 405.538 87.1318 405.538C87.1318 405.538 88.8467 404.27 88.7653 402.609C88.6839 400.947 94.2357 390.42 95.3758 390.023C96.5159 389.625 96.6021 387.567 96.6021 387.567C96.6021 387.567 98.1541 387.883 98.6427 387.567C99.1313 387.251 100.683 384.8 100.683 384.8C100.683 384.8 106.911 369.126 106.973 363.189L107.38 361.844C107.38 361.844 109.751 364.932 109.421 367.148C109.09 369.365 111.231 370.945 111.231 370.945V377.676C111.471 378.849 111.602 380.041 111.624 381.238C111.543 382.344 112.582 383.454 112.189 384.402C111.797 385.35 112.189 387.016 112.189 387.016C112.189 387.016 112.103 389.233 112.189 389.865C112.276 390.497 111.868 397.778 113.995 400.947C113.995 400.947 114.891 403.241 113.995 404.744C113.1 406.247 114.81 407.755 114.81 407.755C114.81 407.755 113.751 409.493 114.81 410.762C115.417 411.563 115.689 412.569 115.571 413.567C115.145 415.176 114.829 417.287 115.543 418.757V418.79L115.734 421.05L121.99 420.571V419.307C121.99 419.307 126.263 420.442 130.244 419.824C132.39 419.494 134.45 418.651 135.709 416.851C135.743 416.875 138.272 412.523 131.413 414.185Z"
        fill="url(#paint0_linear)"
      />
      <path
        id="Vector_55"
        d="M134.583 416.913C133.367 418.709 131.379 419.546 129.314 419.877C125.482 420.49 121.348 419.36 121.348 419.36V420.633L115.308 421.112L115.121 418.862V418.823C114.421 417.339 114.742 415.195 115.164 413.581C115.366 412.82 115.616 412.072 115.911 411.341C115.911 411.341 121.113 406.927 122.847 410.24C123.224 410.925 123.745 411.52 124.376 411.982C126.771 413.811 130.416 414.256 130.416 414.256C137.026 412.581 134.583 416.913 134.583 416.913Z"
        fill="#65617D"
      />
      <path
        id="Vector_56"
        opacity="0.1"
        d="M118.498 412.581C118.498 412.581 118.498 416.679 121.491 416.602C124.485 416.526 124.888 414.97 123.939 413.917C123.296 413.17 122.74 412.352 122.282 411.48L118.498 412.581Z"
        fill="black"
      />
      <path
        id="Vector_57"
        d="M92.7168 424.942C91.0867 425.607 89.3471 425.964 87.5865 425.995C87.0308 425.992 86.477 425.931 85.9339 425.813C82.7819 425.1 80.0228 421.868 80.0228 421.868L79.4719 422.74L73.2446 419.901L73.9488 418.239L73.9775 417.957C74.2649 415.693 76.1523 413.112 77.4456 411.571C78.1498 410.733 78.6815 410.206 78.6815 410.206L86.1734 411.307C86.1734 411.307 86.2021 412.265 86.1734 413.433C86.1482 414.173 86.0746 414.91 85.9531 415.64C85.6417 417.373 89.105 421.471 89.105 421.471C95.0018 422.036 92.7168 424.942 92.7168 424.942Z"
        fill="#65617D"
      />
      <path
        id="Vector_58"
        d="M77.7331 406.644C77.6068 406.687 77.4716 406.697 77.3403 406.673C77.4687 406.641 77.6015 406.632 77.7331 406.644Z"
        fill="#444053"
      />
      <path
        id="Vector_59"
        opacity="0.1"
        d="M86.1738 411.322C86.1738 411.322 86.2026 412.279 86.1738 413.447L77.3599 412.011C77.3599 412.011 77.403 411.843 77.4652 411.566C78.1694 410.728 78.7011 410.201 78.7011 410.201L86.1738 411.322Z"
        fill="black"
      />
      <path
        id="Vector_60"
        opacity="0.1"
        d="M124.361 411.963C123.029 415.041 115.106 414.314 115.106 414.314C115.146 414.065 115.16 413.813 115.15 413.562C115.352 412.801 115.602 412.052 115.897 411.322C115.897 411.322 121.099 406.908 122.833 410.221C123.209 410.906 123.731 411.5 124.361 411.963Z"
        fill="black"
      />
      <path
        id="Vector_61"
        d="M124.491 411.087C123.705 414.63 115.107 413.845 115.107 413.845C115.272 412.791 115.017 411.715 114.398 410.848C113.373 409.589 114.398 407.856 114.398 407.856C114.398 407.856 112.74 406.357 113.612 404.859C114.484 403.36 113.612 401.077 113.612 401.077C111.557 397.927 111.955 390.674 111.868 390.066C111.782 389.458 111.868 387.231 111.868 387.231C111.868 387.231 111.48 385.575 111.868 384.627C112.256 383.679 111.246 382.578 111.322 381.477C111.3 380.286 111.174 379.099 110.944 377.93V371.227C110.944 371.227 108.879 369.652 109.196 367.445C109.512 365.238 107.222 362.179 107.222 362.179L106.829 363.52C106.753 369.427 100.76 385.029 100.76 385.029C100.76 385.029 99.2606 387.476 98.7864 387.792C98.3122 388.108 96.8176 387.792 96.8176 387.792C96.8176 387.792 96.7362 389.841 95.6344 390.233C94.5327 390.626 89.1677 401.105 89.2491 402.762C89.3305 404.418 87.6683 405.677 87.6683 405.677C87.6683 405.677 88.4587 407.114 87.7498 407.884C87.0408 408.655 87.3522 408.435 87.3522 409.225C87.3522 410.015 87.3522 409.704 86.8731 410.01C86.3941 410.316 86.8731 410.407 86.8731 410.967C86.8956 411.25 86.81 411.531 86.6336 411.753L86.5618 413.079L77.3311 411.599C77.3311 411.599 77.9634 408.918 78.1981 407.655C78.337 406.917 78.0161 406.721 77.7191 406.697C77.9825 406.601 78.2508 406.309 78.1166 405.467C77.8771 403.968 79.5537 402.393 79.5537 402.393C81.2111 390.176 88.3054 382.765 88.3054 382.765C88.3054 382.286 89.8814 380.955 89.8814 380.955C89.8814 380.955 90.0395 378.825 91.3807 378.59C92.722 378.356 91.3807 376.618 91.3807 376.618C91.3807 376.618 92.8801 373.075 92.9567 371.83C93.0334 370.586 93.4789 364.649 93.4789 364.649C93.4789 364.649 94.1399 363.074 93.7711 361.973C93.4022 360.872 93.7711 360.633 93.7711 360.633C93.7711 360.633 94.2165 358.268 93.7711 357.401C93.5068 356.808 93.4107 356.154 93.4932 355.51L93.7184 352.408L94.0441 347.788C94.0441 347.788 118.575 343.556 121.276 346.941C121.569 347.359 121.785 347.826 121.914 348.32C123.83 354.543 123.169 375.229 123.169 375.229L121.985 381.219C121.985 381.219 122.776 382.324 122.541 383.268C122.435 384.038 122.516 384.823 122.776 385.556C122.776 385.556 122.776 386.035 122.694 387.289C122.625 387.867 122.653 388.453 122.776 389.022C122.776 389.022 122.852 399.894 122.934 402.101C123.015 404.308 123.801 405.175 123.801 405.175V407.856C124.014 408.353 124.12 408.89 124.112 409.431C124.108 410.005 124.238 410.572 124.491 411.087Z"
        fill="#444053"
      />
      <path
        id="Vector_62"
        opacity="0.1"
        d="M87.5865 426.005C87.0308 426.001 86.477 425.94 85.9339 425.823C82.7819 425.109 80.0228 421.878 80.0228 421.878L79.4719 422.749L73.2446 419.91L73.9488 418.239L73.9775 417.957L80.4156 421.236C80.4156 421.236 85.5555 423.697 87.5865 426.005Z"
        fill="black"
      />
      <path
        id="Vector_63"
        opacity="0.1"
        d="M129.305 419.877C125.473 420.49 121.339 419.36 121.339 419.36V420.633L115.298 421.112L115.111 418.862C117.027 418.895 120.108 418.929 121.449 418.824C124.103 418.819 126.746 419.173 129.305 419.877Z"
        fill="black"
      />
      <path
        id="Vector_64"
        opacity="0.1"
        d="M80.8183 404.614C81.1331 404.586 81.4503 404.627 81.7476 404.734C82.0586 404.92 82.3534 405.131 82.629 405.366C82.8359 405.476 83.0316 405.606 83.2134 405.754C83.4434 405.979 83.5392 406.314 83.7691 406.539C84.1906 406.955 84.8852 406.86 85.4457 407.061C85.5079 407.061 85.575 407.113 85.5846 407.176C85.5942 407.238 85.5415 407.291 85.4888 407.329C85.3501 407.408 85.1933 407.449 85.0337 407.449C84.8741 407.449 84.7173 407.408 84.5786 407.329C84.3008 407.171 84.0447 406.978 83.817 406.754C83.3794 406.366 82.8789 406.055 82.3368 405.835C81.5943 405.543 80.301 405.462 79.8315 404.734C80.0519 404.567 80.5309 404.619 80.8183 404.614Z"
        fill="black"
      />
      <path
        id="Vector_65"
        opacity="0.1"
        d="M80.1855 406.271C80.3522 406.318 80.5129 406.384 80.6645 406.467L81.4741 406.874C80.8992 406.912 80.3255 406.785 79.8215 406.506C79.6425 406.433 79.4681 406.35 79.2993 406.257C79.5935 406.212 79.893 406.217 80.1855 406.271Z"
        fill="black"
      />
      <path
        id="Vector_66"
        opacity="0.1"
        d="M81.2538 407.65C81.4305 407.642 81.6075 407.657 81.7807 407.693C82.0857 407.8 82.3683 407.962 82.6142 408.172C83.2048 408.648 83.9435 408.904 84.7027 408.894C84.5534 408.964 84.3878 408.993 84.2237 408.976H82.528C82.0869 409.005 81.6471 408.903 81.2633 408.684C80.9759 408.545 79.788 408.205 79.7784 407.808C79.7688 407.41 80.9663 407.65 81.2538 407.65Z"
        fill="black"
      />
      <path
        id="Vector_67"
        opacity="0.1"
        d="M119.839 409.66C120.358 409.718 120.88 409.732 121.401 409.703C121.949 409.689 122.483 409.523 122.943 409.225C123.398 408.875 123.303 408.516 122.723 408.492C122.184 408.517 121.655 408.647 121.166 408.875C120.913 408.977 120.67 409.1 120.438 409.244C120.318 409.297 119.926 409.665 119.839 409.66Z"
        fill="black"
      />
      <path
        id="Vector_68"
        opacity="0.1"
        d="M121.727 410.522C121.679 410.714 121.478 410.819 121.296 410.891C120.85 411.059 120.382 411.163 119.906 411.197C119.787 411.197 119.451 411.197 119.495 411.011C119.538 410.824 120.036 410.881 120.156 410.867C120.686 410.787 121.211 410.672 121.727 410.522Z"
        fill="black"
      />
      <path
        id="Vector_69"
        opacity="0.1"
        d="M116.994 410.211C117.656 410.135 118.326 410.267 118.91 410.589C118.927 410.601 118.941 410.617 118.948 410.637C118.951 410.644 118.953 410.651 118.953 410.659C118.953 410.666 118.951 410.673 118.948 410.68C118.887 410.795 118.794 410.888 118.679 410.95C118.565 411.011 118.435 411.037 118.306 411.025C118.05 410.995 117.799 410.932 117.559 410.838C117.16 410.709 116.742 410.646 116.323 410.651C116.137 410.668 115.949 410.668 115.763 410.651C115.207 410.556 115.389 410.331 115.815 410.283C116.207 410.238 116.6 410.214 116.994 410.211Z"
        fill="black"
      />
      <path
        id="Vector_70"
        opacity="0.1"
        d="M95.3322 379.246C94.5418 378.693 93.6049 378.386 92.6401 378.365C93.6171 378.304 94.5804 378.62 95.3322 379.246Z"
        fill="black"
      />
      <path
        id="Vector_71"
        opacity="0.1"
        d="M94.5946 376.067C95.3052 376.071 96.0011 376.27 96.6065 376.642L95.8784 376.441C95.4403 376.302 94.9893 376.207 94.5323 376.158C94.2689 376.134 94.0054 376.158 93.742 376.129C93.4785 376.101 93.1432 376.053 92.8462 376.043C93.4258 376.072 94.0102 376.039 94.5946 376.067Z"
        fill="black"
      />
      <path
        id="Vector_72"
        opacity="0.1"
        d="M96.9661 377.58C97.1865 377.623 97.4452 377.719 97.4931 377.944C97.4931 377.81 95.9315 377.369 95.7399 377.307C95.4189 377.192 94.389 376.742 94.1543 377.053C95.0596 377.298 96.0368 377.389 96.9661 377.58Z"
        fill="black"
      />
      <path
        id="Vector_73"
        opacity="0.1"
        d="M99.1599 370.581C100.195 370.233 101.129 369.635 101.876 368.838C101.868 369.193 101.772 369.541 101.598 369.85C101.423 370.159 101.175 370.42 100.875 370.61C100.268 370.978 99.5964 371.228 98.8964 371.347C98.1972 371.466 97.5151 371.67 96.8654 371.955C96.554 372.113 95.5816 373.032 95.275 372.984C94.887 372.927 95.505 372.314 95.6487 372.204C96.6738 371.404 97.9719 371.05 99.1599 370.581Z"
        fill="black"
      />
      <path
        id="Vector_74"
        opacity="0.1"
        d="M118.479 380.802C118.144 380.687 114.072 381.477 114.321 380.687C114.474 380.208 115.796 380.381 116.127 380.395C116.926 380.418 117.718 380.555 118.479 380.802Z"
        fill="black"
      />
      <path
        id="Vector_75"
        d="M114.091 286.586C114.091 288.659 113.373 290.668 112.06 292.273C110.746 293.877 108.918 294.978 106.885 295.389C104.851 295.799 102.739 295.494 100.905 294.526C99.0711 293.557 97.6291 291.984 96.8235 290.073C96.018 288.163 95.8985 286.033 96.4853 284.045C97.072 282.056 98.329 280.332 100.043 279.164C101.757 277.997 103.822 277.458 105.889 277.639C107.955 277.819 109.895 278.709 111.38 280.157C112.241 280.991 112.925 281.991 113.391 283.095C113.857 284.2 114.095 285.387 114.091 286.586Z"
        fill="#FBBEBE"
      />
      <path
        id="Vector_76"
        d="M109.746 290.287C109.746 290.287 106.829 298.799 108.487 300.532C110.144 302.265 96.5781 303.289 96.5781 303.289C96.5781 303.289 102.255 293.126 101.704 290.603C101.153 288.08 109.746 290.287 109.746 290.287Z"
        stroke="#60A3D9"
        stroke-miterlimit="10"
      />
      <path
        id="Vector_77"
        opacity="0.1"
        d="M121.894 348.344C121.894 348.549 121.894 348.746 121.894 348.937C121.736 352.959 114.56 361.073 112.903 359.733C111.245 358.392 99.9692 355.711 99.9692 355.711C99.9692 355.711 98.3118 353.112 96.5777 353.112C95.5932 353.026 94.6298 352.777 93.7275 352.374L94.0533 347.755C94.0533 347.755 118.574 343.556 121.276 346.941C121.564 347.368 121.774 347.843 121.894 348.344Z"
        fill="black"
      />
      <path
        id="Vector_78"
        d="M121.889 348.205C121.808 350.22 119.973 353.26 117.947 355.625C115.921 357.99 113.727 359.666 112.898 358.976C112.292 358.581 111.634 358.27 110.944 358.052C107.212 356.678 99.9693 354.955 99.9693 354.955C99.9693 354.955 98.3119 352.355 96.5779 352.355C94.8438 352.355 91.5338 350.622 91.5338 350.622C91.5338 350.622 91.8499 350.144 91.5338 348.415C91.2176 346.687 86.1735 349.373 86.1735 349.373C86.1735 349.373 85.934 337.711 87.7495 332.033C89.565 326.355 88.7075 319.107 88.7075 319.107C88.7075 319.107 90.0057 311.964 91.414 306.32C92.2619 302.935 93.1529 300.096 93.8331 299.646C95.6486 298.464 105.109 299.646 105.109 299.646C105.109 299.646 109.052 299.723 110.551 300.125C111.017 300.307 111.414 300.63 111.686 301.049C111.777 301.173 111.873 301.303 111.964 301.441C113.018 303.021 114.091 305.75 115.121 308.244C116.62 311.868 122.536 327.155 122.536 327.155C122.536 327.155 122.378 328.179 121.037 332.828C119.695 337.476 122.047 344.188 121.889 348.205Z"
        fill="#65617D"
      />
      <path
        id="Vector_79"
        d="M115.106 352.853L117.947 355.62C117.947 355.62 120.548 364.592 117.156 363.807C113.765 363.022 110.929 358.062 110.929 358.062L115.106 352.853Z"
        fill="#FBBEBE"
      />
      <path
        id="Vector_80"
        opacity="0.1"
        d="M122.282 327.873C115.576 327.796 113.846 318.418 113.846 318.418C113.846 318.418 113.367 309.12 112.505 307.407C112.026 306.449 111.811 304.094 111.715 302.179C112.769 303.759 113.837 306.487 114.872 308.982C116.371 312.587 122.282 327.873 122.282 327.873Z"
        fill="black"
      />
      <path
        id="Vector_81"
        d="M122.522 327.164C115.816 327.087 114.091 317.704 114.091 317.704C114.091 317.704 113.612 308.407 112.75 306.693C112.271 305.736 112.055 303.38 111.959 301.465C113.013 303.045 114.086 305.774 115.116 308.268C116.606 311.878 122.522 327.164 122.522 327.164Z"
        fill="#65617D"
      />
      <path
        id="Vector_82"
        opacity="0.1"
        d="M110.518 304.031C110.518 304.031 108.544 298.674 105.311 304.031C102.077 309.388 102.001 316.167 102.001 316.167L101.45 330.98C101.45 330.98 102.475 332.952 102.436 334.053C102.398 335.154 104.353 338.309 104.353 338.309C104.353 338.309 104.832 344.533 106.638 345.557L108.372 350.68C108.372 350.68 108.453 354.069 109.636 355.41C110.819 356.75 110.197 358.818 110.197 358.818L117.205 356.367C117.205 356.367 116.414 356.65 117.205 354.534C117.995 352.418 116.726 349.655 116.726 349.655C116.726 349.655 112.232 339.884 111.682 338.467C111.131 337.05 110.34 335.394 110.657 333.737C110.973 332.081 110.719 314.511 111.136 311.835C111.552 309.159 110.518 304.031 110.518 304.031Z"
        fill="black"
      />
      <path
        id="Vector_83"
        d="M111.246 303.289C111.246 303.289 109.272 297.932 106.039 303.289C102.805 308.646 102.729 315.425 102.729 315.425L102.178 330.238C102.178 330.238 103.203 332.21 103.165 333.311C103.126 334.412 105.081 337.567 105.081 337.567C105.081 337.567 105.56 343.791 107.366 344.815L109.1 349.938C109.1 349.938 109.181 353.327 110.364 354.668C111.547 356.008 110.929 358.076 110.929 358.076L117.933 355.62C117.933 355.62 117.142 355.908 117.933 353.792C118.723 351.676 117.454 348.913 117.454 348.913C117.454 348.913 112.96 339.142 112.41 337.725C111.859 336.308 111.068 334.652 111.385 332.995C111.701 331.339 111.452 313.769 111.864 311.088C112.276 308.407 111.246 303.289 111.246 303.289Z"
        fill="#444053"
      />
      <path
        id="Vector_84"
        opacity="0.1"
        d="M111.379 349.626C111.677 349.662 111.967 349.748 112.237 349.88C112.452 349.995 112.639 350.163 112.85 350.282C113.097 350.422 113.376 350.497 113.659 350.503C113.343 350.503 113.027 350.536 112.701 350.541C112.506 350.551 112.309 350.527 112.122 350.469C111.95 350.382 111.789 350.274 111.643 350.148C111.451 350.005 111.239 349.889 111.015 349.804C110.848 349.732 110.666 349.708 110.594 349.536C110.858 349.545 111.12 349.575 111.379 349.626Z"
        fill="black"
      />
      <path
        id="Vector_85"
        opacity="0.1"
        d="M114.048 351.743C114.345 351.743 114.642 351.676 114.943 351.656C115.377 351.64 115.812 351.663 116.242 351.723C115.608 352.041 114.896 352.167 114.191 352.087C113.989 352.035 113.776 352.035 113.573 352.087C113.353 352.178 112.716 352.901 112.658 352.26C112.601 351.618 113.684 351.757 114.048 351.743Z"
        fill="black"
      />
      <path
        id="Vector_86"
        opacity="0.1"
        d="M110.422 277.131L109.301 276.298C109.423 276.34 109.542 276.393 109.655 276.456C109.894 276.589 110.111 276.759 110.297 276.959C110.422 277.064 110.546 277.179 110.666 277.289L110.422 277.131Z"
        fill="black"
      />
      <path
        id="Vector_87"
        opacity="0.1"
        d="M111.696 301.058C111.49 301.529 111.159 301.933 110.738 302.227C110.486 302.399 110.197 302.511 109.895 302.552C109.465 302.591 109.032 302.546 108.62 302.418C108.097 302.285 107.58 302.125 107.073 301.939C106.082 301.531 105.066 301.186 104.031 300.905C102.455 300.546 100.621 300.675 99.4903 301.824C98.4988 302.835 98.2545 304.405 97.2629 305.415C95.936 306.765 93.7612 306.684 91.8787 306.42L91.438 306.358C92.2859 302.973 93.1768 300.134 93.857 299.684C95.6725 298.502 105.133 299.684 105.133 299.684C105.133 299.684 109.076 299.761 110.575 300.163C111.031 300.34 111.422 300.653 111.696 301.058Z"
        fill="black"
      />
      <path
        id="Vector_88"
        opacity="0.1"
        d="M96.1084 286.586C96.1083 284.819 96.6296 283.092 97.6072 281.619C98.5848 280.147 99.9751 278.996 101.604 278.31C103.233 277.623 105.029 277.432 106.766 277.761C108.503 278.09 110.105 278.923 111.37 280.157C111.399 281.722 111.059 283.326 111.499 284.834C111.907 286.237 112.936 287.366 113.866 288.535C113.384 290.693 112.123 292.597 110.323 293.884C108.524 295.17 106.313 295.748 104.114 295.507C101.915 295.265 99.8821 294.222 98.405 292.576C96.9278 290.93 96.1101 288.797 96.1084 286.586Z"
        fill="black"
      />
      <path
        id="Vector_89"
        d="M110.642 276.82C108.898 275.24 106.701 274.248 104.362 273.985C102.022 273.722 99.6596 274.202 97.6079 275.355C96.6652 275.874 95.8604 276.611 95.2607 277.504C94.0249 279.472 94.341 282.009 93.6943 284.24C93.0812 286.371 91.6154 288.132 90.4035 289.985C89.1915 291.838 88.1808 294.05 88.6359 296.209C88.9664 297.789 90.0729 299.206 90.0346 300.819C89.9905 301.717 89.6096 302.565 88.9678 303.195C88.326 303.825 87.4704 304.19 86.5713 304.218C88.0946 305.295 89.9963 305.654 91.8405 305.918C93.6847 306.181 95.893 306.262 97.2247 304.908C98.2163 303.902 98.4606 302.327 99.4522 301.322C100.583 300.168 102.417 300.039 103.993 300.403C105.569 300.766 107.021 301.528 108.582 301.935C108.995 302.058 109.427 302.102 109.856 302.064C111.203 301.882 111.983 300.388 112.089 299.038C112.175 297.913 112.012 296.616 112.812 295.821C113.109 295.566 113.43 295.34 113.77 295.146C114.384 294.723 114.87 294.139 115.175 293.458C115.48 292.778 115.592 292.027 115.499 291.287C115.131 288.616 112.237 286.95 111.48 284.36C111.04 282.857 111.38 281.253 111.351 279.688C111.322 278.122 110.733 276.336 109.258 275.81"
        fill="#444053"
      />
      <path
        id="Vector_90"
        opacity="0.1"
        d="M115.375 291.302C115.001 288.63 112.108 286.964 111.351 284.374C110.91 282.871 111.25 281.267 111.226 279.702C111.239 278.611 110.903 277.544 110.268 276.657L110.489 276.82C110.37 276.705 110.246 276.595 110.115 276.49C109.935 276.299 109.727 276.137 109.497 276.011C109.363 275.91 109.224 275.819 109.09 275.728L109.305 275.925L109.085 275.762C109.721 276.649 110.056 277.716 110.043 278.807C110.043 280.367 109.727 281.976 110.168 283.479C110.924 286.069 113.818 287.735 114.191 290.406C114.282 291.147 114.169 291.897 113.863 292.578C113.558 293.258 113.071 293.841 112.457 294.265C112.117 294.458 111.796 294.684 111.499 294.94C110.704 295.735 110.862 297.032 110.776 298.157C110.671 299.507 109.89 301.001 108.549 301.183C108.118 301.221 107.684 301.177 107.27 301.054C105.708 300.647 104.256 299.881 102.681 299.522C101.105 299.163 99.2747 299.287 98.1394 300.441C97.1478 301.446 96.9035 303.016 95.912 304.027C94.5851 305.381 92.4103 305.295 90.5326 305.037C89.2979 304.896 88.0831 304.617 86.9111 304.204C86.7527 304.229 86.5926 304.242 86.4321 304.242C87.9554 305.319 89.8571 305.678 91.7014 305.942C93.5456 306.205 95.7539 306.286 97.0808 304.931C98.0723 303.926 98.3166 302.351 99.3082 301.346C100.443 300.192 102.278 300.063 103.849 300.426C105.421 300.79 106.877 301.552 108.438 301.958C108.853 302.082 109.287 302.126 109.717 302.088C111.059 301.906 111.839 300.412 111.945 299.062C112.031 297.937 111.873 296.64 112.668 295.845C112.966 295.591 113.287 295.365 113.626 295.17C114.245 294.748 114.735 294.163 115.043 293.481C115.352 292.799 115.466 292.045 115.375 291.302Z"
        fill="black"
      />
      <path
        id="Vector_91"
        opacity="0.1"
        d="M102.178 427.149C134.432 427.149 160.58 424.082 160.58 420.298C160.58 416.514 134.432 413.447 102.178 413.447C69.923 413.447 43.7754 416.514 43.7754 420.298C43.7754 424.082 69.923 427.149 102.178 427.149Z"
        fill="#60A3D9"
      />
    </g>
  </g>
</svg>
