<svg width="550" height="450" viewBox="0 0 550 450" fill="none" xmlns="http://www.w3.org/2000/svg">
<path d="M87.341 0L50.9728 70.9356H58.3143V128.781H21.3153L0 170.355L264.112 305.766L351.454 135.41L87.341 0Z" fill="#F2F2F2"/>
<path d="M484.58 46.1445H79.6621V249.292H484.58V46.1445Z" fill="#3F3D56" fill-opacity="0.9"/>
<path opacity="0.3" d="M435.342 119.14H136.475V119.828H435.342V119.14Z" fill="#60A3D9"/>
<path opacity="0.3" d="M435.687 136.356H136.819V137.044H435.687V136.356Z" fill="#60A3D9"/>
<path opacity="0.3" d="M435.687 170.787H136.819V171.476H435.687V170.787Z" fill="#60A3D9"/>
<path opacity="0.3" d="M435.687 185.937H136.819V186.626H435.687V185.937Z" fill="#60A3D9"/>
<path opacity="0.3" d="M435.687 153.572H136.819V154.26H435.687V153.572Z" fill="#60A3D9"/>
<path d="M390.237 445.553C460.977 445.553 518.323 440.312 518.323 433.846C518.323 427.381 460.977 422.139 390.237 422.139C319.497 422.139 262.15 427.381 262.15 433.846C262.15 440.312 319.497 445.553 390.237 445.553Z" fill="#F2F2F2"/>
<path d="M145.11 186.436L144.16 185.439L188.647 143.038L227.862 171.246L259.574 136.087L273.48 147.906L311.306 125.21L353.322 153.451L419.266 115.941L419.947 117.138L353.261 155.07L311.264 126.842L273.341 149.596L259.701 138.002L228.059 173.084L188.769 144.823L145.11 186.436Z" fill="#60A3D9"/>
<path d="M273.221 410.321C276.457 422.285 287.543 429.695 287.543 429.695C287.543 429.695 293.382 417.707 290.145 405.742C286.908 393.778 275.822 386.368 275.822 386.368C275.822 386.368 269.984 398.357 273.221 410.321Z" fill="#3F3D56"/>
<path d="M277.976 407.75C286.858 416.395 287.942 429.685 287.942 429.685C287.942 429.685 274.628 428.958 265.747 420.313C256.866 411.667 255.781 398.377 255.781 398.377C255.781 398.377 269.095 399.104 277.976 407.75Z" fill="#60A3D9"/>
<path opacity="0.4" d="M526.931 59.9172C539.671 59.9172 550 49.5887 550 36.8479C550 24.1071 539.671 13.7786 526.931 13.7786C514.19 13.7786 503.861 24.1071 503.861 36.8479C503.861 49.5887 514.19 59.9172 526.931 59.9172Z" fill="#60A3D9"/>
<path opacity="0.4" d="M484.235 64.049C493.173 64.049 500.418 56.8037 500.418 47.8661C500.418 38.9285 493.173 31.6832 484.235 31.6832C475.298 31.6832 468.052 38.9285 468.052 47.8661C468.052 56.8037 475.298 64.049 484.235 64.049Z" fill="#60A3D9"/>
<path opacity="0.4" d="M464.265 353.276C469.019 353.276 472.873 349.422 472.873 344.668C472.873 339.914 469.019 336.06 464.265 336.06C459.511 336.06 455.657 339.914 455.657 344.668C455.657 349.422 459.511 353.276 464.265 353.276Z" fill="#60A3D9"/>
<path opacity="0.4" d="M317.585 395.971C321.199 395.971 324.128 393.042 324.128 389.429C324.128 385.816 321.199 382.887 317.585 382.887C313.972 382.887 311.043 385.816 311.043 389.429C311.043 393.042 313.972 395.971 317.585 395.971Z" fill="#60A3D9"/>
<path opacity="0.4" d="M295.549 311.269C300.303 311.269 304.157 307.415 304.157 302.661C304.157 297.907 300.303 294.053 295.549 294.053C290.795 294.053 286.941 297.907 286.941 302.661C286.941 307.415 290.795 311.269 295.549 311.269Z" fill="#60A3D9"/>
<path d="M418.815 128.436C423.759 128.436 427.767 124.428 427.767 119.484C427.767 114.54 423.759 110.532 418.815 110.532C413.871 110.532 409.863 114.54 409.863 119.484C409.863 124.428 413.871 128.436 418.815 128.436Z" fill="#60A3D9"/>
<path d="M360.648 281.634L353.059 282.477C353.059 282.477 349.686 297.656 353.059 317.893C356.432 338.131 360.648 358.368 360.648 358.368C360.648 358.368 364.021 424.141 365.707 424.984C367.394 425.827 382.572 430.887 383.415 425.827C384.258 420.768 384.258 305.245 384.258 305.245L396.064 360.898C396.064 360.898 397.75 430.887 401.123 430.887C404.496 430.887 415.458 430.043 415.458 424.141C415.458 418.238 417.988 340.66 417.988 340.66C417.988 340.66 417.144 283.321 413.772 281.634C410.399 279.948 360.648 281.634 360.648 281.634Z" fill="#2F2E41"/>
<path d="M367.393 422.454C367.393 422.454 359.804 421.611 358.118 422.454C356.431 423.297 353.902 429.2 358.118 432.573C362.334 435.946 373.296 441.005 376.669 441.005C379.008 440.902 381.302 440.328 383.415 439.319L381.728 424.984L367.393 422.454Z" fill="#2F2E41"/>
<path d="M401.123 426.67L401.966 438.476C401.966 438.476 412.928 440.162 413.772 438.476C414.615 436.789 423.047 432.573 423.89 431.73C424.734 430.887 425.577 421.611 420.517 420.768C415.458 419.925 413.772 422.454 413.772 422.454L401.123 426.67Z" fill="#2F2E41"/>
<path d="M330.291 210.802C330.291 210.802 310.053 230.197 312.583 240.316C315.113 250.434 335.35 279.948 335.35 279.948C335.35 279.948 354.745 290.066 357.275 279.948C359.804 269.829 343.783 272.358 343.783 272.358L331.134 242.002L345.469 221.764L330.291 210.802Z" fill="#FFB8B8"/>
<path d="M420.719 181.296C420.719 181.296 439.154 169.441 438.728 161.296C438.301 153.151 427.187 127.471 427.187 127.471C427.187 127.471 418.493 109.394 415.036 116.782C411.58 124.169 419.579 132.033 419.579 132.033L424.742 157.225L410.71 170.611L420.719 181.296Z" fill="#FFB8B8"/>
<path d="M374.983 164.425C383.366 164.425 390.161 157.629 390.161 149.246C390.161 140.864 383.366 134.068 374.983 134.068C366.6 134.068 359.805 140.864 359.805 149.246C359.805 157.629 366.6 164.425 374.983 164.425Z" fill="#FFB8B8"/>
<path d="M367.394 158.522L369.923 174.543L388.474 171.17C388.474 171.17 387.631 155.149 387.631 153.463C387.631 151.776 367.394 158.522 367.394 158.522Z" fill="#FFB8B8"/>
<path d="M366.551 174.543C366.551 174.543 387.631 169.484 390.161 171.17C392.691 172.857 405.339 174.543 405.339 174.543L419.674 196.467L415.458 224.294C415.458 224.294 414.615 268.986 416.301 276.575C417.988 284.164 427.263 285.007 407.869 286.693C388.475 288.38 385.102 285.85 371.61 289.223C358.118 292.596 347.156 287.537 350.529 284.164C353.902 280.791 359.805 226.824 353.059 221.764C346.313 216.705 343.783 190.565 343.783 190.565C343.783 190.565 366.551 178.76 366.551 174.543Z" fill="#D0CDE1"/>
<path d="M402.81 177.073L405.339 174.543L410.399 169.484C410.399 169.484 426.842 176.651 425.998 179.181C425.155 181.711 419.674 196.467 419.674 196.467L412.085 198.997L402.81 177.073Z" fill="#D0CDE1"/>
<path d="M353.902 192.251L343.783 190.565C343.783 190.565 336.194 198.997 333.664 202.37C331.135 205.743 326.075 214.175 326.075 214.175L343.783 226.824L357.275 212.489L353.902 192.251Z" fill="#D0CDE1"/>
<path d="M380.28 130.858L380.124 129.642C379.092 129.636 378.067 129.797 377.086 130.119C376.986 129.386 377.05 128.64 377.274 127.934C376.278 128.19 375.329 128.603 374.462 129.157L373.849 126.938L365.419 131.092C362.394 132.583 359.203 134.222 357.474 137.118C355.545 140.347 355.881 144.497 357.199 148.019C358.517 151.541 360.708 154.658 362.464 157.984C363.13 159.414 363.931 160.778 364.856 162.056C368.038 166.023 374.232 166.824 378.718 164.43C380.425 163.608 381.786 162.207 382.559 160.478C382.886 159.404 383.142 158.311 383.326 157.204C383.881 154.938 384.525 150.259 386.366 148.825C387.177 148.194 388.783 150.285 389.454 149.508C391.179 147.512 390.817 144.432 389.746 142.021C388.717 139.598 387.515 137.254 386.149 135.005C385.57 134.101 380.261 130.712 380.28 130.858Z" fill="#2F2E41"/>
<path d="M52.8056 79.199H8.73291V123.272H52.8056V79.199Z" fill="#3F3D56"/>
</svg>
