<svg width="550" height="450" viewBox="0 0 550 450" fill="none" xmlns="http://www.w3.org/2000/svg">
<path d="M80.8949 365.383C125.572 365.383 161.79 329.165 161.79 284.488C161.79 239.811 125.572 203.593 80.8949 203.593C36.2179 203.593 0 239.811 0 284.488C0 329.165 36.2179 365.383 80.8949 365.383Z" fill="#F2F2F2"/>
<path d="M94.0487 353.545C138.726 353.545 174.944 317.327 174.944 272.65C174.944 227.973 138.726 191.755 94.0487 191.755C49.3717 191.755 13.1538 227.973 13.1538 272.65C13.1538 317.327 49.3717 353.545 94.0487 353.545Z" fill="#60A3D9"/>
<path d="M109.175 50.3531H38.1455V121.383H109.175V50.3531Z" fill="#F2F2F2"/>
<path d="M119.04 39.8302H48.0107V110.86H119.04V39.8302Z" fill="#60A3D9"/>
<path d="M217.213 440.145H113.028V441.378H217.213V440.145Z" fill="#3F3D56"/>
<path d="M153.898 96.3909H60.5068V3H153.898V96.3909ZM61.8222 95.0755H152.582V4.31536H61.8222V95.0755Z" fill="#3F3D56"/>
<path d="M216.378 183.863H197.962V202.278H216.378V183.863Z" fill="#F2F2F2"/>
<path d="M220.324 179.259H201.909V197.674H220.324V179.259Z" fill="#60A3D9"/>
<path d="M238.081 191.097H207.828V160.844H238.081V191.097ZM209.143 189.782H236.766V162.159H209.143V189.782Z" fill="#3F3D56"/>
<path d="M165.078 441.674C109.593 441.674 64.4526 396.534 64.4526 341.049C64.4526 285.564 109.593 240.423 165.078 240.423C220.563 240.423 265.703 285.564 265.703 341.049C265.703 396.534 220.563 441.674 165.078 441.674ZM165.078 241.739C110.318 241.739 65.768 286.289 65.768 341.049C65.768 395.808 110.318 440.359 165.078 440.359C219.838 440.359 264.388 395.808 264.388 341.049C264.388 286.289 219.838 241.739 165.078 241.739Z" fill="#3F3D56"/>
<path d="M452.005 443.434H347.82V444.667H452.005V443.434Z" fill="#3F3D56"/>
<path d="M550 331.628H445.815V332.861H550V331.628Z" fill="#3F3D56"/>
<path d="M412.573 41.45H412.573C392.724 46.8272 381.47 69.0441 387.437 91.0729L395.019 119.061L403.627 116.729L405.801 105.009L407.364 115.716L462.692 100.729L464.668 90.0742L466.09 99.8081L472.319 98.1206L466.366 76.1451C459.499 50.7958 435.415 35.2623 412.573 41.45Z" fill="#2F2E41"/>
<path d="M371.919 384.127L380.469 414.38L379.154 425.561L404.146 420.299C404.146 420.299 393.623 402.542 394.938 393.335L371.919 384.127Z" fill="#FFB8B8"/>
<path d="M485.041 275.609L478.464 311.124L500.167 307.836L501.154 270.677L485.041 275.609Z" fill="#FFB8B8"/>
<path d="M419.93 104.612C433.006 104.612 443.607 94.0116 443.607 80.9354C443.607 67.8591 433.006 57.2588 419.93 57.2588C406.854 57.2588 396.253 67.8591 396.253 80.9354C396.253 94.0116 406.854 104.612 419.93 104.612Z" fill="#FFB8B8"/>
<path d="M412.367 98.364L411.051 111.518L400.528 117.437L428.151 178.601L449.197 127.96L435.385 117.437L434.07 92.4448L412.367 98.364Z" fill="#FFB8B8"/>
<path d="M431.769 163.803L404.833 115.016C404.833 115.016 383.1 116.45 377.839 121.054L388.362 188.138L385.073 196.687C385.073 196.687 358.108 224.31 363.37 284.159C368.631 344.008 368.631 390.704 368.631 390.704C368.631 390.704 387.704 413.065 427.165 390.704V271.663L483.068 267.059V281.528C483.068 281.528 540.944 267.059 542.259 245.356L527.371 219.497C524.494 214.501 520.016 210.621 514.661 208.487C509.306 206.352 503.387 206.086 497.863 207.733L448.868 222.337L443.607 202.607L448.868 188.138C448.868 188.138 462.68 177.615 462.68 163.803C462.68 149.992 466.626 133.55 466.626 133.55L441.043 121.747L431.769 163.803Z" fill="#2F2E41"/>
<path d="M478.464 158.542L488.987 184.191C488.987 184.191 500.167 197.345 502.141 211.814L505.429 228.914C505.429 228.914 513.321 259.167 500.825 257.852C488.329 256.537 491.618 227.599 491.618 227.599L489.645 219.049L478.464 200.634L461.966 169.275L478.464 158.542Z" fill="#FFB8B8"/>
<path d="M480.437 305.205C480.437 305.205 499.256 307.051 503 298.565L521.871 313.755C521.871 313.755 556.048 322.908 536.998 330.855C519.241 338.262 501.483 330.354 501.483 332.17C501.483 332.17 496.221 327.566 490.302 330.855C484.383 334.143 466.626 330.855 467.283 325.593C467.941 320.332 470.572 301.259 480.437 305.205Z" fill="#2F2E41"/>
<path d="M379.812 417.669C379.812 417.669 398.631 419.515 402.375 411.028L421.246 426.218C421.246 426.218 455.554 435.695 436.372 443.318C418.633 450.368 400.866 442.925 400.857 444.634C400.857 444.634 395.596 440.03 389.677 443.318C383.758 446.607 366 443.318 366.658 438.057C367.316 432.795 369.946 413.723 379.812 417.669Z" fill="#2F2E41"/>
<path d="M458.076 130.919L466.626 133.55L485.041 161.173L451.499 183.534L458.076 130.919Z" fill="#2F2E41"/>
<path d="M425.767 49.6696C420.9 46.0006 414.78 44.4993 408.838 46.1089L408.133 46.3C394.528 49.9855 386.834 65.2842 390.948 80.4706V80.4707L395.506 79.2357L394.725 73.4325L397.322 78.7439L424.359 71.4196L425.34 66.0651L426.058 70.9594L431.377 69.5185C437.198 81.1726 436.971 94.4651 430.696 109.396L439.757 106.942L441.719 96.2324L443.155 106.021L460.427 101.342L457.917 78.6134C453.492 62.2809 440.251 51.0021 425.767 49.6696Z" fill="#2F2E41"/>
<path d="M431.44 47.0647C437.978 47.0647 443.278 41.7646 443.278 35.2265C443.278 28.6884 437.978 23.3882 431.44 23.3882C424.902 23.3882 419.602 28.6884 419.602 35.2265C419.602 41.7646 424.902 47.0647 431.44 47.0647Z" fill="#2F2E41"/>
<path d="M430.782 41.8032C428.01 41.8048 425.326 40.8331 423.197 39.0576C421.068 37.282 419.63 34.8155 419.135 32.0882C418.639 29.361 419.116 26.5462 420.484 24.135C421.851 21.7238 424.022 19.8693 426.617 18.895C424.96 19.1076 423.366 19.6688 421.942 20.5415C420.517 21.4142 419.294 22.5788 418.352 23.9584C417.41 25.3381 416.771 26.9017 416.476 28.5462C416.182 30.1907 416.24 31.8788 416.645 33.4995C417.05 35.1203 417.794 36.6368 418.827 37.9493C419.861 39.2618 421.161 40.3406 422.641 41.1146C424.122 41.8886 425.749 42.3403 427.417 42.4399C429.085 42.5396 430.754 42.2849 432.317 41.6927C431.808 41.7626 431.295 41.7996 430.782 41.8032Z" fill="#2F2E41"/>
<path d="M435.057 85.2103C436.691 85.2103 438.016 83.2963 438.016 80.9353C438.016 78.5744 436.691 76.6604 435.057 76.6604C433.422 76.6604 432.097 78.5744 432.097 80.9353C432.097 83.2963 433.422 85.2103 435.057 85.2103Z" fill="#FFB8B8"/>
<path d="M378.167 311.453C361.886 309.029 342.164 309.593 320.949 311.453C329.794 295.235 329.794 280.985 320.949 268.704C339.952 271.011 359.164 271.011 378.167 268.704C370.019 282.269 370.738 296.579 378.167 311.453Z" fill="#60A3D9"/>
<path d="M370.604 160.515L368.631 186.822C368.631 186.822 359.423 201.291 357.45 232.202L356.792 251.275C356.792 251.275 342.981 278.24 354.162 277.582C365.342 276.925 364.685 251.933 364.685 251.933L384.415 194.714V167.092L370.604 160.515Z" fill="#FFB8B8"/>
<path d="M382.442 121.712H377.838C377.838 121.712 370.604 126.315 364.685 146.046C358.766 165.776 358.108 166.434 358.108 166.434L389.019 173.669L382.442 121.712Z" fill="#2F2E41"/>
<path d="M359.094 281.857H340.679V300.272H359.094V281.857Z" fill="#D0CDE1"/>
</svg>
