<svg width="550" height="450" viewBox="0 0 550 450" fill="none" xmlns="http://www.w3.org/2000/svg">
<path d="M125.162 230.846C143.312 230.846 158.025 216.133 158.025 197.983C158.025 179.833 143.312 165.12 125.162 165.12C107.012 165.12 92.2988 179.833 92.2988 197.983C92.2988 216.133 107.012 230.846 125.162 230.846Z" fill="#FF6584"/>
<path d="M328.755 235.193C328.755 299.894 290.291 322.485 242.844 322.485C195.397 322.485 156.934 299.894 156.934 235.193C156.934 170.493 242.844 88.1836 242.844 88.1836C242.844 88.1836 328.755 170.493 328.755 235.193Z" fill="#60A3D9"/>
<path d="M239.715 312.588L240.594 258.439L277.212 191.449L240.732 249.945L241.128 225.597L266.364 177.131L241.233 219.154L241.944 175.365L268.968 136.779L242.056 168.479L242.5 88.1838L239.707 194.48L239.937 190.095L212.461 148.039L239.496 198.512L236.936 247.418L236.86 246.12L205.186 201.863L236.764 250.706L236.443 256.822L236.386 256.914L236.412 257.416L229.918 381.494H238.595L239.637 317.405L271.137 268.682L239.715 312.588Z" fill="#3F3D56"/>
<path d="M411.646 296.303C411.646 361.003 373.183 383.594 325.736 383.594C278.289 383.594 239.826 361.003 239.826 296.303C239.826 231.603 325.736 149.293 325.736 149.293C325.736 149.293 411.646 231.603 411.646 296.303Z" fill="#3F3D56"/>
<path d="M322.606 373.697L323.486 319.549L360.103 252.559L323.624 311.054L324.02 286.707L349.256 238.241L324.124 280.264V280.264L324.836 236.474L351.86 197.889L324.947 229.589L325.392 149.293L322.599 255.59L322.828 251.205L295.353 209.149L322.388 259.622L319.828 308.528L319.751 307.23L288.078 262.973L319.656 311.816L319.336 317.932L319.278 318.024L319.304 318.526L312.809 442.603H321.487L322.528 378.515L354.029 329.792L322.606 373.697Z" fill="#F2F2F2"/>
<path d="M250.099 296.303C250.099 361.003 211.635 383.594 164.188 383.594C116.741 383.594 78.2778 361.003 78.2778 296.303C78.2778 231.603 164.188 149.293 164.188 149.293C164.188 149.293 250.099 231.603 250.099 296.303Z" fill="#3F3D56"/>
<path d="M161.059 373.697L161.939 319.549L198.556 252.559L162.077 311.054L162.472 286.707L187.708 238.241L162.577 280.264V280.264L163.288 236.474L190.312 197.889L163.4 229.589L163.844 149.293L161.051 255.59L161.281 251.205L133.806 209.149L160.84 259.622L158.28 308.528L158.204 307.23L126.53 262.973L158.108 311.816L157.788 317.932L157.731 318.024L157.757 318.526L151.261 442.603H159.939L160.98 378.515L192.481 329.792L161.059 373.697Z" fill="#F2F2F2"/>
<path d="M245.032 442.057C203.942 442.057 164.124 427.81 132.361 401.743C100.599 375.676 78.8569 339.403 70.8407 299.103C62.8244 258.803 69.0296 216.97 88.399 180.733C107.768 144.495 139.103 116.094 177.065 100.37C215.027 84.6459 257.266 82.5707 296.586 94.4983C335.906 106.426 369.874 131.618 392.702 165.783C415.53 199.947 425.806 240.97 421.779 281.862C417.751 322.753 399.67 360.983 370.615 390.038C354.162 406.582 334.59 419.698 313.034 428.627C291.477 437.556 268.364 442.12 245.032 442.057ZM245.032 88.2074C147.849 88.2074 68.7849 167.271 68.7849 264.454C68.7849 361.637 147.849 440.701 245.032 440.701C342.214 440.701 421.278 361.637 421.278 264.454C421.278 167.271 342.214 88.2074 245.032 88.2074Z" fill="#2F2E41"/>
<path d="M390.256 365.78V441.411H99.833V365.78L245.044 290.149L245.347 290.306L390.256 365.78Z" fill="#F2F2F2"/>
<path opacity="0.1" d="M390.256 365.78V441.411H245.347V290.306L390.256 365.78Z" fill="black"/>
<path d="M232.641 336.435L221.75 340.547V324.335L232.641 319.561V336.435Z" fill="#3F3D56"/>
<path d="M112.237 381.814L108.606 383.187V373.343L112.237 371.739V381.814Z" fill="#3F3D56"/>
<path d="M124.943 377.578L120.707 379.166V368.503L124.943 366.644V377.578Z" fill="#3F3D56"/>
<path d="M138.858 372.133L134.018 373.954V362.452L138.858 360.322V372.133Z" fill="#3F3D56"/>
<path d="M155.8 365.478L149.75 367.762V355.797L155.8 353.142V365.478Z" fill="#3F3D56"/>
<path d="M176.371 357.612L169.111 360.356V347.326L176.371 344.142V357.612Z" fill="#3F3D56"/>
<path d="M201.179 348.536L192.708 351.727V337.04L201.179 333.327V348.536Z" fill="#3F3D56"/>
<path d="M112.237 401.78L108.606 402.693V392.705L112.237 391.557V401.78Z" fill="#3F3D56"/>
<path d="M124.943 398.756L120.707 399.816V389.075L124.943 387.74V398.756Z" fill="#3F3D56"/>
<path d="M138.858 395.125L134.018 396.341V384.839L138.858 383.313V395.125Z" fill="#3F3D56"/>
<path d="M155.8 390.89L149.75 392.409V379.999L155.8 378.095V390.89Z" fill="#3F3D56"/>
<path d="M176.371 385.444L169.111 387.277V373.948L176.371 371.664V385.444Z" fill="#3F3D56"/>
<path d="M201.178 379.394L192.103 381.677V366.688L201.178 363.832V379.394Z" fill="#3F3D56"/>
<path d="M232.641 371.528L221.75 374.266V357.612L232.641 354.196V371.528Z" fill="#3F3D56"/>
<path d="M232.641 406.016L221.75 407.402V390.89L232.641 388.83V406.016Z" fill="#3F3D56"/>
<path d="M112.237 421.142L108.606 421.609V412.067L112.237 411.375V421.142Z" fill="#3F3D56"/>
<path d="M124.943 419.932L120.707 420.466V410.251L124.943 409.457V419.932Z" fill="#3F3D56"/>
<path d="M138.858 418.117L134.018 418.729V407.226L138.858 406.304V418.117Z" fill="#3F3D56"/>
<path d="M155.8 415.697L149.75 416.47V404.201L155.8 403.047V415.697Z" fill="#3F3D56"/>
<path d="M176.371 413.276L169.111 414.198V400.571L176.371 399.188V413.276Z" fill="#3F3D56"/>
<path d="M201.178 410.252L192.103 411.398V396.335L201.178 394.613V410.252Z" fill="#3F3D56"/>
<path d="M378.457 381.814L382.088 383.187V373.343L378.457 371.739V381.814Z" fill="#3F3D56"/>
<path d="M365.751 377.578L369.987 379.166V368.503L365.751 366.644V377.578Z" fill="#3F3D56"/>
<path d="M351.835 372.133L356.676 373.954V362.452L351.835 360.322V372.133Z" fill="#3F3D56"/>
<path d="M334.894 365.478L340.945 367.762V355.797L334.894 353.142V365.478Z" fill="#3F3D56"/>
<path d="M314.323 357.612L321.583 360.356V347.326L314.323 344.142V357.612Z" fill="#3F3D56"/>
<path d="M289.515 348.536L297.986 351.727V337.04L289.515 333.327V348.536Z" fill="#3F3D56"/>
<path d="M378.457 401.78L382.088 402.693V392.705L378.457 391.557V401.78Z" fill="#3F3D56"/>
<path d="M365.751 398.756L369.987 399.816V389.075L365.751 387.74V398.756Z" fill="#3F3D56"/>
<path d="M351.835 395.125L356.676 396.341V384.839L351.835 383.313V395.125Z" fill="#3F3D56"/>
<path d="M334.894 390.89L340.945 392.409V379.999L334.894 378.095V390.89Z" fill="#3F3D56"/>
<path d="M314.323 385.444L321.583 387.277V373.948L314.323 371.664V385.444Z" fill="#3F3D56"/>
<path d="M289.515 379.394L298.591 381.677V366.688L289.515 363.832V379.394Z" fill="#3F3D56"/>
<path d="M258.053 371.528L268.944 374.266V357.612L258.053 354.196V371.528Z" fill="#3F3D56"/>
<path d="M258.053 406.016L268.944 407.402V390.89L258.053 388.83V406.016Z" fill="#3F3D56"/>
<path d="M378.457 421.142L382.088 421.609V412.067L378.457 411.375V421.142Z" fill="#3F3D56"/>
<path d="M365.751 419.932L369.987 420.466V410.251L365.751 409.457V419.932Z" fill="#3F3D56"/>
<path d="M351.835 418.117L356.676 418.729V407.226L351.835 406.304V418.117Z" fill="#3F3D56"/>
<path d="M334.894 415.697L340.945 416.47V404.201L334.894 403.047V415.697Z" fill="#3F3D56"/>
<path d="M314.323 413.276L321.583 414.198V400.571L314.323 399.188V413.276Z" fill="#3F3D56"/>
<path d="M289.515 410.252L298.591 411.398V396.335L289.515 394.613V410.252Z" fill="#3F3D56"/>
<path d="M268.339 340.671L257.448 336.564V319.494L268.339 324.27V340.671Z" fill="#3F3D56"/>
<path d="M370.601 427.944H369.713V442.148H370.601V427.944Z" fill="#2F2E41"/>
<path d="M381.06 431.81H380.431V441.875H381.06V431.81Z" fill="#2F2E41"/>
<path d="M390.355 433.039H389.802V441.885H390.355V433.039Z" fill="#2F2E41"/>
<path d="M344.575 423.441V441.714L332.777 441.696L320.978 441.677V421.142L332.777 422.292L344.575 423.441Z" fill="#3F3D56"/>
<path d="M146.119 441.714L169.716 441.676V421.142L146.119 423.439V441.714Z" fill="#3F3D56"/>
<path d="M528.699 441.109H0V442.319H528.699V441.109Z" fill="#2F2E41"/>
<path opacity="0.1" d="M344.575 423.441V441.714L332.777 441.696V422.292L344.575 423.441Z" fill="black"/>
<path d="M243.835 425.075H242.625V442.016H243.835V425.075Z" fill="#2F2E41"/>
<path d="M250.212 419.044C250.212 424.98 247.041 429.934 243.229 430.104C239.523 430.27 236.593 425.827 236.593 420.186C236.593 414.545 243.834 399.058 243.834 399.058C243.834 399.058 250.212 413.107 250.212 419.044Z" fill="#60A3D9"/>
<path d="M101.474 430.504H100.752V440.609H101.474V430.504Z" fill="#2F2E41"/>
<path d="M105.278 426.907C105.278 430.448 103.387 433.403 101.113 433.504C98.9023 433.603 97.1548 430.953 97.1548 427.588C97.1548 424.223 101.474 414.986 101.474 414.986C101.474 414.986 105.278 423.366 105.278 426.907Z" fill="#60A3D9"/>
<path d="M375.04 428.504C375.04 431.872 372.918 434.502 370.158 434.373C367.227 434.235 364.714 431.074 364.714 427.319C364.714 423.565 370.158 414.184 370.158 414.184C370.158 414.184 375.04 425.137 375.04 428.504Z" fill="#60A3D9"/>
<path d="M384.206 432.207C384.206 434.593 382.702 436.457 380.746 436.366C378.669 436.268 376.889 434.028 376.889 431.367C376.889 428.707 380.746 422.06 380.746 422.06C380.746 422.06 384.206 429.821 384.206 432.207Z" fill="#60A3D9"/>
<path d="M393.119 433.388C393.119 435.485 391.798 437.124 390.079 437.043C388.253 436.957 386.688 434.988 386.688 432.65C386.688 430.312 390.079 424.47 390.079 424.47C390.079 424.47 393.119 431.291 393.119 433.388Z" fill="#60A3D9"/>
<path d="M397.416 105.471C397.416 105.471 391.527 123.139 394.798 127.065C398.07 130.991 375.167 115.286 375.167 115.286L387.6 100.89L397.416 105.471Z" fill="#A0616A"/>
<path d="M383.986 105.442C400.211 105.442 413.365 92.2886 413.365 76.0627C413.365 59.8368 400.211 46.6831 383.986 46.6831C367.76 46.6831 354.606 59.8368 354.606 76.0627C354.606 92.2886 367.76 105.442 383.986 105.442Z" fill="#2F2E41"/>
<path d="M498.187 304.396L483.137 316.175L474.63 302.433L489.681 291.964L498.187 304.396Z" fill="#A0616A"/>
<path d="M476.921 393.062L480.847 412.039L491.971 427.089C491.971 427.089 522.072 436.25 501.787 440.831C481.501 445.411 476.921 437.559 476.921 437.559L462.525 425.126V442.14H453.364L451.401 417.928C451.401 417.928 450.092 410.73 455.981 402.878L457.29 391.099L476.921 393.062Z" fill="#2F2E41"/>
<path d="M401.015 158.147L406.25 188.248C406.25 188.248 461.87 182.358 465.797 193.482C469.723 204.607 471.032 207.878 471.032 207.878L459.907 211.805L454.672 201.989C453.078 201.425 451.385 201.191 449.697 201.304C448.01 201.416 446.363 201.872 444.857 202.644C439.622 205.261 393.817 211.805 390.545 203.298C387.273 194.791 378.112 163.382 378.112 163.382L391.854 152.258L401.015 158.147Z" fill="#A0616A"/>
<path opacity="0.1" d="M401.015 158.147L406.25 188.248C406.25 188.248 461.87 182.358 465.797 193.482C469.723 204.607 471.032 207.878 471.032 207.878L459.907 211.805L454.672 201.989C453.078 201.425 451.385 201.191 449.697 201.304C448.01 201.416 446.363 201.872 444.857 202.644C439.622 205.261 393.817 211.805 390.545 203.298C387.273 194.791 378.112 163.382 378.112 163.382L391.854 152.258L401.015 158.147Z" fill="black"/>
<path d="M431.77 245.177L436.351 260.882L448.129 321.083C448.129 321.083 449.438 365.579 451.401 370.814C453.364 376.049 453.364 376.704 451.401 378.667C449.438 380.63 445.512 387.173 451.401 391.099C457.29 395.026 478.23 399.606 478.884 395.026C479.538 390.445 479.538 383.247 478.884 379.975C478.23 376.703 480.847 325.663 480.847 325.663L472.995 247.794L446.166 235.362L431.77 245.177Z" fill="#2F2E41"/>
<path opacity="0.1" d="M431.77 245.177L436.351 260.882L448.129 321.083C448.129 321.083 449.438 365.579 451.401 370.814C453.364 376.049 453.364 376.704 451.401 378.667C449.438 380.63 445.512 387.173 451.401 391.099C457.29 395.026 478.23 399.606 478.884 395.026C479.538 390.445 479.538 383.247 478.884 379.975C478.23 376.703 480.847 325.663 480.847 325.663L472.995 247.794L446.166 235.362L431.77 245.177Z" fill="black"/>
<path d="M459.907 183.667L474.303 211.15C474.303 211.15 556.752 247.794 549.555 262.845C542.357 277.895 502.441 306.033 502.441 306.033C502.441 306.033 500.477 317.157 494.588 313.885C488.699 310.613 474.303 293.6 475.612 291.637C476.92 289.674 481.501 285.093 483.464 285.747C485.427 286.402 508.33 268.734 508.33 268.734L469.068 258.919C469.068 258.919 421.954 257.61 419.337 235.362C416.719 213.113 419.337 209.187 419.337 209.187L416.065 201.989L442.894 185.63L459.907 183.667Z" fill="#2F2E41"/>
<path d="M480.193 292.291L466.451 304.724C466.451 304.724 454.673 299.489 447.475 301.452C440.277 303.415 427.844 304.724 427.844 304.724L429.807 315.848L446.502 312.768L433.079 331.553C433.079 331.553 433.079 360.999 441.585 360.999C450.092 360.999 447.475 343.331 447.475 343.331L473.649 323.046C473.649 323.046 486.736 317.811 488.045 317.811C489.354 317.811 480.193 292.291 480.193 292.291Z" fill="#2F2E41"/>
<path d="M394.799 110.706C407.086 110.706 417.047 100.745 417.047 88.4576C417.047 76.1702 407.086 66.2094 394.799 66.2094C382.511 66.2094 372.55 76.1702 372.55 88.4576C372.55 100.745 382.511 110.706 394.799 110.706Z" fill="#A0616A"/>
<path d="M372.877 105.798C372.877 105.798 383.347 103.181 386.619 105.798C389.89 108.416 390.545 114.305 395.125 114.959C399.706 115.614 403.632 115.614 404.286 116.268C404.941 116.922 419.991 135.244 419.991 135.244C419.991 135.244 429.152 140.479 431.115 147.677C433.078 154.875 452.709 179.087 455.327 181.704C457.944 184.321 438.313 197.409 431.77 201.989C425.226 206.57 406.249 208.533 400.36 198.063C394.471 187.593 362.407 119.54 372.877 105.798Z" fill="#575A89"/>
<path d="M397.743 148.332L402.978 178.432C402.978 178.432 458.598 172.543 462.525 183.667C466.451 194.791 467.76 198.063 467.76 198.063L456.635 201.989L451.401 192.174C449.806 191.609 448.113 191.376 446.425 191.488C444.738 191.601 443.091 192.057 441.585 192.828C436.35 195.446 390.545 201.989 387.273 193.483C384.001 184.976 374.84 153.567 374.84 153.567L388.582 142.442L397.743 148.332Z" fill="#A0616A"/>
<path d="M385.238 108.551C385.238 108.551 401.015 141.788 399.706 150.949C398.397 160.11 393.817 153.567 393.817 153.567C393.817 153.567 387.928 144.405 385.31 149.64C382.693 154.875 379.421 162.073 376.803 161.419C374.186 160.764 359.79 112.342 367.642 107.761C375.495 103.181 385.238 108.551 385.238 108.551Z" fill="#575A89"/>
<path d="M352.158 66.7592C368.384 66.7592 381.537 53.6055 381.537 37.3796C381.537 21.1537 368.384 8 352.158 8C335.932 8 322.778 21.1537 322.778 37.3796C322.778 53.6055 335.932 66.7592 352.158 66.7592Z" fill="#2F2E41"/>
<path d="M326.816 61.7077C330.619 64.4561 335.024 66.2539 339.664 66.9506C344.304 67.6473 349.043 67.2226 353.486 65.7122C357.928 64.2018 361.943 61.6495 365.197 58.2689C368.45 54.8883 370.847 50.7777 372.186 46.281C371.679 50.3108 370.343 54.1917 368.26 57.6788C366.178 61.1659 363.395 64.1834 360.088 66.5408C356.781 68.8982 353.021 70.5443 349.045 71.3751C345.069 72.206 340.965 72.2036 336.99 71.368C333.015 70.5324 329.257 68.8819 325.953 66.5206C322.648 64.1592 319.869 61.1384 317.791 57.6489C315.713 54.1593 314.381 50.2768 313.879 46.2464C313.377 42.216 313.716 38.1254 314.875 34.2327C314.216 39.4625 314.978 44.7731 317.079 49.6072C319.18 54.4414 322.543 58.6211 326.816 61.7077Z" fill="#2F2E41"/>
<path d="M377.942 102.504C389.841 102.504 399.487 92.8583 399.487 80.9593C399.487 69.0603 389.841 59.4142 377.942 59.4142C366.043 59.4142 356.397 69.0603 356.397 80.9593C356.397 92.8583 366.043 102.504 377.942 102.504Z" fill="#2F2E41"/>
<path d="M394.269 87.8145C404.815 87.8145 413.365 81.128 413.365 72.8799C413.365 64.6317 404.815 57.9453 394.269 57.9453C383.722 57.9453 375.172 64.6317 375.172 72.8799C375.172 81.128 383.722 87.8145 394.269 87.8145Z" fill="#2F2E41"/>
<path d="M395.125 98.273C397.474 98.273 399.379 94.9039 399.379 90.7479C399.379 86.5918 397.474 83.2227 395.125 83.2227C392.776 83.2227 390.872 86.5918 390.872 90.7479C390.872 94.9039 392.776 98.273 395.125 98.273Z" fill="#A0616A"/>
<path d="M453.511 201.703C453.511 201.703 465.095 195.057 467.245 196.724C469.396 198.39 470.351 203.605 470.351 203.605L456.963 208.86L453.037 201.662L453.511 201.703Z" fill="#2F2E41"/>
</svg>
