<svg width="550" height="450" viewBox="0 0 550 450" fill="none" xmlns="http://www.w3.org/2000/svg">
<path opacity="0.1" d="M207.315 75.432H171.642C170.18 75.432 168.995 76.6174 168.995 78.0796V88.1476C168.995 89.6098 170.18 90.7951 171.642 90.7951H207.315C208.778 90.7951 209.963 89.6098 209.963 88.1476V78.0796C209.963 76.6174 208.778 75.432 207.315 75.432Z" fill="#60A3D9"/>
<path opacity="0.1" d="M329.196 61.6052H293.523C292.06 61.6052 290.875 62.7906 290.875 64.2528V74.3208C290.875 75.783 292.06 76.9684 293.523 76.9684H329.196C330.658 76.9684 331.843 75.783 331.843 74.3208V64.2528C331.843 62.7906 330.658 61.6052 329.196 61.6052Z" fill="#60A3D9"/>
<path opacity="0.1" d="M306.664 217.797H270.99C269.528 217.797 268.343 218.982 268.343 220.445V230.513C268.343 231.975 269.528 233.16 270.99 233.16H306.664C308.126 233.16 309.311 231.975 309.311 230.513V220.445C309.311 218.982 308.126 217.797 306.664 217.797Z" fill="#60A3D9"/>
<path opacity="0.1" d="M325.099 234.696H289.426C287.964 234.696 286.778 235.882 286.778 237.344V247.412C286.778 248.874 287.964 250.06 289.426 250.06H325.099C326.561 250.06 327.747 248.874 327.747 247.412V237.344C327.747 235.882 326.561 234.696 325.099 234.696Z" fill="#60A3D9"/>
<path opacity="0.1" d="M434.69 227.015H399.017C397.554 227.015 396.369 228.2 396.369 229.662V239.73C396.369 241.193 397.554 242.378 399.017 242.378H434.69C436.152 242.378 437.337 241.193 437.337 239.73V229.662C437.337 228.2 436.152 227.015 434.69 227.015Z" fill="#60A3D9"/>
<path opacity="0.1" d="M101.31 239.305H65.6363C64.1741 239.305 62.9888 240.491 62.9888 241.953V252.021C62.9888 253.483 64.1741 254.669 65.6363 254.669H101.31C102.772 254.669 103.957 253.483 103.957 252.021V241.953C103.957 240.491 102.772 239.305 101.31 239.305Z" fill="#60A3D9"/>
<path opacity="0.1" d="M293.861 251.596H258.188C256.725 251.596 255.54 252.781 255.54 254.243V264.311C255.54 265.774 256.725 266.959 258.188 266.959H293.861C295.323 266.959 296.508 265.774 296.508 264.311V254.243C296.508 252.781 295.323 251.596 293.861 251.596Z" fill="#60A3D9"/>
<path d="M368.157 129.311L349.383 74.8124L342.634 75.8366L336.591 76.6099C336.744 74.5615 337.011 67.2076 333.262 63.3515C332.899 62.0303 331.941 60.5298 330.097 58.8398C321.115 50.6052 319.246 67.4483 319.246 67.4483C319.246 67.4483 317.197 71.0023 314.376 75.9697L312.896 75.6881L312.476 79.3547C306.228 90.4008 297.927 105.349 297.927 106.752C297.927 109 296.805 111.991 296.805 111.991C296.805 111.991 290.445 122.469 288.197 127.713C286.888 130.806 284.973 133.606 282.564 135.947C282.564 135.947 282.021 136.362 281.13 136.972C281.187 135.98 281.359 134.999 281.642 134.047C282.461 131.369 284.366 129.075 284.873 126.32C284.992 125.659 285.037 124.988 285.007 124.318C285.124 121.086 283.552 117.906 282.897 114.675C282.134 110.931 282.543 106.809 280.546 103.557C279.01 101.073 276.285 99.5265 273.453 98.8147C270.852 98.1643 268.291 98.3948 265.67 98.1182C263.263 97.8622 260.963 96.797 258.556 96.4027C257.271 96.1231 255.94 96.1231 254.654 96.4027C250.583 97.5242 249.308 102.655 246.163 105.477C245.032 106.501 243.644 107.208 242.62 108.33C241.129 109.963 240.612 112.242 240.689 114.475C240.669 115.223 240.714 115.972 240.822 116.713C241.211 119.391 242.246 121.926 242.871 124.553C243.343 126.497 243.599 128.488 243.634 130.488C243.634 130.939 243.634 131.39 243.593 131.835C243.611 132.737 243.371 133.626 242.901 134.396C242.333 135.179 241.396 135.558 240.561 136.06C237.832 133.895 235.785 130.99 234.662 127.692C234.662 127.692 234.523 127.866 234.288 128.204V127.692C234.288 127.692 229.167 120.175 228.388 114.034L230.17 114.219L234.267 56.5815L223.805 55.0452C223.513 52.0698 222.719 47.7528 220.615 44.6033C222.371 41.1415 223.257 36.4558 215.555 35.9898C206.542 35.4418 207.095 42.4628 208.053 46.3035C207.619 48.3994 207.446 50.541 207.541 52.6792L198.323 51.3375L198.271 52.0852H196.08L189.371 110.885L195.086 110.598L216.031 112.78C217.706 128.005 220.338 146.819 223.462 151.254C223.566 151.404 223.681 151.546 223.805 151.679V178.621C223.805 178.621 223.431 213.444 217.066 219.041C220.971 217.652 225.101 217.004 229.244 217.131C229.172 217.362 229.1 217.608 229.028 217.869C228.097 221.306 227.448 224.814 227.088 228.357C226.999 229.138 226.919 229.954 226.847 230.804C226.261 238.605 226.369 246.442 227.17 254.223C229.791 281.918 233.909 301.757 233.909 301.757L235.056 317.857C235.056 317.857 233.934 345.178 236.925 354.16C238.052 355.199 239.348 356.038 240.756 356.644C240.781 356.9 240.812 357.156 240.838 357.427C240.863 357.699 240.904 358.119 240.94 358.477C239.598 359.087 237.094 361.504 236.551 370.998C236.551 370.998 237.299 378.111 235.43 381.476C233.561 384.84 234.682 394.575 240.295 395.697C243.882 396.357 247.559 396.357 251.146 395.697C251.146 395.697 253.768 395.697 251.894 386.341L251.566 383.944C251.525 379.31 251.72 374.347 252.642 372.867C254.511 369.871 251.894 366.881 251.894 366.881C251.894 366.881 251.71 366.983 251.407 367.121C250.926 364.535 250.296 360.336 250.521 357.13C250.521 356.859 250.568 356.618 250.598 356.337C251.74 355.74 252.805 355.006 253.768 354.15V318.605C253.768 318.605 253.394 263.963 257.512 262.837C257.512 262.837 259.381 282.67 258.633 292.405C257.886 302.141 259.755 312.618 259.755 312.618L260.502 352.291C260.502 352.291 261.219 352.634 262.377 353.039L262.3 353.761C261.844 358.17 261.112 364.827 260.446 368.904C259.997 369.082 259.597 369.366 259.281 369.731C258.964 370.097 258.74 370.533 258.628 371.003C257.507 374.747 258.254 384.103 256.006 386.725C254.68 388.261 253.092 391.39 253.871 393.602C253.384 395.543 253.599 398.575 259.376 399.077C267.984 399.824 271.728 395.333 271.728 395.333C271.728 395.333 272.849 393.464 271.728 390.094C270.606 386.725 272.102 380.738 272.102 380.738C272.102 380.738 272.906 375.658 271.589 374.993C271.477 374.388 271.374 374.004 271.374 374.004C271.392 372.853 270.969 371.739 270.191 370.891C270.161 366.973 270.319 359.727 271.697 354.954C271.779 354.682 271.861 354.442 271.948 354.16C273.057 353.969 274.127 353.593 275.113 353.049C275.113 353.049 274.739 344.44 277.361 338.454C279.983 332.467 278.482 308.511 278.482 308.511C278.482 308.511 277.361 302.217 278.943 297.117C280.756 291.464 282.116 285.676 283.009 279.808L285.217 264.347C285.217 264.347 291.029 245.527 283.373 226.211C283.061 225.412 282.717 224.613 282.349 223.814C281.714 222.426 281.007 221.034 280.218 219.651C280.095 219.436 279.962 219.216 279.834 219C280.638 218.801 281.094 218.683 281.094 218.683C281.094 218.683 270.99 195.126 277.351 183.128C277.351 183.128 280.935 179.543 281.447 175.605C282.082 170.397 282.774 165.194 283.911 160.073L284.11 159.171C284.11 159.171 284.141 158.997 284.192 158.685C284.336 158.593 284.474 158.495 284.612 158.393C295.397 150.517 304.697 117.629 304.697 117.629L307.693 111.996L309.116 108.985L306.197 134.452L329.027 140.085L343.622 138.964L343.581 135.824L354.704 134.959L368.157 129.311ZM223.436 55.0554L219.38 54.4614C218.669 50.7998 218.187 48.398 218.187 48.398C219.037 47.3472 219.79 46.221 220.435 45.0335C222.397 48.0344 223.149 52.1313 223.436 55.0349V55.0554ZM208.288 47.1946C208.57 48.1574 208.826 48.777 208.826 48.777L209.338 53.0019L207.955 52.8021C207.877 50.9195 207.99 49.0338 208.293 47.1741L208.288 47.1946ZM336.212 76.6969L330.722 77.4036C331.495 75.1299 332.453 71.4018 331.895 68.027C332.432 67.535 332.847 66.9251 333.109 66.2453C333.37 65.5655 333.47 64.8344 333.4 64.1094C336.663 68.0065 336.355 74.8892 336.212 76.6816V76.6969ZM327.096 70.8538C328.733 70.3068 330.25 69.4535 331.567 68.3394C332.038 71.6527 331.055 75.2938 330.307 77.4548L325.186 78.1103L323.773 77.8389L327.096 70.8538Z" fill="url(#paint0_linear)"/>
<path d="M367.179 130.278L353.818 135.855L338.296 81.7309L341.937 77.4088L348.61 76.3743L367.179 130.278Z" fill="#60A3D9"/>
<path opacity="0.2" d="M367.179 130.278L353.818 135.855L338.296 81.7309L341.937 77.4088L348.61 76.3743L367.179 130.278Z" fill="white"/>
<path d="M341.937 77.4088L318.749 80.3841L330.635 137.658L353.818 135.855L341.937 77.4088Z" fill="#60A3D9"/>
<path opacity="0.07" d="M341.937 77.4088L318.749 80.3841L330.635 137.658L353.818 135.855L341.937 77.4088Z" fill="white"/>
<path d="M335.91 78.6993L335.541 78.6532C335.541 78.5149 337.077 64.9953 328.592 63.29L328.663 62.9265C337.513 64.7035 335.941 78.561 335.91 78.6993Z" fill="#535461"/>
<path d="M275.676 118.162H250.132V155.551H275.676V118.162Z" fill="#774E55"/>
<path opacity="0.2" d="M275.676 118.162H250.132V155.551H275.676V118.162Z" fill="black"/>
<path d="M342.859 139.814L328.423 140.925L330.645 84.6602L335.454 81.7002L342.117 82.8115L342.859 139.814Z" fill="#60A3D9"/>
<path opacity="0.2" d="M342.859 139.814L328.423 140.925L330.645 84.6602L335.454 81.7002L342.117 82.8115L342.859 139.814Z" fill="black"/>
<path d="M335.454 81.7002L312.506 77.2551L305.844 135.374L328.422 140.925L335.454 81.7002Z" fill="#60A3D9"/>
<path d="M200.345 53.939H197.012L190.349 112.053L205.154 111.315L200.345 53.939Z" fill="#60A3D9"/>
<path opacity="0.2" d="M200.345 53.939H197.012L190.349 112.053L205.154 111.315L200.345 53.939Z" fill="black"/>
<path d="M199.234 53.1965L195.163 111.684L230.698 115.386L234.769 58.379L199.234 53.1965Z" fill="#60A3D9"/>
<path d="M242.174 356.736C242.174 356.736 237.734 356.367 236.992 369.324C236.992 369.324 237.734 376.355 235.88 379.689C234.027 383.022 235.138 392.645 240.694 393.756C244.249 394.411 247.894 394.411 251.448 393.756C251.448 393.756 254.04 393.756 252.191 384.502L248.488 357.479L242.174 356.736Z" fill="#5C3D53"/>
<path opacity="0.05" d="M242.174 356.736C242.174 356.736 237.734 356.367 236.992 369.324C236.992 369.324 237.734 376.355 235.88 379.689C234.027 383.022 235.138 392.645 240.694 393.756C244.249 394.411 247.894 394.411 251.448 393.756C251.448 393.756 254.04 393.756 252.191 384.502L248.488 357.479L242.174 356.736Z" fill="black"/>
<path d="M265.449 142.979C265.132 148.489 266.233 151.684 266.233 151.684L256.61 154.276C256.61 154.276 240.694 156.498 246.988 150.179C249.164 148.002 250.235 144.269 250.701 140.326C250.992 137.632 251.083 134.921 250.972 132.214C250.887 129.678 250.668 127.148 250.316 124.635C250.316 124.635 273.638 116.493 268.455 129.817C267.511 132.228 266.766 134.711 266.228 137.243C265.827 139.133 265.567 141.05 265.449 142.979Z" fill="#F8BDC5"/>
<path opacity="0.1" d="M268.455 129.823C267.511 132.233 266.766 134.716 266.227 137.248C263.467 137.835 260.6 137.678 257.92 136.795C255.24 135.911 252.842 134.332 250.972 132.219C250.887 129.683 250.668 127.153 250.316 124.64C250.316 124.64 273.638 116.498 268.455 129.823Z" fill="black"/>
<path d="M262.904 136.854C271.694 136.854 278.82 129.728 278.82 120.938C278.82 112.147 271.694 105.021 262.904 105.021C254.114 105.021 246.988 112.147 246.988 120.938C246.988 129.728 254.114 136.854 262.904 136.854Z" fill="#F8BDC5"/>
<path d="M234.769 128.711V133.525L226.627 154.624L224.404 152.401C224.281 152.27 224.168 152.129 224.066 151.981C218.689 144.341 214.776 93.5451 214.776 93.5451L209.599 50.595C209.599 50.595 204.048 37.2802 216.256 38.0074C228.465 38.7346 218.848 50.2211 218.848 50.2211C218.848 50.2211 226.99 90.9385 225.879 92.4185C224.768 93.8985 225.879 98.3436 225.879 98.3436C225.879 98.3436 229.213 106.86 228.839 113.148C228.465 119.437 234.769 128.711 234.769 128.711Z" fill="#F8BDC5"/>
<path d="M326.569 72.4465L307.319 113.164L304.359 118.705C304.359 118.705 295.141 151.234 284.495 159.023C283.883 159.48 283.219 159.863 282.518 160.165L280.295 142.395L282.344 137.233L282.497 136.838C284.873 134.522 286.76 131.753 288.049 128.696C290.271 123.514 296.565 113.149 296.565 113.149C296.565 113.149 297.676 110.189 297.676 107.966C297.676 105.743 318.775 69.0973 318.775 69.0973C318.775 69.0973 320.624 52.4386 329.529 60.581C338.435 68.7235 326.569 72.4465 326.569 72.4465Z" fill="#F8BDC5"/>
<path d="M252.165 367.838C252.165 367.838 239.577 373.021 241.057 368.207C241.959 365.288 241.626 359.773 241.226 355.917C240.97 353.402 240.684 351.569 240.684 351.569L251.438 352.68C251.062 353.618 250.852 354.615 250.818 355.625C250.465 360.536 252.165 367.838 252.165 367.838Z" fill="#F8BDC5"/>
<path d="M271.738 353.438C269.797 360.177 270.304 371.915 270.304 371.915C270.304 371.915 258.828 373.395 259.939 370.435C260.712 368.386 261.844 358.237 262.459 352.271C262.73 349.664 262.899 347.856 262.899 347.856L273.264 350.079C272.558 351.098 272.041 352.236 271.738 353.438Z" fill="#F8BDC5"/>
<path opacity="0.1" d="M240.689 351.554L251.443 352.665C251.067 353.603 250.858 354.599 250.824 355.609C249.353 356.379 247.728 356.805 246.069 356.856C244.41 356.906 242.762 356.58 241.247 355.901C240.976 353.382 240.689 351.554 240.689 351.554Z" fill="black"/>
<path opacity="0.1" d="M273.269 350.074C272.559 351.094 272.039 352.233 271.733 353.438C268.235 354.001 264.563 353.013 262.458 352.27C262.73 349.664 262.899 347.856 262.899 347.856L273.269 350.074Z" fill="black"/>
<path d="M285.114 263.82L282.932 279.111C282.047 284.916 280.701 290.64 278.907 296.231C277.34 301.275 278.452 307.497 278.452 307.497C278.452 307.497 279.932 331.187 277.34 337.112C274.749 343.037 275.118 351.548 275.118 351.548C269.193 354.882 260.682 350.806 260.682 350.806L259.939 311.568C259.939 311.568 258.09 301.203 258.828 291.596C259.565 281.989 257.716 262.355 257.716 262.355C253.62 263.466 254.014 317.509 254.014 317.509V352.675C245.129 360.449 237.355 352.675 237.355 352.675C234.395 343.79 235.507 316.766 235.507 316.766L234.395 300.85C234.395 300.85 230.298 281.231 227.738 253.839C226.946 246.143 226.84 238.391 227.42 230.676C227.492 229.837 227.571 229.029 227.656 228.254C228.011 224.751 228.651 221.283 229.571 217.884C229.865 216.763 230.241 215.666 230.698 214.602L270.473 216.45L272.818 216.558L278.452 216.819C279.066 217.746 279.645 218.688 280.182 219.63C280.961 220.998 281.662 222.375 282.287 223.727C282.646 224.516 282.984 225.31 283.311 226.098C290.875 245.195 285.114 263.82 285.114 263.82Z" fill="#5E52AD"/>
<path opacity="0.1" d="M241.431 218.294C241.431 218.294 239.69 235.705 227.415 230.666C227.487 229.826 227.565 229.019 227.651 228.244C230.539 229.027 238.533 230.108 238.835 218.289L241.431 218.294Z" fill="black"/>
<path opacity="0.1" d="M283.291 226.103C274.79 229.14 271.584 221.054 270.488 216.44L272.834 216.547C274.109 223.804 279.199 224.229 282.297 223.717C282.646 224.526 282.978 225.32 283.291 226.103Z" fill="black"/>
<path d="M245.472 365.872C243.582 365.575 240.694 364.535 241.601 360.905C241.601 360.905 238.103 359.696 238.472 374.132C238.472 374.132 238.103 381.163 237.36 382.649C236.618 384.134 237.36 393.014 245.134 392.271C245.134 392.271 250.685 394.12 252.165 391.16C252.165 391.16 251.054 374.132 252.908 371.188C254.762 368.243 252.165 365.263 252.165 365.263C252.165 365.263 249.543 366.717 247.659 366.287C246.942 366.087 246.204 365.99 245.472 365.872Z" fill="#5C3D53"/>
<path d="M254.756 390.048C254.756 390.048 251.054 396.342 259.57 397.08C268.087 397.817 271.784 393.377 271.784 393.377C271.784 393.377 272.895 391.528 271.784 388.195C270.673 384.861 272.153 378.941 272.153 378.941C272.153 378.941 273.264 371.91 270.673 373.39C268.081 374.87 254.756 390.048 254.756 390.048Z" fill="#5C3D53"/>
<path opacity="0.05" d="M254.756 390.048C254.756 390.048 251.054 396.342 259.57 397.08C268.087 397.817 271.784 393.377 271.784 393.377C271.784 393.377 272.895 391.528 271.784 388.195C270.673 384.861 272.153 378.941 272.153 378.941C272.153 378.941 273.264 371.91 270.673 373.39C268.081 374.87 254.756 390.048 254.756 390.048Z" fill="black"/>
<path d="M264.384 367.47C264.384 367.47 259.944 365.621 258.833 369.318C257.722 373.016 258.464 382.275 256.242 384.866C254.019 387.457 251.059 394.488 259.944 394.12C268.829 393.751 270.698 390.786 270.698 390.786C270.698 390.786 270.33 381.532 271.441 378.941C272.552 376.35 271.441 372.284 271.441 372.284C271.441 372.284 271.784 367.075 264.384 367.47Z" fill="#5C3D53"/>
<path opacity="0.2" d="M208.857 59.1215C209.267 59.1215 209.599 58.7891 209.599 58.379C209.599 57.9689 209.267 57.6364 208.857 57.6364C208.447 57.6364 208.114 57.9689 208.114 58.379C208.114 58.7891 208.447 59.1215 208.857 59.1215Z" fill="black"/>
<path opacity="0.2" d="M224.404 60.9702C224.814 60.9702 225.147 60.6378 225.147 60.2277C225.147 59.8176 224.814 59.4851 224.404 59.4851C223.994 59.4851 223.662 59.8176 223.662 60.2277C223.662 60.6378 223.994 60.9702 224.404 60.9702Z" fill="black"/>
<path d="M224.589 60.2328H224.22C224.22 60.074 224.481 44.46 215.514 43.021C213.747 42.7393 212.303 43.1388 211.223 44.2091C207.52 47.8808 209.051 58.251 209.067 58.3534L208.703 58.4097C208.637 57.9744 207.131 47.7477 210.967 43.9479C212.134 42.7854 213.691 42.3501 215.576 42.6523C224.855 44.1374 224.594 60.074 224.589 60.2328Z" fill="#535461"/>
<path d="M329.33 81.0396L328.997 80.8808C329.053 80.7579 334.758 68.4008 327.22 64.0941L327.404 63.7714C335.234 68.2472 329.391 80.9116 329.33 81.0396Z" fill="#535461"/>
<path opacity="0.1" d="M266.233 151.664L256.61 154.255C256.61 154.255 240.694 156.478 246.988 150.158C249.164 147.982 250.235 144.249 250.701 140.305C253.215 144.249 256.242 143.127 256.242 143.127L265.418 142.948H265.454C265.132 148.489 266.233 151.664 266.233 151.664Z" fill="black"/>
<path opacity="0.1" d="M284.5 159.033C283.888 159.49 283.224 159.873 282.523 160.175L280.3 142.405L282.349 137.243L282.861 136.849C287.485 138.165 285.099 155.187 284.5 159.033Z" fill="black"/>
<path opacity="0.1" d="M234.769 128.711V133.525L226.626 154.624L224.404 152.401C224.281 152.27 224.168 152.129 224.066 151.981C225.029 140.981 234.769 128.711 234.769 128.711Z" fill="black"/>
<path opacity="0.1" d="M280.177 219.62C275 220.916 247.971 227.266 239.952 221.254C236.787 218.883 233.059 218.012 229.571 217.874C229.865 216.753 230.241 215.656 230.698 214.591L270.473 216.44L272.819 216.547L278.452 216.809C279.066 217.741 279.64 218.678 280.177 219.62Z" fill="black"/>
<path d="M210.526 41.1671C210.526 41.1671 216.077 50.4208 219.78 41.1671H210.526Z" fill="#F8BDC5"/>
<path d="M324.72 60.2277C324.72 60.2277 322.497 71.3352 331.377 66.1527L324.72 60.2277Z" fill="#F8BDC5"/>
<g opacity="0.1">
<path opacity="0.1" d="M255.995 266.007C255.816 263.753 255.683 262.345 255.683 262.345C251.586 263.456 251.981 317.499 251.981 317.499V352.665C249.379 354.939 246.859 355.881 244.632 356.081C247.305 356.316 250.49 355.568 253.85 352.665V317.499C253.85 317.499 253.563 278.338 255.995 266.007Z" fill="black"/>
<path opacity="0.1" d="M283.106 226.103C282.794 225.315 282.461 224.521 282.082 223.732C281.457 222.36 280.756 220.982 279.977 219.635C279.465 218.693 278.861 217.756 278.247 216.824L272.613 216.563L270.268 216.455L230.493 214.607L230.457 214.689L268.419 216.455L270.765 216.563L276.398 216.824C277.012 217.751 277.591 218.693 278.129 219.635C278.907 221.003 279.609 222.38 280.234 223.732C280.592 224.521 280.93 225.315 281.258 226.103C288.827 245.205 283.081 263.82 283.081 263.82L280.899 279.111C280.014 284.916 278.668 290.64 276.874 296.231C275.307 301.275 276.418 307.497 276.418 307.497C276.418 307.497 277.898 331.187 275.307 337.112C272.716 343.037 273.085 351.548 273.085 351.548C271.655 352.32 270.068 352.758 268.445 352.829C270.686 353.03 272.937 352.586 274.933 351.548C274.933 351.548 274.565 343.032 277.156 337.112C279.747 331.192 278.267 307.497 278.267 307.497C278.267 307.497 277.156 301.27 278.723 296.231C280.517 290.64 281.863 284.916 282.748 279.111L284.93 263.82C284.93 263.82 290.675 245.195 283.106 226.103Z" fill="black"/>
</g>
<path d="M265.418 143.706C270.539 146.118 282.523 136.854 282.523 136.854C287.705 138.334 284.003 159.806 284.003 159.806L283.803 160.697C282.676 165.762 281.995 170.909 281.365 176.06C280.889 179.947 277.34 183.501 277.34 183.501C271.046 195.346 281.043 218.668 281.043 218.668C281.043 218.668 248.836 227.184 239.957 220.516C231.077 213.849 217.747 219.036 217.747 219.036C224.04 213.485 224.404 179.056 224.404 179.056V152.427C225.146 141.319 235.158 128.737 235.158 128.737C239.255 140.213 250.639 140.971 250.639 140.971C253.164 145.068 256.272 143.916 256.272 143.916L265.418 143.706Z" fill="#EB6475"/>
<path opacity="0.1" d="M258.761 98.5074C257.491 98.2313 256.176 98.2313 254.905 98.5074C250.88 99.6187 249.615 104.694 246.507 107.479C245.39 108.504 244.013 109.19 242.999 110.301C241.196 112.278 240.833 115.207 241.217 117.855C241.601 120.502 242.625 123.012 243.265 125.608C243.897 128.207 244.137 130.886 243.977 133.556C243.991 134.442 243.753 135.314 243.291 136.07C242.548 137.094 241.181 137.417 240.218 138.236C237.279 140.766 239.706 146.015 237.55 149.247C236.623 150.645 234.887 151.567 234.534 153.205C234.283 154.368 234.815 155.54 235.338 156.611C236.71 159.427 238.134 162.321 240.459 164.42C242.784 166.52 245.657 167.575 248.514 168.645C249.38 168.968 250.465 169.25 251.126 168.609C251.94 167.811 251.326 166.459 250.762 165.47C249.871 163.934 249.175 162.08 249.697 160.349C250.22 158.618 251.894 157.471 253.021 156.027C255.924 152.289 254.972 146.922 253.533 142.415C252.923 140.515 252.237 138.493 252.754 136.562C252.975 135.732 253.41 134.979 253.686 134.165C254.915 130.54 252.852 126.561 253.456 122.781C253.77 121.305 254.287 119.88 254.992 118.546L258.244 111.556C258.571 110.715 259.06 109.946 259.683 109.292C260.694 108.48 261.975 108.081 263.268 108.176C264.586 108.205 265.885 108.503 267.084 109.049C268.284 109.596 269.361 110.381 270.248 111.356C273.73 115.228 273.51 121.086 273.09 126.248L272.788 129.976C272.568 132.66 272.276 135.522 270.586 137.612C269.27 139.23 267.145 140.331 266.602 142.349C266.131 144.085 267.016 145.969 266.55 147.705C265.854 150.302 262.648 151.239 260.953 153.338C260.24 154.251 259.819 155.357 259.744 156.513C259.669 157.668 259.944 158.82 260.533 159.817C261.179 160.841 262.208 161.865 262.07 163.068C261.952 164.036 261.081 164.82 261.086 165.793C261.128 166.228 261.301 166.641 261.581 166.976C261.862 167.312 262.237 167.554 262.659 167.672C263.506 167.892 264.39 167.934 265.255 167.795L274.437 166.966C275.012 166.963 275.576 166.808 276.071 166.515C276.711 166.054 276.921 165.204 277.008 164.42C277.376 161.153 276.496 157.584 278.129 154.726C278.641 153.81 279.394 153.047 279.962 152.166C283.097 147.25 279.937 140.582 281.642 135.005C282.451 132.358 284.336 130.084 284.838 127.365C285.503 123.739 283.614 120.195 282.881 116.61C282.129 112.908 282.533 108.831 280.557 105.61C279.046 103.152 276.342 101.621 273.546 100.919C270.985 100.274 268.425 100.505 265.864 100.228C263.416 99.9464 261.143 98.8915 258.761 98.5074Z" fill="black"/>
<path d="M258.761 97.7649C257.491 97.4888 256.176 97.4888 254.905 97.7649C250.88 98.8762 249.615 103.951 246.507 106.737C245.39 107.761 244.013 108.447 242.999 109.559C241.196 111.535 240.833 114.465 241.217 117.112C241.601 119.76 242.625 122.269 243.265 124.865C243.897 127.464 244.137 130.143 243.977 132.813C243.991 133.7 243.753 134.572 243.291 135.328C242.548 136.352 241.181 136.675 240.218 137.494C237.279 140.024 239.706 145.273 237.55 148.504C236.623 149.902 234.887 150.824 234.534 152.463C234.283 153.625 234.815 154.798 235.338 155.868C236.71 158.685 238.134 161.578 240.459 163.678C242.784 165.778 245.657 166.832 248.514 167.903C249.38 168.225 250.465 168.507 251.126 167.867C251.94 167.068 251.326 165.716 250.762 164.728C249.871 163.191 249.175 161.338 249.697 159.607C250.22 157.876 251.894 156.729 253.021 155.284C255.924 151.546 254.972 146.179 253.533 141.673C252.923 139.773 252.237 137.75 252.754 135.819C252.975 134.99 253.41 134.237 253.686 133.423C254.915 129.797 252.852 125.818 253.456 122.039C253.77 120.563 254.287 119.138 254.992 117.804L258.244 110.813C258.571 109.972 259.06 109.203 259.683 108.55C260.694 107.737 261.975 107.338 263.268 107.433C264.586 107.463 265.885 107.76 267.084 108.307C268.284 108.853 269.361 109.638 270.248 110.614C273.73 114.485 273.51 120.344 273.09 125.506L272.788 129.234C272.568 131.917 272.276 134.78 270.586 136.869C269.27 138.487 267.145 139.589 266.602 141.606C266.131 143.342 267.016 145.227 266.55 146.963C265.854 149.559 262.648 150.496 260.953 152.596C260.24 153.508 259.819 154.615 259.744 155.77C259.669 156.926 259.944 158.077 260.533 159.074C261.179 160.098 262.208 161.122 262.07 162.326C261.952 163.294 261.081 164.077 261.086 165.05C261.128 165.486 261.301 165.898 261.581 166.234C261.862 166.569 262.237 166.812 262.659 166.93C263.506 167.149 264.39 167.191 265.255 167.053L274.437 166.223C275.012 166.221 275.576 166.065 276.071 165.772C276.711 165.312 276.921 164.461 277.008 163.678C277.376 160.411 276.496 156.841 278.129 153.984C278.641 153.067 279.394 152.304 279.962 151.423C283.097 146.507 279.937 139.839 281.642 134.263C282.451 131.615 284.336 129.341 284.838 126.622C285.503 122.996 283.614 119.453 282.881 115.868C282.129 112.165 282.533 108.089 280.557 104.868C279.046 102.41 276.342 100.879 273.546 100.177C270.985 99.5317 268.425 99.7621 265.864 99.4856C263.416 99.2091 261.143 98.1541 258.761 97.7649Z" fill="#774E55"/>
<path opacity="0.1" d="M239.025 182.569C239.025 182.569 246.43 184.792 257.164 179.978H262.71C262.71 179.978 263.078 185.161 277.515 182.938" fill="black"/>
<path opacity="0.1" d="M275 414.445C426.878 414.445 550 403.211 550 389.352C550 375.493 426.878 364.259 275 364.259C123.122 364.259 0 375.493 0 389.352C0 403.211 123.122 414.445 275 414.445Z" fill="#60A3D9"/>
<path opacity="0.1" d="M167.371 168.123H131.698C130.236 168.123 129.05 169.308 129.05 170.771V180.838C129.05 182.301 130.236 183.486 131.698 183.486H167.371C168.833 183.486 170.019 182.301 170.019 180.838V170.771C170.019 169.308 168.833 168.123 167.371 168.123Z" fill="#60A3D9"/>
<path opacity="0.1" d="M185.807 185.022H150.133C148.671 185.022 147.486 186.208 147.486 187.67V197.738C147.486 199.2 148.671 200.385 150.133 200.385H185.807C187.269 200.385 188.454 199.2 188.454 197.738V187.67C188.454 186.208 187.269 185.022 185.807 185.022Z" fill="#60A3D9"/>
<path opacity="0.1" d="M347.12 169.147H311.446C309.984 169.147 308.799 170.332 308.799 171.795V181.863C308.799 183.325 309.984 184.51 311.446 184.51H347.12C348.582 184.51 349.767 183.325 349.767 181.863V171.795C349.767 170.332 348.582 169.147 347.12 169.147Z" fill="#60A3D9"/>
<path opacity="0.1" d="M365.555 186.047H329.882C328.42 186.047 327.234 187.232 327.234 188.694V198.762C327.234 200.224 328.42 201.41 329.882 201.41H365.555C367.017 201.41 368.203 200.224 368.203 198.762V188.694C368.203 187.232 367.017 186.047 365.555 186.047Z" fill="#60A3D9"/>
<path opacity="0.1" d="M154.568 201.922H118.895C117.433 201.922 116.248 203.107 116.248 204.569V214.637C116.248 216.1 117.433 217.285 118.895 217.285H154.568C156.031 217.285 157.216 216.1 157.216 214.637V204.569C157.216 203.107 156.031 201.922 154.568 201.922Z" fill="#60A3D9"/>
<path opacity="0.1" d="M195.537 261.838H159.863C158.401 261.838 157.216 263.023 157.216 264.486V274.554C157.216 276.016 158.401 277.201 159.863 277.201H195.537C196.999 277.201 198.184 276.016 198.184 274.554V264.486C198.184 263.023 196.999 261.838 195.537 261.838Z" fill="#60A3D9"/>
<path opacity="0.1" d="M213.973 278.737H178.299C176.837 278.737 175.652 279.923 175.652 281.385V291.453C175.652 292.915 176.837 294.101 178.299 294.101H213.973C215.435 294.101 216.62 292.915 216.62 291.453V281.385C216.62 279.923 215.435 278.737 213.973 278.737Z" fill="#60A3D9"/>
<path opacity="0.1" d="M182.734 295.637H147.061C145.599 295.637 144.414 296.822 144.414 298.284V308.352C144.414 309.815 145.599 311 147.061 311H182.734C184.197 311 185.382 309.815 185.382 308.352V298.284C185.382 296.822 184.197 295.637 182.734 295.637Z" fill="#60A3D9"/>
<path opacity="0.1" d="M360.434 304.855H324.761C323.299 304.855 322.113 306.04 322.113 307.502V317.57C322.113 319.033 323.299 320.218 324.761 320.218H360.434C361.896 320.218 363.082 319.033 363.082 317.57V307.502C363.082 306.04 361.896 304.855 360.434 304.855Z" fill="#60A3D9"/>
<path opacity="0.1" d="M329.196 321.754H293.523C292.06 321.754 290.875 322.94 290.875 324.402V334.47C290.875 335.932 292.06 337.117 293.523 337.117H329.196C330.658 337.117 331.843 335.932 331.843 334.47V324.402C331.843 322.94 330.658 321.754 329.196 321.754Z" fill="#60A3D9"/>
<g opacity="0.1">
<path opacity="0.1" d="M484.071 375.725C484.071 375.725 476.656 338.157 491.927 312.408C498.4 301.65 501.209 289.082 499.931 276.592C499.273 270.667 498.073 264.814 496.347 259.108" stroke="#535461" stroke-width="2" stroke-miterlimit="10"/>
<path opacity="0.1" d="M505.882 242.824C505.472 247.304 496.152 259.559 496.152 259.559C496.152 259.559 489.228 245.814 489.643 241.328C489.882 239.208 490.941 237.266 492.595 235.919C494.249 234.572 496.365 233.926 498.49 234.121C500.614 234.316 502.577 235.336 503.958 236.962C505.339 238.588 506.028 240.691 505.877 242.818L505.882 242.824Z" fill="#60A3D9"/>
<path opacity="0.1" d="M517.02 268.89C514.239 272.428 499.762 277.657 499.762 277.657C499.762 277.657 501.421 262.355 504.202 258.817C504.844 257.923 505.661 257.17 506.602 256.6C507.544 256.031 508.591 255.659 509.68 255.505C510.769 255.351 511.879 255.419 512.941 255.705C514.003 255.992 514.996 256.49 515.861 257.17C516.726 257.85 517.444 258.699 517.972 259.664C518.5 260.629 518.827 261.691 518.934 262.786C519.041 263.881 518.925 264.986 518.593 266.035C518.262 267.084 517.721 268.055 517.004 268.89H517.02Z" fill="#60A3D9"/>
<path opacity="0.1" d="M512.534 311.256C508.345 312.905 493.212 310.109 493.212 310.109C493.212 310.109 502.368 297.736 506.557 296.087C508.561 295.335 510.779 295.399 512.735 296.268C514.691 297.137 516.227 298.739 517.011 300.73C517.795 302.721 517.766 304.941 516.928 306.91C516.09 308.879 514.512 310.44 512.534 311.256Z" fill="#60A3D9"/>
<path opacity="0.1" d="M501.918 342.571C498.067 344.906 482.679 344.707 482.679 344.707C482.679 344.707 489.613 330.967 493.464 328.632C494.379 328.055 495.401 327.667 496.468 327.49C497.535 327.312 498.627 327.348 499.68 327.597C500.733 327.846 501.726 328.302 502.601 328.938C503.476 329.574 504.216 330.379 504.777 331.304C505.338 332.229 505.709 333.256 505.869 334.326C506.029 335.396 505.975 336.488 505.709 337.536C505.443 338.585 504.97 339.57 504.32 340.435C503.669 341.299 502.853 342.026 501.918 342.571Z" fill="#60A3D9"/>
<path opacity="0.1" d="M482.637 276.945C485.566 280.366 500.248 284.975 500.248 284.975C500.248 284.975 497.944 269.755 495.02 266.339C494.329 265.509 493.48 264.824 492.522 264.324C491.563 263.825 490.516 263.521 489.439 263.43C488.362 263.339 487.278 263.462 486.25 263.794C485.222 264.126 484.27 264.658 483.449 265.361C482.628 266.064 481.956 266.923 481.47 267.888C480.984 268.853 480.695 269.905 480.62 270.983C480.544 272.061 480.683 273.143 481.03 274.167C481.376 275.19 481.923 276.135 482.637 276.945Z" fill="#60A3D9"/>
<path opacity="0.1" d="M470.684 313.724C474.499 316.111 489.893 316.116 489.893 316.116C489.893 316.116 483.144 302.289 479.323 299.898C478.415 299.313 477.4 298.914 476.337 298.725C475.274 298.536 474.183 298.56 473.13 298.796C472.076 299.032 471.079 299.475 470.198 300.099C469.316 300.723 468.568 301.516 467.995 302.432C467.423 303.348 467.039 304.368 466.864 305.434C466.689 306.5 466.728 307.59 466.979 308.64C467.229 309.691 467.685 310.682 468.321 311.554C468.957 312.427 469.761 313.165 470.684 313.724Z" fill="#60A3D9"/>
<path opacity="0.1" d="M463.966 351.052C467.325 354.047 482.494 356.659 482.494 356.659C482.494 356.659 478.177 341.885 474.812 338.889C474.021 338.134 473.086 337.547 472.063 337.161C471.039 336.775 469.949 336.599 468.856 336.643C467.764 336.687 466.691 336.951 465.702 337.418C464.714 337.885 463.829 338.547 463.101 339.363C462.373 340.179 461.817 341.133 461.466 342.169C461.114 343.204 460.975 344.3 461.055 345.391C461.136 346.481 461.435 347.544 461.935 348.517C462.435 349.489 463.126 350.351 463.966 351.052Z" fill="#60A3D9"/>
</g>
<g opacity="0.1">
<path opacity="0.1" d="M419.735 367.48C419.735 367.48 415.756 347.308 423.95 333.481C427.426 327.704 428.934 320.954 428.247 314.247C427.896 311.066 427.255 307.924 426.331 304.86" stroke="#535461" stroke-width="2" stroke-miterlimit="10"/>
<path opacity="0.1" d="M431.447 296.113C431.227 298.52 426.224 305.101 426.224 305.101C426.224 305.101 422.506 297.721 422.726 295.314C422.892 294.209 423.475 293.21 424.354 292.52C425.234 291.831 426.343 291.503 427.456 291.605C428.569 291.708 429.6 292.231 430.34 293.069C431.079 293.907 431.47 294.996 431.432 296.113H431.447Z" fill="#60A3D9"/>
<path opacity="0.1" d="M437.424 310.109C435.929 312.009 428.155 314.815 428.155 314.815C428.155 314.815 429.046 306.622 430.542 304.701C431.272 303.827 432.313 303.272 433.445 303.154C434.578 303.035 435.712 303.362 436.607 304.065C437.502 304.769 438.088 305.793 438.241 306.921C438.393 308.05 438.101 309.193 437.424 310.109Z" fill="#60A3D9"/>
<path opacity="0.1" d="M435.017 332.867C432.769 333.753 424.642 332.252 424.642 332.252C424.642 332.252 429.558 325.595 431.811 324.724C432.882 324.34 434.06 324.388 435.096 324.858C436.132 325.327 436.945 326.182 437.362 327.24C437.779 328.298 437.768 329.477 437.332 330.527C436.895 331.578 436.067 332.417 435.022 332.867H435.017Z" fill="#60A3D9"/>
<path opacity="0.1" d="M429.317 349.664C427.269 350.919 418.988 350.811 418.988 350.811C418.988 350.811 422.711 343.432 424.78 342.177C425.272 341.863 425.822 341.65 426.397 341.551C426.973 341.452 427.562 341.47 428.131 341.602C428.699 341.734 429.235 341.979 429.708 342.321C430.181 342.664 430.58 343.098 430.883 343.597C431.185 344.096 431.385 344.651 431.47 345.229C431.555 345.806 431.524 346.395 431.378 346.96C431.232 347.525 430.975 348.056 430.621 348.52C430.267 348.984 429.824 349.373 429.317 349.664Z" fill="#60A3D9"/>
<path opacity="0.1" d="M418.963 314.441C420.535 316.28 428.422 318.753 428.422 318.753C428.422 318.753 427.187 310.56 425.615 308.747C424.86 307.864 423.785 307.317 422.627 307.227C421.469 307.137 420.322 307.51 419.439 308.265C418.556 309.02 418.01 310.095 417.92 311.254C417.829 312.412 418.203 313.558 418.958 314.441H418.963Z" fill="#60A3D9"/>
<path opacity="0.1" d="M412.547 334.183C414.595 335.463 422.86 335.468 422.86 335.468C422.86 335.468 419.235 328.043 417.186 326.763C416.202 326.17 415.024 325.987 413.907 326.255C412.789 326.522 411.822 327.218 411.213 328.193C410.604 329.167 410.403 330.342 410.652 331.463C410.902 332.585 411.582 333.564 412.547 334.188V334.183Z" fill="#60A3D9"/>
<path opacity="0.1" d="M408.946 354.227C410.748 355.835 418.896 357.238 418.896 357.238C418.896 357.238 416.581 349.305 414.799 347.697C413.929 346.948 412.8 346.571 411.654 346.646C410.509 346.722 409.438 347.244 408.674 348.101C407.91 348.958 407.513 350.08 407.569 351.227C407.624 352.374 408.128 353.453 408.971 354.232L408.946 354.227Z" fill="#60A3D9"/>
</g>
<g opacity="0.1">
<path opacity="0.1" d="M95.5734 370.553C95.5734 370.553 91.5943 350.381 99.788 336.554C103.264 330.776 104.771 324.027 104.085 317.319C103.734 314.138 103.093 310.996 102.169 307.932" stroke="#535461" stroke-width="2" stroke-miterlimit="10"/>
<path opacity="0.1" d="M107.286 299.186C107.066 301.593 102.062 308.173 102.062 308.173C102.062 308.173 98.3444 300.794 98.5646 298.387C98.7308 297.282 99.3133 296.282 100.193 295.593C101.072 294.903 102.182 294.576 103.294 294.678C104.407 294.78 105.439 295.304 106.178 296.142C106.917 296.98 107.308 298.069 107.27 299.186H107.286Z" fill="#60A3D9"/>
<path opacity="0.1" d="M113.262 313.182C111.766 315.081 103.993 317.888 103.993 317.888C103.993 317.888 104.884 309.694 106.379 307.774C107.109 306.9 108.151 306.345 109.283 306.226C110.415 306.108 111.549 306.435 112.444 307.138C113.34 307.841 113.926 308.866 114.078 309.994C114.231 311.122 113.938 312.266 113.262 313.182Z" fill="#60A3D9"/>
<path opacity="0.1" d="M110.855 335.939C108.607 336.825 100.48 335.325 100.48 335.325C100.48 335.325 105.396 328.668 107.649 327.797C108.72 327.413 109.898 327.461 110.934 327.93C111.97 328.4 112.783 329.254 113.2 330.312C113.618 331.37 113.607 332.55 113.17 333.6C112.733 334.65 111.905 335.489 110.86 335.939H110.855Z" fill="#60A3D9"/>
<path opacity="0.1" d="M105.155 352.736C103.107 353.991 94.8262 353.884 94.8262 353.884C94.8262 353.884 98.5492 346.504 100.618 345.25C101.11 344.935 101.66 344.722 102.235 344.624C102.81 344.525 103.4 344.542 103.968 344.674C104.537 344.807 105.073 345.051 105.546 345.394C106.019 345.737 106.418 346.17 106.72 346.67C107.023 347.169 107.223 347.724 107.308 348.301C107.393 348.879 107.361 349.467 107.216 350.033C107.07 350.598 106.812 351.128 106.459 351.593C106.105 352.057 105.662 352.446 105.155 352.736Z" fill="#60A3D9"/>
<path opacity="0.1" d="M94.8004 317.514C96.3726 319.352 104.259 321.826 104.259 321.826C104.259 321.826 103.025 313.632 101.453 311.819C100.697 310.936 99.6226 310.39 98.4644 310.3C97.3061 310.209 96.1595 310.583 95.2767 311.338C94.3939 312.093 93.8472 313.168 93.7569 314.326C93.6666 315.484 94.0402 316.631 94.7953 317.514H94.8004Z" fill="#60A3D9"/>
<path opacity="0.1" d="M88.3839 337.256C90.4323 338.536 98.6977 338.541 98.6977 338.541C98.6977 338.541 95.072 331.115 93.0236 329.835C92.0394 329.242 90.8616 329.06 89.7442 329.327C88.6268 329.595 87.6594 330.291 87.0505 331.265C86.4417 332.24 86.2403 333.414 86.4897 334.536C86.7391 335.658 87.4195 336.636 88.3839 337.261V337.256Z" fill="#60A3D9"/>
<path opacity="0.1" d="M84.7837 357.299C86.5863 358.907 94.7339 360.31 94.7339 360.31C94.7339 360.31 92.4192 352.378 90.6371 350.77C89.7671 350.021 88.6377 349.643 87.4921 349.719C86.3464 349.794 85.2763 350.317 84.5121 351.173C83.748 352.03 83.3509 353.153 83.4065 354.3C83.4621 355.446 83.9659 356.525 84.8093 357.304L84.7837 357.299Z" fill="#60A3D9"/>
</g>
<defs>
<linearGradient id="paint0_linear" x1="278.764" y1="399.154" x2="278.764" y2="36" gradientUnits="userSpaceOnUse">
<stop stop-color="#808080" stop-opacity="0.25"/>
<stop offset="0.54" stop-color="#808080" stop-opacity="0.12"/>
<stop offset="1" stop-color="#808080" stop-opacity="0.1"/>
</linearGradient>
</defs>
</svg>
