<svg width="550" height="450" viewBox="0 0 550 450" fill="none" xmlns="http://www.w3.org/2000/svg">
<path d="M73.8755 152.361C73.8755 152.361 72.6609 148.241 74.1039 145.209C74.7178 143.94 74.902 142.506 74.6286 141.123C74.4952 140.467 74.3017 139.825 74.0504 139.204" fill="#60A3D9"/>
<path d="M74.9494 137.29C74.9494 137.776 74.036 139.233 74.036 139.233C74.036 139.233 73.1177 137.776 73.1177 137.29C73.1085 137.164 73.1254 137.037 73.1672 136.918C73.2091 136.799 73.2751 136.69 73.361 136.598C73.4469 136.505 73.551 136.432 73.6667 136.381C73.7824 136.331 73.9073 136.305 74.0335 136.305C74.1597 136.305 74.2846 136.331 74.4003 136.381C74.516 136.432 74.6201 136.505 74.706 136.598C74.792 136.69 74.8579 136.799 74.8998 136.918C74.9417 137.037 74.9586 137.164 74.9494 137.29Z" fill="#60A3D9"/>
<path d="M76.4606 140.088C76.1885 140.511 74.624 141.245 74.624 141.245C74.624 141.245 74.6532 139.515 74.9253 139.092C75.0573 138.889 75.2649 138.746 75.5022 138.695C75.7396 138.645 75.9873 138.691 76.1909 138.823C76.3945 138.955 76.5373 139.162 76.5879 139.4C76.6385 139.637 76.5927 139.885 76.4606 140.088Z" fill="#60A3D9"/>
<path d="M76.3974 144.869C75.9455 145.098 74.2256 144.937 74.2256 144.937C74.2256 144.937 75.1196 143.48 75.5714 143.237C75.6786 143.183 75.7954 143.15 75.9152 143.141C76.035 143.132 76.1554 143.146 76.2696 143.184C76.3837 143.221 76.4894 143.281 76.5805 143.359C76.6716 143.437 76.7464 143.533 76.8007 143.64C76.8549 143.747 76.8875 143.864 76.8966 143.984C76.9057 144.104 76.8911 144.224 76.8536 144.338C76.8162 144.452 76.7566 144.558 76.6783 144.649C76.6001 144.74 76.5046 144.815 76.3974 144.869Z" fill="#60A3D9"/>
<path d="M75.5324 148.474C75.1243 148.776 73.4043 148.912 73.4043 148.912C73.4043 148.912 74.0359 147.303 74.4441 147.002C74.6383 146.883 74.8699 146.841 75.0935 146.884C75.317 146.927 75.5165 147.052 75.6527 147.235C75.7889 147.417 75.8521 147.644 75.8298 147.871C75.8076 148.097 75.7015 148.307 75.5324 148.46V148.474Z" fill="#60A3D9"/>
<path d="M72.6996 141.342C73.064 141.692 74.75 142.056 74.75 142.056C74.75 142.056 74.337 140.38 73.9774 140.03C73.8035 139.861 73.5693 139.767 73.3265 139.77C73.0837 139.774 72.852 139.873 72.6826 140.047C72.5131 140.221 72.4197 140.455 72.4229 140.698C72.4261 140.941 72.5256 141.172 72.6996 141.342Z" fill="#60A3D9"/>
<path d="M71.7433 145.574C72.1952 145.797 73.9152 145.642 73.9152 145.642C73.9152 145.642 73.0212 144.184 72.5693 143.936C72.3541 143.842 72.1109 143.834 71.8898 143.913C71.6687 143.993 71.4865 144.154 71.3806 144.364C71.2748 144.574 71.2534 144.816 71.3209 145.041C71.3884 145.266 71.5396 145.457 71.7433 145.574Z" fill="#60A3D9"/>
<path d="M71.3791 149.811C71.7823 150.112 73.5071 150.248 73.5071 150.248C73.5071 150.248 72.8707 148.64 72.4674 148.343C72.373 148.258 72.262 148.194 72.1413 148.154C72.0206 148.114 71.893 148.1 71.7665 148.113C71.6401 148.125 71.5176 148.164 71.407 148.226C71.2963 148.289 71.1999 148.373 71.1239 148.475C71.0479 148.577 70.9939 148.693 70.9655 148.817C70.9371 148.941 70.9348 149.07 70.9588 149.194C70.9829 149.319 71.0326 149.437 71.105 149.542C71.1774 149.646 71.2707 149.734 71.3791 149.801V149.811Z" fill="#60A3D9"/>
<g opacity="0.7">
<path opacity="0.7" d="M73.8765 152.361C73.8765 152.361 72.6618 148.241 74.1049 145.209C74.7188 143.94 74.903 142.506 74.6296 141.123C74.4962 140.467 74.3027 139.825 74.0514 139.204" fill="white"/>
<path opacity="0.7" d="M74.9503 137.29C74.9503 137.776 74.0369 139.233 74.0369 139.233C74.0369 139.233 73.1186 137.776 73.1186 137.29C73.1095 137.164 73.1263 137.037 73.1682 136.918C73.2101 136.799 73.276 136.69 73.362 136.598C73.4479 136.505 73.552 136.432 73.6677 136.381C73.7834 136.331 73.9083 136.305 74.0345 136.305C74.1607 136.305 74.2856 136.331 74.4013 136.381C74.517 136.432 74.6211 136.505 74.707 136.598C74.7929 136.69 74.8589 136.799 74.9008 136.918C74.9426 137.037 74.9595 137.164 74.9503 137.29Z" fill="white"/>
<path opacity="0.7" d="M76.4606 140.088C76.1885 140.511 74.624 141.245 74.624 141.245C74.624 141.245 74.6532 139.515 74.9253 139.092C75.0573 138.889 75.2649 138.746 75.5022 138.695C75.7396 138.645 75.9873 138.691 76.1909 138.823C76.3945 138.955 76.5373 139.162 76.5879 139.4C76.6385 139.637 76.5927 139.885 76.4606 140.088Z" fill="white"/>
<path opacity="0.7" d="M76.3984 144.869C75.9465 145.098 74.2266 144.937 74.2266 144.937C74.2266 144.937 75.1205 143.48 75.5724 143.237C75.6796 143.183 75.7964 143.15 75.9162 143.141C76.036 143.132 76.1564 143.146 76.2705 143.184C76.3847 143.221 76.4903 143.281 76.5815 143.359C76.6726 143.437 76.7474 143.533 76.8016 143.64C76.8559 143.747 76.8885 143.864 76.8975 143.984C76.9066 144.104 76.892 144.224 76.8546 144.338C76.8171 144.452 76.7576 144.558 76.6793 144.649C76.601 144.74 76.5056 144.815 76.3984 144.869Z" fill="white"/>
<path opacity="0.7" d="M75.5334 148.474C75.1253 148.776 73.4053 148.912 73.4053 148.912C73.4053 148.912 74.0369 147.304 74.445 147.002C74.6392 146.883 74.8708 146.841 75.0944 146.884C75.318 146.927 75.5175 147.052 75.6537 147.235C75.7899 147.417 75.8531 147.644 75.8308 147.871C75.8086 148.097 75.7025 148.307 75.5334 148.46V148.474Z" fill="white"/>
<path opacity="0.7" d="M72.7006 141.342C73.065 141.692 74.7509 142.056 74.7509 142.056C74.7509 142.056 74.3379 140.38 73.9784 140.03C73.8044 139.861 73.5703 139.767 73.3275 139.77C73.0846 139.774 72.853 139.873 72.6836 140.047C72.5141 140.221 72.4207 140.455 72.4239 140.698C72.4271 140.941 72.5266 141.172 72.7006 141.342Z" fill="white"/>
<path opacity="0.7" d="M71.7433 145.574C72.1952 145.797 73.9152 145.642 73.9152 145.642C73.9152 145.642 73.0212 144.184 72.5693 143.936C72.3541 143.842 72.1109 143.834 71.8898 143.913C71.6687 143.993 71.4865 144.154 71.3806 144.364C71.2748 144.574 71.2534 144.816 71.3209 145.041C71.3884 145.266 71.5396 145.457 71.7433 145.574Z" fill="white"/>
<path opacity="0.7" d="M71.3791 149.811C71.7823 150.112 73.5071 150.248 73.5071 150.248C73.5071 150.248 72.8707 148.64 72.4674 148.343C72.373 148.258 72.262 148.194 72.1413 148.154C72.0206 148.114 71.893 148.1 71.7665 148.113C71.6401 148.125 71.5176 148.164 71.407 148.226C71.2963 148.289 71.1999 148.373 71.1239 148.475C71.0479 148.577 70.9939 148.694 70.9655 148.817C70.9371 148.941 70.9348 149.07 70.9588 149.194C70.9829 149.319 71.0326 149.437 71.105 149.542C71.1774 149.646 71.2707 149.735 71.3791 149.801V149.811Z" fill="white"/>
</g>
<path d="M194.278 134.86C194.278 134.86 193.063 130.735 194.506 127.704C195.121 126.435 195.305 125 195.031 123.617C194.897 122.963 194.704 122.322 194.453 121.703" fill="#60A3D9"/>
<path d="M195.352 119.784C195.352 120.27 194.439 121.757 194.439 121.757C194.439 121.757 193.521 120.299 193.521 119.784C193.537 119.553 193.641 119.336 193.811 119.178C193.981 119.02 194.204 118.932 194.436 118.932C194.668 118.932 194.892 119.02 195.062 119.178C195.232 119.336 195.335 119.553 195.352 119.784Z" fill="#60A3D9"/>
<path d="M196.863 122.583C196.591 123.005 195.026 123.739 195.026 123.739C195.026 123.739 195.056 122.014 195.328 121.587C195.46 121.383 195.667 121.24 195.905 121.19C196.142 121.139 196.39 121.185 196.593 121.317C196.797 121.449 196.94 121.657 196.99 121.894C197.041 122.131 196.995 122.379 196.863 122.583Z" fill="#60A3D9"/>
<path d="M196.8 127.364C196.348 127.592 194.628 127.436 194.628 127.436C194.628 127.436 195.522 125.979 195.974 125.731C196.19 125.622 196.441 125.602 196.672 125.678C196.902 125.754 197.093 125.918 197.203 126.134C197.313 126.351 197.332 126.602 197.256 126.832C197.18 127.063 197.016 127.254 196.8 127.364Z" fill="#60A3D9"/>
<path d="M195.936 130.974C195.528 131.27 193.808 131.406 193.808 131.406C193.808 131.406 194.439 129.803 194.847 129.501C195.042 129.383 195.273 129.34 195.497 129.384C195.72 129.427 195.92 129.552 196.056 129.734C196.192 129.916 196.255 130.143 196.233 130.37C196.211 130.596 196.105 130.806 195.936 130.959V130.974Z" fill="#60A3D9"/>
<path d="M193.103 123.836C193.467 124.191 195.153 124.555 195.153 124.555C195.153 124.555 194.74 122.879 194.381 122.524C194.295 122.44 194.193 122.374 194.081 122.33C193.969 122.285 193.85 122.263 193.73 122.265C193.61 122.266 193.491 122.291 193.38 122.339C193.27 122.386 193.17 122.455 193.086 122.541C193.002 122.627 192.936 122.729 192.891 122.841C192.847 122.953 192.825 123.072 192.826 123.192C192.828 123.312 192.853 123.431 192.901 123.542C192.948 123.652 193.017 123.752 193.103 123.836Z" fill="#60A3D9"/>
<path d="M192.145 128.068C192.597 128.296 194.317 128.136 194.317 128.136C194.317 128.136 193.423 126.678 192.971 126.435C192.864 126.381 192.747 126.349 192.628 126.34C192.508 126.331 192.387 126.345 192.273 126.383C192.159 126.42 192.053 126.48 191.962 126.558C191.871 126.636 191.796 126.732 191.742 126.839C191.688 126.946 191.655 127.063 191.646 127.183C191.637 127.302 191.652 127.423 191.689 127.537C191.727 127.651 191.786 127.757 191.864 127.848C191.943 127.939 192.038 128.014 192.145 128.068Z" fill="#60A3D9"/>
<path d="M191.78 132.31C192.184 132.611 193.909 132.742 193.909 132.742C193.909 132.742 193.272 131.139 192.869 130.837C192.774 130.752 192.663 130.688 192.543 130.648C192.422 130.609 192.294 130.594 192.168 130.607C192.041 130.619 191.919 130.658 191.808 130.72C191.698 130.783 191.601 130.868 191.525 130.969C191.449 131.071 191.395 131.188 191.367 131.312C191.338 131.435 191.336 131.564 191.36 131.689C191.384 131.813 191.434 131.932 191.506 132.036C191.579 132.141 191.672 132.229 191.78 132.295V132.31Z" fill="#60A3D9"/>
<g opacity="0.7">
<path opacity="0.7" d="M194.278 134.86C194.278 134.86 193.063 130.735 194.506 127.704C195.121 126.435 195.305 125 195.031 123.617C194.897 122.963 194.704 122.322 194.453 121.703" fill="white"/>
<path opacity="0.7" d="M195.351 119.784C195.351 120.27 194.438 121.757 194.438 121.757C194.438 121.757 193.52 120.299 193.52 119.784C193.536 119.553 193.64 119.336 193.81 119.178C193.98 119.02 194.203 118.932 194.435 118.932C194.667 118.932 194.891 119.02 195.061 119.178C195.231 119.336 195.334 119.553 195.351 119.784Z" fill="white"/>
<path opacity="0.7" d="M196.862 122.583C196.59 123.005 195.025 123.739 195.025 123.739C195.025 123.739 195.055 122.014 195.327 121.587C195.459 121.383 195.666 121.24 195.904 121.19C196.141 121.139 196.389 121.185 196.592 121.317C196.796 121.449 196.939 121.657 196.989 121.894C197.04 122.131 196.994 122.379 196.862 122.583Z" fill="white"/>
<path opacity="0.7" d="M196.8 127.364C196.348 127.592 194.628 127.436 194.628 127.436C194.628 127.436 195.522 125.979 195.974 125.731C196.19 125.622 196.441 125.602 196.672 125.678C196.902 125.754 197.093 125.918 197.203 126.134C197.313 126.351 197.332 126.602 197.256 126.832C197.18 127.063 197.016 127.254 196.8 127.364Z" fill="white"/>
<path opacity="0.7" d="M195.935 130.974C195.527 131.27 193.807 131.406 193.807 131.406C193.807 131.406 194.438 129.803 194.846 129.501C195.041 129.383 195.272 129.34 195.496 129.384C195.719 129.427 195.919 129.552 196.055 129.734C196.191 129.916 196.254 130.143 196.232 130.37C196.21 130.596 196.104 130.806 195.935 130.959V130.974Z" fill="white"/>
<path opacity="0.7" d="M193.102 123.836C193.466 124.191 195.152 124.555 195.152 124.555C195.152 124.555 194.739 122.879 194.38 122.524C194.294 122.44 194.192 122.374 194.08 122.33C193.968 122.285 193.849 122.263 193.729 122.265C193.609 122.266 193.49 122.291 193.379 122.339C193.269 122.386 193.169 122.455 193.085 122.541C193.001 122.627 192.935 122.729 192.89 122.841C192.846 122.953 192.824 123.072 192.825 123.192C192.827 123.313 192.852 123.431 192.9 123.542C192.947 123.652 193.016 123.752 193.102 123.836Z" fill="white"/>
<path opacity="0.7" d="M192.144 128.068C192.596 128.296 194.316 128.136 194.316 128.136C194.316 128.136 193.422 126.678 192.97 126.436C192.863 126.381 192.746 126.349 192.627 126.34C192.507 126.331 192.386 126.345 192.272 126.383C192.158 126.42 192.052 126.48 191.961 126.558C191.87 126.636 191.795 126.732 191.741 126.839C191.687 126.946 191.654 127.063 191.645 127.183C191.636 127.302 191.651 127.423 191.688 127.537C191.726 127.651 191.785 127.757 191.863 127.848C191.942 127.939 192.037 128.014 192.144 128.068Z" fill="white"/>
<path opacity="0.7" d="M191.78 132.31C192.184 132.611 193.909 132.742 193.909 132.742C193.909 132.742 193.272 131.139 192.869 130.838C192.774 130.752 192.663 130.688 192.543 130.648C192.422 130.609 192.294 130.594 192.168 130.607C192.041 130.619 191.919 130.658 191.808 130.72C191.698 130.783 191.601 130.868 191.525 130.969C191.449 131.071 191.395 131.188 191.367 131.312C191.338 131.435 191.336 131.564 191.36 131.689C191.384 131.813 191.434 131.932 191.506 132.036C191.579 132.141 191.672 132.229 191.78 132.295V132.31Z" fill="white"/>
</g>
<path d="M304.443 146.968C304.443 146.968 303.642 144.243 304.594 142.236C305.001 141.397 305.124 140.449 304.944 139.534C304.857 139.101 304.728 138.676 304.56 138.266" fill="#60A3D9"/>
<path d="M305.153 136.998C305.017 137.46 304.814 137.898 304.55 138.3C304.284 137.899 304.08 137.46 303.943 136.998C303.935 136.914 303.945 136.83 303.972 136.75C303.999 136.67 304.043 136.596 304.1 136.534C304.156 136.472 304.226 136.422 304.303 136.388C304.38 136.354 304.463 136.337 304.548 136.337C304.632 136.337 304.716 136.354 304.793 136.388C304.87 136.422 304.939 136.472 304.996 136.534C305.053 136.596 305.096 136.67 305.123 136.75C305.15 136.83 305.16 136.914 305.153 136.998Z" fill="#60A3D9"/>
<path d="M306.154 138.849C305.789 139.162 305.38 139.419 304.94 139.612C304.935 139.13 305.002 138.651 305.139 138.189C305.179 138.116 305.234 138.052 305.3 138.001C305.367 137.95 305.442 137.913 305.523 137.893C305.604 137.873 305.689 137.87 305.771 137.883C305.853 137.897 305.932 137.928 306.002 137.973C306.072 138.019 306.131 138.078 306.177 138.148C306.223 138.218 306.254 138.296 306.269 138.378C306.283 138.46 306.28 138.545 306.261 138.626C306.241 138.707 306.205 138.783 306.154 138.849Z" fill="#60A3D9"/>
<path d="M306.095 142.012C305.623 142.099 305.139 142.114 304.662 142.056C304.901 141.638 305.201 141.259 305.551 140.929C305.693 140.868 305.854 140.864 305.999 140.917C306.144 140.97 306.264 141.076 306.333 141.215C306.403 141.353 306.417 141.512 306.373 141.661C306.328 141.809 306.229 141.935 306.095 142.012Z" fill="#60A3D9"/>
<path d="M305.542 144.398C305.089 144.564 304.614 144.66 304.133 144.685C304.297 144.232 304.528 143.806 304.818 143.421C304.947 143.338 305.103 143.307 305.255 143.335C305.406 143.362 305.541 143.446 305.633 143.569C305.725 143.693 305.767 143.846 305.75 143.999C305.733 144.152 305.658 144.293 305.542 144.393V144.398Z" fill="#60A3D9"/>
<path d="M303.666 139.675C304.093 139.904 304.551 140.068 305.027 140.161C304.922 139.691 304.749 139.239 304.512 138.82C304.457 138.759 304.39 138.709 304.315 138.674C304.241 138.64 304.16 138.621 304.077 138.618C303.995 138.616 303.913 138.631 303.837 138.662C303.76 138.692 303.691 138.739 303.633 138.797C303.575 138.856 303.53 138.926 303.5 139.002C303.47 139.079 303.456 139.161 303.459 139.243C303.463 139.326 303.482 139.407 303.518 139.481C303.554 139.555 303.604 139.621 303.666 139.675Z" fill="#60A3D9"/>
<path d="M303.034 142.474C303.515 142.564 304.006 142.58 304.492 142.523C304.253 142.104 303.951 141.723 303.598 141.395C303.455 141.323 303.289 141.311 303.137 141.361C302.985 141.411 302.859 141.519 302.786 141.663C302.714 141.806 302.702 141.971 302.752 142.124C302.802 142.276 302.911 142.402 303.054 142.474H303.034Z" fill="#60A3D9"/>
<path d="M302.792 145.282C303.244 145.449 303.719 145.545 304.201 145.569C304.037 145.116 303.805 144.692 303.511 144.311C303.447 144.263 303.375 144.229 303.298 144.21C303.221 144.191 303.14 144.187 303.062 144.199C302.903 144.222 302.761 144.308 302.665 144.437C302.57 144.566 302.53 144.727 302.554 144.886C302.577 145.044 302.663 145.187 302.792 145.282Z" fill="#60A3D9"/>
<g opacity="0.7">
<path opacity="0.7" d="M304.443 146.968C304.443 146.968 303.642 144.243 304.594 142.236C305.001 141.397 305.124 140.449 304.944 139.534C304.857 139.101 304.728 138.676 304.56 138.266" fill="white"/>
<path opacity="0.7" d="M305.153 136.998C305.017 137.46 304.814 137.898 304.55 138.3C304.284 137.899 304.08 137.46 303.943 136.998C303.935 136.914 303.945 136.83 303.972 136.75C303.999 136.67 304.043 136.596 304.1 136.534C304.156 136.472 304.226 136.422 304.303 136.388C304.38 136.354 304.463 136.337 304.548 136.337C304.632 136.337 304.716 136.354 304.793 136.388C304.87 136.422 304.939 136.472 304.996 136.534C305.053 136.596 305.096 136.67 305.123 136.75C305.15 136.83 305.16 136.914 305.153 136.998Z" fill="white"/>
<path opacity="0.7" d="M306.153 138.849C305.788 139.162 305.379 139.419 304.939 139.612C304.934 139.13 305.001 138.651 305.138 138.189C305.178 138.116 305.233 138.052 305.299 138.001C305.366 137.95 305.441 137.913 305.522 137.893C305.603 137.873 305.688 137.87 305.77 137.883C305.852 137.897 305.931 137.928 306.001 137.973C306.071 138.019 306.13 138.078 306.176 138.148C306.222 138.218 306.253 138.296 306.268 138.378C306.282 138.46 306.279 138.545 306.26 138.626C306.24 138.707 306.204 138.783 306.153 138.849Z" fill="white"/>
<path opacity="0.7" d="M306.095 142.012C305.623 142.099 305.139 142.114 304.662 142.056C304.901 141.638 305.201 141.258 305.551 140.929C305.693 140.868 305.854 140.863 305.999 140.917C306.144 140.97 306.264 141.076 306.333 141.214C306.403 141.353 306.417 141.512 306.373 141.661C306.328 141.809 306.229 141.935 306.095 142.012Z" fill="white"/>
<path opacity="0.7" d="M305.542 144.398C305.089 144.564 304.614 144.66 304.133 144.685C304.297 144.232 304.528 143.806 304.818 143.421C304.947 143.338 305.103 143.307 305.255 143.335C305.406 143.362 305.541 143.446 305.633 143.569C305.725 143.693 305.767 143.846 305.75 143.999C305.733 144.152 305.658 144.293 305.542 144.393V144.398Z" fill="white"/>
<path opacity="0.7" d="M303.666 139.675C304.093 139.904 304.551 140.068 305.027 140.161C304.922 139.691 304.749 139.239 304.512 138.82C304.457 138.759 304.39 138.709 304.315 138.674C304.241 138.64 304.16 138.621 304.077 138.618C303.995 138.616 303.913 138.631 303.837 138.662C303.76 138.692 303.691 138.739 303.633 138.797C303.575 138.856 303.53 138.926 303.5 139.002C303.47 139.079 303.456 139.161 303.459 139.243C303.463 139.326 303.482 139.407 303.518 139.481C303.554 139.555 303.604 139.621 303.666 139.675Z" fill="white"/>
<path opacity="0.7" d="M303.035 142.474C303.516 142.564 304.007 142.58 304.493 142.523C304.254 142.104 303.952 141.723 303.599 141.395C303.456 141.323 303.29 141.311 303.138 141.361C302.986 141.411 302.86 141.519 302.787 141.663C302.715 141.806 302.703 141.971 302.753 142.124C302.803 142.276 302.912 142.402 303.055 142.474H303.035Z" fill="white"/>
<path opacity="0.7" d="M302.792 145.282C303.244 145.449 303.719 145.545 304.201 145.569C304.037 145.116 303.805 144.692 303.511 144.311C303.447 144.263 303.375 144.229 303.298 144.21C303.221 144.191 303.14 144.187 303.062 144.199C302.903 144.222 302.761 144.308 302.665 144.437C302.57 144.566 302.53 144.727 302.554 144.886C302.577 145.044 302.663 145.187 302.792 145.282Z" fill="white"/>
</g>
<path d="M76.898 102.128V126.1C76.898 130.05 72.015 131.994 69.3622 129.069L69.2699 128.967C68.4099 127.995 67.2341 126.834 66.0535 127.344C65.708 127.54 65.3825 127.77 65.0817 128.029C65.3193 128.552 65.5238 129.089 65.6939 129.637C66.7142 133.038 65.9174 136.668 64.8291 140.03C63.7407 143.392 62.3414 146.716 62.1568 150.233C62.1171 151.929 62.2162 153.626 62.4532 155.306C62.8224 158.507 63.2063 161.768 64.5424 164.697C65.2761 166.301 66.311 167.919 66.0923 169.668C60.3292 169.924 54.5647 169.193 49.0482 167.506C52.8622 163.658 52.8573 157.56 52.6047 152.152L51.9876 139.083C51.9245 137.805 51.8565 136.488 51.2734 135.346C50.4766 133.796 48.8441 132.825 47.1338 132.431C45.4165 132.124 43.6639 132.067 41.9302 132.261C41.8009 131.582 41.9291 130.878 42.2898 130.288C45.0062 131.462 47.9102 132.142 50.8653 132.295C51.0479 132.353 51.2425 132.362 51.4297 132.321C51.6169 132.28 51.79 132.191 51.9317 132.062C52.0734 131.933 52.1788 131.769 52.2372 131.586C52.2956 131.404 52.3051 131.209 52.2646 131.022C52.376 128.858 52.1781 126.688 51.6767 124.579C50.1073 124.954 48.7178 126.193 47.1047 126.071C44.9863 125.911 43.7328 123.54 41.7602 122.811C40.2297 122.247 38.5486 122.743 36.9501 123.034C35.3516 123.326 33.447 123.307 32.3927 122.063C31.0663 120.493 31.9068 118.006 31.0371 116.14C29.8127 113.477 26.1104 113.429 23.2001 113.793C24.3669 112.036 26.1005 110.731 28.1122 110.096C27.0579 108.211 23.2973 108.337 23.4965 106.068C23.5568 105.53 23.8169 105.034 24.2253 104.678C25.3039 103.687 26.3858 102.699 27.4709 101.715L22.6559 99.8926C21.2955 99.3825 19.7407 98.6634 19.9205 96.8754C20.0059 96.2054 20.3179 95.5848 20.8048 95.1166L21.1109 94.8056C22.388 93.5499 24.1105 92.8511 25.9015 92.8622L54.0817 84.7288C56.7505 83.9589 59.5619 83.8213 62.293 84.327C65.0241 84.8327 67.5999 85.9678 69.8161 87.6421C72.0322 89.3165 73.8278 91.4842 75.0604 93.9732C76.2931 96.4623 76.9289 99.2043 76.9174 101.982L76.898 102.128Z" fill="#60A3D9"/>
<path opacity="0.7" d="M76.898 102.128V126.1C76.898 130.05 72.015 131.994 69.3622 129.069L69.2699 128.967C68.4099 127.995 67.2341 126.834 66.0535 127.344C65.708 127.54 65.3825 127.77 65.0817 128.029C65.3193 128.552 65.5238 129.089 65.6939 129.637C66.7142 133.038 65.9174 136.668 64.8291 140.03C63.7407 143.392 62.3414 146.716 62.1568 150.233C62.1171 151.929 62.2162 153.626 62.4532 155.306C62.8224 158.507 63.2063 161.768 64.5424 164.697C65.2761 166.301 66.311 167.919 66.0923 169.668C60.3292 169.924 54.5647 169.193 49.0482 167.506C52.8622 163.658 52.8573 157.56 52.6047 152.152L51.9876 139.083C51.9245 137.805 51.8565 136.488 51.2734 135.346C50.4766 133.796 48.8441 132.825 47.1338 132.431C45.4165 132.124 43.6639 132.067 41.9302 132.261C41.8009 131.582 41.9291 130.878 42.2898 130.288C45.0062 131.462 47.9102 132.142 50.8653 132.295C51.0479 132.353 51.2425 132.362 51.4297 132.321C51.6169 132.28 51.79 132.191 51.9317 132.062C52.0734 131.933 52.1788 131.769 52.2372 131.586C52.2956 131.404 52.3051 131.209 52.2646 131.022C52.376 128.858 52.1781 126.688 51.6767 124.579C50.1073 124.954 48.7178 126.193 47.1047 126.071C44.9863 125.911 43.7328 123.54 41.7602 122.811C40.2297 122.247 38.5486 122.743 36.9501 123.034C35.3516 123.326 33.447 123.307 32.3927 122.063C31.0663 120.493 31.9068 118.006 31.0371 116.14C29.8127 113.477 26.1104 113.429 23.2001 113.793C24.3669 112.036 26.1005 110.731 28.1122 110.096C27.0579 108.211 23.2973 108.337 23.4965 106.068C23.5568 105.53 23.8169 105.034 24.2253 104.678C25.3039 103.687 26.3858 102.699 27.4709 101.715L22.6559 99.8926C21.2955 99.3825 19.7407 98.6634 19.9205 96.8754C20.0059 96.2054 20.3179 95.5848 20.8048 95.1166L21.1109 94.8056C22.388 93.5499 24.1105 92.8511 25.9015 92.8622L54.0817 84.7288C56.7505 83.9589 59.5619 83.8213 62.293 84.327C65.0241 84.8327 67.5999 85.9678 69.8161 87.6421C72.0322 89.3165 73.8278 91.4842 75.0604 93.9732C76.2931 96.4623 76.9289 99.2043 76.9174 101.982L76.898 102.128Z" fill="white"/>
<path d="M302.961 113.157V126.44C302.954 126.921 302.803 127.389 302.53 127.785C302.256 128.18 301.871 128.486 301.423 128.662C300.976 128.838 300.486 128.878 300.016 128.776C299.546 128.673 299.117 128.434 298.783 128.087L298.734 128.029C298.248 127.495 297.607 126.849 296.951 127.13C296.759 127.238 296.578 127.365 296.412 127.509C296.542 127.8 296.656 128.099 296.752 128.403C297.316 130.274 296.873 132.29 296.266 134.161C295.659 136.031 294.891 137.863 294.809 139.821C294.786 140.76 294.841 141.7 294.974 142.629C295.178 144.403 295.392 146.21 296.13 147.833C296.538 148.722 297.102 149.621 296.99 150.588C293.796 150.733 290.601 150.327 287.545 149.388C289.658 147.26 289.658 143.878 289.517 140.88C289.401 138.467 289.287 136.052 289.177 133.636C289.194 132.926 289.058 132.22 288.779 131.566C288.535 131.148 288.204 130.787 287.809 130.507C287.413 130.228 286.962 130.038 286.486 129.948C285.535 129.779 284.564 129.748 283.604 129.856C283.532 129.48 283.603 129.09 283.804 128.763C285.308 129.415 286.918 129.792 288.555 129.875C288.657 129.907 288.765 129.911 288.868 129.888C288.972 129.864 289.067 129.814 289.145 129.742C289.223 129.671 289.281 129.58 289.313 129.479C289.345 129.378 289.351 129.27 289.328 129.166C289.392 127.968 289.284 126.767 289.007 125.6C288.138 125.804 287.365 126.494 286.471 126.426C285.3 126.333 284.6 125.022 283.498 124.618C282.647 124.307 281.719 124.58 280.83 124.74C279.941 124.9 278.887 124.89 278.309 124.205C277.57 123.336 278.032 121.956 277.555 120.921C276.875 119.463 274.825 119.42 273.212 119.619C273.859 118.646 274.819 117.925 275.933 117.573C275.35 116.524 273.265 116.602 273.372 115.343C273.407 115.044 273.553 114.768 273.78 114.571L275.578 112.928L272.911 111.918C272.158 111.636 271.288 111.238 271.395 110.246C271.441 109.877 271.612 109.534 271.881 109.275L272.055 109.1C272.404 108.753 272.818 108.479 273.274 108.293C273.729 108.107 274.217 108.013 274.708 108.016L290.309 103.527C291.787 103.104 293.343 103.031 294.854 103.313C296.364 103.595 297.789 104.225 299.014 105.152C300.24 106.08 301.232 107.28 301.914 108.657C302.596 110.035 302.948 111.552 302.942 113.089L302.961 113.157Z" fill="#60A3D9"/>
<path opacity="0.7" d="M302.961 113.157V126.44C302.954 126.921 302.803 127.389 302.53 127.785C302.256 128.18 301.871 128.486 301.423 128.662C300.976 128.838 300.486 128.878 300.016 128.776C299.546 128.673 299.117 128.434 298.783 128.087L298.734 128.029C298.248 127.495 297.607 126.849 296.951 127.13C296.759 127.238 296.578 127.365 296.412 127.509C296.542 127.8 296.656 128.099 296.752 128.403C297.316 130.274 296.873 132.29 296.266 134.161C295.659 136.031 294.891 137.863 294.809 139.821C294.786 140.76 294.841 141.7 294.974 142.629C295.178 144.403 295.392 146.21 296.13 147.833C296.538 148.722 297.102 149.621 296.99 150.588C293.796 150.733 290.601 150.327 287.545 149.388C289.658 147.26 289.658 143.878 289.517 140.88C289.401 138.467 289.287 136.052 289.177 133.636C289.194 132.926 289.058 132.22 288.779 131.566C288.535 131.148 288.204 130.787 287.809 130.507C287.413 130.228 286.962 130.038 286.486 129.948C285.535 129.779 284.564 129.748 283.604 129.856C283.532 129.48 283.603 129.09 283.804 128.763C285.308 129.415 286.918 129.792 288.555 129.875C288.657 129.907 288.765 129.911 288.868 129.888C288.972 129.864 289.067 129.814 289.145 129.742C289.223 129.671 289.281 129.58 289.313 129.479C289.345 129.378 289.351 129.27 289.328 129.166C289.392 127.968 289.284 126.767 289.007 125.6C288.138 125.804 287.365 126.494 286.471 126.426C285.3 126.333 284.6 125.022 283.498 124.618C282.647 124.307 281.719 124.58 280.83 124.74C279.941 124.9 278.887 124.89 278.309 124.205C277.57 123.336 278.032 121.956 277.555 120.921C276.875 119.463 274.825 119.42 273.212 119.619C273.859 118.646 274.819 117.925 275.933 117.573C275.35 116.524 273.265 116.602 273.372 115.343C273.407 115.044 273.553 114.768 273.78 114.571L275.578 112.928L272.911 111.918C272.158 111.636 271.288 111.238 271.395 110.246C271.441 109.877 271.612 109.534 271.881 109.275L272.055 109.1C272.404 108.753 272.818 108.479 273.274 108.293C273.729 108.107 274.217 108.013 274.708 108.016L290.309 103.527C291.787 103.104 293.343 103.031 294.854 103.313C296.364 103.595 297.789 104.225 299.014 105.152C300.24 106.08 301.232 107.28 301.914 108.657C302.596 110.035 302.948 111.552 302.942 113.089L302.961 113.157Z" fill="white"/>
<path d="M471.401 105.388V114.702C471.404 115.039 471.508 115.367 471.698 115.644C471.889 115.922 472.158 116.136 472.471 116.26C472.784 116.384 473.127 116.411 473.456 116.339C473.785 116.266 474.084 116.097 474.316 115.853L474.351 115.814C474.686 115.44 475.142 114.984 475.604 115.183C475.738 115.26 475.865 115.35 475.983 115.45C475.889 115.653 475.81 115.863 475.745 116.077C475.347 117.394 475.657 118.812 476.085 120.124C476.513 121.436 477.057 122.724 477.125 124.099C477.139 124.758 477.1 125.418 477.008 126.071C476.928 127.324 476.652 128.557 476.192 129.725C475.91 130.352 475.507 130.983 475.589 131.668C477.834 131.768 480.079 131.482 482.226 130.823C480.74 129.326 480.74 126.936 480.842 124.847C480.919 123.151 481.002 121.446 481.08 119.76C481.067 119.26 481.161 118.763 481.357 118.302C481.528 118.008 481.761 117.754 482.039 117.557C482.317 117.361 482.635 117.227 482.97 117.165C483.638 117.045 484.321 117.022 484.996 117.097C485.043 116.833 484.993 116.56 484.855 116.33C483.798 116.787 482.667 117.052 481.517 117.112C481.446 117.124 481.372 117.123 481.301 117.107C481.23 117.091 481.163 117.061 481.104 117.019C481.056 116.965 481.019 116.901 480.997 116.831C480.974 116.762 480.966 116.689 480.973 116.616C480.927 115.774 481.004 114.929 481.201 114.109C481.809 114.255 482.353 114.736 482.98 114.687C483.805 114.624 484.291 113.716 485.069 113.419C485.666 113.201 486.317 113.395 486.944 113.507C487.571 113.618 488.305 113.614 488.713 113.128C489.233 112.52 488.907 111.549 489.242 110.825C489.728 109.79 491.186 109.77 492.294 109.911C491.844 109.218 491.167 108.703 490.379 108.454C490.792 107.715 492.255 107.769 492.177 106.884C492.156 106.675 492.055 106.482 491.895 106.345L490.632 105.189L492.507 104.479C493.037 104.28 493.644 103.993 493.571 103.303C493.536 103.044 493.415 102.805 493.226 102.623L493.105 102.502C492.86 102.258 492.569 102.065 492.248 101.934C491.928 101.803 491.585 101.737 491.239 101.739L480.273 98.5711C479.234 98.2716 478.14 98.2181 477.077 98.4149C476.014 98.6117 475.011 99.0534 474.148 99.7049C473.286 100.357 472.586 101.2 472.106 102.169C471.626 103.137 471.378 104.205 471.382 105.286L471.401 105.388Z" fill="#60A3D9"/>
<path opacity="0.7" d="M471.401 105.388V114.702C471.404 115.039 471.508 115.367 471.698 115.644C471.889 115.922 472.158 116.136 472.471 116.26C472.784 116.384 473.127 116.411 473.456 116.339C473.785 116.266 474.084 116.097 474.316 115.853L474.351 115.814C474.686 115.44 475.142 114.984 475.604 115.183C475.738 115.26 475.865 115.35 475.983 115.45C475.889 115.653 475.81 115.863 475.745 116.077C475.347 117.394 475.657 118.812 476.085 120.124C476.513 121.436 477.057 122.724 477.125 124.099C477.139 124.758 477.1 125.418 477.008 126.071C476.928 127.324 476.652 128.557 476.192 129.725C475.91 130.352 475.507 130.983 475.589 131.668C477.834 131.768 480.079 131.482 482.226 130.823C480.74 129.326 480.74 126.936 480.842 124.847C480.919 123.151 481.002 121.446 481.08 119.76C481.067 119.26 481.161 118.763 481.357 118.302C481.528 118.008 481.761 117.754 482.039 117.557C482.317 117.361 482.635 117.227 482.97 117.165C483.638 117.045 484.321 117.022 484.996 117.097C485.043 116.833 484.993 116.56 484.855 116.33C483.798 116.787 482.667 117.052 481.517 117.112C481.446 117.124 481.372 117.123 481.301 117.107C481.23 117.091 481.163 117.061 481.104 117.019C481.056 116.965 481.019 116.901 480.997 116.831C480.974 116.762 480.966 116.689 480.973 116.616C480.927 115.774 481.004 114.929 481.201 114.109C481.809 114.255 482.353 114.736 482.98 114.687C483.805 114.624 484.291 113.716 485.069 113.419C485.666 113.201 486.317 113.395 486.944 113.507C487.571 113.618 488.305 113.614 488.713 113.128C489.233 112.52 488.907 111.549 489.242 110.825C489.728 109.79 491.186 109.77 492.294 109.911C491.844 109.218 491.167 108.703 490.379 108.454C490.792 107.715 492.255 107.769 492.177 106.884C492.156 106.675 492.055 106.482 491.895 106.345L490.632 105.189L492.507 104.479C493.037 104.28 493.644 103.993 493.571 103.303C493.536 103.044 493.415 102.805 493.226 102.623L493.105 102.502C492.86 102.258 492.569 102.065 492.248 101.934C491.928 101.803 491.585 101.737 491.239 101.739L480.273 98.5711C479.234 98.2716 478.14 98.2181 477.077 98.4149C476.014 98.6117 475.011 99.0534 474.148 99.7049C473.286 100.357 472.586 101.2 472.106 102.169C471.626 103.137 471.378 104.205 471.382 105.286L471.401 105.388Z" fill="white"/>
<path opacity="0.1" d="M371.031 185.216H393.245C401.427 185.216 370.258 205.622 363.383 210.529C355.493 216.151 344.799 218.25 334.688 220.606C320.507 223.91 306.55 228.115 292.904 233.195C290.435 234.118 287.899 235.114 286.179 236.814C284.265 238.709 283.619 241.212 282.467 243.476C277.958 252.309 266.205 256.915 255.822 261.506C245.439 266.098 234.444 272.875 233.958 282.398C233.754 286.188 235.848 290.43 240.275 291.742C245.619 293.34 253.228 290.503 256.517 294.273C257.829 295.784 257.742 297.8 257.401 299.617C255.215 311.215 245.255 320.694 236.101 329.809C231.704 334.182 227.623 341.169 233.006 344.764C237.306 347.636 245.065 345.848 248.228 349.555C249.317 350.837 249.511 352.47 249.521 354.02C249.589 365.151 241.237 376.049 228.857 380.966C220.85 384.153 211.73 384.897 202.824 385.402C191.562 386.048 180.275 386.403 168.984 386.374C163.114 386.374 157.216 386.218 151.424 385.441C145.633 384.663 140.007 383.25 134.419 381.836L41.473 358.432C38.5189 357.688 35.4677 356.901 33.155 355.239C30.575 353.378 29.234 350.648 28.4178 347.951C24.045 333.317 32.4602 317.828 29.064 303.009C25.3568 286.829 8.36124 274.571 2.56 258.795C-1.36579 248.106 0.130672 236.693 1.6903 225.625L7.4138 184.181C113.682 180.478 220.568 179.113 326.773 183.879C352.884 185.031 345.105 187.97 371.031 185.216Z" fill="#60A3D9"/>
<path d="M377.124 185.216C376.586 185.216 376.059 185.063 375.606 184.774C375.152 184.486 374.79 184.074 374.562 183.587C374.334 183.099 374.249 182.557 374.318 182.024C374.388 181.491 374.607 180.988 374.952 180.576C380.19 174.313 388.945 163.57 390.111 160.456C391.782 155.957 451.704 140.205 451.704 140.205C451.704 140.205 477.81 129.701 481.493 123.685C483.674 120.134 494.417 111.587 502.822 105.223C509.318 100.286 508.23 107.652 516.106 109.751C522.257 104.659 538.29 105.864 538.29 120.547L549.903 179.259C550.046 179.982 550.028 180.728 549.848 181.444C549.669 182.159 549.333 182.826 548.865 183.396C548.398 183.966 547.809 184.426 547.142 184.741C546.476 185.056 545.747 185.22 545.01 185.22L377.124 185.216Z" fill="#60A3D9"/>
<path opacity="0.7" d="M377.124 185.216C376.586 185.216 376.059 185.063 375.606 184.774C375.152 184.486 374.79 184.074 374.562 183.587C374.334 183.099 374.249 182.557 374.318 182.024C374.388 181.491 374.607 180.988 374.952 180.576C380.19 174.313 388.945 163.57 390.111 160.456C391.782 155.957 451.704 140.205 451.704 140.205C451.704 140.205 477.81 129.701 481.493 123.685C483.674 120.134 494.417 111.587 502.822 105.223C509.318 100.286 508.23 107.652 516.106 109.751C522.257 104.659 538.29 105.864 538.29 120.547L549.903 179.259C550.046 179.982 550.028 180.728 549.848 181.444C549.669 182.159 549.333 182.826 548.865 183.396C548.398 183.966 547.809 184.426 547.142 184.741C546.476 185.056 545.747 185.22 545.01 185.22L377.124 185.216Z" fill="white"/>
<path d="M3.60059 185.939C3.60059 185.939 38.4226 149.198 76.3638 150.685C114.305 152.172 184.989 136.653 184.989 136.653C184.989 136.653 241.636 125.75 255.148 131.464C268.66 137.178 289.45 146.186 304.007 146.186C318.563 146.186 331.55 187.135 331.55 187.135C331.55 187.135 3.60059 182.937 3.60059 185.939Z" fill="#60A3D9"/>
<path opacity="0.7" d="M3.60059 185.939C3.60059 185.939 38.4226 149.198 76.3638 150.685C114.305 152.172 184.989 136.653 184.989 136.653C184.989 136.653 241.636 125.75 255.148 131.464C268.66 137.178 289.45 146.186 304.007 146.186C318.563 146.186 331.55 187.135 331.55 187.135C331.55 187.135 3.60059 182.937 3.60059 185.939Z" fill="white"/>
<path opacity="0.1" d="M381.332 368.999C381.699 369.62 381.846 370.347 381.749 371.062C381.652 371.777 381.317 372.439 380.797 372.939C387.645 374.791 394.632 376.081 401.689 376.797C403.497 376.982 405.605 377.011 406.786 375.631C407.578 374.698 407.758 373.314 408.637 372.478C409.195 372.027 409.853 371.719 410.556 371.579C412.733 370.972 415.036 370.666 417.004 369.558C418.972 368.45 420.56 366.2 419.997 364.014C419.346 361.497 416.416 360.443 413.894 359.787L406.038 357.737C401.351 356.469 396.561 355.622 391.724 355.205C389.032 354.992 384.65 353.84 382.089 355.021C378.922 356.478 380.204 359.325 379.145 362.134C378.625 363.509 376.176 365.617 377.26 367.313C377.877 368.285 380.331 367.405 381.332 368.999Z" fill="#60A3D9"/>
<path opacity="0.1" d="M295.008 352.052C295.008 352.052 265.803 350.862 274.602 357.882C283.401 364.903 291.408 365.836 295.008 370.189C298.608 374.543 299.425 373.882 312.261 375.174C325.098 376.467 337.793 376.399 338.265 371.287C338.736 366.176 340.053 358.261 338.265 355.949C336.477 353.636 295.008 352.052 295.008 352.052Z" fill="#60A3D9"/>
<path d="M499.849 318.629L500.865 318.25L497.289 311.963C499.514 310.559 498.902 308.183 499.485 296.459C500.185 282.403 494.009 281.776 493.076 281.767H492.96C465.678 267.191 402.02 265.869 367.466 266.326C367.408 264.859 367.047 263.42 366.406 262.099C365.835 261.036 365.539 259.847 365.546 258.64C365.546 258.64 365.546 258.572 365.546 258.455C365.546 257.969 365.546 257.624 365.546 257.624C365.546 257.624 364.521 247.79 364.473 240.4C364.497 237.485 364.696 235.056 365.211 233.987C365.882 232.607 366.159 229.099 366.134 224.993C366.183 217.667 365.163 207.901 363.613 205.141C362.063 202.381 357.719 198.645 354.551 195.744C352.843 194.182 351.757 192.054 351.495 189.754C351.495 189.754 350.893 189.754 349.926 189.865L349.765 189.379V189.331C350.235 189.379 350.706 189.247 351.082 188.962C351.345 188.727 351.565 188.45 351.733 188.14L354.823 183.126C355.221 182.617 355.438 181.99 355.44 181.343C355.329 180.308 354.133 179.468 354.425 178.467C354.551 178.039 354.911 177.738 355.125 177.34C355.291 176.943 355.37 176.516 355.358 176.086C355.416 174.687 355.397 173.098 354.386 172.146C354.196 172.007 354.04 171.828 353.929 171.621C353.874 171.373 353.884 171.115 353.958 170.873C354.216 169.415 353.443 167.924 352.341 166.942C351.238 165.961 349.843 165.397 348.478 164.848C347.113 164.299 345.597 163.774 344.217 164.26C344.28 162.905 342.759 161.947 341.438 161.952C340.116 161.957 338.843 162.589 337.551 162.924C336.207 163.229 334.833 163.383 333.455 163.381C332.943 163.442 332.424 163.375 331.944 163.186C331.707 163.082 331.515 162.896 331.402 162.663C331.289 162.43 331.262 162.164 331.327 161.913C331.117 161.789 330.872 161.739 330.63 161.77C330.388 161.8 330.163 161.911 329.991 162.083C329.649 162.444 329.358 162.85 329.126 163.288C328.64 164.047 327.972 164.672 327.182 165.106C327.45 164.52 327.575 163.879 327.547 163.235C327.061 162.919 326.434 163.318 326.211 163.833C326.051 164.373 325.949 164.928 325.905 165.489C325.603 166.889 324.355 167.89 323.864 169.235C323.638 169.963 323.598 170.735 323.75 171.482C323.901 172.228 324.237 172.924 324.729 173.506C325.288 174.183 325.977 174.742 326.755 175.148C326.706 175.289 326.653 175.43 326.609 175.576C325.753 178.536 326.017 181.708 327.35 184.486C328.684 187.264 330.994 189.454 333.839 190.638L334.155 191.269C334.864 192.693 335.748 194.554 336.477 196.405L336.603 196.721C336.399 197.042 336.212 197.375 336.045 197.717C336.045 197.717 338.051 199.996 336.045 202.444C336.045 202.444 328.757 207.954 328.99 221.106C328.969 223.367 329.146 225.625 329.519 227.855C331.145 237.711 332.066 247.671 332.274 257.658C331.04 258.712 329.243 262.726 327.697 266.652C237.924 265.568 217.994 281.519 213.621 287.908C213.035 288.672 212.622 289.554 212.411 290.493C207.392 301.211 213.665 312.95 213.665 312.95L214.073 313.484C225.836 328.624 244.138 335.975 317.805 338.215V338.443L317.703 346.46C317.653 349.501 316.914 352.491 315.541 355.205C315.566 355.366 315.566 355.53 315.541 355.691V355.73C315.42 356.911 314.22 359.884 305.654 361.969C305.654 361.969 292.477 359.904 299.299 365.729C305.129 370.729 322.134 371.074 326.847 371.098C327.004 371.097 327.158 371.063 327.301 370.999C327.444 370.935 327.573 370.842 327.678 370.726C327.783 370.61 327.864 370.474 327.914 370.326C327.964 370.177 327.983 370.02 327.97 369.864L327.061 359.525L327.017 359.039H327.318C326.735 353.301 330.496 338.696 330.496 338.696C330.533 338.646 330.567 338.594 330.598 338.54C335.112 338.637 339.8 338.715 344.688 338.778C358.186 338.953 370.808 338.589 382.557 337.831C383.267 338.579 383.926 339.374 384.529 340.212L388.489 347.193L389.504 348.981L390.807 351.275V351.804L390.889 363.208C390.889 363.208 379.637 373.046 391.56 370.087L395.884 369.655C396.426 369.595 396.936 369.365 397.341 368.999C399.098 369.517 400.882 369.934 402.686 370.248C403.431 370.373 404.185 370.436 404.94 370.437C407.033 370.434 409.095 369.931 410.954 368.97C412.813 368.009 414.416 366.618 415.629 364.913C421.46 365.093 428.748 365.399 437.741 365.914C459.765 367.133 481.712 368.887 481.921 368.907C482.567 368.97 497.853 370.418 504.893 360.103C510.815 351.537 509.091 337.588 499.849 318.629ZM402.909 369.242C401.272 368.954 399.65 368.581 398.051 368.125C398.049 368.107 398.049 368.089 398.051 368.071L399.508 364.772C402.861 364.67 407.647 364.675 414.478 364.869C413.136 366.588 411.347 367.906 409.306 368.677C407.266 369.448 405.053 369.643 402.909 369.242ZM415.192 363.898C408.346 363.693 403.449 363.674 399.931 363.776L406.345 349.054C406.502 348.691 406.562 348.292 406.517 347.897C406.471 347.503 406.323 347.128 406.087 346.81C405.052 345.405 403.065 343.064 400.917 342.32C400.603 342.209 400.277 342.135 399.946 342.102L399.27 341.455L398.916 341.11C402.224 340.999 408.39 341.917 414.318 348.773C418.496 353.631 417.796 359.301 415.746 363.004C415.566 363.28 415.386 363.582 415.192 363.873V363.898ZM504.144 359.525C497.439 369.344 482.246 367.916 482.081 367.896C481.916 367.877 459.382 366.084 437.085 364.855C428.758 364.398 421.946 364.097 416.358 363.917C416.446 363.771 416.528 363.63 416.611 363.48C418.001 361.076 418.599 358.296 418.321 355.533C418.043 352.771 416.902 350.166 415.061 348.087C408.303 340.265 401.185 339.828 397.954 340.139L397.259 339.439C396.506 338.671 395.665 337.797 394.83 336.869C454.64 331.379 488.626 316.011 493.786 313.547L494.481 313.202L495.273 312.911L497.493 319.533L498.917 318.999C508.007 337.632 509.776 351.265 504.144 359.52V359.525Z" fill="url(#paint0_linear)"/>
<path d="M327.57 368.946C327.583 369.1 327.564 369.256 327.513 369.402C327.463 369.549 327.383 369.684 327.278 369.798C327.173 369.912 327.045 370.003 326.903 370.066C326.761 370.128 326.608 370.16 326.453 370.16C321.764 370.16 304.827 369.796 299.001 364.86C292.199 359.107 305.318 361.148 305.318 361.148C313.854 359.087 315.035 356.153 315.171 354.987C315.169 354.974 315.169 354.961 315.171 354.948C315.197 354.787 315.197 354.623 315.171 354.462L315.511 354.263L316.799 353.5L326.462 356.415L326.662 358.704L327.57 368.946Z" fill="#EC8C9C"/>
<path d="M404.313 369.495C403.562 369.495 402.813 369.434 402.073 369.31C399.437 368.845 396.838 368.186 394.299 367.337C391.238 366.327 390.111 365.588 390.291 364.689C390.461 363.863 390.777 362.309 414.487 363.023C414.681 362.731 414.866 362.435 415.031 362.139C417.072 358.48 417.776 352.863 413.608 348.087C405.013 338.229 395.912 340.799 395.82 340.833L395.533 339.862C395.63 339.833 405.319 337.049 414.361 347.412C416.195 349.458 417.333 352.033 417.61 354.767C417.887 357.501 417.288 360.253 415.901 362.624C415.823 362.77 415.736 362.916 415.653 363.057C421.216 363.237 428.009 363.543 436.302 363.985C458.521 365.195 480.924 366.968 481.148 366.988C481.371 367.007 496.448 368.416 503.128 358.728C508.842 350.429 506.918 336.626 497.415 317.701L498.309 317.25C507.992 336.534 509.892 350.677 503.949 359.296C496.929 369.499 481.702 368.042 481.055 367.988C480.847 367.988 458.978 366.239 437.036 365.03C428.052 364.544 420.818 364.223 414.997 364.058C413.775 365.746 412.169 367.12 410.311 368.065C408.453 369.011 406.397 369.501 404.313 369.495ZM391.292 364.874C391.428 365.039 392.02 365.54 394.6 366.385C397.093 367.222 399.644 367.872 402.233 368.329C404.363 368.722 406.56 368.528 408.588 367.767C410.616 367.006 412.398 365.707 413.744 364.009C395.494 363.465 391.855 364.335 391.292 364.874Z" fill="#535461"/>
<path d="M390.359 348.063L390.194 350.565L390.277 362.357C390.277 362.357 379.063 372.075 390.942 369.159L395.252 368.727C395.714 368.68 396.156 368.511 396.532 368.238C396.909 367.965 397.206 367.597 397.395 367.172L405.654 348.369C405.812 348.011 405.872 347.617 405.827 347.227C405.783 346.838 405.636 346.468 405.402 346.154C404.046 344.332 401.073 340.921 398.235 341.567C394.402 342.437 390.359 348.063 390.359 348.063Z" fill="#EC8C9C"/>
<path d="M498.498 296.464C497.745 311.468 498.984 310.967 493.493 312.984L492.803 313.324C486.351 316.37 434.849 339.39 344.24 338.229C248.165 336.99 227.084 329.872 214.053 313.251C213.917 313.076 213.776 312.901 213.64 312.721C213.64 312.721 207.391 301.133 212.391 290.546C212.606 289.617 213.018 288.746 213.601 287.991C218.212 281.315 240.187 264.067 343.672 267.371C343.672 267.371 453.711 261.705 491.968 281.946H492.084C493.017 281.971 499.168 282.588 498.498 296.464Z" fill="#60A3D9"/>
<path d="M399.61 341.815L390.194 350.561L388.896 348.296L387.886 346.528L383.941 339.658C377.522 330.742 357.349 320.485 357.349 320.485C353.064 318.717 351.426 316.953 350.804 315.909C350.319 315.087 349.833 314.257 349.274 313.479C347.794 311.242 346.596 308.83 345.708 306.298C344.882 303.993 344.202 301.639 343.672 299.248C343.186 297.164 342.914 295.361 342.734 294.113C342.579 292.995 342.516 292.334 342.516 292.334L343.973 287.048L348.531 270.407L365.536 269.576C365.536 269.576 365.619 279.187 365.604 287.962C365.604 289.614 365.604 291.236 365.604 292.762C365.604 294.705 365.57 296.469 365.546 297.941C365.502 299.768 365.448 301.129 365.38 301.75C365.286 302.508 365.252 303.271 365.278 304.034C365.4 306.915 366.644 309.719 371.109 311.167C376.735 313.003 386.904 322.759 387.823 327.258C388.425 330.217 393.352 335.591 396.651 338.919C397.438 339.711 398.108 340.377 398.648 340.892C399.231 341.465 399.61 341.815 399.61 341.815Z" fill="#565388"/>
<path opacity="0.1" d="M399.61 341.815L390.194 350.561L388.896 348.296L387.886 346.528L383.941 339.658C377.522 330.742 357.349 320.485 357.349 320.485C353.064 318.717 351.426 316.953 350.804 315.909C350.319 315.087 349.833 314.257 349.274 313.479C347.794 311.242 346.596 308.83 345.708 306.298C344.882 303.993 344.202 301.639 343.672 299.248C343.186 297.164 342.914 295.361 342.734 294.113C342.579 292.995 342.516 292.334 342.516 292.334L343.973 287.048L348.531 270.407L365.536 269.576C365.536 269.576 365.619 279.187 365.604 287.962C365.604 289.614 365.604 291.236 365.604 292.762C365.604 294.705 365.57 296.469 365.546 297.941C365.502 299.768 365.448 301.129 365.38 301.75C365.286 302.508 365.252 303.271 365.278 304.034C365.4 306.915 366.644 309.719 371.109 311.167C376.735 313.003 386.904 322.759 387.823 327.258C388.425 330.217 393.352 335.591 396.651 338.919C397.438 339.711 398.108 340.377 398.648 340.892C399.231 341.465 399.61 341.815 399.61 341.815Z" fill="black"/>
<path d="M365.59 287.928C365.59 289.579 365.59 291.202 365.59 292.728C360.692 293.909 349.148 294.083 342.754 294.079C342.598 292.961 342.53 292.3 342.53 292.3L343.988 287.014C350.46 288.18 361.047 288.049 365.59 287.928Z" fill="#DFE5EE"/>
<path d="M365.371 301.716C365.276 302.472 365.242 303.234 365.269 303.995C352.466 302.926 347.549 304.554 345.727 306.264C344.901 303.959 344.221 301.605 343.691 299.214C348.715 297.679 360.697 297.791 365.555 297.907C365.473 299.734 365.419 301.095 365.371 301.716Z" fill="#DFE5EE"/>
<path opacity="0.1" d="M326.662 358.733H326.424L315.171 354.982C315.17 354.971 315.17 354.959 315.171 354.948C315.283 354.729 315.385 354.506 315.492 354.282L316.779 353.519L326.443 356.435L326.662 358.733Z" fill="black"/>
<path d="M363.349 255.87L365.016 258.12C365.016 258.12 364.787 260.87 365.861 262.541C366.935 264.212 370.769 277.627 352.743 281.461C352.743 281.461 342.491 298.952 335.325 305.885L332.575 311.055C332.575 311.055 331.987 317.138 332.575 320.053C333.162 322.968 334.406 332.059 330.072 338.142C330.072 338.142 326.322 352.562 326.905 358.232H326.419L315.166 354.481C316.536 351.795 317.269 348.829 317.309 345.814L317.416 337.894V308.946C317.415 305.646 317.935 302.367 318.956 299.229C319.497 297.578 319.785 295.855 319.811 294.117C319.859 290.493 320.297 283.516 322.726 278.132C323.921 275.455 325.102 272.788 326.127 270.023C327.837 265.437 330.301 259.422 331.856 258.115L334.285 253.533L347.233 254.782L363.349 255.87Z" fill="#565388"/>
<path d="M351.766 197.148C351.766 197.148 336.01 206.939 337.341 204.189C337.9 203.032 337.122 200.36 336.024 197.644C335.295 195.817 334.416 193.976 333.711 192.572C333.007 191.167 332.424 190.099 332.424 190.099C332.424 190.099 348.681 180.269 348.093 184.02C347.994 185.247 348.108 186.481 348.428 187.669C348.657 188.641 348.953 189.705 349.288 190.73C350.372 194.068 351.766 197.148 351.766 197.148Z" fill="#EC8C9C"/>
<path d="M214.053 313.251C213.917 313.076 213.776 312.901 213.64 312.721C213.64 312.721 207.391 301.133 212.391 290.546C212.606 289.617 213.018 288.746 213.601 287.991L214.053 313.251Z" fill="#535461"/>
<path d="M267.406 303.344C267.406 305.074 266.893 306.765 265.932 308.203C264.971 309.641 263.605 310.762 262.007 311.424C260.409 312.086 258.651 312.259 256.954 311.922C255.258 311.584 253.7 310.751 252.477 309.528C251.253 308.305 250.421 306.747 250.083 305.05C249.746 303.354 249.919 301.595 250.581 299.997C251.243 298.399 252.364 297.033 253.802 296.072C255.24 295.111 256.931 294.599 258.661 294.599C258.928 294.599 259.195 294.599 259.457 294.633C261.63 294.831 263.65 295.835 265.121 297.447C266.592 299.059 267.407 301.162 267.406 303.344V303.344Z" stroke="#535461" stroke-miterlimit="10"/>
<path d="M263.655 307.843L257.154 310.054L252.499 297.125C254.136 295.501 256.349 294.59 258.655 294.589C258.922 294.589 259.189 294.589 259.452 294.623L263.655 307.843Z" fill="#535461"/>
<path opacity="0.1" d="M347.082 186.508C344.891 189.909 342.408 193.359 338.04 193.359C336.562 193.361 335.095 193.095 333.711 192.572C332.978 191.114 332.424 190.099 332.424 190.099C332.424 190.099 348.681 180.269 348.093 184.02C347.952 184.958 346.762 185.094 347.082 186.508Z" fill="black"/>
<path d="M350.377 180.522C350.377 183.794 349.078 186.932 346.764 189.245C344.451 191.559 341.313 192.858 338.041 192.858C334.77 192.858 331.632 191.559 329.318 189.245C327.005 186.932 325.705 183.794 325.705 180.522C325.702 179.36 325.866 178.203 326.191 177.087C327.02 174.236 328.85 171.779 331.345 170.168C333.839 168.558 336.831 167.901 339.771 168.318C342.711 168.736 345.402 170.2 347.349 172.442C349.297 174.684 350.37 177.553 350.373 180.522H350.377Z" fill="#EC8C9C"/>
<path opacity="0.1" d="M351.767 197.148C351.767 197.148 336.01 206.939 337.341 204.189C337.9 203.032 337.122 200.36 336.024 197.644C339.144 192.46 346.058 191.09 349.289 190.73C350.372 194.068 351.767 197.148 351.767 197.148Z" fill="black"/>
<path opacity="0.1" d="M351.013 192.105C351.013 192.105 340.81 191.532 337.044 199.199C337.177 200.152 337.117 201.122 336.866 202.051C336.616 202.98 336.181 203.849 335.587 204.606C335.587 204.606 326.253 211.608 329.086 228.696C330.783 238.752 331.706 248.923 331.846 259.121C331.846 259.121 334.275 256.871 339.518 259.121C344.76 261.37 365.021 259.121 365.021 259.121C365.021 259.121 362.854 238.534 364.69 234.784C366.527 231.033 365.429 211.384 363.097 207.298C361.527 204.553 357.218 200.885 354.064 198.018C352.367 196.481 351.284 194.38 351.018 192.105H351.013Z" fill="black"/>
<path d="M351.014 191.104C351.014 191.104 339.353 191.269 335.593 198.936C335.593 198.936 337.595 201.191 335.593 203.606C335.593 203.606 326.259 210.607 329.092 227.695C330.788 237.751 331.709 247.923 331.847 258.12C331.847 258.12 334.276 255.87 339.519 258.12C344.761 260.369 365.022 258.12 365.022 258.12C365.022 258.12 362.855 237.534 364.691 233.783C366.528 230.032 365.43 210.383 363.098 206.297C361.528 203.557 357.219 199.884 354.065 197.017C352.368 195.48 351.285 193.379 351.019 191.104H351.014Z" fill="#DFE5EE"/>
<path d="M350.168 264.625L348.852 267.375L349.925 272.662C350.778 276.999 352.734 281.044 355.605 284.405C358.477 287.724 361.921 289.992 363.69 284.711C365.876 278.147 364.176 274.848 362.767 273.356C361.554 272.044 360.453 270.631 359.477 269.134C358.083 267.103 356.14 264.698 354.05 263.863C350.217 262.405 350.168 264.625 350.168 264.625Z" fill="#EC8C9C"/>
<path opacity="0.1" d="M342.847 230.445L342.817 234.405L343.507 241.867C344.877 244.831 345.948 247.923 346.704 251.099C348.162 256.929 348.342 268.357 348.342 268.357C348.342 268.357 356.062 265.874 357.573 266.622C357.573 266.622 358.02 249.617 356.436 244.272C354.852 238.928 355.518 231.698 355.518 231.698L342.847 230.445Z" fill="black"/>
<path d="M343.347 229.449L342.535 234.614L343.993 240.867C345.363 243.83 346.434 246.922 347.19 250.098C348.647 255.928 348.827 267.356 348.827 267.356C348.827 267.356 355.994 265.413 357.495 266.185C357.495 266.185 358.496 248.602 356.912 243.267C355.328 237.932 355.994 230.688 355.994 230.688L343.347 229.449Z" fill="#565388"/>
<path opacity="0.1" d="M350.377 180.522C350.379 182.375 349.963 184.204 349.16 185.873C348.356 187.542 347.186 189.008 345.737 190.162L345.115 189.953C344.817 189.87 344.537 189.733 344.289 189.549C344.005 189.278 343.802 188.933 343.701 188.553C343.249 187.212 343.113 185.774 342.608 184.443C342.103 183.112 341.097 181.844 339.693 181.61C339.537 181.571 339.373 181.59 339.231 181.664C339.078 181.798 338.98 181.982 338.954 182.184C338.777 182.789 338.463 183.346 338.036 183.81C337.608 184.275 337.08 184.634 336.491 184.861C335.757 185.133 334.455 185.347 333.755 184.861C333.148 184.438 333.167 183.719 333.022 183.053C332.628 181.222 331.729 179.371 329.951 178.54C329.343 178.294 328.72 178.09 328.085 177.928C327.425 177.734 326.789 177.465 326.19 177.126C327.02 174.275 328.85 171.818 331.344 170.207C333.839 168.596 336.831 167.94 339.771 168.357C342.711 168.775 345.401 170.239 347.349 172.481C349.296 174.722 350.37 177.591 350.372 180.561L350.377 180.522Z" fill="black"/>
<path d="M329.956 178C329.347 177.754 328.722 177.549 328.085 177.388C326.626 176.998 325.315 176.183 324.32 175.046C323.831 174.473 323.495 173.785 323.344 173.047C323.192 172.308 323.231 171.544 323.455 170.824C323.941 169.498 325.19 168.507 325.486 167.122C325.535 166.571 325.638 166.026 325.792 165.494C326.016 164.984 326.667 164.591 327.128 164.902C327.157 165.537 327.032 166.171 326.764 166.748C327.549 166.319 328.217 165.704 328.707 164.955C328.933 164.522 329.221 164.124 329.562 163.774C329.734 163.602 329.958 163.492 330.2 163.462C330.441 163.432 330.685 163.484 330.894 163.609C330.83 163.857 330.856 164.119 330.968 164.349C331.081 164.579 331.271 164.761 331.506 164.863C331.985 165.049 332.502 165.116 333.012 165.057C334.387 165.054 335.757 164.901 337.098 164.6C338.391 164.26 339.639 163.629 340.985 163.629C342.331 163.629 343.823 164.566 343.759 165.907C345.134 165.421 346.641 165.961 348.001 166.5C349.361 167.039 350.751 167.603 351.849 168.57C352.947 169.537 353.72 170.999 353.457 172.457C353.384 172.696 353.376 172.951 353.433 173.195C353.541 173.402 353.696 173.58 353.885 173.715C354.9 174.653 354.915 176.227 354.857 177.602C354.871 178.025 354.793 178.446 354.628 178.836C354.429 179.23 354.055 179.526 353.929 179.949C353.637 180.92 354.827 181.766 354.944 182.791C354.939 183.43 354.722 184.048 354.327 184.55L351.237 189.525C351.069 189.832 350.85 190.108 350.591 190.341C349.794 190.973 348.647 190.672 347.675 190.341L345.12 189.472C344.824 189.387 344.546 189.251 344.299 189.068C344.015 188.791 343.811 188.442 343.711 188.058C343.254 186.712 343.123 185.274 342.622 183.943C342.122 182.611 341.111 181.343 339.707 181.115C339.553 181.072 339.388 181.089 339.246 181.163C339.093 181.297 338.994 181.482 338.969 181.683C338.792 182.289 338.478 182.846 338.051 183.311C337.624 183.775 337.095 184.134 336.505 184.36C335.772 184.632 334.47 184.846 333.77 184.36C333.163 183.933 333.182 183.214 333.036 182.543C332.633 180.682 331.734 178.836 329.956 178Z" fill="#603456"/>
<path d="M444.709 283.083C450.51 283.083 455.213 281.069 455.213 278.584C455.213 276.1 450.51 274.085 444.709 274.085C438.907 274.085 434.204 276.1 434.204 278.584C434.204 281.069 438.907 283.083 444.709 283.083Z" fill="#535461"/>
<path d="M444.709 325.723C450.51 325.723 455.213 323.709 455.213 321.224C455.213 318.739 450.51 316.725 444.709 316.725C438.907 316.725 434.204 318.739 434.204 321.224C434.204 323.709 438.907 325.723 444.709 325.723Z" fill="#535461"/>
<path d="M473.967 303.713C479.769 303.713 484.472 301.699 484.472 299.214C484.472 296.729 479.769 294.715 473.967 294.715C468.166 294.715 463.463 296.729 463.463 299.214C463.463 301.699 468.166 303.713 473.967 303.713Z" fill="#535461"/>
<path d="M498.499 296.464C497.745 311.468 498.984 310.967 493.494 312.984L492.804 313.324L492.109 281.976C493.018 281.971 499.169 282.588 498.499 296.464Z" fill="#535461"/>
<path d="M493.596 310.72L496.472 319.222L499.849 317.969L494.597 308.844L493.596 310.72Z" fill="#535461"/>
<path opacity="0.1" d="M341.593 205.675C341.593 205.675 333.261 204.441 338.012 224.197C338.012 224.197 341.928 234.196 342.011 235.614C342.011 235.614 349.43 230.114 355.348 234.283C355.348 234.283 356.514 222.195 353.516 216.525C353.516 216.525 351.49 202.731 341.593 205.675Z" fill="black"/>
<path d="M342.093 204.674C342.093 204.674 333.761 203.44 338.512 223.196C338.512 223.196 342.428 233.2 342.511 234.613C342.511 234.613 349.93 229.113 355.848 233.282C355.848 233.282 357.014 221.194 354.016 215.524C354.016 215.524 351.99 201.73 342.093 204.674Z" fill="#DFE5EE"/>
<path d="M341.68 224.114C341.68 224.114 344.43 222.277 344.848 221.111C345.265 219.945 347.525 222.03 346.558 223.03C345.591 224.031 341.68 224.114 341.68 224.114Z" fill="#565388"/>
<path d="M398.6 340.858L388.883 348.301L387.872 346.533L396.589 338.885C397.39 339.658 398.08 340.357 398.6 340.858Z" fill="#535461"/>
<path opacity="0.1" d="M356.791 214.018C356.791 214.018 359.633 225.372 358.467 229.449L356.791 214.018Z" fill="black"/>
<path opacity="0.1" d="M390.194 350.565V351.095L400.252 341.713L399.61 341.815L390.194 350.565Z" fill="black"/>
<path opacity="0.1" d="M336.545 201.511C336.545 201.511 349.066 197.785 351.767 194.87L336.545 201.511Z" fill="black"/>
<path opacity="0.1" d="M76.8984 296.416C93.4179 296.284 107.406 292.864 117.41 293.073C127.414 293.282 136.417 292.694 145.92 294.739" fill="#60A3D9"/>
<path opacity="0.1" d="M25.7852 273.094C42.3046 272.968 56.2927 269.547 66.2966 269.756C76.3006 269.965 85.2988 269.377 94.8024 271.423" fill="#60A3D9"/>
<path opacity="0.1" d="M130.814 342.874C147.334 342.68 161.322 337.491 171.326 337.811C181.33 338.132 190.328 337.233 199.832 340.338" fill="#60A3D9"/>
<path opacity="0.1" d="M138.413 318.45C154.933 318.085 168.925 308.247 178.925 308.854C188.924 309.461 197.932 307.756 207.435 313.64" fill="#60A3D9"/>
<path opacity="0.1" d="M167.59 204.101C184.109 204.038 198.097 202.328 208.101 202.43C218.105 202.532 227.108 202.24 236.612 203.265" fill="#60A3D9"/>
<path opacity="0.1" d="M69.3965 196.522C85.9159 196.458 99.904 194.748 109.908 194.855C119.912 194.962 128.915 194.661 138.414 195.686" fill="#60A3D9"/>
<path opacity="0.1" d="M133.078 235.454C149.598 235.386 163.59 233.676 173.59 233.783C183.589 233.89 192.597 233.593 202.1 234.613" fill="#60A3D9"/>
<path opacity="0.1" d="M34.8857 214.853C51.4052 214.79 65.3981 213.08 75.3972 213.182C85.3963 213.284 94.4043 212.993 103.908 214.018" fill="#60A3D9"/>
<defs>
<linearGradient id="paint0_linear" x1="359.405" y1="371.108" x2="359.405" y2="161.763" gradientUnits="userSpaceOnUse">
<stop stop-color="#808080" stop-opacity="0.25"/>
<stop offset="0.54" stop-color="#808080" stop-opacity="0.12"/>
<stop offset="1" stop-color="#808080" stop-opacity="0.1"/>
</linearGradient>
</defs>
</svg>
