<svg width="550" height="450" viewBox="0 0 550 450" fill="none" xmlns="http://www.w3.org/2000/svg">
<g clip-path="url(#clip0)">
<path d="M141.664 383.485C141.664 383.485 144.312 372.363 162.849 376.07C181.385 379.778 184.034 383.485 184.034 383.485H141.664Z" fill="#3F3D56"/>
<path d="M50.3047 368.92C50.3047 368.92 52.9528 357.798 71.4894 361.506C90.0261 365.213 92.6742 368.92 92.6742 368.92H50.3047Z" fill="#3F3D56"/>
<path d="M205.219 383.485C205.219 383.485 190.39 374.481 184.034 383.485H205.219Z" fill="#3F3D56"/>
<path d="M136.104 358.063C136.104 358.063 121.274 349.06 114.919 358.063H136.104Z" fill="#3F3D56"/>
<path d="M52.9133 349.791C57.3283 357.979 66.6984 361.494 66.6984 361.494C66.6984 361.494 68.9105 351.733 64.4955 343.546C60.0806 335.358 50.7104 331.843 50.7104 331.843C50.7104 331.843 48.4983 341.603 52.9133 349.791Z" fill="#3F3D56"/>
<path d="M55.9483 347.097C63.9192 351.893 66.989 361.418 66.989 361.418C66.989 361.418 57.1355 363.168 49.1647 358.373C41.1938 353.577 38.124 344.052 38.124 344.052C38.124 344.052 47.9775 342.302 55.9483 347.097Z" fill="#60A3D9"/>
<path d="M493.596 376.865C493.596 376.865 496.244 365.743 514.78 369.45C533.317 373.157 535.965 376.865 535.965 376.865H493.596Z" fill="#3F3D56"/>
<path d="M451.227 383.485C438.348 381.469 425.965 379.754 414.078 378.34L418.655 369.185C417.066 368.656 410.181 373.952 410.181 373.952L416.007 347.471C408.063 348.53 404.355 375.541 404.355 375.541L395.352 366.537L399.784 376.731C363.409 372.909 332.021 371.716 305.636 371.989L309.554 364.154C307.965 363.624 301.08 368.92 301.08 368.92L306.906 342.439C298.961 343.499 295.254 370.509 295.254 370.509L286.251 361.506L290.945 372.302C272.871 372.828 254.836 374.28 236.912 376.654C240.821 364.475 254.473 352.767 254.473 352.767C243.976 356.033 238.515 361.353 235.688 366.285C235.116 341.264 238.966 316.338 247.059 292.655C247.059 292.655 225.874 340.321 229.052 372.098L229.455 377.743C211.025 380.618 201.776 383.485 201.776 383.485H451.227Z" fill="#3F3D56"/>
<path d="M312.996 407.582C312.996 407.582 410.446 393.283 470.822 407.582H312.996Z" fill="#3F3D56"/>
<path d="M169.469 427.178C169.469 427.178 266.919 412.879 327.295 427.178H169.469Z" fill="#3F3D56"/>
<path d="M350.069 432.436C350.069 432.436 407.787 417.798 443.547 432.436H350.069Z" fill="#3F3D56"/>
<path d="M511.279 373.665L510.338 373.179C522.562 349.545 516.025 318.853 508.389 297.268C503.204 282.759 496.591 268.801 488.646 255.6L489.542 255.034C497.527 268.303 504.175 282.331 509.388 296.914C517.094 318.697 523.677 349.695 511.279 373.665Z" fill="#3F3D56"/>
<path d="M520.345 255.224L513.474 292.829L514.515 293.02L521.387 255.414L520.345 255.224Z" fill="#3F3D56"/>
<path d="M474.653 287.263L473.877 287.985L509.361 326.117L510.137 325.396L474.653 287.263Z" fill="#3F3D56"/>
<path d="M538.445 329.15L520.446 354.049L521.305 354.669L539.303 329.771L538.445 329.15Z" fill="#3F3D56"/>
<path d="M523.519 245.254C526.444 245.254 528.815 242.883 528.815 239.958C528.815 237.033 526.444 234.662 523.519 234.662C520.594 234.662 518.223 237.033 518.223 239.958C518.223 242.883 520.594 245.254 523.519 245.254Z" fill="#60A3D9"/>
<path d="M465.79 286.035C468.715 286.035 471.087 283.664 471.087 280.739C471.087 277.814 468.715 275.443 465.79 275.443C462.865 275.443 460.494 277.814 460.494 280.739C460.494 283.664 462.865 286.035 465.79 286.035Z" fill="#3F3D56"/>
<path d="M489.094 291.331C492.019 291.331 494.39 288.96 494.39 286.035C494.39 283.11 492.019 280.739 489.094 280.739C486.169 280.739 483.798 283.11 483.798 286.035C483.798 288.96 486.169 291.331 489.094 291.331Z" fill="#3F3D56"/>
<path d="M478.501 311.986C481.426 311.986 483.797 309.615 483.797 306.69C483.797 303.765 481.426 301.394 478.501 301.394C475.576 301.394 473.205 303.765 473.205 306.69C473.205 309.615 475.576 311.986 478.501 311.986Z" fill="#60A3D9"/>
<path d="M544.704 325.227C547.629 325.227 550.001 322.856 550.001 319.931C550.001 317.006 547.629 314.634 544.704 314.634C541.779 314.634 539.408 317.006 539.408 319.931C539.408 322.856 541.779 325.227 544.704 325.227Z" fill="#3F3D56"/>
<path d="M527.227 331.053C530.152 331.053 532.523 328.681 532.523 325.756C532.523 322.831 530.152 320.46 527.227 320.46C524.302 320.46 521.931 322.831 521.931 325.756C521.931 328.681 524.302 331.053 527.227 331.053Z" fill="#3F3D56"/>
<path d="M539.408 348C542.332 348 544.704 345.629 544.704 342.704C544.704 339.779 542.332 337.408 539.408 337.408C536.483 337.408 534.111 339.779 534.111 342.704C534.111 345.629 536.483 348 539.408 348Z" fill="#3F3D56"/>
<path d="M483.798 251.61C486.723 251.61 489.094 249.239 489.094 246.314C489.094 243.389 486.723 241.017 483.798 241.017C480.873 241.017 478.502 243.389 478.502 246.314C478.502 249.239 480.873 251.61 483.798 251.61Z" fill="#3F3D56"/>
<path d="M173.854 218.24C173.854 283.706 134.936 306.564 86.9271 306.564C38.9186 306.564 0 283.706 0 218.24C0 152.774 86.9271 69.4905 86.9271 69.4905C86.9271 69.4905 173.854 152.774 173.854 218.24Z" fill="#F2F2F2"/>
<path d="M83.7611 296.55L84.6509 241.761L121.701 173.979L84.7907 233.166L85.1906 208.531L110.726 159.491L85.2965 202.011L86.0168 157.703L113.36 118.661L86.1296 150.736L86.5792 69.4905L83.7532 177.044L83.9851 172.608L56.1849 130.054L83.5397 181.125L80.9494 230.609L80.872 229.296L48.8232 184.515L80.7751 233.936L80.451 240.125L80.3933 240.218L80.4197 240.726L73.8477 366.272H82.6283L83.6817 301.425L115.555 252.125L83.7611 296.55Z" fill="#3F3D56"/>
<path d="M460.581 198.724C460.581 278.702 413.035 306.628 354.384 306.628C295.733 306.628 248.188 278.702 248.188 198.724C248.188 118.745 354.384 17 354.384 17C354.384 17 460.581 118.745 460.581 198.724Z" fill="#F2F2F2"/>
<path d="M350.515 294.393L351.603 227.459L396.867 144.651L351.773 216.958L352.263 186.862L383.458 126.951L352.392 178.897L353.271 124.767L386.676 77.0709L353.409 116.255L353.959 17L350.506 148.396L350.79 142.976L316.827 90.9898L350.245 153.381L347.08 213.835L346.987 212.231L307.833 157.523L346.868 217.899L346.472 225.459L346.401 225.573L346.434 226.194L338.405 379.571H349.132L350.419 300.349L389.358 240.12L350.515 294.393Z" fill="#3F3D56"/>
<path d="M268.605 313.913L273.444 328.892C273.444 328.892 269.066 342.948 271.14 358.618C273.214 374.288 272.062 374.749 272.062 374.749C272.062 374.749 251.34 373.556 253.413 379.778C255.487 385.999 275.749 382.353 275.749 382.353C275.749 382.353 279.64 381.305 281.483 370.244C283.327 359.183 287.962 337.879 287.962 337.879L283.603 317.766L268.605 313.913Z" fill="#FFB8B8"/>
<path d="M270.218 283.265C270.218 283.265 261.461 286.491 261.461 295.248C261.461 304.004 264.687 315.987 266.761 316.678C268.835 317.37 282.661 326.818 285.196 320.135C287.731 313.452 270.218 283.265 270.218 283.265Z" fill="#60A3D9"/>
<path d="M343.497 386.962L361.932 386.271L375.989 384.197L371.841 398.023L337.736 398.944L343.497 386.962Z" fill="#FFB8B8"/>
<path d="M369.998 388.805C369.998 388.805 369.767 383.736 367.693 383.966C365.619 384.197 367.002 382.123 368.845 381.662C370.689 381.201 375.989 378.896 375.989 378.896L396.959 380.279C396.959 380.279 410.555 392.262 405.024 398.714C399.494 405.166 385.206 399.405 385.206 399.405L369.767 399.636C369.767 399.636 364.697 391.34 369.998 388.805Z" fill="#2F2E41"/>
<path d="M378.294 371.062L384.976 402.401L398.803 399.636L390.968 360.461L382.672 356.083L378.294 371.062Z" fill="#FFB8B8"/>
<path d="M298.792 367.144C298.792 367.144 260.078 384.657 276.439 402.401C276.439 402.401 276.44 410.697 293.722 409.084C311.005 407.471 344.419 404.475 346.032 405.397C347.645 406.319 352.714 387.192 348.336 386.271C343.958 385.349 338.658 384.197 338.658 384.197C338.658 384.197 343.266 383.505 343.266 379.588C343.266 379.588 356.401 378.666 360.319 370.37C364.236 362.075 367.923 355.853 367.923 355.853L376.91 378.897C376.91 378.897 387.28 359.77 395.115 368.296C395.115 368.296 386.358 313.222 379.676 308.152C372.993 303.083 368.384 301.47 362.162 306.078C355.94 310.687 350.18 322.439 350.18 322.439L298.792 367.144Z" fill="#2F2E41"/>
<path d="M391.198 392.953C389.587 394.168 388.048 395.476 386.589 396.871C384.746 398.714 382.211 397.792 381.98 396.871C381.75 395.949 377.602 397.562 377.141 404.245C376.68 410.927 373.915 416.919 381.289 418.993C388.663 421.067 388.433 427.058 388.433 427.058C394.267 429.857 400.963 430.27 407.098 428.21C417.468 424.754 413.781 421.067 413.781 421.067L399.954 398.253C399.954 398.253 396.267 391.34 391.198 392.953Z" fill="#2F2E41"/>
<path d="M352.945 278.656C352.945 278.656 375.067 286.261 377.372 287.874C379.676 289.487 390.046 297.091 384.976 301.009C379.906 304.926 375.759 307.461 365.85 304.465C355.941 301.469 344.88 292.252 344.88 292.252L352.945 278.656Z" fill="#FFB8B8"/>
<path d="M330.823 268.517C330.823 268.517 339.58 266.904 345.802 270.36C352.024 273.817 357.324 280.73 357.324 280.73C357.324 280.73 351.563 292.943 347.415 294.787C343.267 296.63 335.662 287.413 335.662 287.413L330.823 268.517Z" fill="#60A3D9"/>
<path d="M290.497 261.834C290.497 261.834 290.728 270.821 289.806 271.743C288.884 272.665 300.867 299.856 314.002 287.874C327.137 275.891 316.997 271.052 316.997 271.052C316.997 271.052 312.158 262.065 312.389 261.143C312.619 260.221 290.958 261.143 290.958 261.143L290.497 261.834Z" fill="#FFB8B8"/>
<path opacity="0.1" d="M290.497 261.834C290.497 261.834 290.728 270.821 289.806 271.743C288.884 272.665 300.867 299.856 314.002 287.874C327.137 275.891 316.997 271.052 316.997 271.052C316.997 271.052 312.158 262.065 312.389 261.143C312.619 260.221 290.958 261.143 290.958 261.143L290.497 261.834Z" fill="black"/>
<path d="M294.184 279.117C294.184 279.117 302.941 285.108 306.628 283.726C310.315 282.343 314.924 276.352 315.384 275.891C315.845 275.43 339.35 322.67 339.35 322.67C339.35 322.67 335.893 339.953 326.676 345.022C317.458 350.092 317.574 354.124 316.421 357.581C315.269 361.038 300.406 346.635 300.406 346.635L290.958 306.539V282.113L294.184 279.117Z" fill="#60A3D9"/>
<path d="M290.381 268.402C290.381 268.402 287.501 267.826 284.505 270.36C281.509 272.895 267.452 282.343 268.144 283.265C268.835 284.187 275.057 297.322 276.44 302.622C277.822 307.922 279.896 308.613 279.896 308.613C279.896 308.613 284.735 312.07 284.044 314.604C283.353 317.139 280.357 351.705 284.505 359.309C288.653 366.914 287.961 373.596 286.809 375.44C285.657 377.283 297.87 370.14 297.87 370.14C297.87 370.14 316.075 355.392 317.457 351.014C318.352 348.004 318.969 344.918 319.301 341.796C319.301 341.796 307.549 295.248 303.862 292.713C300.175 290.178 290.381 268.402 290.381 268.402Z" fill="#575A89"/>
<path d="M315.697 268.584C315.697 268.584 321.375 265.06 322.527 265.982C323.679 266.904 334.51 266.904 334.74 267.825C334.971 268.747 335.432 290.869 343.267 296.63C351.101 302.391 346.032 313.913 346.032 313.913L351.793 323.131C351.793 323.131 320.454 353.315 322.527 342.948C322.642 342.372 322.527 342.257 322.527 342.257C322.527 342.257 310.314 289.947 311.927 287.182C313.54 284.417 316.471 271.877 315.697 268.584Z" fill="#575A89"/>
<path d="M364.006 289.717L332.667 300.548C332.667 300.548 301.558 307.922 306.397 316.448C311.236 324.974 331.745 310.456 331.745 310.456L373.479 305.78C373.479 305.78 390.046 291.791 364.006 289.717Z" fill="#FFB8B8"/>
<path d="M302.94 270.36C312.358 270.36 319.992 262.726 319.992 253.308C319.992 243.89 312.358 236.256 302.94 236.256C293.522 236.256 285.888 243.89 285.888 253.308C285.888 262.726 293.522 270.36 302.94 270.36Z" fill="#FFB8B8"/>
<path d="M289.361 236.361L286.206 235.214C286.206 235.214 292.802 228.618 301.978 229.192L299.397 226.611C299.397 226.611 305.706 224.317 311.441 230.339C314.456 233.505 317.944 237.225 320.119 241.417H323.497L322.087 244.237L327.021 247.057L321.957 246.55C322.436 248.985 322.271 251.502 321.477 253.853L320.33 257.007C320.33 257.007 315.742 247.831 315.742 246.684V249.552C315.742 249.552 312.588 246.971 312.588 245.25L310.867 247.258L310.007 244.103L299.397 247.258L301.118 244.677L294.522 245.537L297.103 242.383C297.103 242.383 289.648 246.111 289.361 249.265C289.074 252.419 285.346 256.434 285.346 256.434L283.626 253.566C283.626 253.566 281.045 240.662 289.361 236.361Z" fill="#2F2E41"/>
</g>
<defs>
<clipPath id="clip0">
<rect width="550" height="450" fill="white"/>
</clipPath>
</defs>
</svg>
