<svg width="150" height="150" viewBox="0 0 150 150" fill="none" xmlns="http://www.w3.org/2000/svg">
<g clip-path="url(#clip0)">
<path d="M150 75C150 101.7 136.047 125.143 115.034 138.433C113.073 139.675 111.05 140.825 108.967 141.883C108.497 142.125 108.024 142.358 107.547 142.587C107.155 142.777 106.757 142.964 106.36 143.148C102.234 145.051 97.9428 146.571 93.5392 147.69C93.253 147.763 92.9645 147.834 92.676 147.903C92.4608 147.956 92.2434 148.007 92.0259 148.056C91.9991 148.065 91.9716 148.072 91.9438 148.076C91.4978 148.18 91.0518 148.28 90.6014 148.371C90.3484 148.425 90.0954 148.478 89.8425 148.529C89.6894 148.562 89.534 148.591 89.381 148.62C89.1879 148.658 88.9971 148.693 88.804 148.731C88.6975 148.753 88.591 148.771 88.4823 148.788C88.2382 148.833 87.9941 148.877 87.7522 148.919C87.3395 148.99 86.9223 149.059 86.5074 149.121C86.2056 149.168 85.9061 149.212 85.6043 149.254C85.2493 149.305 84.8943 149.352 84.537 149.396C84.4394 149.412 84.3417 149.423 84.2441 149.434C84.1176 149.45 83.9911 149.465 83.8646 149.481C83.4785 149.527 83.088 149.57 82.6997 149.609C82.4467 149.636 82.1938 149.661 81.9408 149.683C81.6146 149.714 81.2885 149.74 80.9601 149.767C80.5607 149.798 80.1635 149.827 79.7618 149.851C79.5045 149.867 79.247 149.882 78.9874 149.896C78.3262 149.931 77.6649 149.956 76.9993 149.973C76.6686 149.982 76.3358 149.989 76.003 149.993H75.9963C75.6657 149.998 75.3328 150 75 150C65.1494 150.005 55.3945 148.069 46.2928 144.301C37.1911 140.534 28.9212 135.01 21.9558 128.044C14.9904 121.079 9.46611 112.809 5.6988 103.707C1.93148 94.6055 -0.00502223 84.8506 9.78161e-06 75C9.78161e-06 33.5791 33.5792 0 75 0C116.421 0 150 33.5791 150 75Z" fill="#60A3D9"/>
<path opacity="0.2" d="M122.51 45.7566C118.658 48.5769 115.291 52.3624 112.349 56.8224C103.975 69.5125 99.031 87.6723 96.1109 104.64C95.3653 108.976 94.7507 113.234 94.247 117.302C92.5118 131.292 92.0614 143.052 91.9438 148.076C91.4978 148.18 91.0518 148.28 90.6013 148.371C90.6789 144.526 90.9563 136.203 91.9349 125.829C92.0614 124.489 92.2004 123.116 92.352 121.711C92.5207 120.131 92.7071 118.515 92.9112 116.865C93.3328 113.459 93.8298 109.928 94.4178 106.338C94.511 105.772 94.605 105.21 94.6997 104.652C98.3986 82.9526 104.075 66.4748 111.637 55.4156C114.69 50.9467 118.051 47.3676 121.72 44.6782L122.51 45.7566Z" fill="black"/>
<path opacity="0.2" d="M121.695 104.856C115.924 109.085 112.691 118.418 110.885 127.509C109.965 132.259 109.325 137.058 108.968 141.883C108.497 142.125 108.024 142.358 107.547 142.587C107.903 137.093 108.634 131.63 109.733 126.235C111.632 117.231 114.987 108.115 120.905 103.78L121.695 104.856Z" fill="black"/>
<path opacity="0.2" d="M129.971 45.7256C133.659 45.7256 136.648 42.7364 136.648 39.0491C136.648 35.3618 133.659 32.3727 129.971 32.3727C126.284 32.3727 123.295 35.3618 123.295 39.0491C123.295 42.7364 126.284 45.7256 129.971 45.7256Z" fill="black"/>
<path opacity="0.2" d="M127.821 103.198C131.509 103.198 134.498 100.209 134.498 96.5215C134.498 92.8342 131.509 89.8451 127.821 89.8451C124.134 89.8451 121.145 92.8342 121.145 96.5215C121.145 100.209 124.134 103.198 127.821 103.198Z" fill="black"/>
<path opacity="0.2" d="M103.466 50.2636C104.882 58.2512 101.756 65.4838 101.756 65.4838C101.756 65.4838 96.3353 59.766 94.9196 51.7784C93.5038 43.7908 96.6291 36.5582 96.6291 36.5582C96.6291 36.5582 102.05 42.276 103.466 50.2636Z" fill="black"/>
<path opacity="0.2" d="M125.654 69.2244C118.036 72.0103 110.38 70.2225 110.38 70.2225C110.38 70.2225 115.077 63.9179 122.695 61.132C130.314 58.3461 137.97 60.1339 137.97 60.1339C137.97 60.1339 133.273 66.4385 125.654 69.2244Z" fill="black"/>
<path opacity="0.2" d="M126.946 120.118C121.606 122.071 116.233 120.797 116.233 120.797C116.233 120.797 119.517 116.357 124.857 114.405C130.197 112.452 135.571 113.726 135.571 113.726C135.571 113.726 132.286 118.166 126.946 120.118Z" fill="black"/>
<path d="M40.3521 39.9805C51.1972 21.6557 72.6533 20.8017 72.6533 20.8017C72.6533 20.8017 93.5611 18.128 106.973 46.037C119.475 72.0504 136.728 97.167 109.751 103.257L104.878 88.0901L101.86 104.386C98.0195 104.662 94.1662 104.728 90.318 104.583C61.4279 103.65 33.9144 104.856 34.8003 94.4888C35.9779 80.7074 29.9169 57.6127 40.3521 39.9805Z" fill="#2F2E41"/>
<path d="M74.766 90.0406C89.9158 90.0406 102.197 77.7592 102.197 62.6094C102.197 47.4596 89.9158 35.1782 74.766 35.1782C59.6162 35.1782 47.3348 47.4596 47.3348 62.6094C47.3348 77.7592 59.6162 90.0406 74.766 90.0406Z" fill="#D0CDE1"/>
<path d="M87.9737 77.8489C87.9737 77.8489 76.798 110.36 90.0056 119.504C103.213 128.647 68.6702 134.743 59.5265 128.647C50.3828 122.552 43.271 112.392 43.271 112.392C43.271 112.392 66.6383 89.0246 61.5585 75.817L87.9737 77.8489Z" fill="#D0CDE1"/>
<path d="M108.293 126.615L106.36 143.148C102.234 145.051 97.9427 146.571 93.5392 147.69C93.2529 147.763 92.9644 147.834 92.676 147.903C92.4607 147.956 92.2433 148.007 92.0258 148.056C91.999 148.065 91.9716 148.072 91.9437 148.076C91.4977 148.18 91.0518 148.28 90.6013 148.371C90.3483 148.425 90.0954 148.478 89.8424 148.529C89.6893 148.562 89.534 148.591 89.3809 148.62C89.1878 148.658 88.997 148.693 88.8039 148.731C88.6974 148.753 88.5909 148.771 88.4822 148.788C88.2381 148.833 87.994 148.877 87.7522 148.919C87.3395 148.99 86.9223 149.059 86.5074 149.121C86.2056 149.168 85.906 149.212 85.6042 149.254C85.2492 149.305 84.8942 149.352 84.5369 149.396C84.4393 149.412 84.3417 149.423 84.244 149.434C84.1176 149.45 83.9911 149.465 83.8646 149.481C83.4785 149.527 83.0879 149.57 82.6996 149.609C82.4467 149.636 82.1937 149.661 81.9408 149.683C81.6146 149.714 81.2884 149.74 80.96 149.767C80.5606 149.798 80.1634 149.827 79.7618 149.851C79.5044 149.867 79.247 149.882 78.9874 149.896C78.3261 149.931 77.6649 149.956 76.9992 149.973C76.6686 149.982 76.3357 149.989 76.0029 149.993H75.9962C75.6656 149.998 75.3328 150 74.9999 150C61.6426 149.996 48.5283 146.428 37.0102 139.664C25.4922 132.9 15.9875 123.185 9.47705 111.521C12.8216 109.229 16.3038 107.145 19.9038 105.28C21.051 104.7 22.6065 104.345 24.3839 104.163C28.3979 103.746 33.5991 104.212 38.1102 105.067C42.2241 105.839 45.77 106.937 47.3343 107.973C51.3994 110.665 67.6553 119.503 67.6553 119.503C67.6553 119.503 81.872 121.536 87.6147 117.302C87.6169 117.302 87.6169 117.3 87.6191 117.3C88.9726 116.297 90.8454 116.29 92.9113 116.865C93.3484 116.987 93.7936 117.132 94.247 117.302C95.5079 117.79 96.7303 118.372 97.9039 119.044C97.9305 119.059 97.9549 119.072 97.9815 119.088C98.3965 119.321 98.8092 119.565 99.2175 119.816C104.052 122.763 108.293 126.615 108.293 126.615Z" fill="#2F2E41"/>
<path d="M26.2389 131.987C25.5821 119.787 24.8366 109.793 24.3839 104.163C28.398 103.746 33.5991 104.212 38.1102 105.067C41.7826 112.425 50.0592 129.408 57.6768 147.99C46.0712 145.239 35.292 139.752 26.2389 131.987Z" fill="#2F2E41"/>
<path d="M97.6243 118.995L97.895 119.135C97.8684 119.423 97.804 119.601 97.6243 118.995Z" fill="#2F2E41"/>
<path d="M97.9816 119.088C97.9838 119.119 97.9882 119.152 97.9904 119.183L97.895 119.135C97.8972 119.106 97.8995 119.075 97.9039 119.044C97.9261 118.655 97.8995 118.196 97.9816 119.088Z" fill="#2F2E41"/>
<path d="M115.034 138.433C113.072 139.675 111.05 140.825 108.967 141.883C108.497 142.125 108.024 142.358 107.547 142.586C107.155 142.777 106.757 142.964 106.36 143.148C102.234 145.051 97.9427 146.571 93.5392 147.69C96.7367 137.365 98.7626 127.172 97.9904 119.183L99.2174 119.816L105.131 122.862C106.833 123.737 108.386 124.876 109.733 126.235C110.138 126.64 110.523 127.065 110.885 127.509C113.385 130.546 114.837 134.31 115.025 138.24C115.027 138.304 115.032 138.368 115.034 138.433Z" fill="#2F2E41"/>
<path d="M48.1948 38.214L69.3924 27.1105L82.6918 29.1742C87.403 29.9052 91.7857 32.0357 95.2707 35.2891C98.7557 38.5425 101.182 42.7685 102.235 47.4184L104.722 58.4023L89.6455 57.8224L85.4337 47.9949V57.6604L78.4771 57.3928L74.4394 41.747L71.916 58.4023L47.1853 57.8976L48.1948 38.214Z" fill="#2F2E41"/>
</g>
<defs>
<clipPath id="clip0">
<rect width="150" height="150" fill="white"/>
</clipPath>
</defs>
</svg>
