<svg width="550" height="450" viewBox="0 0 550 450" fill="none" xmlns="http://www.w3.org/2000/svg">
<path d="M218.385 394.854C316.398 394.854 395.852 315.417 395.852 217.427C395.852 119.437 316.398 40 218.385 40C120.373 40 40.9189 119.437 40.9189 217.427C40.9189 315.417 120.373 394.854 218.385 394.854Z" fill="#F2F2F2"/>
<path d="M121.525 105.679L117.851 135.388C122.361 144.213 127.139 154.246 131.695 165.069L140.349 120.27L140.786 120.669C134.459 114.269 127.804 109.059 121.081 105.321L121.525 105.679Z" fill="#60A3D9"/>
<path d="M117.057 133.841L120.617 105.063C113.055 100.936 105.415 98.6809 98.0685 98.7214C97.6863 98.7235 97.3087 98.7366 96.9316 98.7511C98.4072 101.006 106.979 114.298 117.057 133.841Z" fill="#60A3D9"/>
<path d="M175.869 180.194L176.265 180.728C174.95 176.73 173.501 172.813 171.917 168.978L149.6 218.961L149.409 218.724C149.974 221.183 150.494 223.619 150.97 226.031L175.869 180.194Z" fill="#60A3D9"/>
<path d="M160.757 146.979L161.179 147.455C155.59 137.919 148.892 129.079 141.223 121.119L132.404 166.771C136.628 176.934 140.268 186.854 143.324 196.532L160.757 146.979Z" fill="#60A3D9"/>
<path d="M61.8886 144.64C61.3018 152.49 61.5098 160.379 62.5094 168.187L140.344 190.039C137.524 181.697 134.489 173.804 131.47 166.567L61.9825 145.298L61.8886 144.64Z" fill="#60A3D9"/>
<path d="M63.9157 177.235L63.8096 176.577L142.783 197.549C142.141 195.487 141.484 193.448 140.812 191.432L62.6904 169.501L62.5889 168.842C62.9392 171.594 63.3815 174.392 63.9157 177.235Z" fill="#60A3D9"/>
<path d="M171.202 167.732L171.61 168.24C168.714 161.301 165.352 154.566 161.548 148.079L143.88 198.303C145.881 204.768 147.611 211.1 149.07 217.299L171.202 167.732Z" fill="#60A3D9"/>
<path d="M154.583 253.854C155.389 268.194 154.345 281.442 151.45 293.448C157.585 284.668 181.477 248.031 181.472 210.043L154.583 253.854Z" fill="#60A3D9"/>
<path d="M73.8145 207.655C77.0713 214.103 80.7566 220.325 84.8457 226.28L84.7714 225.556L153.581 252.545C153.055 244.524 152.048 236.542 150.566 228.642L73.8145 207.655Z" fill="#60A3D9"/>
<path d="M116.358 134.216C105.449 113.075 96.334 99.33 96.2027 99.1332L96.4546 98.7709C85.3048 99.3541 76.469 105.345 70.4766 115.189L116.358 134.216Z" fill="#60A3D9"/>
<path d="M151.327 227.899C151.469 228.648 151.615 229.399 151.749 230.144C153.04 237.278 153.942 244.476 154.45 251.708L181.084 208.312L181.46 208.846C181.403 202.158 180.499 195.504 178.769 189.043C178.078 186.508 177.329 183.999 176.523 181.516L151.327 227.899Z" fill="#60A3D9"/>
<path d="M130.863 165.124C126.351 154.428 121.627 144.515 117.168 135.793L70.2334 116.329L70.1742 115.684C65.739 123.185 62.9211 132.854 61.9424 144.028L130.863 165.124Z" fill="#60A3D9"/>
<path d="M153.659 253.819L85.3525 227.027C109.862 262.742 147.489 293.383 149.893 295.325C153.461 282.069 154.443 267.99 153.659 253.819Z" fill="#60A3D9"/>
<path d="M150.28 227.3L150.304 227.256C148.449 217.693 146.08 208.236 143.207 198.928L64.04 177.904C64.781 181.753 65.6929 185.672 66.7759 189.661C68.3735 195.352 70.4871 200.886 73.0904 206.193L150.28 227.3Z" fill="#60A3D9"/>
<path d="M254.978 230.92L233.194 251.459C231.038 261.132 228.317 271.906 224.922 283.147L260.166 254.162L260.249 254.748C259.459 245.784 257.657 237.527 254.864 230.361L254.978 230.92Z" fill="#60A3D9"/>
<path d="M233.57 249.761L254.672 229.866C251.48 221.865 247.034 215.257 241.35 210.604C241.055 210.362 240.755 210.131 240.456 209.902C240.154 212.579 238.275 228.283 233.57 249.761Z" fill="#60A3D9"/>
<path d="M249.295 322.964L249.259 323.629C250.797 319.711 252.179 315.77 253.406 311.806L204.331 336.071L204.335 335.767C203.201 338.021 202.048 340.229 200.876 342.39L249.295 322.964Z" fill="#60A3D9"/>
<path d="M258.846 287.746L258.867 288.382C260.646 277.474 261.127 266.394 260.299 255.373L224.383 284.91C221.152 295.431 217.627 305.392 213.807 314.795L258.846 287.746Z" fill="#60A3D9"/>
<path d="M184.191 222.899C178.731 228.571 173.858 234.78 169.646 241.431L215.654 307.893C218.803 299.671 221.501 291.657 223.793 284.157L183.843 223.465L184.191 222.899Z" fill="#60A3D9"/>
<path d="M164.957 249.296L165.296 248.721L212.74 315.233C213.562 313.236 214.356 311.246 215.125 309.265L168.948 242.558L169.29 241.986C167.804 244.328 166.36 246.765 164.957 249.296Z" fill="#60A3D9"/>
<path d="M253.65 310.39L253.641 311.042C255.837 303.851 257.544 296.519 258.753 289.098L213.104 316.513C210.521 322.768 207.814 328.748 204.983 334.454L253.65 310.39Z" fill="#60A3D9"/>
<path d="M185.908 366.122C177.38 377.681 168.125 387.219 158.236 394.62C168.563 391.77 210.337 378.788 234.568 349.526L185.908 366.122Z" fill="#60A3D9"/>
<path d="M153.175 279.037C151.57 286.08 150.439 293.222 149.789 300.416L150.194 299.811L185.972 364.476C190.684 357.963 195.001 351.173 198.899 344.143L153.175 279.037Z" fill="#60A3D9"/>
<path d="M232.792 249.604C237.876 226.365 239.625 209.966 239.65 209.731L240.075 209.613C231.115 202.952 220.488 201.932 209.593 205.692L232.792 249.604Z" fill="#60A3D9"/>
<path d="M199.96 344.057C199.591 344.724 199.225 345.396 198.852 346.054C195.296 352.372 191.398 358.492 187.176 364.386L235.374 347.947L235.323 348.597C239.546 343.41 243.094 337.708 245.884 331.629C246.969 329.236 247.993 326.826 248.956 324.4L199.96 344.057Z" fill="#60A3D9"/>
<path d="M224.246 282.659C227.595 271.544 230.28 260.896 232.41 251.335L208.679 206.415L209.045 205.881C200.843 208.83 192.504 214.48 184.622 222.462L224.246 282.659Z" fill="#60A3D9"/>
<path d="M185.219 365.507L149.702 301.315C145.794 344.451 155.227 392.045 155.84 395.073C167.044 387.138 176.782 376.921 185.219 365.507Z" fill="#60A3D9"/>
<path d="M199.535 342.928L199.582 342.909C204.254 334.361 208.462 325.567 212.188 316.565L164.627 249.89C162.742 253.328 160.944 256.928 159.234 260.69C156.833 266.092 154.931 271.702 153.55 277.45L199.535 342.928Z" fill="#60A3D9"/>
<path d="M72.9678 231.943L78.6581 261.333C85.6763 268.332 93.3217 276.398 101.001 285.282L95.3807 240.003L95.92 240.247C87.9241 236.116 79.9838 233.218 72.4346 231.74L72.9678 231.943Z" fill="#60A3D9"/>
<path d="M77.424 260.107L71.9123 231.638C63.4443 230.05 55.4815 230.266 48.5075 232.575C48.1447 232.695 47.7897 232.825 47.4355 232.955C49.5359 234.643 61.7974 244.636 77.424 260.107Z" fill="#60A3D9"/>
<path d="M147.688 286.015L148.229 286.401C145.743 283.005 143.153 279.728 140.461 276.57L134.69 331.002L134.436 330.836C135.733 333 136.981 335.156 138.179 337.302L147.688 286.015Z" fill="#60A3D9"/>
<path d="M123.047 259.097L123.595 259.419C115.332 252.078 106.229 245.74 96.4746 240.54L102.201 286.681C109.361 295.041 115.889 303.351 121.788 311.611L123.047 259.097Z" fill="#60A3D9"/>
<path d="M28.2969 287.426C30.1658 295.073 32.8026 302.511 36.1673 309.628L116.946 306.356C111.685 299.295 106.359 292.727 101.25 286.777L28.5895 288.022L28.2969 287.426Z" fill="#60A3D9"/>
<path d="M40.3021 317.798L39.9977 317.205L121.587 312.745C120.34 310.982 119.085 309.246 117.822 307.537L36.7455 310.821L36.4453 310.226C37.6293 312.735 38.9149 315.259 40.3021 317.798Z" fill="#60A3D9"/>
<path d="M139.396 275.606L139.942 275.963C135.041 270.259 129.762 264.892 124.139 259.899L122.863 313.123C126.765 318.653 130.368 324.14 133.673 329.585L139.396 275.606Z" fill="#60A3D9"/>
<path d="M150.216 362.646C155.416 376.036 158.519 388.957 159.478 401.27C162.598 391.024 173.993 348.798 162.243 312.671L150.216 362.646Z" fill="#60A3D9"/>
<path d="M59.1201 343.67C64.2109 348.795 69.6395 353.574 75.3694 357.974L75.0749 357.308L148.859 361.711C145.879 354.246 142.453 346.966 138.601 339.911L59.1201 343.67Z" fill="#60A3D9"/>
<path d="M76.8757 260.68C59.9646 243.945 47.0466 233.69 46.8609 233.543L46.9884 233.121C36.565 237.121 30.0139 245.549 27.3584 256.763L76.8757 260.68Z" fill="#60A3D9"/>
<path d="M139.096 338.969C139.462 339.637 139.834 340.307 140.19 340.973C143.624 347.359 146.707 353.926 149.427 360.647L161.34 311.145L161.862 311.537C159.74 305.194 156.823 299.145 153.181 293.535C151.74 291.337 150.252 289.183 148.718 287.071L139.096 338.969Z" fill="#60A3D9"/>
<path d="M100.227 285.592C92.6288 276.814 85.0708 268.846 78.1333 261.929L27.4797 257.922L27.2241 257.327C25.3252 265.832 25.6347 275.898 28.1585 286.827L100.227 285.592Z" fill="#60A3D9"/>
<path d="M149.326 362.899L76.082 358.528C110.433 384.92 155.691 402.432 158.578 403.536C157.872 389.827 154.453 376.134 149.326 362.899Z" fill="#60A3D9"/>
<path d="M137.916 338.723L137.925 338.673C133.204 330.152 128.027 321.89 122.417 313.925L40.627 318.396C42.5218 321.828 44.6006 325.273 46.8636 328.731C50.1426 333.65 53.8636 338.26 57.9803 342.503L137.916 338.723Z" fill="#60A3D9"/>
<path d="M80.957 410C80.957 410 195.661 364.561 334.172 410Z" fill="#2F2E41"/>
<path d="M164.351 375.138C164.439 376.354 164.59 377.565 164.801 378.766C164.801 378.766 174.672 385.476 175.461 377.976C175.974 373.09 174.814 370.883 173.937 369.94L173.923 369.924C173.397 369.368 173.1 368.633 173.092 367.866V359.029L164.406 361.792L164.801 369.292C164.217 370.851 164.209 373.18 164.351 375.138Z" fill="#FFB9B9"/>
<path opacity="0.05" d="M164.351 375.138C164.439 376.354 164.589 377.565 164.801 378.766C164.801 378.766 174.671 385.476 175.461 377.976C175.974 373.089 174.813 370.883 173.937 369.94C173.594 369.681 173.187 369.52 172.76 369.476C172.333 369.431 171.902 369.504 171.513 369.687C169.933 368.984 168.196 370.157 166.759 371.672C165.785 372.699 164.973 373.868 164.351 375.138Z" fill="black"/>
<path d="M171.513 370.476C171.513 370.476 175.856 368.108 176.646 378.766C177.435 389.424 177.83 388.24 177.83 388.24C177.83 388.24 181.778 397.713 173.487 396.529C165.196 395.345 161.247 394.555 161.642 389.819C161.88 386.963 162.548 382.818 163.042 379.974C163.512 377.158 164.805 374.544 166.758 372.46C168.198 370.944 169.934 369.775 171.513 370.476Z" fill="#2F2E41"/>
<path d="M217.896 384.025L222.423 386.208C222.423 386.208 236.564 388.378 232.078 380.328C230.78 377.922 229.789 375.363 229.129 372.711C228.184 369.017 227.659 365.228 227.563 361.416L215.6 363.085C219.501 368.279 219.007 376.705 218.403 381.118C218.159 382.897 217.896 384.025 217.896 384.025Z" fill="#FFB9B9"/>
<path opacity="0.05" d="M217.896 384.025L222.423 386.208C222.423 386.208 236.564 388.378 232.079 380.328C230.781 377.922 229.79 375.363 229.129 372.711C226.382 373.239 224.292 377.193 224.292 377.193C222.077 384.882 220.084 382.96 218.403 381.118C218.159 382.897 217.896 384.025 217.896 384.025Z" fill="black"/>
<path d="M224.553 377.938C224.553 377.938 228.079 371.271 231.99 374.087C235.901 376.902 233.961 380.925 246.629 384.864C259.297 388.803 250.925 397.162 243.174 396.523C235.423 395.885 218.897 392.875 218.897 392.875C218.897 392.875 214.601 380.577 216.595 380.299C218.589 380.02 221.341 389.095 224.553 377.938Z" fill="#2F2E41"/>
<path opacity="0.3" d="M242.653 395.033C247.685 395.447 252.976 392.069 252.605 388.571C255.009 392.522 248.922 396.997 243.174 396.523C235.423 395.885 218.897 392.875 218.897 392.875C218.897 392.875 218.695 392.296 218.399 391.388C218.881 391.476 235.018 394.404 242.653 395.033Z" fill="white"/>
<path opacity="0.3" d="M161.662 389.591C162.117 393.142 166.057 393.889 173.486 394.95C177.264 395.49 178.497 393.815 178.724 391.833C178.971 394.372 178.25 397.209 173.486 396.529C165.195 395.345 161.246 394.555 161.641 389.818C161.647 389.745 161.655 389.667 161.662 389.591Z" fill="white"/>
<path d="M143.603 235.516L142.292 255.171C142.292 255.171 141.244 275.088 149.37 276.661C157.495 278.233 149.37 251.24 149.37 251.24V233.419L143.603 235.516Z" fill="#FBBEBE"/>
<path d="M150.417 163.971L149.369 166.33C149.369 166.33 149.631 182.84 149.369 184.151C149.107 185.461 145.699 195.682 145.699 196.73C145.699 197.778 143.078 228.178 142.553 230.013C142.029 231.847 139.67 237.613 141.767 238.399C143.864 239.185 147.796 236.04 149.369 238.399C150.942 240.757 152.252 238.399 152.252 237.613C152.252 236.826 152.776 221.888 155.922 217.695C159.067 213.502 161.951 204.068 162.475 202.233C162.999 200.399 163.786 173.93 164.048 173.406C164.31 172.882 162.999 165.806 162.999 165.806L150.417 163.971Z" fill="#3F3D56"/>
<path d="M165.359 191.751C165.359 191.751 162.213 204.068 160.116 206.426C158.019 208.785 147.534 226.344 150.68 249.668C153.825 272.992 159.33 303.391 159.33 303.391C159.33 303.391 160.116 314.136 159.068 317.019C158.019 319.902 163.786 365.764 163.786 365.764C163.786 365.764 171.912 372.053 176.368 364.191C176.368 364.191 175.32 347.157 176.368 345.584C177.417 344.012 176.368 315.709 176.368 315.709C176.368 315.709 177.155 245.212 181.349 248.095C185.543 250.978 198.387 299.985 198.387 299.985C198.387 299.985 203.891 318.853 203.629 320.426C203.367 321.998 208.348 341.653 208.348 341.653C208.348 341.653 213.066 368.908 214.901 369.432C216.736 369.957 228.007 370.219 229.055 367.336L225.91 342.702C225.91 342.702 222.764 314.66 221.192 310.729C219.619 306.798 216.998 250.978 209.396 234.468C209.396 234.468 206.513 207.999 204.416 204.068C204.416 204.068 203.185 198.667 204.703 193.626C204.704 193.626 168.242 193.847 165.359 191.751Z" fill="#2F2E41"/>
<path d="M180.955 142.613C193.116 142.613 202.974 130.117 202.974 114.703C202.974 99.2884 193.116 86.7926 180.955 86.7926C168.795 86.7926 158.937 99.2884 158.937 114.703C158.937 130.117 168.795 142.613 180.955 142.613Z" fill="#2F2E41"/>
<path d="M226.172 147.461L222.764 154.799L182.397 166.592C182.397 166.592 154.35 174.716 151.466 161.613C148.583 148.509 162.475 147.199 162.475 147.199C162.475 147.199 167.718 143.53 174.271 139.861C176.463 138.632 177.189 136.643 177.183 134.539C177.178 133.913 177.119 133.289 177.008 132.673C176.881 131.961 176.706 131.259 176.483 130.571C175.929 128.873 175.187 127.243 174.271 125.71C174.271 125.71 191.571 118.896 191.309 122.565C191.199 123.886 191.341 125.217 191.729 126.485C192.087 127.596 192.569 128.662 193.168 129.664C193.461 130.17 193.789 130.694 194.153 131.25C194.625 131.97 195.163 132.738 195.765 133.572C199.173 138.289 210.445 138.289 210.445 138.289C219.357 137.241 226.172 147.461 226.172 147.461Z" fill="#FBBEBE"/>
<path d="M267.85 189.392C267.85 189.392 286.723 203.282 290.393 203.02C294.063 202.757 315.557 201.447 310.577 206.426C305.597 211.406 283.054 208.261 283.054 208.261L262.346 195.158L267.85 189.392Z" fill="#FBBEBE"/>
<path opacity="0.1" d="M191.729 126.485C189.822 128.52 187.384 129.981 184.69 130.703C181.996 131.425 179.153 131.38 176.484 130.571C175.929 128.874 175.187 127.243 174.271 125.71C174.271 125.71 191.572 118.896 191.31 122.565C191.199 123.886 191.341 125.217 191.729 126.485Z" fill="black"/>
<path d="M180.825 129.379C189.077 129.379 195.766 122.691 195.766 114.441C195.766 106.191 189.077 99.5029 180.825 99.5029C172.573 99.5029 165.884 106.191 165.884 114.441C165.884 122.691 172.573 129.379 180.825 129.379Z" fill="#FBBEBE"/>
<path d="M162.213 157.944C162.213 157.944 227.22 143.268 227.482 145.365C227.745 147.461 230.366 151.654 230.366 151.654L215.163 168.951C215.163 168.951 216.997 177.337 213.328 179.171C209.658 181.006 209.134 194.895 205.726 195.157C202.318 195.42 162.475 194.895 162.213 192.799C161.951 190.702 163.262 189.392 162.213 188.868C161.165 188.344 159.592 188.344 160.902 185.723C162.213 183.102 162.213 172.096 162.213 172.096L149.893 166.33C149.893 166.33 148.204 161.447 151.276 160.613C154.349 159.778 162.213 157.944 162.213 157.944Z" fill="#3F3D56"/>
<path d="M228.007 151.13H230.366C230.366 151.13 237.443 155.847 239.278 160.04C241.113 164.234 247.666 169.737 249.239 171.309C250.812 172.882 272.306 187.82 272.044 189.916C271.782 192.013 265.753 194.109 265.491 196.468C265.229 198.826 268.112 199.875 266.277 199.875C264.442 199.875 253.171 193.323 248.977 190.964C244.783 188.606 236.133 181.792 235.084 179.958C234.036 178.123 226.958 174.978 226.172 173.668C225.385 172.358 213.065 166.33 213.065 166.33L228.007 151.13Z" fill="#3F3D56"/>
<path d="M158.937 106.186C163.569 106.186 167.325 102.431 167.325 97.7994C167.325 93.1679 163.569 89.4133 158.937 89.4133C154.304 89.4133 150.549 93.1679 150.549 97.7994C150.549 102.431 154.304 106.186 158.937 106.186Z" fill="#2F2E41"/>
<path d="M195.897 95.1788C200.529 95.1788 204.285 91.4241 204.285 86.7926C204.285 82.161 200.529 78.4064 195.897 78.4064C191.264 78.4064 187.509 82.161 187.509 86.7926C187.509 91.4241 191.264 95.1788 195.897 95.1788Z" fill="#2F2E41"/>
<path d="M182.922 114.31C191.535 114.31 198.518 110.027 198.518 104.744C198.518 99.4614 191.535 95.1788 182.922 95.1788C174.308 95.1788 167.325 99.4614 167.325 104.744C167.325 110.027 174.308 114.31 182.922 114.31Z" fill="#2F2E41"/>
<path d="M193.168 129.664C185.98 132.492 180.3 132.827 177.008 132.673C177.119 133.289 177.178 133.913 177.183 134.539C177.566 134.554 177.978 134.562 178.415 134.562C182.051 134.562 187.482 133.931 194.153 131.25L193.168 129.664Z" fill="#2F2E41"/>
<path d="M511.403 207.69H306.811C300.407 207.69 295.215 212.881 295.215 219.284V332.412C295.215 338.815 300.407 344.006 306.811 344.006H511.403C517.808 344.006 523 338.815 523 332.412V219.284C523 212.881 517.808 207.69 511.403 207.69Z" fill="#3F3D56"/>
<path opacity="0.3" d="M498.324 303.3H319.775V309.792H498.324V303.3Z" fill="#60A3D9"/>
<path opacity="0.3" d="M498.439 286.261H319.891V292.752H498.439V286.261Z" fill="#60A3D9"/>
<path opacity="0.3" d="M498.44 263.001H466.518V269.492H498.44V263.001Z" fill="#60A3D9"/>
<path opacity="0.3" d="M498.44 245.691H381.571V252.182H498.44V245.691Z" fill="#60A3D9"/>
<path opacity="0.3" d="M409.165 320.61H319.775V327.102H409.165V320.61Z" fill="#60A3D9"/>
<path d="M359.298 224.594H325.391C322.353 224.594 319.891 227.056 319.891 230.093V263.993C319.891 267.03 322.353 269.492 325.391 269.492H359.298C362.336 269.492 364.798 267.03 364.798 263.993V230.093C364.798 227.056 362.336 224.594 359.298 224.594Z" fill="#60A3D9"/>
</svg>
