<svg width="550" height="450" viewBox="0 0 550 450" fill="none" xmlns="http://www.w3.org/2000/svg">
<g clip-path="url(#clip0)">
<path opacity="0.1" d="M213.794 56.621C227.216 44.6808 248.283 42.2331 267.462 43.1837C327.695 46.1779 382.066 75.2385 429.098 108.115C446.127 120.014 462.889 132.841 473.939 149.231C496.454 182.595 489.764 228.812 458.482 256.298C447.836 265.648 434.934 272.83 421.687 279.172C398.134 290.47 372.72 299.54 345.987 302.134C326.928 303.971 307.63 302.479 288.676 299.912C235.73 292.72 183.767 276.849 140.194 249.698C121.089 237.79 103.082 222.985 95.2062 203.729C87.3307 184.473 92.3712 160.041 111.881 148.62C119.949 143.904 129.598 141.773 139.041 139.771C152.945 136.827 167.069 133.925 179.613 127.941C192.575 121.759 207.917 109.805 205.344 96.1201C202.606 81.4566 200.391 68.5612 213.794 56.621Z" fill="#60A3D9"/>
<path d="M379.723 350.18C379.723 350.18 391.237 329.794 408.574 323.921C415.862 321.503 422.169 316.788 426.549 310.483C428.604 307.474 430.379 304.283 431.851 300.949" stroke="#535461" stroke-width="2" stroke-miterlimit="10"/>
<path d="M442.759 297.179C440.783 299.099 431.58 301.078 431.58 301.078C431.58 301.078 433.836 291.944 435.812 290.029C436.761 289.108 438.036 288.602 439.359 288.621C440.681 288.64 441.941 289.184 442.863 290.132C443.784 291.08 444.291 292.355 444.271 293.677C444.252 294.999 443.708 296.258 442.759 297.179V297.179Z" fill="#60A3D9"/>
<path d="M437.553 313.707C434.852 314.244 426.066 310.91 426.066 310.91C426.066 310.91 432.931 304.481 435.628 303.93C436.925 303.672 438.272 303.94 439.371 304.675C440.471 305.41 441.234 306.551 441.491 307.847C441.749 309.144 441.481 310.49 440.746 311.588C440.011 312.687 438.869 313.449 437.572 313.707H437.553Z" fill="#60A3D9"/>
<path d="M418.6 331.59C415.995 330.671 410.081 323.369 410.081 323.369C410.081 323.369 419.271 321.275 421.862 322.175C422.494 322.379 423.079 322.706 423.583 323.138C424.087 323.571 424.499 324.099 424.796 324.693C425.092 325.287 425.267 325.934 425.31 326.596C425.353 327.258 425.263 327.922 425.046 328.549C424.829 329.176 424.488 329.754 424.045 330.248C423.601 330.741 423.063 331.142 422.463 331.425C421.862 331.708 421.211 331.869 420.548 331.897C419.885 331.925 419.222 331.821 418.6 331.59V331.59Z" fill="#60A3D9"/>
<path d="M401.208 341.895C398.493 341.436 391.426 335.232 391.426 335.232C391.426 335.232 400.115 331.613 402.83 332.063C403.481 332.164 404.105 332.393 404.667 332.736C405.229 333.08 405.717 333.531 406.103 334.064C406.489 334.598 406.766 335.202 406.917 335.843C407.069 336.483 407.091 337.148 406.984 337.797C406.877 338.447 406.642 339.068 406.293 339.627C405.944 340.185 405.488 340.669 404.951 341.05C404.414 341.431 403.807 341.702 403.164 341.847C402.522 341.992 401.857 342.008 401.208 341.895V341.895Z" fill="#60A3D9"/>
<path d="M418.374 303.774C418.374 306.529 423.355 314.506 423.355 314.506C423.355 314.506 428.345 306.529 428.345 303.778C428.345 302.457 427.82 301.189 426.885 300.255C425.95 299.321 424.682 298.796 423.359 298.796C422.037 298.796 420.769 299.321 419.834 300.255C418.899 301.189 418.374 302.457 418.374 303.778V303.774Z" fill="#60A3D9"/>
<path d="M398.189 316.081C399.016 318.708 406.157 324.834 406.157 324.834C406.157 324.834 408.527 315.728 407.705 313.101C407.31 311.84 406.429 310.787 405.257 310.175C404.085 309.562 402.718 309.44 401.456 309.836C400.194 310.231 399.141 311.111 398.528 312.282C397.916 313.454 397.794 314.82 398.189 316.081V316.081Z" fill="#60A3D9"/>
<path d="M380.214 330.731C380.582 333.459 386.587 340.706 386.587 340.706C386.587 340.706 390.465 332.132 390.098 329.404C389.922 328.094 389.232 326.908 388.181 326.106C387.13 325.304 385.803 324.952 384.492 325.128C383.182 325.304 381.995 325.993 381.192 327.044C380.39 328.095 380.038 329.421 380.214 330.731Z" fill="#60A3D9"/>
<path opacity="0.25" d="M442.759 297.179C440.783 299.099 431.58 301.078 431.58 301.078C431.58 301.078 433.836 291.944 435.812 290.029C436.761 289.108 438.036 288.602 439.359 288.621C440.681 288.64 441.941 289.184 442.863 290.132C443.784 291.08 444.291 292.355 444.271 293.677C444.252 294.999 443.708 296.258 442.759 297.179V297.179Z" fill="black"/>
<path opacity="0.25" d="M437.553 313.707C434.852 314.244 426.066 310.91 426.066 310.91C426.066 310.91 432.931 304.481 435.628 303.93C436.925 303.672 438.272 303.94 439.371 304.675C440.471 305.41 441.234 306.551 441.491 307.847C441.749 309.144 441.481 310.49 440.746 311.588C440.011 312.687 438.869 313.449 437.572 313.707H437.553Z" fill="black"/>
<path opacity="0.25" d="M418.6 331.59C415.995 330.671 410.081 323.369 410.081 323.369C410.081 323.369 419.271 321.275 421.862 322.175C422.494 322.379 423.079 322.706 423.583 323.138C424.087 323.571 424.499 324.099 424.796 324.693C425.092 325.287 425.267 325.934 425.31 326.596C425.353 327.258 425.263 327.922 425.046 328.549C424.829 329.176 424.488 329.754 424.045 330.248C423.601 330.741 423.063 331.142 422.463 331.425C421.862 331.708 421.211 331.869 420.548 331.897C419.885 331.925 419.222 331.821 418.6 331.59V331.59Z" fill="black"/>
<path opacity="0.25" d="M401.208 341.895C398.493 341.436 391.426 335.232 391.426 335.232C391.426 335.232 400.115 331.613 402.83 332.063C403.481 332.164 404.105 332.393 404.667 332.736C405.229 333.08 405.717 333.531 406.103 334.064C406.489 334.598 406.766 335.202 406.917 335.843C407.069 336.483 407.091 337.148 406.984 337.797C406.877 338.447 406.642 339.068 406.293 339.627C405.944 340.185 405.488 340.669 404.951 341.05C404.414 341.431 403.807 341.702 403.164 341.847C402.522 341.992 401.857 342.008 401.208 341.895V341.895Z" fill="black"/>
<path opacity="0.25" d="M418.374 303.774C418.374 306.529 423.355 314.506 423.355 314.506C423.355 314.506 428.345 306.529 428.345 303.778C428.345 302.457 427.82 301.189 426.885 300.255C425.95 299.321 424.682 298.796 423.359 298.796C422.037 298.796 420.769 299.321 419.834 300.255C418.899 301.189 418.374 302.457 418.374 303.778V303.774Z" fill="black"/>
<path opacity="0.25" d="M398.189 316.081C399.016 318.708 406.157 324.834 406.157 324.834C406.157 324.834 408.527 315.728 407.705 313.101C407.31 311.84 406.429 310.787 405.257 310.175C404.085 309.562 402.718 309.44 401.456 309.836C400.194 310.231 399.141 311.111 398.528 312.282C397.916 313.454 397.794 314.82 398.189 316.081V316.081Z" fill="black"/>
<path opacity="0.25" d="M380.214 330.731C380.582 333.459 386.587 340.706 386.587 340.706C386.587 340.706 390.465 332.132 390.098 329.404C389.922 328.094 389.232 326.908 388.181 326.106C387.13 325.304 385.803 324.952 384.492 325.128C383.182 325.304 381.995 325.993 381.192 327.044C380.39 328.095 380.038 329.421 380.214 330.731Z" fill="black"/>
<path d="M380.385 349.766C380.385 349.766 382.645 326.465 396.117 314.074C401.8 308.911 405.653 302.045 407.099 294.506C407.76 290.921 408.09 287.282 408.082 283.636" stroke="#535461" stroke-width="2" stroke-miterlimit="10"/>
<path d="M416.522 275.792C415.493 278.346 407.884 283.884 407.884 283.884C407.884 283.884 406.248 274.617 407.277 272.068C407.51 271.445 407.866 270.875 408.323 270.392C408.78 269.908 409.329 269.521 409.937 269.253C410.546 268.985 411.203 268.841 411.868 268.831C412.533 268.82 413.194 268.943 413.811 269.191C414.428 269.44 414.989 269.81 415.461 270.278C415.933 270.747 416.306 271.305 416.559 271.921C416.812 272.536 416.939 273.195 416.932 273.86C416.926 274.525 416.787 275.182 416.522 275.792V275.792Z" fill="#60A3D9"/>
<path d="M418.466 293.009C416.214 294.594 406.813 295.108 406.813 295.108C406.813 295.108 410.489 286.442 412.727 284.858C413.263 284.481 413.867 284.214 414.506 284.07C415.145 283.927 415.806 283.911 416.451 284.024C417.096 284.136 417.713 284.374 418.266 284.724C418.819 285.074 419.298 285.53 419.674 286.066C420.051 286.601 420.319 287.205 420.462 287.844C420.605 288.482 420.621 289.143 420.509 289.788C420.397 290.432 420.159 291.049 419.808 291.601C419.458 292.154 419.001 292.633 418.466 293.009Z" fill="#60A3D9"/>
<path d="M408.39 317.037C405.633 317.266 397.271 312.968 397.271 312.968C397.271 312.968 404.811 307.337 407.535 307.103C408.853 306.992 410.161 307.409 411.172 308.262C412.182 309.116 412.812 310.335 412.923 311.652C413.034 312.969 412.617 314.277 411.763 315.286C410.909 316.296 409.69 316.926 408.372 317.037H408.39Z" fill="#60A3D9"/>
<path d="M396.668 333.5C394.003 334.189 385.024 331.369 385.024 331.369C385.024 331.369 391.499 324.541 394.164 323.852C394.802 323.672 395.47 323.622 396.128 323.704C396.786 323.786 397.421 323.998 397.996 324.328C398.57 324.658 399.074 325.1 399.476 325.627C399.878 326.154 400.171 326.756 400.337 327.397C400.504 328.038 400.541 328.707 400.446 329.363C400.351 330.018 400.126 330.649 399.784 331.217C399.442 331.785 398.991 332.279 398.456 332.67C397.921 333.061 397.313 333.342 396.668 333.496V333.5Z" fill="#60A3D9"/>
<path d="M396.907 291.691C398.019 294.208 405.812 299.498 405.812 299.498C405.812 299.498 407.14 290.185 406.023 287.668C405.472 286.486 404.478 285.566 403.256 285.108C402.034 284.649 400.68 284.688 399.486 285.216C398.293 285.744 397.354 286.719 396.871 287.932C396.389 289.144 396.402 290.497 396.907 291.7V291.691Z" fill="#60A3D9"/>
<path d="M383.444 311.122C385.259 313.188 394.274 315.898 394.274 315.898C394.274 315.898 392.753 306.612 390.934 304.545C390.506 304.041 389.981 303.627 389.391 303.327C388.801 303.028 388.157 302.848 387.497 302.8C386.837 302.752 386.174 302.835 385.546 303.046C384.919 303.256 384.34 303.59 383.842 304.026C383.345 304.463 382.94 304.994 382.65 305.589C382.361 306.183 382.192 306.83 382.155 307.49C382.118 308.151 382.213 308.812 382.434 309.436C382.656 310.059 382.999 310.632 383.444 311.122V311.122Z" fill="#60A3D9"/>
<path d="M372.949 331.796C374.392 334.143 382.819 338.331 382.819 338.331C382.819 338.331 382.888 328.926 381.441 326.58C381.098 326.022 380.649 325.537 380.118 325.153C379.588 324.769 378.988 324.493 378.351 324.341C377.714 324.189 377.054 324.164 376.407 324.267C375.76 324.37 375.141 324.6 374.583 324.942C374.025 325.285 373.54 325.734 373.156 326.264C372.772 326.794 372.496 327.394 372.343 328.03C372.191 328.667 372.166 329.327 372.269 329.973C372.372 330.619 372.602 331.239 372.945 331.796H372.949Z" fill="#60A3D9"/>
<path opacity="0.1" d="M236.924 425.995C267.092 425.995 291.547 421.898 291.547 416.843C291.547 411.788 267.092 407.69 236.924 407.69C206.756 407.69 182.301 411.788 182.301 416.843C182.301 421.898 206.756 425.995 236.924 425.995Z" fill="#60A3D9"/>
<path opacity="0.1" d="M344.439 355.737C374.606 355.737 399.062 351.639 399.062 346.584C399.062 341.529 374.606 337.431 344.439 337.431C314.271 337.431 289.815 341.529 289.815 346.584C289.815 351.639 314.271 355.737 344.439 355.737Z" fill="#60A3D9"/>
<path d="M348.064 225.791L348.013 227.577L344.907 337.114H339.688L342.247 227.577L342.297 225.515L348.064 225.791Z" fill="#B77B7F"/>
<path d="M378.285 318.584L374.375 318.575L316.278 318.451L313.181 318.446L314.83 313.367H377.871L378.285 318.584Z" fill="#DDA2A6"/>
<path opacity="0.1" d="M348.064 225.791L348.014 227.577H342.247L342.298 225.515L348.064 225.791Z" fill="black"/>
<path d="M350.265 223.113H340.584V226.755H350.265V223.113Z" fill="#B77B7F"/>
<path opacity="0.1" d="M316.792 313.367L316.278 318.451L313.181 318.446L314.83 313.367H316.792Z" fill="black"/>
<path d="M325.131 223.044L324.971 224.624L312.082 351.668L306.178 351.388L319.76 224.624L319.912 223.182L325.131 223.044Z" fill="#DDA2A6"/>
<path opacity="0.1" d="M378.284 318.584L374.374 318.575L373.846 313.367H377.871L378.284 318.584Z" fill="black"/>
<path d="M384.464 351.388L378.555 351.668L365.672 224.624L365.511 223.044L370.726 223.182L370.877 224.624L384.464 351.388Z" fill="#DDA2A6"/>
<path d="M409.593 97.7871H279.395V222.562H409.593V97.7871Z" fill="white"/>
<path d="M347.035 56.0561V86.1867H341.957V56.0561C341.943 55.7138 341.998 55.3722 342.119 55.0516C342.24 54.7311 342.424 54.4383 342.661 54.191C342.899 53.9436 343.183 53.7468 343.499 53.6124C343.814 53.4779 344.153 53.4086 344.496 53.4086C344.839 53.4086 345.178 53.4779 345.493 53.6124C345.809 53.7468 346.093 53.9436 346.331 54.191C346.568 54.4383 346.752 54.7311 346.873 55.0516C346.994 55.3722 347.049 55.7138 347.035 56.0561V56.0561Z" fill="#DDA2A6"/>
<path opacity="0.1" d="M347.035 83.4451H341.953V86.1867H347.035V83.4451Z" fill="black"/>
<path d="M349.029 85.5025V95.4496H339.991V85.5025C339.991 85.3401 340.022 85.1792 340.084 85.029C340.146 84.8789 340.237 84.7425 340.352 84.6276C340.467 84.5128 340.603 84.4218 340.753 84.36C340.904 84.2981 341.065 84.2666 341.227 84.2672H347.802C348.129 84.2696 348.441 84.4008 348.67 84.6322C348.9 84.8636 349.029 85.1765 349.029 85.5025Z" fill="#DDA2A6"/>
<path opacity="0.1" d="M344.494 92.5013C345.555 92.5013 346.415 91.6418 346.415 90.5817C346.415 89.5215 345.555 88.662 344.494 88.662C343.433 88.662 342.573 89.5215 342.573 90.5817C342.573 91.6418 343.433 92.5013 344.494 92.5013Z" fill="black"/>
<path d="M344.494 92.0879C345.555 92.0879 346.415 91.2285 346.415 90.1683C346.415 89.1082 345.555 88.2487 344.494 88.2487C343.433 88.2487 342.573 89.1082 342.573 90.1683C342.573 91.2285 343.433 92.0879 344.494 92.0879Z" fill="#B77B7F"/>
<path opacity="0.1" d="M349.029 94.2188H339.964V95.4542H349.029V94.2188Z" fill="black"/>
<path opacity="0.1" d="M352.738 95.8675H336.256V98.6137H352.738V95.8675Z" fill="black"/>
<path d="M352.738 95.0408H336.256V97.7871H352.738V95.0408Z" fill="#DDA2A6"/>
<path opacity="0.1" d="M311.154 219.347H380.375C381.167 219.347 381.926 219.662 382.487 220.222C383.047 220.782 383.361 221.541 383.361 222.332V222.985H308.167V222.332C308.167 221.541 308.482 220.782 309.042 220.222C309.602 219.662 310.362 219.347 311.154 219.347V219.347Z" fill="black"/>
<path opacity="0.1" d="M319.911 223.182L325.131 223.044L324.97 224.624H319.76L319.911 223.182Z" fill="black"/>
<path opacity="0.1" d="M350.265 223.113H340.584V224.624H350.265V223.113Z" fill="black"/>
<path opacity="0.1" d="M370.878 224.624H365.672L365.511 223.044L370.726 223.182L370.878 224.624Z" fill="black"/>
<path d="M311.154 220.16H380.375C381.167 220.16 381.926 220.475 382.487 221.035C383.047 221.594 383.361 222.354 383.361 223.145V223.797H308.167V223.145C308.167 222.354 308.482 221.594 309.042 221.035C309.602 220.475 310.362 220.16 311.154 220.16V220.16Z" fill="#DDA2A6"/>
<path d="M295.978 162.232C294.935 161.681 283.572 153.102 283.572 153.102L265.234 141.479C265.234 141.479 265.137 141.203 264.963 140.73C269.994 135.022 268.896 126.737 263.777 120.914C257.574 113.851 229.546 98.6459 221.101 111.652C219.92 113.488 219.878 115.573 219.57 117.594C218.849 122.31 216.524 126.88 212.876 130.728C210.064 133.7 206.374 136.437 204.757 139.798C204.757 139.757 204.725 139.716 204.711 139.67C204.32 140.39 204.037 141.164 203.87 141.966C203.066 146.067 205.823 149.998 207.289 153.989C207.78 155.34 208.138 156.737 208.355 158.159C208.391 157.874 208.423 157.594 208.456 157.309C208.813 159.333 208.935 161.392 208.819 163.444C198.641 165.516 198.636 182.916 198.636 182.916C198.636 182.916 197.382 189.832 197.593 192.326C197.805 194.82 197.8 200.211 197.8 201.511C197.8 202.81 196.546 210.916 196.422 211.889C196.423 211.903 196.423 211.917 196.422 211.931C196.238 212.996 194.331 218.13 198.94 219.279C199.261 219.361 199.601 219.43 199.955 219.494C200.153 223.651 200.511 232.353 200.194 234.291C200.194 234.291 201.871 245.983 203.263 248.955C204.144 250.697 205.174 252.359 206.342 253.923C206.241 254.635 206 255.32 205.634 255.94C204.922 256.964 205.29 257.804 206.48 258.167C206.438 258.52 206.393 258.92 206.342 259.37C205.832 263.88 205.069 272.844 206.365 277.386C208.143 283.613 208.249 285.689 208.249 285.689C208.249 285.689 208.249 287.553 208.984 288.591C209.719 289.629 211.075 299.282 211.075 300.839C211.075 302.396 214.631 316.403 213.583 319.723C212.536 323.043 213.377 327.714 213.377 327.714C213.377 327.714 212.747 335.911 211.998 337.675C211.249 339.438 210.951 367.87 212.099 375.236C213.248 382.602 213.983 388.724 213.983 388.724C213.983 388.724 213.253 395.47 213.877 396.402C214.502 397.334 215.656 402.942 214.819 403.249C213.983 403.557 213.565 405.844 213.565 405.844C214.007 406.516 214.484 407.164 214.994 407.787C214.672 407.674 214.357 407.541 214.052 407.387C214.383 407.846 214.879 408.498 215.49 409.224L214.916 416.687C214.892 416.978 214.971 417.268 215.138 417.507C215.306 417.746 215.553 417.919 215.835 417.995C217.67 418.494 219.605 418.486 221.436 417.971C223.266 417.457 224.922 416.456 226.228 415.075C231.457 409.784 233.235 410.51 234.177 407.295C234.279 406.951 234.366 406.611 234.439 406.29C235.115 403.424 232.059 401.293 229.629 402.515C229.964 400.246 230.226 397.67 229.973 396.214C229.449 393.206 229.555 385.321 229.555 385.321L228.824 347.548C228.824 347.548 230.18 340.077 231.751 337.174C233.323 334.272 233.13 324.1 233.13 324.1L234.908 290.685L236.581 274.396C236.581 274.396 238.253 268.794 240.344 275.021C240.344 275.021 239.195 287.572 239.719 290.584C240.243 293.597 240.973 308.224 240.449 311.438C239.926 314.653 237.628 332.297 239.071 336.756C240.514 341.215 242.122 346.621 241.8 348.389C241.479 350.157 240.422 388.439 240.422 388.439C240.422 388.439 243.248 395.787 241.157 398.193C239.066 400.6 241.051 410.133 241.051 410.133C241.051 410.133 241.304 410.312 241.736 410.56L241.676 411.355L241.019 419.938C240.996 420.23 241.075 420.52 241.242 420.76C241.41 421 241.656 421.173 241.938 421.251C243.773 421.75 245.709 421.742 247.539 421.228C249.369 420.714 251.026 419.712 252.332 418.331C257.56 413.036 259.339 413.766 260.281 410.547C260.382 410.202 260.469 409.867 260.547 409.541C261.282 406.413 257.56 404.145 255.07 406.188L254.946 406.294C254.816 406.405 254.679 406.507 254.537 406.602C254.471 406.65 254.402 406.695 254.33 406.735C254.854 404.365 255.617 400.306 255.249 398.404C254.725 395.603 255.769 387.098 255.769 387.098C255.769 387.098 258.801 376.926 258.907 372.862L259.743 340.49C259.743 340.49 259.642 327.31 260.06 324.095C260.478 320.88 263.823 293.069 267.168 284.766C269.737 278.41 270.885 262.19 270.205 253.965C270.169 253.561 270.132 253.17 270.086 252.808C274.189 249.781 274.598 244.748 274.598 244.748C274.598 244.748 270.83 237.556 267.205 234.511C263.58 231.467 262.799 226.231 262.927 224.004C262.989 222.647 262.542 221.316 261.673 220.271C261.673 220.271 260 214.874 258.884 214.323C258.792 214.277 258.71 214.215 258.64 214.14C257.882 213.327 258.466 211.003 258.466 211.003V210.93C258.599 210.392 259.385 206.911 259.15 206.02C258.87 205.056 259.288 200.487 259.288 200.487C259.288 200.487 261.939 192.601 261.521 186.374C261.103 180.147 266.961 180.703 266.961 180.703L285.051 180.514H287.11C287.836 179.898 288.499 179.212 289.09 178.466C292.536 178.057 299.507 176.758 300.288 172.955C301.349 167.908 297.025 162.788 295.978 162.232ZM212.168 219.802L212.292 216.638C212.72 217.005 213.004 217.24 213.004 217.24C213.235 218.067 213.246 218.941 213.037 219.775C212.924 220.166 212.725 220.527 212.454 220.831C212.183 221.135 211.846 221.373 211.47 221.529C211.382 221.567 211.298 221.611 211.217 221.662L211.042 219.876L212.168 219.802ZM277.782 164.234C277.015 163.89 274.433 163.959 273.105 163.959C271.777 163.959 269.622 162.852 269.622 162.852C269.162 161.956 266.621 161.424 264.361 161.121C262.642 156.886 260.225 152.758 259.899 148.345C259.899 148.184 259.899 148.023 259.876 147.862L260.138 148.322C260.138 148.322 270.67 155.036 271.855 157.047C272.774 158.581 277.199 162.007 279.248 163.541C278.966 163.909 278.57 164.173 278.122 164.294C278.006 164.307 277.888 164.286 277.782 164.234V164.234Z" fill="url(#paint0_linear)"/>
<path d="M260.39 409.568C260.312 409.89 260.23 410.225 260.128 410.565C259.209 413.78 257.45 413.036 252.317 418.285C251.038 419.655 249.409 420.65 247.606 421.161C245.802 421.673 243.893 421.682 242.085 421.187C241.802 421.113 241.555 420.941 241.387 420.702C241.219 420.464 241.141 420.174 241.166 419.883L241.813 411.369L242.121 407.272C242.121 407.272 250.318 409.568 254.491 406.652C254.631 406.557 254.766 406.454 254.895 406.345C254.927 406.316 254.958 406.285 254.987 406.253C255.525 405.807 256.19 405.541 256.887 405.492C257.584 405.443 258.28 405.613 258.875 405.979C259.471 406.344 259.938 406.887 260.209 407.531C260.481 408.174 260.544 408.887 260.39 409.568V409.568Z" fill="#67647E"/>
<path d="M234.659 406.354C234.581 406.675 234.498 407.01 234.397 407.35C233.478 410.565 231.718 409.821 226.586 415.07C225.307 416.44 223.678 417.435 221.874 417.946C220.071 418.458 218.161 418.467 216.353 417.973C216.071 417.898 215.824 417.726 215.656 417.488C215.488 417.249 215.409 416.959 215.434 416.668L216.082 408.154L216.39 404.058C216.39 404.058 224.587 406.354 228.759 403.438C228.899 403.342 229.034 403.239 229.164 403.13C229.196 403.101 229.226 403.07 229.255 403.038C229.794 402.593 230.458 402.327 231.156 402.277C231.853 402.228 232.548 402.398 233.144 402.764C233.74 403.129 234.206 403.672 234.478 404.316C234.749 404.96 234.813 405.672 234.659 406.354V406.354Z" fill="#67647E"/>
<path opacity="0.1" d="M226.191 407.63L226.522 412.057C221.817 416.755 216.216 409.761 214.575 407.465C218.89 409.688 226.191 407.63 226.191 407.63Z" fill="black"/>
<path opacity="0.1" d="M253.847 409.431L254.463 409.022C250.167 415.552 243.784 412.54 241.795 411.369L242.103 407.272C242.103 407.272 250.3 409.568 254.472 406.652C254.146 408.25 253.847 409.431 253.847 409.431Z" fill="black"/>
<path d="M266.933 285.79C263.634 294.024 260.339 321.611 259.926 324.825C259.512 328.04 259.618 341.091 259.618 341.091L258.791 373.188C258.685 377.206 255.699 387.295 255.699 387.295C255.699 387.295 254.669 395.736 255.184 398.515C255.699 401.293 253.847 408.618 253.847 408.618L254.463 408.204C249.312 416.012 241.174 410.161 241.174 410.161C241.174 410.161 239.217 400.691 241.28 398.322C243.343 395.952 240.559 388.646 240.559 388.646C240.559 388.646 241.588 350.657 241.896 348.908C242.204 347.158 240.66 341.803 239.217 337.376C237.774 332.949 240.044 315.448 240.559 312.256C241.073 309.064 240.352 294.548 239.837 291.563C239.323 288.578 240.453 276.118 240.453 276.118C238.395 269.942 236.745 275.503 236.745 275.503L235.095 291.664L233.345 324.816C233.345 324.816 233.552 334.919 232.008 337.789C230.464 340.66 229.122 348.081 229.122 348.081L229.844 385.559C229.844 385.559 229.742 393.366 230.257 396.365C230.772 399.364 229.122 407.075 229.122 407.075C223.356 420.654 214.092 405.931 214.092 405.931C214.092 405.931 214.506 403.667 215.329 403.36C216.151 403.052 215.021 397.49 214.41 396.563C213.798 395.635 214.511 388.944 214.511 388.944C214.511 388.944 213.789 382.873 212.673 375.562C211.556 368.251 211.85 340.044 212.572 338.295C213.293 336.545 213.909 328.412 213.909 328.412C213.909 328.412 213.086 323.778 214.115 320.481C215.145 317.183 211.643 303.292 211.643 301.744C211.643 300.196 210.306 290.626 209.585 289.597C208.864 288.568 208.864 286.713 208.864 286.713C208.864 286.713 208.762 284.656 207.026 278.479C205.748 273.969 206.502 265.078 207.003 260.601C207.182 258.943 207.338 257.887 207.338 257.887C207.338 257.887 266.414 248.312 268.771 250.475C269.322 250.984 269.69 252.734 269.906 255.228C270.609 263.384 269.451 279.503 266.933 285.79Z" fill="#444053"/>
<path opacity="0.1" d="M244.575 332.081C244.851 332.081 251.376 332.632 253.765 332.15C256.154 331.668 244.575 332.081 244.575 332.081Z" fill="black"/>
<path opacity="0.1" d="M245.058 335.925C245.058 335.925 254.068 337.505 254.528 336.683C254.987 335.861 245.058 335.925 245.058 335.925Z" fill="black"/>
<path opacity="0.1" d="M217.521 334.276C217.521 334.276 222.189 334.483 224.73 335.654C227.271 336.825 217.521 334.276 217.521 334.276Z" fill="black"/>
<path d="M200.557 218.838C200.557 218.838 201.31 233.18 200.901 235.719C200.901 235.719 202.546 247.32 203.92 250.268C205.294 253.216 208.248 256.927 208.248 256.927L212.301 228.454L211.336 218.7L200.557 218.838Z" fill="#EFB7B9"/>
<path d="M243.132 153.497C251.892 153.497 258.993 146.4 258.993 137.644C258.993 128.889 251.892 121.792 243.132 121.792C234.372 121.792 227.271 128.889 227.271 137.644C227.271 146.4 234.372 153.497 243.132 153.497Z" fill="#EFB7B9"/>
<path d="M234.894 145.052C234.894 145.052 229.95 154.733 225.006 159.261C220.062 163.789 254.67 168.937 255.492 168.937C256.315 168.937 249.312 148.349 250.548 145.865C251.784 143.38 234.894 145.052 234.894 145.052Z" fill="#EFB7B9"/>
<path opacity="0.1" d="M269.915 255.228C269.138 255.82 268.281 256.3 267.369 256.651C261.056 259.122 254.187 262.553 249.518 261.184C244.85 259.815 234.962 261.184 234.962 261.184C234.962 261.184 215.043 259.535 211.069 260.495C209.259 260.931 207.853 260.913 206.934 260.601C207.113 258.943 207.269 257.887 207.269 257.887C207.269 257.887 266.414 248.312 268.771 250.475C269.331 250.984 269.69 252.734 269.915 255.228Z" fill="black"/>
<path d="M274.239 246.08C274.239 246.08 273.693 252.945 267.37 255.416C261.048 257.887 254.188 261.317 249.519 259.949C244.851 258.58 234.963 259.949 234.963 259.949C234.963 259.949 215.044 258.3 211.07 259.26C207.095 260.22 205.023 258.989 206.259 257.202C207.495 255.416 207.362 249.515 207.362 247.044C207.362 244.573 205.983 234.553 207.219 232.766C208.455 230.98 209.553 224.119 212.025 223.017C212.397 222.861 212.728 222.623 212.995 222.322C213.262 222.021 213.459 221.663 213.569 221.276C213.774 220.45 213.763 219.585 213.537 218.764C213.537 218.764 213.119 218.42 212.545 217.91C211.088 216.61 208.625 214.199 209.416 213.41C210.514 212.307 209.416 205.171 209.416 205.171C209.416 205.171 206.806 199.683 207.771 197.626C208.736 195.568 199.39 184.721 199.39 184.721C199.39 184.721 199.39 166.057 210.652 165.231C210.652 165.231 218.619 165.506 219.579 161.938C220.54 158.37 226.858 156.308 226.858 156.308L241.281 159.467C241.281 159.467 254.05 162.223 256.388 160.565C258.727 158.907 260.524 162.76 260.524 162.76C260.524 162.76 268.487 163.173 269.309 164.822C270.132 166.471 266.704 182.526 266.704 182.526C266.704 182.526 260.933 181.979 261.346 188.156C261.76 194.333 259.122 202.158 259.122 202.158C259.122 202.158 258.709 206.686 258.985 207.646C259.242 208.532 258.442 211.986 258.314 212.519V212.587C258.314 212.587 257.739 214.884 258.484 215.701C258.553 215.775 258.633 215.837 258.723 215.885C259.825 216.431 261.48 221.786 261.48 221.786C262.337 222.825 262.778 224.146 262.716 225.492C262.582 227.692 263.405 232.904 266.975 235.926C270.545 238.948 274.239 246.08 274.239 246.08Z" fill="#EB6475"/>
<path d="M212.985 214.291V214.874L212.737 221.304C212.737 221.304 204.287 221.988 199.688 220.845C195.088 219.701 197.023 214.599 197.207 213.543C197.208 213.529 197.208 213.515 197.207 213.501C197.34 212.537 198.585 204.509 198.585 203.205C198.585 201.901 198.585 196.546 198.378 194.076C198.172 191.605 199.389 184.721 199.389 184.721L200.281 183.628L209.957 187.334L212.985 214.291Z" fill="#EB6475"/>
<path opacity="0.1" d="M212.963 214.888L212.715 221.318C212.715 221.318 204.265 222.002 199.665 220.858C195.066 219.715 197 214.613 197.184 213.556L212.963 214.888Z" fill="black"/>
<path opacity="0.1" d="M213.569 221.281C213.773 220.454 213.762 219.59 213.536 218.769C213.536 218.769 213.118 218.424 212.544 217.915C219.818 216.9 248.623 212.95 258.322 212.519V212.587C258.322 212.587 257.748 214.884 258.492 215.701L213.569 221.281Z" fill="black"/>
<path opacity="0.1" d="M259.407 226.231C259.407 226.231 261.195 236.335 254.532 239.889C254.528 239.908 258.309 234.897 259.407 226.231Z" fill="black"/>
<path opacity="0.1" d="M215.802 240.178C215.802 240.178 231.884 237.423 235.031 239.563C238.179 241.703 215.802 240.178 215.802 240.178Z" fill="black"/>
<path opacity="0.1" d="M253.847 177.653C253.847 177.653 251.375 187.812 253.227 190.144C255.079 192.477 253.847 177.653 253.847 177.653Z" fill="black"/>
<path opacity="0.1" d="M207.288 169.35C207.288 169.35 209.553 173.125 208.18 177.038C206.806 180.951 207.288 169.35 207.288 169.35Z" fill="black"/>
<path opacity="0.1" d="M202.605 202.434C202.605 202.434 205.491 204.147 204.531 206.824C203.57 209.501 202.605 202.434 202.605 202.434Z" fill="black"/>
<path opacity="0.1" d="M202.344 194.608C202.344 194.608 205.018 196.05 205.363 198.177C205.707 200.303 202.344 194.608 202.344 194.608Z" fill="black"/>
<path opacity="0.1" d="M242.034 276.693C242.034 276.693 258.86 278.41 262.224 274.428C262.224 274.451 247.047 277.45 242.034 276.693Z" fill="black"/>
<path opacity="0.1" d="M212.985 275.733C212.985 275.733 231.048 279.99 234.618 276.624C234.618 276.624 219.096 277.79 212.985 275.733Z" fill="black"/>
<path opacity="0.1" d="M243.339 282.258C243.339 282.258 250.893 282.258 254.394 282.465C257.895 282.672 243.339 282.258 243.339 282.258Z" fill="black"/>
<path opacity="0.1" d="M214.222 285.473C214.222 285.473 217.93 289.661 222.12 288.908C226.311 288.155 214.222 285.473 214.222 285.473Z" fill="black"/>
<path d="M221.505 114.017C220.342 115.821 220.301 117.911 219.998 119.913C219.29 124.593 216.997 129.126 213.409 132.946C210.114 136.446 205.598 139.619 204.743 143.895C203.934 147.954 206.677 151.862 208.116 155.835C211.906 166.255 206.613 177.185 205.069 187.94C204.642 190.911 205.156 194.709 208.819 195.697C209.963 196.009 211.272 195.968 212.301 196.464C213.68 197.125 214.103 198.498 214.355 199.733C215.277 204.152 215.595 208.676 215.302 213.18C215.136 215.706 214.953 218.613 217.342 220.349C218.426 221.143 219.887 221.547 221.298 221.928C225.061 222.943 229.927 223.765 232.464 221.382C233.53 220.385 233.929 218.98 235.257 218.19C237.247 217.01 240.068 217.809 242.572 217.933C247.714 218.19 252.437 215.178 254.464 211.545C256.49 207.912 256.301 203.738 255.566 199.821C254.831 195.903 253.517 192.014 253.425 188.037C253.393 186.659 253.517 185.258 254.307 184.037C255.837 181.672 259.398 180.597 261.834 178.737C266.396 175.247 266.383 169.529 264.724 164.744C263.065 159.959 260.088 155.371 259.72 150.425C259.556 149.229 259.794 148.013 260.395 146.967C261.048 145.961 262.187 145.208 263.152 144.377C269.81 138.756 269.025 129.525 263.52 123.206C257.427 116.203 229.822 101.117 221.505 114.017Z" fill="#2F2E41"/>
<g opacity="0.1">
<path opacity="0.1" d="M208.961 160.161C209.48 155.986 209.383 151.849 207.909 147.784C207.183 145.791 206.13 143.812 205.363 141.814C204.98 142.537 204.701 143.31 204.536 144.11C203.727 148.17 206.47 152.078 207.909 156.051C208.393 157.383 208.745 158.76 208.961 160.161Z" fill="black"/>
<path opacity="0.1" d="M215.095 205.129C215.387 200.625 215.071 196.102 214.153 191.683C213.895 190.448 213.473 189.079 212.094 188.418C211.065 187.922 209.755 187.959 208.611 187.651C207.908 187.482 207.253 187.156 206.696 186.696C206.138 186.236 205.693 185.654 205.395 184.996C205.184 186.044 205 187.086 204.848 188.133C204.421 191.104 204.935 194.902 208.598 195.89C209.742 196.197 211.051 196.156 212.08 196.652C213.459 197.313 213.882 198.686 214.139 199.922C214.56 201.971 214.855 204.045 215.021 206.131C215.053 205.791 215.072 205.46 215.095 205.129Z" fill="black"/>
<path opacity="0.1" d="M254.261 203.499C252.23 207.145 247.507 210.144 242.365 209.887C239.861 209.759 237.04 208.969 235.055 210.144C233.727 210.93 233.323 212.339 232.257 213.336C229.72 215.701 224.854 214.897 221.091 213.882C219.681 213.497 218.224 213.097 217.135 212.303C216.097 211.54 215.397 210.404 215.182 209.134C215.21 210.544 215.182 211.958 215.095 213.368C214.93 215.894 214.746 218.801 217.135 220.541C218.224 221.331 219.681 221.735 221.091 222.117C224.854 223.132 229.72 223.954 232.257 221.57C233.323 220.574 233.727 219.168 235.055 218.355C237.04 217.175 239.861 217.974 242.365 218.098C247.507 218.355 252.23 215.343 254.261 211.71C256.209 208.202 256.122 204.234 255.442 200.445C255.186 201.511 254.789 202.538 254.261 203.499Z" fill="black"/>
<path opacity="0.1" d="M262.963 136.349C261.98 137.176 260.841 137.934 260.206 138.939C259.605 139.986 259.367 141.202 259.531 142.398C259.665 143.9 259.982 145.381 260.478 146.806C261.243 145.991 262.081 145.247 262.982 144.584C267.485 140.786 268.578 135.334 267.117 130.246C266.346 132.636 264.904 134.755 262.963 136.349V136.349Z" fill="black"/>
<path opacity="0.1" d="M261.626 170.687C259.195 172.546 255.63 173.626 254.104 175.991C253.309 177.212 253.185 178.622 253.217 179.986C253.274 181.592 253.471 183.19 253.806 184.762C253.892 184.576 253.992 184.397 254.104 184.225C255.63 181.86 259.195 180.785 261.626 178.925C265.793 175.738 266.143 170.696 264.911 166.2C264.286 167.988 263.143 169.55 261.626 170.687V170.687Z" fill="black"/>
</g>
<path d="M286.599 180.468C286.599 180.468 298.481 179.853 299.51 174.843C300.54 169.832 296.294 164.739 295.256 164.202C294.217 163.665 283.015 155.141 283.015 155.141L264.957 143.614C264.957 143.614 256.305 118.816 254.389 128.308C252.473 137.801 259.953 150.407 259.953 150.407C259.953 150.407 270.319 157.066 271.486 159.054C272.654 161.043 279.799 166.259 279.799 166.259L286.599 180.468Z" fill="#EFB7B9"/>
<path d="M292.986 172.367C290.174 179.509 286.53 182.324 286.53 182.324H284.504L266.69 182.507L264.636 176.9L267.521 164.749L269.304 164.822C269.304 164.822 271.436 165.92 272.736 165.92C274.037 165.92 276.587 165.851 277.331 166.191C277.435 166.241 277.552 166.259 277.667 166.241C278.342 166.172 279.045 165.162 279.045 165.162C279.045 165.162 295.802 165.231 292.986 172.367Z" fill="#EB6475"/>
<path opacity="0.1" d="M292.986 172.367C290.174 179.509 286.53 182.324 286.53 182.324H284.504C285.56 179.495 287.789 173.69 288.639 172.349C289.471 171.082 282.009 167.927 277.644 166.223C278.319 166.154 279.022 165.144 279.022 165.144C279.022 165.144 295.802 165.231 292.986 172.367Z" fill="black"/>
<path opacity="0.1" d="M106.731 397.431C117.942 397.431 127.031 395.654 127.031 393.463C127.031 391.272 117.942 389.495 106.731 389.495C95.5193 389.495 86.4307 391.272 86.4307 393.463C86.4307 395.654 95.5193 397.431 106.731 397.431Z" fill="#60A3D9"/>
<path opacity="0.1" d="M445.121 370.18C453.287 370.18 459.907 368.886 459.907 367.291C459.907 365.696 453.287 364.402 445.121 364.402C436.955 364.402 430.335 365.696 430.335 367.291C430.335 368.886 436.955 370.18 445.121 370.18Z" fill="#60A3D9"/>
<path opacity="0.1" d="M509.214 381.886C517.38 381.886 524 380.592 524 378.997C524 377.402 517.38 376.108 509.214 376.108C501.048 376.108 494.428 377.402 494.428 378.997C494.428 380.592 501.048 381.886 509.214 381.886Z" fill="#60A3D9"/>
<path opacity="0.1" d="M409.971 405.996C418.137 405.996 424.757 404.702 424.757 403.107C424.757 401.512 418.137 400.218 409.971 400.218C401.805 400.218 395.185 401.512 395.185 403.107C395.185 404.702 401.805 405.996 409.971 405.996Z" fill="#60A3D9"/>
<path opacity="0.1" d="M117.133 343.654C136.33 343.654 151.893 341.267 151.893 338.322C151.893 335.378 136.33 332.991 117.133 332.991C97.9356 332.991 82.373 335.378 82.373 338.322C82.373 341.267 97.9356 343.654 117.133 343.654Z" fill="#60A3D9"/>
<path opacity="0.1" d="M147.702 114.65C155.696 114.65 162.176 108.174 162.176 100.184C162.176 92.195 155.696 85.7183 147.702 85.7183C139.709 85.7183 133.229 92.195 133.229 100.184C133.229 108.174 139.709 114.65 147.702 114.65Z" fill="#60A3D9"/>
<path opacity="0.1" d="M117.376 74.6966C122.324 74.6966 126.336 70.6872 126.336 65.7415C126.336 60.7957 122.324 56.7863 117.376 56.7863C112.428 56.7863 108.416 60.7957 108.416 65.7415C108.416 70.6872 112.428 74.6966 117.376 74.6966Z" fill="#60A3D9"/>
<path opacity="0.1" d="M70.5138 91.2292C73.559 91.2292 76.0276 88.7619 76.0276 85.7183C76.0276 82.6748 73.559 80.2075 70.5138 80.2075C67.4686 80.2075 65 82.6748 65 85.7183C65 88.7619 67.4686 91.2292 70.5138 91.2292Z" fill="#60A3D9"/>
</g>
<defs>
<linearGradient id="paint0_linear" x1="248.159" y1="421.601" x2="248.159" y2="106.563" gradientUnits="userSpaceOnUse">
<stop stop-color="#808080" stop-opacity="0.25"/>
<stop offset="0.54" stop-color="#808080" stop-opacity="0.12"/>
<stop offset="1" stop-color="#808080" stop-opacity="0.1"/>
</linearGradient>
<clipPath id="clip0">
<rect width="459" height="383" fill="white" transform="translate(65 43)"/>
</clipPath>
</defs>
</svg>
