<svg width="550" height="450" viewBox="0 0 550 450" fill="none" xmlns="http://www.w3.org/2000/svg">
<path d="M164.651 140.811H85.4375V88.7329H158.25L164.651 140.811Z" fill="#EFEFEF"/>
<path d="M133.94 111.953C137.917 111.953 141.141 108.731 141.141 104.755C141.141 100.78 137.917 97.5576 133.94 97.5576C129.962 97.5576 126.738 100.78 126.738 104.755C126.738 108.731 129.962 111.953 133.94 111.953Z" fill="#3F3D56"/>
<path d="M154.04 74.0172C154.723 73.2428 155.43 72.4723 156.142 71.7267L156.887 72.438C156.184 73.1737 155.487 73.934 154.813 74.6979L154.04 74.0172Z" fill="#3F3D56"/>
<path d="M160.703 67.3316C162.278 65.9351 163.929 64.5882 165.612 63.3285L166.23 64.1525C164.57 65.3956 162.94 66.7243 161.387 68.102L160.703 67.3316ZM170.835 59.746C172.618 58.6296 174.469 57.5742 176.338 56.6087L176.811 57.5239C174.967 58.4761 173.141 59.5172 171.383 60.6185L170.835 59.746ZM182.082 53.9383C184.021 53.1324 186.02 52.3962 188.025 51.7496L188.341 52.7299C186.363 53.3675 184.39 54.0942 182.477 54.8891L182.082 53.9383ZM194.363 51.0542L194.127 50.0519C196.178 49.5698 198.27 49.167 200.345 48.8546L200.498 49.8732C198.451 50.1812 196.386 50.5786 194.363 51.0542ZM206.71 49.1986L206.641 48.171C208.739 48.0305 210.869 47.9762 212.972 48.0095L212.955 49.0395C210.881 49.0063 208.78 49.06 206.71 49.1985V49.1986ZM219.193 49.3985L219.295 48.3738C221.389 48.5817 223.5 48.8803 225.571 49.2613L225.384 50.2742C223.341 49.8982 221.259 49.6036 219.193 49.3985V49.3985ZM257.811 185.096C259.456 183.836 261.071 182.491 262.61 181.097L263.302 181.86C261.742 183.273 260.105 184.637 258.437 185.914L257.811 185.096ZM231.481 51.6585L231.75 50.6645C233.78 51.2145 235.812 51.8563 237.792 52.572L237.442 53.5403C235.488 52.8343 233.483 52.201 231.481 51.6585ZM267.062 176.714C268.479 175.2 269.851 173.607 271.139 171.981L271.947 172.62C270.641 174.269 269.251 175.883 267.815 177.418L267.062 176.714ZM243.227 55.9055L243.656 54.9688C245.569 55.8441 247.469 56.8091 249.303 57.8376L248.799 58.7356C246.989 57.721 245.115 56.7687 243.227 55.9055ZM274.814 166.929C275.965 165.202 277.058 163.407 278.064 161.592L278.965 162.091C277.946 163.93 276.838 165.75 275.672 167.5L274.814 166.929ZM254.121 62.0119L254.696 61.1581C256.44 62.3328 258.157 63.5945 259.799 64.9082L259.155 65.7122C257.535 64.416 255.841 63.1711 254.121 62.0119ZM280.865 156.008C281.719 154.117 282.504 152.167 283.2 150.213L284.171 150.558C283.466 152.539 282.67 154.515 281.805 156.431L280.865 156.008ZM263.868 69.8116L264.575 69.0632C266.105 70.508 267.591 72.0331 268.994 73.5964L268.226 74.2838C266.843 72.7416 265.376 71.2371 263.868 69.8116ZM285.05 144.245C285.583 142.237 286.038 140.185 286.402 138.146L287.416 138.327C287.047 140.394 286.586 142.474 286.046 144.509L285.05 144.245ZM272.2 79.0997L273.021 78.4777C274.291 80.153 275.505 81.9014 276.631 83.6744L275.761 84.226C274.651 82.477 273.453 80.7522 272.2 79.0997ZM287.244 131.955C287.438 129.89 287.548 127.791 287.57 125.716L288.6 125.727C288.578 127.83 288.467 129.958 288.27 132.051L287.244 131.955ZM278.886 89.6335L279.799 89.1561C280.773 91.0159 281.682 92.9421 282.501 94.8805L281.552 95.2812C280.744 93.3688 279.847 91.4688 278.886 89.6335ZM287.377 119.471C287.227 117.407 286.989 115.319 286.668 113.266L287.686 113.107C288.011 115.188 288.253 117.304 288.404 119.397L287.377 119.471ZM283.744 101.129L284.723 100.808C285.379 102.802 285.962 104.857 286.454 106.897L285.452 107.139C284.967 105.123 284.391 103.097 283.744 101.129Z" fill="#3F3D56"/>
<path d="M250.013 190.33C250.892 189.816 251.773 189.277 252.631 188.728L253.187 189.595C252.317 190.152 251.424 190.698 250.533 191.219L250.013 190.33Z" fill="#3F3D56"/>
<path d="M85.4375 124.526L101.224 108.746L115.513 123.028L142.624 95.9306L164.863 118.582V140.811H85.4375V124.526Z" fill="#60A3D9"/>
<path d="M343.836 269.523V371.562H475.153V269.523H343.836ZM458.005 296.811H447.835V286.646H458.005V296.811Z" fill="#3F3D56"/>
<path d="M139.659 229.301H131.187V240.309H139.659V229.301Z" fill="#3F3D56"/>
<path d="M272.358 302.074L266.367 296.086L258.579 303.87L264.57 309.858L272.358 302.074Z" fill="#3F3D56"/>
<path d="M247.366 109.852L241.375 103.864L233.587 111.648L239.578 117.636L247.366 109.852Z" fill="#3F3D56"/>
<path d="M353.58 338.64C353.111 339.56 352.617 340.482 352.113 341.381L351.214 340.877C351.712 339.99 352.199 339.08 352.662 338.173L353.58 338.64Z" fill="#3F3D56"/>
<path d="M348.786 346.771C347.608 348.514 346.343 350.229 345.026 351.867L344.223 351.222C345.522 349.606 346.77 347.914 347.932 346.194L348.786 346.771ZM340.856 356.634C339.407 358.158 337.876 359.64 336.306 361.039L335.62 360.27C337.17 358.89 338.68 357.428 340.109 355.924L340.856 356.634ZM331.406 365.051C329.728 366.313 327.974 367.523 326.193 368.647L325.642 367.776C327.4 366.667 329.131 365.473 330.786 364.228L331.406 365.051ZM320.226 370.894L320.703 371.806C318.837 372.782 316.91 373.692 314.978 374.509L314.576 373.561C316.483 372.754 318.384 371.857 320.226 370.894ZM308.727 375.756L309.049 376.734C307.051 377.391 305.001 377.973 302.957 378.462L302.716 377.461C304.734 376.978 306.756 376.404 308.727 375.756ZM296.585 378.661L296.741 379.679C294.661 379.998 292.542 380.233 290.441 380.378L290.37 379.35C292.442 379.207 294.533 378.975 296.585 378.661ZM225.459 256.802C224.178 258.431 222.948 260.135 221.804 261.868L220.944 261.3C222.104 259.544 223.35 257.816 224.648 256.165L225.459 256.802ZM284.121 379.523L284.107 380.552C282.004 380.523 279.876 380.406 277.78 380.204L277.879 379.179C279.947 379.378 282.047 379.494 284.121 379.523ZM218.58 267.218C217.584 269.037 216.651 270.92 215.807 272.815L214.865 272.396C215.721 270.475 216.666 268.567 217.676 266.724L218.58 267.218ZM271.687 378.325L271.504 379.338C269.434 378.965 267.354 378.502 265.321 377.961L265.586 376.966C267.592 377.5 269.644 377.957 271.687 378.325ZM213.502 278.621C212.816 280.58 212.203 282.59 211.681 284.597L210.684 284.337C211.214 282.304 211.835 280.266 212.53 278.281L213.502 278.621ZM259.618 375.114L259.272 376.084C257.291 375.379 255.315 374.583 253.398 373.718L253.822 372.779C255.713 373.632 257.663 374.418 259.618 375.114ZM210.354 290.702C209.997 292.746 209.721 294.83 209.533 296.895L208.507 296.802C208.698 294.708 208.977 292.596 209.339 290.525L210.354 290.702ZM248.238 369.978L247.738 370.879C245.898 369.859 244.079 368.75 242.332 367.584L242.904 366.728C244.628 367.878 246.422 368.972 248.238 369.978ZM209.223 303.135C209.206 305.212 209.276 307.313 209.43 309.379L208.402 309.456C208.246 307.361 208.176 305.232 208.193 303.126L209.223 303.135ZM237.858 363.049L237.217 363.856C235.571 362.548 233.961 361.156 232.43 359.718L233.136 358.968C234.646 360.386 236.235 361.76 237.858 363.049H237.858ZM210.152 315.585C210.477 317.633 210.892 319.694 211.387 321.709L210.386 321.954C209.885 319.911 209.464 317.823 209.134 315.746L210.152 315.585ZM228.765 354.505L227.999 355.194C226.593 353.635 225.234 351.995 223.959 350.32L224.779 349.696C226.037 351.348 227.378 352.966 228.765 354.505ZM213.126 327.71C213.784 329.673 214.533 331.636 215.354 333.545L214.408 333.952C213.576 332.017 212.816 330.027 212.149 328.037L213.126 327.71ZM221.202 344.576L220.334 345.13C219.203 343.362 218.127 341.516 217.144 339.661L218.054 339.179C219.025 341.011 220.087 342.83 221.202 344.576Z" fill="#3F3D56"/>
<path d="M231.713 249.797C230.988 250.512 230.269 251.253 229.574 251.998L228.82 251.296C229.525 250.541 230.254 249.79 230.988 249.064L231.713 249.797Z" fill="#3F3D56"/>
<path d="M455.306 274.825C455.208 274.666 452.916 270.841 452.122 262.897C451.393 255.609 451.861 243.325 458.235 226.189C470.31 193.727 455.452 167.535 455.301 167.274L456.034 166.849C456.072 166.915 459.906 173.593 462.171 184.227C465.164 198.325 464.074 212.983 459.03 226.485C446.975 258.891 455.937 274.233 456.029 274.384L455.306 274.825Z" fill="#3F3D56"/>
<path d="M450.584 165.368C453.625 165.368 456.091 162.904 456.091 159.864C456.091 156.824 453.625 154.36 450.584 154.36C447.543 154.36 445.077 156.824 445.077 159.864C445.077 162.904 447.543 165.368 450.584 165.368Z" fill="#60A3D9"/>
<path d="M467.951 185.691C470.993 185.691 473.458 183.227 473.458 180.187C473.458 177.147 470.993 174.683 467.951 174.683C464.91 174.683 462.444 177.147 462.444 180.187C462.444 183.227 464.91 185.691 467.951 185.691Z" fill="#3F3D56"/>
<path d="M456.091 199.24C459.132 199.24 461.598 196.775 461.598 193.735C461.598 190.696 459.132 188.231 456.091 188.231C453.049 188.231 450.584 190.696 450.584 193.735C450.584 196.775 453.049 199.24 456.091 199.24Z" fill="#60A3D9"/>
<path d="M470.493 210.671C473.535 210.671 476 208.207 476 205.167C476 202.127 473.535 199.663 470.493 199.663C467.452 199.663 464.986 202.127 464.986 205.167C464.986 208.207 467.452 210.671 470.493 210.671Z" fill="#60A3D9"/>
<path d="M451.855 228.454C454.896 228.454 457.361 225.99 457.361 222.95C457.361 219.91 454.896 217.446 451.855 217.446C448.813 217.446 446.348 219.91 446.348 222.95C446.348 225.99 448.813 228.454 451.855 228.454Z" fill="#3F3D56"/>
<path d="M458.632 275.028C458.632 275.028 453.125 261.479 469.646 251.317L458.632 275.028Z" fill="#3F3D56"/>
<path d="M451.86 274.782C451.86 274.782 449.354 260.374 429.956 260.497L451.86 274.782Z" fill="#3F3D56"/>
<path d="M276.688 360.806C275.682 360.806 274.7 360.508 273.864 359.95C273.028 359.392 272.376 358.598 271.991 357.67C271.607 356.741 271.506 355.72 271.702 354.734C271.898 353.749 272.382 352.843 273.093 352.133C273.804 351.422 274.71 350.938 275.696 350.742C276.682 350.546 277.704 350.647 278.633 351.031C279.562 351.416 280.356 352.067 280.914 352.903C281.473 353.738 281.771 354.721 281.771 355.725C281.769 357.072 281.233 358.364 280.28 359.316C279.327 360.269 278.035 360.805 276.688 360.806ZM276.688 351.491C275.85 351.491 275.031 351.74 274.334 352.205C273.638 352.67 273.095 353.332 272.774 354.105C272.454 354.879 272.37 355.73 272.533 356.551C272.697 357.373 273.1 358.127 273.692 358.719C274.285 359.311 275.04 359.715 275.861 359.878C276.683 360.041 277.535 359.958 278.309 359.637C279.083 359.317 279.744 358.774 280.21 358.078C280.675 357.381 280.924 356.563 280.924 355.725C280.923 354.603 280.476 353.527 279.682 352.733C278.888 351.939 277.811 351.493 276.688 351.491Z" fill="#2F2E41"/>
<path d="M332.53 88.2614H324.168V79.9031H332.53V88.2614ZM324.811 87.6185H331.887V80.546H324.811V87.6185Z" fill="#3F3D56"/>
<path d="M104.48 321.587L98.7764 315.475L104.892 309.774L110.595 315.886L104.48 321.587ZM99.6856 315.506L104.512 320.678L109.686 315.854L104.86 310.682L99.6856 315.506Z" fill="#2F2E41"/>
<path d="M329.053 266.191H177.48V205.036H303.559L329.053 266.191Z" fill="#EFEFEF"/>
<path d="M329.746 266.654H158.939V191.6H298.771L298.889 191.887L329.746 266.654ZM159.867 265.728H328.36L298.15 192.527H159.867V265.728Z" fill="#3F3D56"/>
<path d="M278.065 214.765H202.511V221.715H278.065V214.765Z" fill="#60A3D9"/>
<path d="M278.065 229.127H202.511V236.077H278.065V229.127Z" fill="#60A3D9"/>
<path d="M278.065 243.49H202.511V250.439H278.065V243.49Z" fill="#60A3D9"/>
<path d="M200.84 150.972H74V73.9142H172.572L172.674 74.1918L200.84 150.972ZM74.8472 150.126H199.627L171.98 74.761H74.8472V150.126Z" fill="#3F3D56"/>
<path d="M165.075 141.234H85.0137V81.5353H165.075V141.234ZM85.8609 140.387H164.228V82.3821H85.8609V140.387Z" fill="#3F3D56"/>
<path d="M200.234 158.17C204.445 158.17 207.859 154.758 207.859 150.549C207.859 146.34 204.445 142.928 200.234 142.928C196.023 142.928 192.609 146.34 192.609 150.549C192.609 154.758 196.023 158.17 200.234 158.17Z" fill="#60A3D9"/>
<path d="M328.162 274.181C332.373 274.181 335.787 270.769 335.787 266.56C335.787 262.351 332.373 258.939 328.162 258.939C323.951 258.939 320.537 262.351 320.537 266.56C320.537 270.769 323.951 274.181 328.162 274.181Z" fill="#60A3D9"/>
<path d="M382.841 162.33C389.927 162.33 395.671 156.588 395.671 149.506C395.671 142.424 389.927 136.682 382.841 136.682C375.755 136.682 370.011 142.424 370.011 149.506C370.011 156.588 375.755 162.33 382.841 162.33Z" fill="#A0616A"/>
<path d="M374.02 155.651C374.02 155.651 378.297 165.269 372.416 169.009C366.536 172.75 382.039 188.245 382.039 188.245L399.146 170.078C399.146 170.078 390.058 164.2 391.662 154.582L374.02 155.651Z" fill="#A0616A"/>
<path d="M344.618 196.26L340.875 217.633C340.875 217.633 334.46 230.457 334.46 241.678C334.46 252.899 333.391 255.037 333.391 255.037C333.391 255.037 322.699 276.41 330.183 277.479C337.668 278.548 340.875 255.571 340.875 255.571C340.875 255.571 351.033 230.457 351.033 222.442L357.982 204.809L344.618 196.26Z" fill="#A0616A"/>
<path d="M422.133 197.329L423.203 216.031C423.203 216.031 426.945 225.649 424.272 242.747L422.133 259.312C422.133 259.312 426.945 278.013 422.133 278.548C417.322 279.082 411.442 266.792 414.649 259.846V253.968C414.649 253.968 411.442 228.855 412.511 224.58L408.769 204.275L422.133 197.329Z" fill="#A0616A"/>
<path d="M352.636 345.339L357.982 359.232L369.743 357.094L362.258 342.133L352.636 345.339Z" fill="#A0616A"/>
<path d="M403.423 356.56L401.819 376.865H415.184L414.649 359.232L403.423 356.56Z" fill="#A0616A"/>
<path d="M361.19 234.732L359.586 242.747C359.586 242.747 356.378 245.419 356.378 248.091C356.378 250.762 355.309 251.831 355.309 251.831C355.309 251.831 354.775 251.831 354.24 252.899C353.964 253.483 353.604 254.023 353.171 254.502C353.171 254.502 321.63 286.562 328.579 302.592C335.529 318.622 348.894 351.217 348.894 351.217C348.894 351.217 364.397 346.408 364.397 342.668L349.429 300.455L379.366 269.464L403.423 302.058C403.423 302.058 398.611 359.232 401.819 359.766C405.026 360.301 422.668 364.041 423.203 362.438C423.737 360.835 426.41 289.769 425.341 287.097C424.272 284.425 408.769 252.365 408.769 252.365C408.769 252.365 411.442 249.159 409.838 248.091C408.234 247.022 405.561 236.869 405.561 236.869C405.561 236.869 363.863 229.923 361.19 234.732Z" fill="#2F2E41"/>
<path d="M384.178 174.887L373.402 168.244C373.402 168.244 367.071 168.475 365.467 170.078C363.863 171.681 354.24 175.955 354.24 175.955C354.24 175.955 356.379 240.075 360.655 237.938C364.932 235.801 361.725 234.198 364.932 235.801C368.14 237.404 406.096 237.938 406.631 237.938C407.165 237.938 407.7 236.869 407.7 236.869L409.838 204.275L416.788 177.024L396.213 167.562L384.178 174.887Z" fill="#D0CDE1"/>
<path d="M358.517 175.421H354.24C354.24 175.421 348.359 177.024 345.686 185.573C343.013 194.123 341.944 197.863 343.013 198.932C344.082 200 358.517 208.015 358.517 208.015V175.421Z" fill="#D0CDE1"/>
<path d="M409.304 176.49L416.788 177.024C416.788 177.024 426.411 199.466 423.738 200.535C421.065 201.604 405.562 209.619 405.562 208.016C405.562 206.413 409.304 176.49 409.304 176.49Z" fill="#D0CDE1"/>
<path d="M359.052 352.286L354.693 350.683L344.618 364.041C344.618 364.041 325.907 377.399 343.014 376.865C343.014 376.865 356.379 374.728 357.448 370.987C357.448 370.987 372.951 366.713 372.951 364.041C372.951 361.369 369.389 354.247 368.23 354.068C367.071 353.889 362.26 356.026 359.052 352.286Z" fill="#2F2E41"/>
<path d="M415.184 370.987C415.184 370.987 402.187 370.776 402.271 371.149C402.354 371.522 398.611 380.071 399.146 383.277C399.681 386.483 404.492 390.758 403.423 392.895C402.354 395.032 406.63 401.444 415.184 401.979C423.737 402.513 422.668 392.895 422.668 392.895L418.391 382.743L415.184 370.987Z" fill="#2F2E41"/>
<path d="M374.974 134.663C374.332 135.209 373.662 135.721 372.967 136.198C372.091 136.925 371.281 137.729 370.548 138.6L369.721 139.526C369.017 140.313 368.27 141.213 368.299 142.268C368.31 142.66 368.431 143.04 368.478 143.43C368.665 144.973 367.721 146.67 368.498 148.017C368.723 148.406 369.07 148.71 369.318 149.086C369.633 149.567 369.773 150.141 369.713 150.713C370.548 150.747 371.233 150 371.495 149.206C371.757 148.413 371.721 147.556 371.849 146.731C371.976 145.905 372.335 145.031 373.085 144.664C374.686 143.88 376.525 145.918 378.234 145.41C379.427 145.056 380.057 143.577 381.277 143.329C382.15 143.152 382.99 143.67 383.802 144.038C384.614 144.405 385.708 144.576 386.282 143.894C386.662 143.443 386.702 142.72 387.206 142.414C387.81 142.046 388.567 142.558 389.024 143.097C389.481 143.636 389.986 144.295 390.693 144.275C391.631 144.249 392.349 143.001 393.239 143.297C394.243 143.631 393.781 145.238 394.391 146.103C394.906 146.835 395.985 146.792 396.872 146.671C397.021 146.686 397.172 146.663 397.311 146.604C397.449 146.545 397.57 146.452 397.662 146.333C397.755 146.215 397.816 146.075 397.839 145.926C397.863 145.778 397.848 145.626 397.797 145.485L397.427 140.575C397.425 140.237 397.351 139.903 397.209 139.595C396.951 139.128 396.417 138.892 396.054 138.501C395.291 137.679 395.327 136.239 394.378 135.641C393.885 135.331 393.24 135.34 392.75 135.024C392.123 134.619 391.92 133.808 391.481 133.205C390.852 132.342 389.753 131.941 388.69 131.832C387.628 131.722 386.555 131.854 385.488 131.819C383.317 131.749 381.146 131.138 378.965 131.495C377.062 131.807 376.263 133.421 374.974 134.663Z" fill="#2F2E41"/>
</svg>
