<svg width="550" height="450" viewBox="0 0 550 450" fill="none" xmlns="http://www.w3.org/2000/svg">
<path d="M496.576 215.533L488.385 252.361L481.735 282.238L476.434 306.066L469.789 335.943L448.072 433.55L178.972 309.263L159.191 300.126L134.153 288.56L114.365 279.422L90.5661 268.428L104.058 248.808L115.278 232.493L129.472 211.851L140.689 195.546L266.909 12L400.619 130.497L424.429 151.597L443.415 168.423L467.23 189.523L496.576 215.533Z" fill="#F2F2F2"/>
<path d="M105.425 323.882C87.4309 313.856 76.2288 300.167 72.1298 283.196C69.0863 270.596 69.9609 256.417 74.7289 241.053C78.2636 229.726 83.5631 219.026 90.4323 209.349C126.874 157.791 130.163 124.195 126.505 105.091C122.495 84.1435 109.465 75.4439 109.334 75.3585L109.896 74.4939C110.031 74.5813 123.404 83.483 127.511 104.855C129.879 117.177 128.765 131.226 124.2 146.613C118.519 165.764 107.442 187.071 91.2752 209.944C84.4686 219.533 79.2172 230.134 75.7144 241.358C67.8944 266.557 66.788 301.172 105.928 322.982L105.425 323.882Z" fill="#2F2E41"/>
<path d="M114.079 323.882C132.073 313.856 143.275 300.167 147.374 283.196C150.418 270.596 149.543 256.417 144.775 241.053C141.24 229.726 135.941 219.026 129.072 209.349C92.6296 157.791 89.3405 124.195 92.9983 105.091C97.0089 84.1435 110.039 75.4439 110.17 75.3585L109.608 74.4939C109.473 74.5813 96.0998 83.483 91.9927 104.855C89.6251 117.177 90.739 131.226 95.3035 146.613C100.984 165.764 112.062 187.071 128.229 209.944C135.035 219.533 140.287 230.134 143.789 241.358C151.609 266.557 152.716 301.172 113.576 322.982L114.079 323.882Z" fill="#2F2E41"/>
<path d="M506.277 280.567C488.282 270.541 477.08 256.852 472.981 239.881C469.938 227.281 470.812 213.102 475.58 197.738C479.115 186.411 484.414 175.711 491.284 166.034C527.726 114.476 531.015 80.8804 527.357 61.7761C523.346 40.8287 510.316 32.1291 510.185 32.0438L510.748 31.1791C510.882 31.2665 524.256 40.1683 528.363 61.5406C530.73 73.8619 529.616 87.9114 525.052 103.299C519.371 122.449 508.293 143.756 492.127 166.629C485.32 176.218 480.069 186.82 476.566 198.044C468.746 223.242 467.639 257.858 506.779 279.667L506.277 280.567Z" fill="#2F2E41"/>
<path d="M514.93 280.567C532.924 270.541 544.127 256.852 548.225 239.881C551.269 227.281 550.394 213.102 545.626 197.738C542.092 186.411 536.792 175.711 529.923 166.034C493.481 114.476 490.192 80.8804 493.85 61.7761C497.86 40.8287 510.89 32.1291 511.022 32.0438L510.459 31.1791C510.325 31.2665 496.951 40.1683 492.844 61.5406C490.477 73.8619 491.59 87.9114 496.155 103.299C501.836 122.449 512.914 143.756 529.08 166.629C535.887 176.218 541.138 186.82 544.641 198.044C552.461 223.242 553.567 257.858 514.428 279.667L514.93 280.567Z" fill="#2F2E41"/>
<path d="M241.344 166.667C227.824 143.833 201.076 142.769 201.076 142.769C201.076 142.769 175.011 139.437 158.291 174.214C142.706 206.628 121.197 237.925 154.828 245.513L160.902 226.614L164.665 246.919C169.453 247.264 174.257 247.346 179.054 247.165C215.07 246.003 249.369 247.505 248.265 234.587C246.797 217.415 254.353 188.638 241.344 166.667Z" fill="#2F2E41"/>
<path d="M185.85 214.456C190.509 224.757 193.447 237.034 195.201 250.672L232.603 248.336C224.004 236.157 221.149 222.178 224.421 206.279L185.85 214.456Z" fill="#FFB8B8"/>
<path opacity="0.2" d="M185.85 214.456C190.509 224.757 193.447 237.034 195.201 250.672L232.603 248.336C224.004 236.157 221.149 222.178 224.421 206.279L185.85 214.456Z" fill="black"/>
<path d="M12.3156 410.57C12.3156 410.57 -7.04232 420.934 2.78078 429.782C12.6039 438.631 25.5797 418.07 25.5797 418.07L12.3156 410.57Z" fill="#FFB8B8"/>
<path d="M248.967 380.348L248.665 394.506L248.019 425.1V425.105L247.831 433.965H124.041L129.072 406.042L129.077 406.021L133.582 381.029L135.593 369.837V369.832L237.28 355.813L248.967 380.348Z" fill="#2F2E41"/>
<path d="M248.966 380.349L248.662 394.508C212.686 393.585 156.922 384.905 133.581 381.027L135.591 369.835L237.278 355.816L248.966 380.349Z" fill="#3F3D56"/>
<path d="M203.967 224.386C220.105 224.386 233.187 211.31 233.187 195.18C233.187 179.05 220.105 165.974 203.967 165.974C187.829 165.974 174.746 179.05 174.746 195.18C174.746 211.31 187.829 224.386 203.967 224.386Z" fill="#FFB8B8"/>
<path d="M260.07 396.121C260.07 396.121 263.576 427.664 242.538 425.327L239.031 393.784L220.33 375.092L167.734 373.924L129.163 410.14C129.163 410.14 127.994 372.755 132.669 369.251C137.344 365.746 147.864 357.568 147.864 357.568V351.727L116.306 287.473C116.306 287.473 135.007 248.92 150.201 247.752L170.071 246.583C170.071 246.583 177.084 243.079 177.084 241.91C177.084 240.742 175.915 231.396 181.759 233.733C181.759 233.733 182.285 221.746 188.445 225.403C188.445 225.403 207.836 240.59 227.518 226.069C227.518 226.069 236.694 224.386 235.525 229.06C234.356 233.733 235.525 237.237 237.862 237.237C240.2 237.237 250.719 240.742 250.719 243.079C250.719 243.581 251.479 248.418 252.671 255.696V255.708C257.008 282.239 267.083 341.212 267.083 341.212C267.083 341.212 277.602 356.4 260.07 396.121Z" fill="#60A3D9"/>
<path d="M124.487 281.631L116.306 287.473L41.5017 383.27L1.76202 414.813C1.76202 414.813 23.9695 411.308 19.2942 430L156.045 351.727L124.487 281.631Z" fill="#60A3D9"/>
<path d="M252.671 255.696V255.707C251.117 264.843 200.46 262.939 193.447 262.939C186.435 262.939 180.591 261.771 173.578 257.098C166.565 252.425 170.071 246.583 170.071 246.583C170.071 246.583 176.042 242.038 176.042 240.869C176.042 239.701 174.874 230.355 180.718 232.691C180.718 232.691 181.244 220.705 187.403 224.362C187.403 224.362 207.836 240.59 227.518 226.069C227.518 226.069 236.694 224.386 235.525 229.06C234.356 233.733 235.525 237.237 237.862 237.237C240.2 237.237 250.719 240.742 250.719 243.079C250.719 243.581 251.479 248.418 252.671 255.696Z" fill="#3F3D56"/>
<path d="M246.628 212.12C246.628 212.12 237.278 192.259 227.927 201.605C218.577 210.952 238.447 224.971 238.447 224.971L246.628 212.12Z" fill="#FFB8B8"/>
<path d="M246.628 207.447C246.628 207.447 232.19 225.685 227.721 227.08C227.721 227.08 240.784 278.711 257.148 292.73L266.498 340.628C266.498 340.628 306.238 324.273 296.887 297.403C296.794 297.134 296.701 296.867 296.608 296.602C288.801 274.225 278.026 252.995 264.572 233.481L246.628 207.447Z" fill="#60A3D9"/>
<path opacity="0.2" d="M238.913 261.541L267.667 340.628L257.148 292.73L238.913 261.541Z" fill="black"/>
<path d="M235.367 164.466L208.941 150.63L172.448 156.29L164.897 189.621L183.692 188.899L188.943 176.653V188.697L197.615 188.364L202.649 168.868L205.795 189.621L236.625 188.993L235.367 164.466Z" fill="#2F2E41"/>
<path d="M485.009 344.254L500.002 397.712C500.002 397.712 496.913 445.063 511.33 435.798C526.085 426.318 520.599 386.389 520.599 386.389L511.957 338.43L485.009 344.254Z" fill="#A0616A"/>
<path d="M493.02 194.291L505.402 206.666V265.632C505.402 265.632 512.685 276.552 511.229 279.464C509.772 282.376 508.315 282.376 509.772 284.56C511.229 286.744 512.685 288.2 511.229 289.656C509.772 291.111 509.772 294.751 511.229 296.207C512.685 297.663 515.598 299.847 513.413 302.031C511.229 304.215 508.315 302.759 511.229 310.767C514.142 318.775 519.24 320.959 517.783 323.87C516.327 326.782 516.327 334.062 516.327 334.062L485.009 338.43L478.454 256.169L493.02 194.291Z" fill="#D0CDE1"/>
<path d="M517.783 333.334L481.367 334.79L482.824 350.078L514.87 344.254L517.783 333.334Z" fill="#3F3D56"/>
<path d="M417.639 118.217L413.269 161.895L457.697 168.447L460.974 143.332L464.252 118.217H417.639Z" fill="#A0616A"/>
<path opacity="0.1" d="M417.639 117.98L413.269 161.659L457.697 168.211L460.974 143.096L464.252 117.98H417.639Z" fill="black"/>
<path d="M321.136 326.054L345.899 379.197C345.899 379.197 350.269 403.948 356.824 404.676C363.379 405.404 369.934 379.197 369.934 379.197L361.194 365.365L350.998 326.054H321.136Z" fill="#A0616A"/>
<path d="M490.646 434.481H350.648C351.758 416.943 352.455 406.131 352.455 406.131L354.315 403.205L363.33 389.046L369.767 378.937L372.012 375.407L372.845 374.101L381.662 372.492L472.626 355.902C474.131 362.636 476.26 369.214 478.985 375.553C479.605 376.964 480.272 378.375 480.985 379.77C483.272 384.231 486.063 388.458 489.381 391.571C490.136 392.279 490.683 394.168 491.037 397.073C491.912 404.189 491.662 417.422 490.646 434.481Z" fill="#2F2E41"/>
<path d="M442.038 132.412C461.346 132.412 476.997 116.768 476.997 97.4696C476.997 78.1711 461.346 62.5267 442.038 62.5267C422.73 62.5267 407.078 78.1711 407.078 97.4696C407.078 116.768 422.73 132.412 442.038 132.412Z" fill="#A0616A"/>
<path d="M364.107 168.811L359.009 165.899C359.009 165.899 336.431 181.187 329.148 215.402C321.865 249.617 316.767 258.352 316.767 258.352C316.767 258.352 309.483 259.808 314.582 264.904C319.68 270 319.68 269.272 315.31 272.184C310.94 275.096 308.027 269.272 310.94 275.096C313.853 280.92 317.495 279.464 314.582 283.104C311.668 286.744 306.57 286.744 309.483 289.655C312.397 292.567 306.57 299.119 310.212 302.031C313.853 304.943 315.31 305.671 315.31 310.767C315.288 313.741 315.78 316.696 316.767 319.503H354.639C354.639 319.503 347.356 305.671 349.541 302.759C351.726 299.847 352.454 296.935 350.998 295.479C349.541 294.023 345.171 296.935 349.541 293.295C353.911 289.655 355.368 291.839 353.911 287.472C352.454 283.104 349.541 285.288 352.454 283.104C355.368 280.92 357.553 281.648 356.096 279.464C354.639 277.28 351.726 277.28 354.639 275.824C357.553 274.368 359.738 275.824 359.009 272.184C358.281 268.544 357.553 270 359.009 268.544C360.466 267.088 375.761 217.586 375.761 216.13C375.761 214.674 364.107 168.811 364.107 168.811Z" fill="#D0CDE1"/>
<path d="M356.824 316.591L310.94 319.503L322.593 330.422L354.639 331.15L356.824 316.591Z" fill="#3F3D56"/>
<path d="M369.934 371.189L360.466 388.66C360.466 388.66 388.87 392.3 399.067 395.94C409.263 399.58 435.483 404.676 435.483 404.676L442.038 379.197L369.934 371.189Z" fill="#3F3D56"/>
<path d="M452.963 379.197L460.974 403.22L493.02 396.668L489.379 374.101L452.963 379.197Z" fill="#3F3D56"/>
<path d="M466.073 144.06C466.073 144.06 463.888 142.604 458.789 145.516C453.691 148.428 436.94 149.884 428.928 141.148C420.917 132.412 415.09 125.133 412.905 126.589C410.72 128.045 409.263 144.788 409.263 144.788L401.98 150.612L359.009 165.899L362.651 264.176L369.206 286.744C369.206 286.744 364.107 304.215 370.662 314.407C377.217 324.598 367.021 328.238 367.021 328.238C367.021 328.238 364.836 331.15 366.292 338.43C367.749 345.71 364.836 372.645 364.836 372.645C364.836 372.645 426.743 400.308 491.564 376.285L484.281 348.622L480.639 286.744C480.639 286.744 484.281 276.552 483.552 272.184C482.824 267.816 505.402 206.666 505.402 206.666C505.402 206.666 501.76 176.091 482.824 169.539C463.888 162.988 460.974 156.436 460.974 156.436C460.974 156.436 469.714 146.972 466.073 144.06Z" fill="#D0CDE1"/>
<path d="M406.836 101.946C406.836 101.946 403.206 96.5029 404.602 90.6412C405.436 87.3133 405.766 83.8789 405.579 80.4531C405.579 80.4531 408.511 70.9628 411.444 65.6594C414.376 60.3561 412.98 58.123 422.195 56.4483C431.411 54.7735 427.641 42.7711 451.936 55.7505C452.756 56.8944 453.896 57.77 455.213 58.2668C456.53 58.7635 457.965 58.8592 459.336 58.5417C464.363 57.5648 466.178 64.5429 466.178 64.5429C466.178 64.5429 469.529 62.5891 470.786 65.3803C472.043 68.1716 481.003 63.7051 481.003 82.5461C481.003 101.387 470.807 118.217 470.807 118.217C470.807 118.217 471.554 86.5241 454.938 83.3142C438.322 80.1042 420.45 70.7535 416.121 82.7559C411.793 94.7583 406.836 101.946 406.836 101.946Z" fill="#2F2E41"/>
<path d="M471.171 109.481C472.981 109.481 474.448 107.526 474.448 105.113C474.448 102.701 472.981 100.745 471.171 100.745C469.361 100.745 467.893 102.701 467.893 105.113C467.893 107.526 469.361 109.481 471.171 109.481Z" fill="#A0616A"/>
</svg>
