<svg width="550" height="450" viewBox="0 0 550 450" fill="none" xmlns="http://www.w3.org/2000/svg">
<path d="M226.339 449C318.205 449 392.677 435.871 392.677 419.676C392.677 403.482 318.205 390.353 226.339 390.353C134.472 390.353 60 403.482 60 419.676C60 435.871 134.472 449 226.339 449Z" fill="#F2F2F2"/>
<path d="M327.436 324.442C417.217 324.442 490 251.813 490 162.221C490 72.6289 417.217 0 327.436 0C237.654 0 164.871 72.6289 164.871 162.221C164.871 251.813 237.654 324.442 327.436 324.442Z" fill="#3F3D56" fill-opacity="0.9"/>
<path opacity="0.05" d="M327.436 296.14C401.553 296.14 461.638 236.182 461.638 162.221C461.638 88.2598 401.553 28.3024 327.436 28.3024C253.318 28.3024 193.234 88.2598 193.234 162.221C193.234 236.182 253.318 296.14 327.436 296.14Z" fill="black"/>
<path opacity="0.05" d="M327.436 271.979C388.182 271.979 437.426 222.839 437.426 162.221C437.426 101.603 388.182 52.463 327.436 52.463C266.69 52.463 217.445 101.603 217.445 162.221C217.445 222.839 266.69 271.979 327.436 271.979Z" fill="black"/>
<path opacity="0.05" d="M327.436 240.916C370.989 240.916 406.297 205.683 406.297 162.221C406.297 118.759 370.989 83.5266 327.436 83.5266C283.882 83.5266 248.575 118.759 248.575 162.221C248.575 205.683 283.882 240.916 327.436 240.916Z" fill="black"/>
<path d="M166.311 176.739C166.311 176.739 153.53 212.638 159.211 225.392C164.891 238.146 173.885 250.428 173.885 250.428C173.885 250.428 170.571 179.101 166.311 176.739Z" fill="#D0CDE1"/>
<path opacity="0.1" d="M166.311 176.739C166.311 176.739 153.53 212.638 159.211 225.392C164.891 238.146 173.885 250.428 173.885 250.428C173.885 250.428 170.571 179.101 166.311 176.739Z" fill="black"/>
<path d="M175.305 259.875C175.305 259.875 174.358 268.85 173.885 269.322C173.412 269.795 174.358 270.739 173.885 272.156C173.412 273.573 172.938 275.463 173.885 275.935C174.832 276.408 168.678 317.976 168.678 317.976C168.678 317.976 153.53 337.815 159.684 368.991L161.578 400.639C161.578 400.639 176.252 401.584 176.252 396.388C176.252 396.388 175.305 390.247 175.305 387.413C175.305 384.579 177.672 384.579 176.252 383.162C174.832 381.745 174.832 380.8 174.832 380.8C174.832 380.8 177.199 378.911 176.725 378.438C176.252 377.966 180.985 344.428 180.985 344.428C180.985 344.428 186.192 339.232 186.192 336.398V333.564C186.192 333.564 188.559 327.423 188.559 326.951C188.559 326.478 201.34 297.664 201.34 297.664L206.547 318.448L212.227 348.207C212.227 348.207 215.068 375.132 220.748 385.524C220.748 385.524 230.689 419.534 230.689 418.589C230.689 417.644 247.256 415.283 246.783 411.031C246.31 406.78 236.842 347.262 236.842 347.262L239.209 258.93L175.305 259.875Z" fill="#2F2E41"/>
<path d="M162.524 398.278C162.524 398.278 149.743 423.313 158.264 424.258C166.785 425.202 170.098 425.202 173.885 421.423C175.955 419.357 180.148 416.586 183.523 414.497C185.523 413.28 187.139 411.524 188.185 409.432C189.231 407.34 189.665 404.997 189.438 402.67C189.188 400.359 188.323 398.455 186.192 398.278C180.512 397.805 173.885 392.609 173.885 392.609L162.524 398.278Z" fill="#2F2E41"/>
<path d="M233.055 416.7C233.055 416.7 220.275 441.735 228.795 442.68C237.316 443.624 240.629 443.624 244.416 439.845C246.486 437.78 250.679 435.008 254.054 432.919C256.054 431.702 257.67 429.946 258.716 427.855C259.762 425.763 260.196 423.419 259.969 421.092C259.719 418.781 258.854 416.877 256.724 416.7C251.043 416.227 244.416 411.031 244.416 411.031L233.055 416.7Z" fill="#2F2E41"/>
<path d="M219.547 135.769C230.537 135.769 239.446 126.879 239.446 115.913C239.446 104.946 230.537 96.0563 219.547 96.0563C208.558 96.0563 199.649 104.946 199.649 115.913C199.649 126.879 208.558 135.769 219.547 135.769Z" fill="#FFB8B8"/>
<path d="M206.756 122.437C206.756 122.437 192.542 148.534 191.405 148.534C190.268 148.534 216.989 157.044 216.989 157.044C216.989 157.044 224.38 132.082 225.517 129.812L206.756 122.437Z" fill="#FFB8B8"/>
<path d="M228.558 150.995C228.558 150.995 200.157 135.407 197.316 135.879C194.476 136.352 164.181 162.804 164.654 173.668C165.128 184.533 168.915 202.483 168.915 202.483C168.915 202.483 170.335 252.553 173.175 253.026C176.015 253.498 172.702 262 173.648 262C174.595 262 239.919 262 240.393 260.583C240.866 259.166 228.558 150.995 228.558 150.995Z" fill="#D0CDE1"/>
<path d="M244.416 263.181C244.416 263.181 253.41 290.579 245.836 289.634C238.263 288.689 234.949 266.016 234.949 266.016L244.416 263.181Z" fill="#FFB8B8"/>
<path d="M220.275 149.342C220.275 149.342 202.76 153.121 205.6 176.739C208.441 200.357 213.648 223.975 213.648 223.975L231.162 262.237L233.055 269.322L245.836 266.016L236.369 211.221C236.369 211.221 233.055 152.648 228.795 150.759C226.109 149.616 223.187 149.13 220.275 149.342Z" fill="#D0CDE1"/>
<path opacity="0.1" d="M209.624 223.267L231.399 262L213.053 221.186L209.624 223.267Z" fill="black"/>
<path d="M239.358 110.066L239.423 108.549L242.448 109.3C242.416 108.813 242.278 108.339 242.044 107.91C241.81 107.481 241.486 107.108 241.093 106.817L244.315 106.637C241.611 102.803 238.157 99.5557 234.161 97.091C230.164 94.6264 225.709 92.9957 221.063 92.2973C214.094 91.2893 206.333 92.748 201.554 97.9094C199.236 100.413 197.78 103.597 196.743 106.845C194.835 112.827 194.446 119.958 198.425 124.82C202.47 129.762 209.534 130.731 215.898 131.342C218.138 131.557 220.484 131.758 222.56 130.891C222.791 128.515 222.486 126.119 221.668 123.876C221.327 123.182 221.164 122.414 221.194 121.642C221.477 119.753 224.003 119.277 225.9 119.532C227.797 119.787 230.078 120.178 231.325 118.728C232.184 117.729 232.133 116.275 232.247 114.964C232.557 111.395 239.325 110.814 239.358 110.066Z" fill="#2F2E41"/>
<path d="M361.404 423.712C374.209 423.712 384.589 413.353 384.589 400.576C384.589 387.798 374.209 377.44 361.404 377.44C348.6 377.44 338.219 387.798 338.219 400.576C338.219 413.353 348.6 423.712 361.404 423.712Z" fill="#60A3D9"/>
<path d="M89.116 415.641C101.921 415.641 112.301 405.283 112.301 392.505C112.301 379.727 101.921 369.369 89.116 369.369C76.3113 369.369 65.931 379.727 65.931 392.505C65.931 405.283 76.3113 415.641 89.116 415.641Z" fill="#60A3D9"/>
<path d="M89.116 378.516C98.3473 378.516 105.831 371.048 105.831 361.836C105.831 352.625 98.3473 345.157 89.116 345.157C79.8847 345.157 72.4012 352.625 72.4012 361.836C72.4012 371.048 79.8847 378.516 89.116 378.516Z" fill="#60A3D9"/>
<path d="M89.116 347.847C95.6672 347.847 100.978 342.548 100.978 336.01C100.978 329.473 95.6672 324.173 89.116 324.173C82.5647 324.173 77.2539 329.473 77.2539 336.01C77.2539 342.548 82.5647 347.847 89.116 347.847Z" fill="#60A3D9"/>
</svg>
