<svg width="550" height="450" viewBox="0 0 550 450" fill="none" xmlns="http://www.w3.org/2000/svg">
<path opacity="0.1" d="M38.7981 347.15C53.8951 347.15 66.1336 342.8 66.1336 337.435C66.1336 332.069 53.8951 327.72 38.7981 327.72C23.7012 327.72 11.4626 332.069 11.4626 337.435C11.4626 342.8 23.7012 347.15 38.7981 347.15Z" fill="black"/>
<path opacity="0.1" d="M480.406 387.314C495.503 387.314 507.742 382.965 507.742 377.6C507.742 372.234 495.503 367.885 480.406 367.885C465.309 367.885 453.071 372.234 453.071 377.6C453.071 382.965 465.309 387.314 480.406 387.314Z" fill="black"/>
<path opacity="0.1" d="M323.707 36.1902C282.108 52.2501 237.017 52.9969 195.133 37.8782C135.772 16.457 58.2489 10.9742 29.5223 109.136C-19.5054 276.845 80.7976 336.706 80.7976 336.706C80.7976 336.706 150.825 352.396 189.599 380.745C244.677 421.013 312.129 434.474 375.669 415.591C416.301 403.514 451.127 383.702 461.083 351.284C488.929 260.621 471.252 206.127 521.646 182.222C572.041 158.318 544.001 69.761 508.161 67.7513C472.321 65.7415 387.885 86.2823 361.764 45.4254C352.452 30.9199 338.207 30.586 323.707 36.1902Z" fill="black"/>
<path d="M479.301 378.978C479.301 378.978 486.59 354.181 477.928 335.929C474.239 328.297 473.126 319.675 474.757 311.357C475.562 307.413 476.727 303.551 478.238 299.82" stroke="#535461" stroke-width="2" stroke-miterlimit="10"/>
<path d="M472.843 288.29C472.843 291.326 478.347 300.142 478.347 300.142C478.347 300.142 483.85 291.332 483.85 288.29C483.85 286.83 483.27 285.43 482.237 284.398C481.205 283.366 479.804 282.786 478.344 282.786C476.883 282.786 475.483 283.366 474.45 284.398C473.417 285.43 472.837 286.83 472.837 288.29H472.843Z" fill="#60A3D9"/>
<path d="M463.744 305.127C465.396 307.677 474.812 312.085 474.812 312.085C474.812 312.085 474.642 301.696 472.989 299.146C472.596 298.54 472.088 298.017 471.493 297.607C470.898 297.197 470.228 296.908 469.521 296.757C468.814 296.606 468.084 296.595 467.373 296.726C466.663 296.857 465.984 297.126 465.378 297.519C464.771 297.912 464.248 298.42 463.838 299.015C463.428 299.61 463.139 300.28 462.987 300.986C462.836 301.692 462.826 302.422 462.957 303.132C463.087 303.843 463.357 304.521 463.75 305.127H463.744Z" fill="#60A3D9"/>
<path d="M464.139 333.889C466.854 335.255 477.205 334.314 477.205 334.314C477.205 334.314 471.811 325.431 469.095 324.065C467.792 323.408 466.281 323.295 464.895 323.752C463.508 324.208 462.36 325.197 461.703 326.5C461.045 327.802 460.933 329.313 461.389 330.699C461.846 332.084 462.835 333.232 464.139 333.889Z" fill="#60A3D9"/>
<path d="M469.344 355.589C471.774 357.411 482.149 358.212 482.149 358.212C482.149 358.212 478.335 348.546 475.893 346.743C474.719 345.875 473.248 345.508 471.804 345.724C470.361 345.94 469.061 346.72 468.193 347.893C467.325 349.067 466.958 350.536 467.174 351.98C467.39 353.423 468.171 354.721 469.344 355.589Z" fill="#60A3D9"/>
<path d="M486.365 312.674C484.184 314.793 474.022 316.985 474.022 316.985C474.022 316.985 476.512 306.9 478.693 304.781C479.74 303.764 481.149 303.204 482.609 303.226C484.068 303.247 485.46 303.846 486.478 304.893C487.495 305.94 488.055 307.348 488.034 308.807C488.013 310.266 487.412 311.657 486.365 312.674Z" fill="#60A3D9"/>
<path d="M492.13 338.121C489.415 339.487 479.063 338.546 479.063 338.546C479.063 338.546 484.458 329.663 487.173 328.327C488.476 327.67 489.987 327.558 491.374 328.014C492.76 328.471 493.908 329.459 494.566 330.762C495.223 332.065 495.336 333.575 494.879 334.961C494.422 336.347 493.433 337.494 492.13 338.151V338.121Z" fill="#60A3D9"/>
<path d="M494.335 363.628C491.905 365.45 481.53 366.251 481.53 366.251C481.53 366.251 485.345 356.585 487.787 354.782C488.96 353.914 490.431 353.547 491.875 353.763C493.319 353.979 494.618 354.759 495.486 355.932C496.355 357.106 496.721 358.575 496.505 360.019C496.29 361.462 495.509 362.76 494.335 363.628Z" fill="#60A3D9"/>
<path d="M38.8103 337.508C38.8103 337.508 54.4158 284.61 35.8945 245.63C28.1191 229.278 25.5678 210.93 29.1335 193.188C30.8525 184.773 33.3393 176.534 36.5627 168.573" stroke="#535461" stroke-width="2" stroke-miterlimit="10"/>
<path d="M25.0394 143.952C25.0394 150.437 36.7876 169.247 36.7876 169.247C36.7876 169.247 48.5297 150.424 48.5297 143.952C48.5297 140.838 47.2919 137.851 45.0887 135.649C42.8855 133.446 39.8973 132.209 36.7815 132.209C33.6657 132.209 30.6775 133.446 28.4743 135.649C26.2711 137.851 25.0333 140.838 25.0333 143.952H25.0394Z" fill="#60A3D9"/>
<path d="M5.61891 179.879C9.14823 185.343 29.2368 194.73 29.2368 194.73C29.2368 194.73 28.8723 172.556 25.343 167.116C23.6165 164.581 20.9667 162.822 17.9599 162.215C14.9532 161.607 11.828 162.199 9.25219 163.865C6.67639 165.53 4.85433 168.136 4.17542 171.126C3.4965 174.116 4.01457 177.253 5.61891 179.866V179.879Z" fill="#60A3D9"/>
<path d="M6.46329 241.276C12.2584 244.197 34.3516 242.181 34.3516 242.181C34.3516 242.181 22.8099 223.225 17.0452 220.323C15.6675 219.628 14.1665 219.212 12.6278 219.097C11.0891 218.982 9.54286 219.172 8.0774 219.654C6.61193 220.137 5.25592 220.903 4.08678 221.91C2.91765 222.916 1.95829 224.143 1.26347 225.52C0.568655 226.897 0.151996 228.397 0.0372799 229.935C-0.0774363 231.473 0.112039 233.019 0.594886 234.484C1.57004 237.442 3.68097 239.892 6.46329 241.295V241.276Z" fill="#60A3D9"/>
<path d="M17.5494 287.586C22.7674 291.441 44.8849 293.184 44.8849 293.184C44.8849 293.184 36.745 272.54 31.5209 268.702C29.0156 266.851 25.877 266.069 22.7955 266.531C19.714 266.992 16.9419 268.657 15.0892 271.162C13.2365 273.666 12.4548 276.803 12.9162 279.883C13.3776 282.963 15.0442 285.734 17.5494 287.586Z" fill="#60A3D9"/>
<path d="M53.9055 195.963C49.2524 200.48 27.5663 205.161 27.5663 205.161C27.5663 205.161 32.8754 183.631 37.5285 179.114C39.7639 176.94 42.7717 175.742 45.8903 175.785C49.0088 175.828 51.9827 177.107 54.1576 179.341C56.3326 181.576 57.5305 184.582 57.4877 187.699C57.445 190.816 56.1652 193.789 53.9298 195.963H53.9055Z" fill="#60A3D9"/>
<path d="M66.2066 250.311C60.4115 253.232 38.3184 251.216 38.3184 251.216C38.3184 251.216 49.86 232.26 55.6248 229.357C57.0024 228.663 58.5035 228.246 60.0422 228.132C61.5808 228.017 63.1271 228.206 64.5925 228.689C66.058 229.172 67.414 229.938 68.5831 230.945C69.7523 231.951 70.7116 233.178 71.4065 234.555C72.1013 235.932 72.5179 237.432 72.6326 238.97C72.7474 240.508 72.5579 242.054 72.075 243.518C71.5922 244.983 70.8254 246.339 69.8185 247.507C68.8116 248.676 67.5843 249.635 66.2066 250.329V250.311Z" fill="#60A3D9"/>
<path d="M70.9144 304.75C65.6963 308.606 43.5789 310.349 43.5789 310.349C43.5789 310.349 51.7188 289.705 56.9429 285.867C59.4481 284.015 62.5867 283.234 65.6682 283.695C68.7498 284.156 71.5218 285.822 73.3745 288.326C75.2273 290.83 76.0089 293.968 75.5476 297.048C75.0862 300.128 73.4196 302.899 70.9144 304.75Z" fill="#60A3D9"/>
<path d="M230.317 207.025L196.463 202.642C195.09 202.466 194.033 201.943 194.07 201.488C194.131 201.033 195.285 200.82 196.688 201.021L230.469 205.908C231.398 206.042 232.103 206.394 232.06 206.704C232.018 206.995 231.24 207.147 230.317 207.025Z" fill="#60A3D9"/>
<path d="M230.529 207.602L196.573 204.093C195.194 203.953 194.021 204.208 193.979 204.664C193.936 205.119 195.036 205.599 196.409 205.72L230.426 208.756C231.362 208.841 232.127 208.659 232.157 208.349C232.182 208.021 231.459 207.699 230.529 207.602Z" fill="#60A3D9"/>
<path d="M281.471 233.134L315.318 228.75C316.691 228.574 317.748 228.052 317.711 227.597C317.651 227.141 316.496 226.929 315.093 227.129L281.313 232.017C280.383 232.15 279.679 232.503 279.721 232.812C279.764 233.104 280.541 233.256 281.471 233.134Z" fill="#60A3D9"/>
<path d="M281.252 233.711L315.209 230.201C316.588 230.062 317.76 230.317 317.802 230.772C317.845 231.228 316.746 231.707 315.373 231.829L281.355 234.865C280.42 234.95 279.654 234.767 279.624 234.458C279.6 234.13 280.322 233.808 281.252 233.711Z" fill="#60A3D9"/>
<path d="M169.498 269.474H161.243V387.788H169.498V269.474Z" fill="#40414D"/>
<path d="M349.803 269.474H341.548V387.788H349.803V269.474Z" fill="#40414D"/>
<path d="M158.09 259.844H348.831C352.376 259.844 355.775 261.251 358.281 263.756C360.787 266.261 362.195 269.659 362.195 273.202V274.975H144.726V273.202C144.726 269.659 146.134 266.261 148.641 263.756C151.147 261.251 154.546 259.844 158.09 259.844Z" fill="#DFE6F5"/>
<path opacity="0.1" d="M157.483 259.844H348.224C351.768 259.844 355.167 261.251 357.674 263.756C360.18 266.261 361.588 269.659 361.588 273.202V274.975H144.119V273.202C144.119 269.659 145.527 266.261 148.033 263.756C150.539 261.251 153.939 259.844 157.483 259.844Z" fill="black"/>
<path d="M158.09 257.087H348.831C352.376 257.087 355.775 258.495 358.281 261C360.787 263.505 362.195 266.902 362.195 270.445V272.218H144.726V270.445C144.726 266.902 146.134 263.505 148.641 261C151.147 258.495 154.546 257.087 158.09 257.087Z" fill="#DFE6F5"/>
<path d="M253.461 247.457C262.583 247.457 269.978 240.066 269.978 230.948C269.978 221.83 262.583 214.439 253.461 214.439C244.339 214.439 236.944 221.83 236.944 230.948C236.944 240.066 244.339 247.457 253.461 247.457Z" fill="#FFD77C" stroke="#FFAB50" stroke-miterlimit="10"/>
<path d="M253.461 244.033C260.691 244.033 266.551 238.175 266.551 230.948C266.551 223.722 260.691 217.864 253.461 217.864C246.231 217.864 240.37 223.722 240.37 230.948C240.37 238.175 246.231 244.033 253.461 244.033Z" fill="#FFD77C" stroke="#FFAB50" stroke-miterlimit="10"/>
<path d="M253.461 240.918C258.969 240.918 263.435 236.454 263.435 230.948C263.435 225.442 258.969 220.978 253.461 220.978C247.952 220.978 243.486 225.442 243.486 230.948C243.486 236.454 247.952 240.918 253.461 240.918Z" fill="#FFD77C" stroke="#FFAB50" stroke-miterlimit="10"/>
<path d="M253.461 236.552C256.557 236.552 259.068 234.043 259.068 230.948C259.068 227.853 256.557 225.344 253.461 225.344C250.364 225.344 247.854 227.853 247.854 230.948C247.854 234.043 250.364 236.552 253.461 236.552Z" fill="#FFD77C" stroke="#FFAB50" stroke-miterlimit="10"/>
<path d="M243.827 256.401C252.948 256.401 260.343 249.01 260.343 239.892C260.343 230.774 252.948 223.383 243.827 223.383C234.705 223.383 227.31 230.774 227.31 239.892C227.31 249.01 234.705 256.401 243.827 256.401Z" fill="#FFD77C" stroke="#FFAB50" stroke-miterlimit="10"/>
<path d="M243.827 252.977C251.056 252.977 256.917 247.118 256.917 239.892C256.917 232.665 251.056 226.807 243.827 226.807C236.597 226.807 230.736 232.665 230.736 239.892C230.736 247.118 236.597 252.977 243.827 252.977Z" fill="#FFD77C" stroke="#FFAB50" stroke-miterlimit="10"/>
<path d="M243.826 249.862C249.335 249.862 253.801 245.398 253.801 239.892C253.801 234.386 249.335 229.922 243.826 229.922C238.318 229.922 233.852 234.386 233.852 239.892C233.852 245.398 238.318 249.862 243.826 249.862Z" fill="#FFD77C" stroke="#FFAB50" stroke-miterlimit="10"/>
<path d="M243.827 245.496C246.923 245.496 249.433 242.987 249.433 239.892C249.433 236.797 246.923 234.288 243.827 234.288C240.73 234.288 238.22 236.797 238.22 239.892C238.22 242.987 240.73 245.496 243.827 245.496Z" fill="#FFD77C" stroke="#FFAB50" stroke-miterlimit="10"/>
<path d="M263.095 256.401C272.217 256.401 279.612 249.01 279.612 239.892C279.612 230.774 272.217 223.383 263.095 223.383C253.973 223.383 246.578 230.774 246.578 239.892C246.578 249.01 253.973 256.401 263.095 256.401Z" fill="#FFD77C" stroke="#FFAB50" stroke-miterlimit="10"/>
<path d="M263.095 252.977C270.325 252.977 276.186 247.118 276.186 239.892C276.186 232.665 270.325 226.807 263.095 226.807C255.865 226.807 250.004 232.665 250.004 239.892C250.004 247.118 255.865 252.977 263.095 252.977Z" fill="#FFD77C" stroke="#FFAB50" stroke-miterlimit="10"/>
<path d="M263.095 249.862C268.604 249.862 273.069 245.398 273.069 239.892C273.069 234.386 268.604 229.922 263.095 229.922C257.586 229.922 253.121 234.386 253.121 239.892C253.121 245.398 257.586 249.862 263.095 249.862Z" fill="#FFD77C" stroke="#FFAB50" stroke-miterlimit="10"/>
<path d="M263.095 245.496C266.192 245.496 268.702 242.987 268.702 239.892C268.702 236.797 266.192 234.288 263.095 234.288C259.999 234.288 257.488 236.797 257.488 239.892C257.488 242.987 259.999 245.496 263.095 245.496Z" fill="#FFD77C" stroke="#FFAB50" stroke-miterlimit="10"/>
<path d="M219.048 235.083H287.867V238.313C287.867 241.503 287.238 244.661 286.017 247.608C284.796 250.554 283.006 253.232 280.75 255.487C278.494 257.742 275.815 259.531 272.867 260.752C269.919 261.972 266.76 262.6 263.569 262.6H243.347C240.156 262.6 236.996 261.972 234.048 260.752C231.1 259.531 228.421 257.742 226.165 255.487C223.909 253.232 222.119 250.554 220.898 247.608C219.677 244.661 219.048 241.503 219.048 238.313V235.083Z" fill="#60A3D9"/>
<path opacity="0.1" d="M281.659 235.077C281.48 242.252 278.503 249.073 273.363 254.084C268.223 259.096 261.327 261.901 254.147 261.902H240.485C242.478 262.357 244.516 262.589 246.56 262.594H260.325C263.941 262.596 267.522 261.885 270.864 260.503C274.205 259.121 277.242 257.094 279.799 254.539C282.357 251.984 284.386 248.95 285.77 245.61C287.154 242.271 287.867 238.692 287.867 235.077H281.659Z" fill="black"/>
<path d="M345.678 367.836V359.585H166.746V367.836H345.678Z" fill="#40414D"/>
<path d="M99.6592 330.768H92.4365V396.452H99.6592V330.768Z" fill="#40414D"/>
<path d="M156.705 330.768H149.483V396.452H156.705V330.768Z" fill="#40414D"/>
<path d="M162.488 319.942C162.488 324.326 147.618 327.884 129.273 327.884C110.927 327.884 96.7798 324.332 96.7798 319.942C96.7798 315.552 110.927 312 129.273 312C147.618 312 162.488 315.576 162.488 319.942Z" fill="#F6C6CD"/>
<path d="M86.6597 319.936H162.482V326.554C162.482 328.245 161.81 329.867 160.614 331.062C159.418 332.258 157.796 332.93 156.104 332.93H97.5939C94.6939 332.93 91.9128 331.778 89.8622 329.729C87.8117 327.679 86.6597 324.899 86.6597 322V319.936Z" fill="#40414D"/>
<path d="M73.7835 243.991L75.3478 243.638C76.4479 243.39 77.6015 243.588 78.555 244.19C79.5084 244.792 80.1836 245.748 80.4319 246.848L99.3687 330.702L96.9985 331.237C95.009 331.686 92.9225 331.326 91.1981 330.238C89.4737 329.149 88.2527 327.42 87.8036 325.431L70.5601 249.075C70.4369 248.53 70.4226 247.965 70.518 247.414C70.6134 246.863 70.8167 246.337 71.1161 245.864C71.4156 245.392 71.8053 244.983 72.263 244.662C72.7207 244.34 73.2374 244.112 73.7835 243.991Z" fill="#40414D"/>
<path d="M408.471 397.618H415.694V331.934H408.471V397.618Z" fill="#40414D"/>
<path d="M351.425 397.618H358.648V331.934H351.425V397.618Z" fill="#40414D"/>
<path d="M345.654 321.108C345.654 325.492 360.525 329.05 378.87 329.05C397.215 329.05 411.363 325.498 411.363 321.108C411.363 316.718 397.209 313.148 378.87 313.148C360.531 313.148 345.654 316.724 345.654 321.108Z" fill="#F6C6CD"/>
<path d="M410.537 334.101H352.026C350.335 334.101 348.712 333.43 347.516 332.234C346.32 331.039 345.648 329.417 345.648 327.726V321.108H421.471V323.172C421.471 326.071 420.319 328.851 418.268 330.9C416.218 332.95 413.436 334.101 410.537 334.101Z" fill="#40414D"/>
<path d="M411.143 332.402L408.772 331.867L427.712 248.001C427.96 246.902 428.635 245.946 429.589 245.344C430.542 244.742 431.696 244.543 432.796 244.791L434.36 245.144C435.46 245.392 436.417 246.067 437.019 247.02C437.621 247.973 437.82 249.126 437.572 250.226L420.326 326.594C419.877 328.58 418.658 330.308 416.936 331.397C415.215 332.486 413.131 332.847 411.143 332.402Z" fill="#40414D"/>
<path d="M413.714 295.54L415.846 294.866C415.846 294.866 412.201 270.53 412.238 248.72C412.238 248.113 412.238 247.463 412.238 246.838C412.28 245.478 412.329 244.13 412.395 242.812C412.481 241.125 412.499 239.515 412.487 237.955C412.687 216.953 404.407 208.082 404.407 208.082C404.407 208.082 394.688 194.226 388.863 191.53C388.358 189.952 387.781 187.924 387.271 185.568C387.459 185.44 387.642 185.313 387.818 185.179C390.224 183.395 392.526 181.476 394.712 179.429C397.701 176.63 400.568 173.218 400.41 169.368C400.427 168.994 400.415 168.618 400.374 168.245C399.821 163.6 394.992 160.103 393.042 155.701C391.402 152.003 391.894 147.887 390.46 144.134C389.027 140.382 384.021 136.891 380.243 138.864C378.852 139.592 378.013 140.88 376.853 141.857C373.974 144.286 369.333 144.511 365.397 143.406C361.46 142.3 360.294 137.795 354.79 137.783C355.279 137.947 355.746 138.169 356.182 138.445C355.722 138.367 355.257 138.327 354.79 138.323C355.91 138.678 356.903 139.348 357.649 140.254C358.395 141.161 358.862 142.264 358.994 143.43C358.986 143.576 358.969 143.722 358.945 143.867C356.746 145.051 353.855 144.377 351.219 144.335C348.582 144.292 345.581 145.622 345.843 147.777C345.798 148.022 345.798 148.273 345.843 148.518C346.189 150.151 348.376 151.384 348.643 152.896C348.643 152.938 348.643 152.975 348.643 153.017C343.764 155.454 338.486 156.992 333.062 157.559C332.886 157.559 332.965 157.771 333.22 158.081H333.062C332.072 158.184 338.997 163.655 339.786 164.013C342.678 165.325 346.134 166.29 349.196 167.298L349.463 167.383C348.432 169.778 347.9 172.359 347.902 174.967C347.902 184.317 354.626 192.174 363.732 194.396C365.433 196.382 367.219 198.561 368.847 200.729H368.732C368.732 200.729 358.265 214.646 358.599 235.429C358.57 238.034 358.708 240.638 359.012 243.225C352.282 242.843 337.818 241.07 326.817 233.019C311.977 222.168 295.424 225.423 298.874 231.932C302.325 238.441 319.995 243.863 322.844 244.409C323.112 244.458 323.731 244.604 324.618 244.822C321.107 245.484 318.702 246.644 318.847 248.204C319.133 251.185 334.259 260.682 343.389 261.222C349.421 261.58 356.68 263.438 362.408 265.072C362.961 277.549 359.942 281.289 359.942 281.289C359.942 281.289 360.841 281.842 362.329 282.625L361.691 284.447C357.986 286.584 353.418 288.812 349.263 289.711C343.968 290.798 338.821 292.51 333.93 294.811L313.38 304.738C311.545 305.589 309.957 306.894 308.767 308.529C307.576 310.164 306.823 312.076 306.577 314.083C306.127 318.291 307.397 323.549 314.273 327.72C314.698 331.138 316.788 335.128 322.273 338.783C332.904 345.85 360.841 367.023 364.643 369.913C364.716 375.08 364.036 385.444 357.658 387.059C349.664 389.087 356.097 396.774 362.56 396.471C364.094 397.051 365.763 397.173 367.365 396.823C374.217 395.196 399.329 386.501 401.042 373.495C401.113 372.931 401.146 372.363 401.139 371.795C401.239 369.578 400.686 367.38 399.548 365.474C399.816 366.062 400.033 366.671 400.198 367.296C398.12 362.56 393.06 359.585 389.124 357.909C389.124 357.866 389.124 357.818 389.124 357.775C388.516 357.538 387.909 357.344 387.411 357.168C387.421 356.816 387.394 356.464 387.332 356.118L347.951 328.995C347.951 328.995 365.075 314.89 382.77 317.064C400.465 319.238 403.284 316.026 403.284 316.026C403.284 316.026 412.359 307.398 413.27 297.464L413.841 297.313C413.841 297.313 413.799 296.687 413.714 295.54Z" fill="url(#paint0_linear)"/>
<path d="M365.621 366.185C365.621 366.185 367.231 383.896 359.176 386.045C351.121 388.195 358.642 396.78 365.081 395.153C371.52 393.526 395.156 384.952 396.765 372.08C398.375 359.208 380.656 354.903 380.656 354.903L365.621 366.185Z" fill="#B8616E"/>
<path opacity="0.05" d="M365.621 366.185C365.621 366.185 367.231 383.896 359.176 386.045C351.121 388.195 358.642 396.78 365.081 395.153C371.52 393.526 395.156 384.952 396.765 372.08C398.375 359.208 380.656 354.903 380.656 354.903L365.621 366.185Z" fill="black"/>
<path d="M368.859 366.719C368.859 366.719 370.469 384.43 362.414 386.58C354.359 388.729 361.879 397.315 368.318 395.687C374.757 394.06 398.394 385.487 400.003 372.615C401.613 359.742 383.894 355.438 383.894 355.438L368.859 366.719Z" fill="#B8616E"/>
<path opacity="0.1" d="M385.503 355.984L370.481 367.259C370.481 367.259 370.548 368.024 370.59 369.245C376.264 367.69 388.626 363.562 388.814 357.101C387.734 356.663 386.628 356.29 385.503 355.984Z" fill="black"/>
<path d="M376.106 201.658H369.661V206.491H376.106V201.658Z" fill="#F8BDC5"/>
<path d="M369.934 279.753C369.934 279.753 359.699 287.792 351.291 289.699C346.293 290.78 341.447 292.475 336.864 294.744L317.529 304.568C315.773 305.451 314.267 306.761 313.148 308.376C312.03 309.992 311.335 311.862 311.126 313.816C310.574 319.28 312.773 326.469 325.894 330.744L367.243 365.098L380.133 354.363L336.099 320.555L369.934 299.62V279.753Z" fill="#758AC8"/>
<path opacity="0.1" d="M369.934 279.753C369.934 279.753 359.699 287.792 351.291 289.699C346.293 290.78 341.447 292.475 336.864 294.744L317.529 304.568C315.773 305.451 314.267 306.761 313.148 308.376C312.03 309.992 311.335 311.862 311.126 313.816C310.574 319.28 312.773 326.469 325.894 330.744L367.243 365.098L380.133 354.363L336.099 320.555L369.934 299.62V279.753Z" fill="black"/>
<path d="M364.024 243.796C364.024 243.796 344.154 244.33 330.189 233.595C316.223 222.861 300.654 226.079 303.874 232.521C307.093 238.963 323.743 244.33 326.428 244.865C329.113 245.399 367.778 256.14 367.778 256.14L364.024 243.796Z" fill="#F8BDC5"/>
<path opacity="0.05" d="M364.024 243.796C364.024 243.796 344.154 244.33 330.189 233.595C316.223 222.861 300.654 226.079 303.874 232.521C307.093 238.963 323.743 244.33 326.428 244.865C329.113 245.399 367.778 256.14 367.778 256.14L364.024 243.796Z" fill="black"/>
<path d="M366.174 274.932L359.729 294.259C359.729 294.259 323.482 316.536 320.524 319.487C318.228 321.782 315.154 330.762 325.894 338.273C336.634 345.784 366.168 369.409 366.168 369.409C366.168 369.409 388.723 364.551 387.113 355.444L350.058 328.606C350.058 328.606 366.168 314.641 382.818 316.797C399.469 318.952 402.154 315.722 402.154 315.722C402.154 315.722 415.044 302.826 410.743 290.5C406.442 278.174 366.174 274.932 366.174 274.932Z" fill="#758AC8"/>
<path d="M358.119 187.462C358.119 187.462 376.379 207.323 375.304 213.225C374.229 219.126 389.804 196.048 389.804 196.048C389.804 196.048 384.945 184.238 386.044 171.354L358.119 187.462Z" fill="#F8BDC5"/>
<path opacity="0.1" d="M374.053 205.678C375.298 204.363 376.61 203.113 377.983 201.931C380.731 199.679 383.252 197.163 385.509 194.42C389.269 189.563 403.229 210.523 403.229 210.523C403.229 210.523 411.818 220.183 410.749 243.268C409.68 266.353 412.092 297.216 412.092 297.216L408.842 298.12C406.104 299.033 403.192 299.297 400.335 298.892C397.478 298.486 394.754 297.422 392.38 295.783C388.091 292.82 382.66 289.711 378.53 289.432C370.475 288.897 363.222 284.331 363.222 284.331C363.222 284.331 366.715 276.013 361.345 249.17C355.975 222.326 369.661 203.249 369.661 203.249C369.661 203.249 370.742 209.09 374.053 205.678Z" fill="black"/>
<path d="M413.969 294.793L410.749 295.868L408.836 296.505C406.098 297.419 403.186 297.683 400.329 297.277C397.472 296.872 394.748 295.807 392.374 294.167C388.091 291.21 382.654 288.096 378.524 287.816C370.481 287.276 361.369 281.374 361.369 281.374C361.369 281.374 366.739 274.398 361.369 247.554C355.999 220.711 369.691 201.658 369.691 201.658C369.691 201.658 370.772 207.469 374.083 204.05C375.326 202.737 376.636 201.489 378.007 200.31C380.755 198.058 383.276 195.542 385.534 192.799C389.294 187.942 403.253 208.902 403.253 208.902C403.253 208.902 411.842 218.562 410.773 241.647C410.658 244.075 410.609 246.577 410.603 249.109C410.524 270.712 413.969 294.793 413.969 294.793Z" fill="#5E52AD"/>
<path opacity="0.1" d="M383.359 242.187L383.894 253.997C383.894 253.997 355.428 255.606 349.524 249.704C343.619 243.802 365.621 267.063 370.481 268.49C375.043 269.832 386.822 271.016 392.999 271.137C394.764 271.194 396.507 270.737 398.017 269.822C399.527 268.907 400.738 267.573 401.504 265.982C402.224 264.417 402.457 262.672 402.172 260.973C401.097 253.997 402.172 238.963 402.172 238.963L383.359 242.187Z" fill="black"/>
<path d="M383.359 241.112L383.894 252.922C383.894 252.922 355.428 254.531 349.524 248.629C343.619 242.727 322.255 244.033 322.674 248.629C322.942 251.58 337.174 260.973 345.758 261.514C354.341 262.054 365.621 265.988 370.481 267.415C375.043 268.757 386.822 269.941 392.999 270.063C394.764 270.119 396.508 269.662 398.017 268.747C399.527 267.832 400.738 266.498 401.504 264.908C402.224 263.343 402.457 261.597 402.172 259.898C401.097 252.922 402.172 237.888 402.172 237.888L383.359 241.112Z" fill="#F8BDC5"/>
<path opacity="0.1" d="M389.804 206.758C389.804 206.758 377.455 208.367 379.064 226.619C380.674 244.871 382.825 246.48 382.825 246.48C382.825 246.48 401.085 244.871 403.229 244.33C405.373 243.79 404.304 223.935 404.304 223.935C404.304 223.935 403.764 206.224 389.804 206.758Z" fill="black"/>
<path d="M389.804 206.224C389.804 206.224 377.455 207.833 379.064 226.085C380.674 244.336 382.825 245.945 382.825 245.945C382.825 245.945 401.085 244.336 403.229 243.796C405.373 243.256 404.304 223.401 404.304 223.401C404.304 223.401 403.764 205.678 389.804 206.224Z" fill="#5E52AD"/>
<path opacity="0.1" d="M385.236 182.872C384.392 178.622 386.123 177.31 386.578 171.87L358.635 187.972C358.635 187.972 361.837 191.457 365.475 195.932C367.102 196.343 368.773 196.547 370.451 196.54C377.77 196.57 381.773 188.713 385.236 182.872Z" fill="black"/>
<path d="M369.928 196.023C380.902 196.023 389.798 187.131 389.798 176.163C389.798 165.194 380.902 156.302 369.928 156.302C358.954 156.302 350.058 165.194 350.058 176.163C350.058 187.131 358.954 196.023 369.928 196.023Z" fill="#F8BDC5"/>
<path opacity="0.1" d="M374.94 170.133C371.902 172.064 371.86 176.43 373.816 179.454C375.772 182.477 379.143 184.475 382.387 186.357C383.329 186.904 384.367 187.468 385.424 187.347C386.237 187.189 386.99 186.808 387.599 186.248C389.869 184.478 392.035 182.578 394.087 180.559C397.039 177.656 399.876 174.08 399.414 170.03C398.892 165.434 394.348 161.973 392.513 157.62C390.97 153.976 391.432 149.89 390.084 146.168C388.735 142.446 384.009 139.003 380.474 140.953C379.168 141.669 378.378 142.95 377.284 143.916C374.575 146.308 370.208 146.545 366.502 145.452C362.797 144.359 361.697 139.896 356.528 139.884C359.097 140.789 360.835 143.466 360.44 145.907C358.368 147.079 355.647 146.411 353.15 146.369C350.654 146.326 347.683 147.723 348.114 149.969C348.491 151.791 351.121 153.145 350.733 154.966C346.169 157.369 341.195 158.893 336.069 159.459C335.139 159.563 341.651 164.972 342.392 165.331C345.108 166.63 348.37 167.583 351.243 168.579C359.049 171.269 367.043 172.228 374.94 170.133Z" fill="black"/>
<path d="M374.94 169.593C371.902 171.524 371.86 175.889 373.816 178.913C375.772 181.937 379.143 183.935 382.387 185.817C383.329 186.363 384.367 186.928 385.424 186.807C386.237 186.648 386.99 186.268 387.599 185.707C389.869 183.937 392.035 182.038 394.087 180.018C397.039 177.116 399.876 173.54 399.414 169.49C398.892 164.893 394.348 161.433 392.513 157.079C390.97 153.436 391.432 149.35 390.084 145.628C388.735 141.906 384.009 138.463 380.474 140.412C379.168 141.129 378.378 142.41 377.284 143.375C374.575 145.767 370.208 146.004 366.502 144.911C362.797 143.818 361.697 139.356 356.528 139.344C359.097 140.248 360.835 142.926 360.44 145.367C358.368 146.539 355.647 145.871 353.15 145.828C350.654 145.786 347.683 147.182 348.114 149.429C348.491 151.25 351.121 152.604 350.733 154.426C346.169 156.829 341.195 158.353 336.069 158.919C335.139 159.022 341.651 164.432 342.392 164.79C345.108 166.09 348.37 167.043 351.243 168.039C359.049 170.735 367.043 171.676 374.94 169.593Z" fill="#916168"/>
<path opacity="0.1" d="M398.6 364.691C399.463 366.679 399.763 368.865 399.469 371.012C397.859 383.896 374.229 392.482 367.784 394.084C364.388 394.935 360.689 392.949 359.14 390.563C360.136 393.368 364.425 396.131 368.325 395.159C374.77 393.55 398.4 384.959 400.009 372.086C400.361 369.534 399.866 366.936 398.6 364.691Z" fill="white"/>
<path d="M227.936 379.33C227.456 378.249 224.965 376.142 212.956 375.687C204.731 375.377 201.93 371.036 201.171 366.798C203.874 366.446 205.988 365.96 206.681 365.286C206.681 365.286 206.644 365.092 206.584 364.746L206.681 364.673C206.155 361.616 205.881 358.521 205.861 355.419C205.845 352.765 206.126 350.118 206.699 347.526C207.033 345.813 207.174 344.067 207.118 342.323C207.185 332.001 203.558 313.858 203.558 313.858L203.06 298.782C203.01 296.901 202.454 295.068 201.45 293.476C200.447 291.884 199.032 290.592 197.356 289.735C196.163 289.118 194.842 288.789 193.499 288.776C193.499 288.776 174.461 285.776 157.325 284.143C156.11 283.165 151.828 280.53 142.011 282.042L136.362 265.515C136.316 265.315 136.284 265.112 136.264 264.908C136.465 262.807 137.868 259.643 144.41 259.443L145.777 260.657C145.777 260.657 146.02 260.178 146.427 259.443C154.543 259.352 198.753 258.903 201.031 259.443C203.54 260.05 225.518 255.156 226.15 254.549C234.691 246.225 201.031 250.263 201.031 250.263C197.721 250.803 187.023 250.159 176.065 249.267C181.49 241.137 186.592 213.54 186.592 213.54C186.592 213.54 206.031 203.747 200.406 198.24C194.781 192.733 177.802 210.48 177.802 210.48C177.802 210.48 170.896 230.681 167.755 236.801C166.54 239.23 164.967 239.728 163.564 239.449C164.201 238.939 164.614 238.635 164.614 238.635C164.614 238.635 150.801 227.615 149.543 223.334C149.309 222.633 149 221.959 148.62 221.324C147.958 217.445 146.798 213.625 143.967 211.081C143.492 210.571 142.967 210.11 142.4 209.703C141.634 209.157 140.766 208.683 140.043 208.088C140.45 206.218 140.924 204.275 141.416 202.393C151.67 201.178 159.639 192.678 159.639 182.356C159.638 180.799 159.452 179.248 159.087 177.735C160.619 177.836 162.152 177.539 163.535 176.873C164.919 176.207 166.107 175.195 166.984 173.934C169.055 170.85 168.988 166.648 167.251 163.394C166.533 162.072 165.591 160.885 164.469 159.884C162.679 158.082 160.496 156.719 158.09 155.901C156.007 155.179 153.705 154.748 152.052 153.333C151.314 152.368 150.642 151.353 150.042 150.297C149.348 149.26 148.532 148.31 147.612 147.468C144.574 144.341 140.286 142.416 135.918 141.566C130.597 140.528 125.099 140.898 119.687 141.268C117.664 141.408 115.289 141.766 114.378 143.527C113.691 144.851 114.141 146.435 114.05 147.911C113.764 152.604 108.394 155.197 103.723 156.332C99.0518 157.468 93.4814 158.451 91.2278 162.568C89.1806 166.284 90.6203 170.789 91.2763 174.96C92.369 182.285 90.742 189.755 86.7022 195.963C84.649 199.102 82.0005 201.895 80.3786 205.265C78.5818 209.021 78.1646 213.29 79.2001 217.323C79.5039 218.501 79.9412 219.703 79.7225 220.906C79.474 221.897 78.9859 222.812 78.3011 223.571C75.5078 227.019 72.0315 229.852 68.0905 231.892C64.1494 233.933 59.8288 235.137 55.4 235.429C55.772 236.662 56.4987 237.758 57.4897 238.58C58.7486 239.825 60.2167 240.838 61.8269 241.574C66.0689 243.7 70.5295 245.359 75.1302 246.522C78.2282 247.306 81.4659 247.864 84.6186 247.33C87.7713 246.796 90.8451 244.992 92.1389 242.138C92.8922 240.487 93.0015 238.617 93.6697 236.935C95 233.571 98.2985 231.391 100.528 228.507C99.7772 235.939 99.4223 243.406 99.4648 250.876C99.4648 253.213 99.4648 255.32 99.4648 257.275C99.4648 265.709 98.8574 271.526 93.6272 282.06C93.0039 283.168 92.7307 284.438 92.8436 285.703C92.7299 286.387 92.7961 287.089 93.0357 287.739C93.2753 288.39 93.6802 288.967 94.2104 289.413C93.8458 291.514 93.669 293.644 93.6819 295.776C93.609 303.451 96.2028 313.755 109.956 316.366L134.442 315.151C134.442 315.151 168.976 308.418 178.392 313.33C179.169 313.495 179.866 313.922 180.366 314.538C180.867 315.155 181.141 315.924 181.143 316.718C181.114 317.229 181.035 317.735 180.906 318.23C180.644 319.821 180.544 321.434 180.609 323.045C180.566 333.367 182.789 356.792 182.789 356.792V366.725C181.222 369.081 179.291 372.566 179.54 375.134C179.54 375.189 179.54 375.25 179.54 375.304C179.54 375.359 179.54 375.456 179.576 375.529C179.613 375.602 179.576 375.663 179.619 375.729C179.661 375.796 179.655 375.857 179.673 375.924C179.691 375.991 179.722 376.069 179.752 376.136C179.783 376.203 179.795 376.246 179.819 376.3C179.843 376.355 179.898 376.458 179.941 376.531L180.013 376.658C180.087 376.775 180.168 376.887 180.256 376.992C183.397 380.635 199.088 387.685 204.117 387.399C209.457 387.096 227.346 388.007 227.978 380.053C228.058 379.815 228.043 379.556 227.936 379.33Z" fill="url(#paint1_linear)"/>
<path d="M183.3 363.956C183.3 363.956 176.01 373.064 179.047 376.707C182.085 380.35 197.271 387.314 202.131 387.029C207.294 386.725 224.607 387.636 225.214 379.743C225.214 379.743 226.429 376.1 210.635 375.493C194.841 374.885 199.701 358.492 199.701 358.492L183.3 363.956Z" fill="#594C76"/>
<path opacity="0.1" d="M96.4334 287.452C96.4334 287.452 89.1439 312.346 111.012 316.597L134.703 315.382C134.703 315.382 168.113 308.703 177.225 313.561C177.225 313.561 180.87 314.168 179.655 319.025C178.44 323.883 181.477 356.67 181.477 356.67V367.599C181.477 367.599 202.131 367.599 204.56 365.171C204.56 365.171 202.738 355.456 204.56 347.563C206.383 339.669 201.523 314.775 201.523 314.775L201.043 299.79C201.008 297.938 200.479 296.13 199.512 294.55C198.544 292.971 197.173 291.678 195.54 290.804C194.39 290.195 193.111 289.87 191.81 289.856C191.81 289.856 150.503 283.178 135.924 284.392C121.345 285.606 96.4334 287.452 96.4334 287.452Z" fill="black"/>
<path d="M96.4334 286.845C96.4334 286.845 89.1439 311.739 111.012 315.989L134.703 314.775C134.703 314.775 168.113 308.096 177.225 312.954C177.225 312.954 180.87 313.561 179.655 318.418C178.44 323.276 181.477 356.063 181.477 356.063V366.992C181.477 366.992 202.131 366.992 204.56 364.564C204.56 364.564 202.738 354.849 204.56 346.955C206.383 339.062 201.523 314.168 201.523 314.168L201.043 299.183C201.008 297.331 200.479 295.523 199.512 293.943C198.544 292.364 197.173 291.07 195.54 290.197C194.39 289.587 193.111 289.263 191.81 289.249C191.81 289.249 150.503 282.57 135.924 283.785C121.345 284.999 96.4334 286.845 96.4334 286.845Z" fill="#8B9CD1"/>
<path d="M159.001 237.664C159.001 237.664 163.861 243.735 166.898 237.664C169.936 231.592 176.618 211.555 176.618 211.555C176.618 211.555 193.019 193.947 198.486 199.411C203.953 204.876 185.122 214.591 185.122 214.591C185.122 214.591 178.44 251.629 172.366 252.236C166.291 252.843 157.179 252.236 157.179 252.236L154.142 245.557L159.001 237.664Z" fill="#F8BDC5"/>
<path opacity="0.05" d="M159.001 237.664C159.001 237.664 163.861 243.735 166.898 237.664C169.936 231.592 176.618 211.555 176.618 211.555C176.618 211.555 193.019 193.947 198.486 199.411C203.953 204.876 185.122 214.591 185.122 214.591C185.122 214.591 178.44 251.629 172.366 252.236C166.291 252.843 157.179 252.236 157.179 252.236L154.142 245.557L159.001 237.664Z" fill="black"/>
<path d="M137.133 207.305C137.133 207.305 148.067 220.055 149.282 224.306C150.497 228.556 163.861 239.485 163.861 239.485C163.861 239.485 154.142 246.771 155.964 250.414C157.786 254.057 143.207 238.271 143.207 238.271L126.199 213.377L137.133 207.305Z" fill="#EB6475"/>
<path opacity="0.1" d="M137.133 207.305C137.133 207.305 148.067 220.055 149.282 224.306C150.497 228.556 163.861 239.485 163.861 239.485C163.861 239.485 154.142 246.771 155.964 250.414C157.786 254.057 143.207 238.271 143.207 238.271L126.199 213.377L137.133 207.305Z" fill="black"/>
<path d="M144.423 192.733C144.423 192.733 138.955 210.341 138.955 217.02C138.955 223.699 115.872 215.198 116.48 211.555C117.087 207.912 129.844 194.554 130.451 189.089C131.058 183.625 144.423 192.733 144.423 192.733Z" fill="#F8BDC5"/>
<path opacity="0.1" d="M126.199 204.876C126.199 204.876 104.938 199.411 101.9 230.377C98.8632 261.343 104.33 264.986 95.2184 283.809C86.1066 302.631 157.179 286.238 157.179 286.238C157.179 286.238 153.534 281.987 141.993 283.809L136.525 267.415C136.525 267.415 134.703 260.129 145.03 260.129C155.357 260.129 150.497 238.878 150.497 238.878C150.497 238.878 145.03 220.663 141.993 218.841C138.955 217.02 133.488 206.09 126.199 204.876Z" fill="black"/>
<path d="M126.199 203.662C126.199 203.662 104.938 198.197 101.9 229.163C98.8632 260.129 104.33 263.772 95.2184 282.595C86.1066 301.417 157.179 285.023 157.179 285.023C157.179 285.023 153.534 280.773 141.993 282.595L136.525 266.201C136.525 266.201 134.703 258.915 145.03 258.915C155.357 258.915 150.497 237.664 150.497 237.664C150.497 237.664 145.03 219.448 141.993 217.627C138.955 215.805 133.488 204.876 126.199 203.662Z" fill="#EB6475"/>
<path d="M147.46 247.378C147.46 247.378 191.804 252.236 199.093 251.021C199.093 251.021 231.653 247.014 223.392 255.272C222.784 255.879 201.523 260.736 199.093 260.129C196.664 259.522 145.03 260.129 145.03 260.129L144.422 254.057L147.46 247.378Z" fill="#F8BDC5"/>
<path opacity="0.1" d="M113.442 232.199L145.638 261.343C145.638 261.343 151.712 249.2 153.534 249.2C155.357 249.2 131.666 213.376 131.666 213.376C131.666 213.376 125.591 206.09 121.947 209.733C118.302 213.376 107.368 210.948 113.442 232.199Z" fill="black"/>
<path d="M112.835 230.985L145.03 260.129C145.03 260.129 151.105 247.986 152.927 247.986C154.749 247.986 131.059 212.162 131.059 212.162C131.059 212.162 124.984 204.876 121.339 208.519C117.695 212.162 106.76 209.733 112.835 230.985Z" fill="#EB6475"/>
<path d="M138.955 203.662C150.027 203.662 159.001 194.691 159.001 183.625C159.001 172.559 150.027 163.588 138.955 163.588C127.884 163.588 118.909 172.559 118.909 183.625C118.909 194.691 127.884 203.662 138.955 203.662Z" fill="#F8BDC5"/>
<path opacity="0.1" d="M156.511 178.591C159.913 179.933 164.08 178.324 166.084 175.27C168.089 172.216 168.028 168.057 166.339 164.815C164.651 161.572 161.528 159.216 158.084 157.99C155.994 157.249 153.668 156.824 152.064 155.294C151.05 154.329 150.448 153.023 149.689 151.845C146.852 147.425 141.792 144.814 136.647 143.788C131.502 142.762 126.181 143.126 120.944 143.491C118.988 143.63 116.692 143.982 115.805 145.731C115.143 147.042 115.574 148.615 115.489 150.078C115.216 154.735 110.022 157.316 105.485 158.433C100.947 159.55 95.6863 160.601 93.4752 164.705C91.4949 168.391 92.9103 172.86 93.5238 177.001C94.573 184.234 93.0048 191.604 89.1015 197.784C87.1151 200.899 84.5577 203.668 82.9844 207.013C81.244 210.752 80.8409 214.975 81.8424 218.975C82.1401 220.147 82.5592 221.337 82.3527 222.527C82.1146 223.505 81.6436 224.411 80.9798 225.168C78.3176 228.573 74.9703 231.381 71.1543 233.413C67.3382 235.444 63.1383 236.652 58.8259 236.959C59.5184 239.564 62.0394 241.209 64.4388 242.424C68.5332 244.529 72.8481 246.174 77.3047 247.33C80.2995 248.107 83.434 248.66 86.4834 248.131C89.5328 247.603 92.5033 245.812 93.7728 242.982C94.5018 241.343 94.6111 239.491 95.255 237.815C96.7069 234.057 100.576 231.786 102.654 228.331C104.64 225.028 105.412 224.64 105.916 220.827C106.42 217.014 107.532 212.897 110.666 210.656C113.946 208.307 118.563 208.756 122.208 210.559C125.853 212.363 128.106 211.658 131.15 214.305C136.488 218.941 142.464 222.789 148.893 225.733C148.286 220.438 147.308 214.53 143.007 211.379C141.792 210.474 140.255 209.782 139.611 208.398C138.585 206.194 140.34 203.504 139.545 201.203C138.749 198.901 135.724 198.051 134.381 195.963C133.239 194.19 133.549 191.779 134.618 189.958C135.687 188.136 137.376 186.788 139.059 185.513C140.553 184.384 142.068 183.281 143.602 182.204C144.989 181.324 146.235 180.239 147.296 178.986C147.903 178.154 148.304 176.333 149.148 175.744C151.275 174.274 154.543 177.82 156.511 178.591Z" fill="black"/>
<path d="M155.903 177.984C159.305 179.326 163.472 177.717 165.477 174.663C167.481 171.609 167.421 167.45 165.732 164.207C164.043 160.965 160.921 158.609 157.477 157.383C155.387 156.642 153.061 156.217 151.457 154.687C150.442 153.721 149.841 152.416 149.082 151.238C146.245 146.818 141.185 144.207 136.04 143.181C130.894 142.155 125.573 142.519 120.337 142.883C118.381 143.023 116.085 143.375 115.198 145.124C114.536 146.435 114.967 148.008 114.882 149.471C114.609 154.128 109.415 156.709 104.877 157.826C100.339 158.943 95.0789 159.994 92.8678 164.098C90.8874 167.784 92.3028 172.252 92.9164 176.393C93.9655 183.627 92.3974 190.997 88.4941 197.177C86.5077 200.292 83.9503 203.061 82.377 206.406C80.6366 210.145 80.2335 214.367 81.235 218.368C81.5326 219.539 81.9518 220.729 81.7452 221.92C81.5072 222.898 81.0362 223.804 80.3724 224.561C77.7102 227.966 74.3629 230.774 70.5468 232.805C66.7308 234.836 62.5309 236.045 58.2185 236.352C58.911 238.957 61.4319 240.602 63.8314 241.817C67.9258 243.922 72.2407 245.567 76.6973 246.723C79.692 247.5 82.8265 248.052 85.876 247.524C88.9254 246.996 91.8958 245.205 93.1654 242.375C93.8944 240.736 94.0037 238.884 94.6476 237.208C96.0994 233.45 99.9689 231.179 102.046 227.724C104.033 224.421 104.804 224.032 105.308 220.219C105.813 216.406 106.924 212.29 110.059 210.049C113.339 207.699 117.956 208.149 121.6 209.952C125.245 211.755 127.499 211.051 130.542 213.698C135.881 218.334 141.856 222.182 148.286 225.125C147.678 219.831 146.7 213.923 142.4 210.772C141.185 209.867 139.648 209.175 139.004 207.791C137.977 205.586 139.733 202.897 138.937 200.595C138.141 198.294 135.116 197.444 133.774 195.356C132.632 193.583 132.942 191.172 134.011 189.351C135.08 187.529 136.769 186.181 138.451 184.906C139.946 183.777 141.46 182.674 142.995 181.597C144.382 180.717 145.627 179.632 146.688 178.379C147.296 177.547 147.697 175.726 148.541 175.137C150.667 173.667 153.935 177.213 155.903 177.984Z" fill="#916168"/>
<g opacity="0.1">
<path opacity="0.1" d="M199.009 363.276C199.054 361.66 199.287 360.055 199.701 358.492L199.397 358.595C199.094 360.136 198.964 361.706 199.009 363.276Z" fill="white"/>
<path opacity="0.1" d="M202.131 385.815C197.271 386.1 182.085 379.136 179.047 375.493C178.649 374.999 178.404 374.4 178.343 373.768C178.254 374.28 178.27 374.805 178.391 375.31C178.513 375.816 178.736 376.291 179.047 376.707C182.085 380.35 197.271 387.314 202.131 387.029C207.294 386.725 224.607 387.636 225.214 379.743C225.259 379.525 225.229 379.298 225.129 379.099C223.738 386.373 207.167 385.517 202.131 385.815Z" fill="white"/>
</g>
<path d="M226.733 204.572H226.125V229.467H226.733V204.572Z" fill="#FFD77C" stroke="#FFAB50" stroke-width="0.25" stroke-miterlimit="10"/>
<path d="M227.34 204.572H226.733V229.467H227.34V204.572Z" fill="#FFD77C" stroke="#FFAB50" stroke-width="0.25" stroke-miterlimit="10"/>
<path d="M227.948 204.572H227.34V229.467H227.948V204.572Z" fill="#FFD77C" stroke="#FFAB50" stroke-width="0.25" stroke-miterlimit="10"/>
<path d="M228.555 204.572H227.948V229.467H228.555V204.572Z" fill="#FFD77C" stroke="#FFAB50" stroke-width="0.25" stroke-miterlimit="10"/>
<path d="M229.163 204.572H228.555V229.467H229.163V204.572Z" fill="#FFD77C" stroke="#FFAB50" stroke-width="0.25" stroke-miterlimit="10"/>
<path d="M229.77 204.572H229.163V229.467H229.77V204.572Z" fill="#FFD77C" stroke="#FFAB50" stroke-width="0.25" stroke-miterlimit="10"/>
<path d="M230.377 204.572H229.77V229.467H230.377V204.572Z" fill="#FFD77C" stroke="#FFAB50" stroke-width="0.25" stroke-miterlimit="10"/>
<defs>
<linearGradient id="paint0_linear" x1="357.117" y1="397.047" x2="357.117" y2="137.783" gradientUnits="userSpaceOnUse">
<stop stop-color="#808080" stop-opacity="0.25"/>
<stop offset="0.54" stop-color="#808080" stop-opacity="0.12"/>
<stop offset="1" stop-color="#808080" stop-opacity="0.1"/>
</linearGradient>
<linearGradient id="paint1_linear" x1="65899.5" y1="177186" x2="65899.5" y2="77099.3" gradientUnits="userSpaceOnUse">
<stop stop-color="#808080" stop-opacity="0.25"/>
<stop offset="0.54" stop-color="#808080" stop-opacity="0.12"/>
<stop offset="1" stop-color="#808080" stop-opacity="0.1"/>
</linearGradient>
</defs>
</svg>
