<svg width="550" height="450" viewBox="0 0 550 450" fill="none" xmlns="http://www.w3.org/2000/svg">
<path opacity="0.1" d="M285.549 428C381.603 428 459.471 423.819 459.471 418.662C459.471 413.504 381.603 409.323 285.549 409.323C189.494 409.323 111.627 413.504 111.627 418.662C111.627 423.819 189.494 428 285.549 428Z" fill="#60A3D9"/>
<path d="M384.065 382.051L382.569 384.227L373.32 397.878L365.467 400.228L359.609 394.54L359.893 390.786L361.354 371.293C361.354 371.293 325.107 350.139 321.866 346.182C318.625 342.225 306.16 338.639 306.16 338.639C306.16 338.639 287.089 329.86 279.985 314.527C272.88 299.194 291.826 296.844 291.826 296.844L362.999 364.369L384.065 382.051Z" fill="#FFC1C7"/>
<path d="M392.79 389.965L370.229 410.862C370.229 410.862 357.266 413.335 345.673 411.604C338.264 410.496 339.69 406.465 341.64 403.69L341.675 403.64C342.842 402.054 344.55 400.94 346.481 400.505C356.074 398.21 359.385 391.32 359.385 391.32L366.365 397.255L378.455 383.277L387.395 387.442L392.79 389.965Z" fill="#575988"/>
<path opacity="0.1" d="M387.395 387.452L382.085 384.979L382.584 384.227L384.08 382.051L362.999 364.369L291.826 296.854C291.826 296.854 272.88 299.194 279.985 314.527C287.089 329.86 306.16 338.639 306.16 338.639C306.16 338.639 318.625 342.225 321.866 346.182C325.107 350.139 361.379 371.283 361.379 371.283L359.918 390.776L359.848 391.706L359.385 391.315C359.385 391.315 356.074 398.205 346.481 400.5C344.55 400.935 342.842 402.049 341.675 403.636L341.64 403.685C339.645 406.455 338.264 410.486 345.673 411.599C357.266 413.33 370.229 410.857 370.229 410.857L392.79 389.96L387.395 387.452Z" fill="black"/>
<path opacity="0.1" d="M6.9082 234.672C15.5637 271.372 33.8868 303.096 62.8397 318.484C123.024 350.445 258.745 333.96 360.033 315.021C411.217 305.486 457.676 279.138 491.929 240.222L6.9082 234.672Z" fill="#60A3D9"/>
<path opacity="0.1" d="M538.078 61.9249H482.501C481.253 61.885 480.071 61.3655 479.202 60.4761C478.334 59.5868 477.849 58.3973 477.849 57.1593C477.849 55.9214 478.334 54.7319 479.202 53.8426C480.071 52.9532 481.253 52.4336 482.501 52.3938H492.108C490.835 52.3938 489.614 51.892 488.713 50.9987C487.813 50.1054 487.307 48.8939 487.307 47.6307C487.307 46.3674 487.813 45.1559 488.713 44.2627C489.614 43.3694 490.835 42.8676 492.108 42.8676H485.248C484.001 42.8277 482.818 42.3082 481.95 41.4188C481.082 40.5295 480.596 39.34 480.596 38.102C480.596 36.8641 481.082 35.6746 481.95 34.7853C482.818 33.8959 484.001 33.3763 485.248 33.3365H514.256C507.819 30.3688 500.295 28.2568 491.625 27.1489C412.529 17.0737 384.289 23.7361 374.327 30.6112C362.037 39.069 348.326 45.2912 333.672 48.2885C284.871 58.2747 193.604 70.2887 110.884 44.4405C69.7702 31.5806 39.2168 53.3039 20.8987 89.5884H547.726C547.038 79.0433 544.979 69.3094 541.199 60.7824C540.33 61.5208 539.223 61.9261 538.078 61.9249V61.9249Z" fill="#60A3D9"/>
<path opacity="0.1" d="M2.19154 158.067C0.056839 179.412 0.781101 200.943 4.34543 222.099L492.303 239.801C505.888 224.302 517.293 207.048 526.207 188.51L2.19154 158.067ZM195.185 203.734H185.577C186.221 203.714 186.862 203.822 187.463 204.052C188.064 204.282 188.612 204.63 189.075 205.074C189.538 205.519 189.906 206.051 190.157 206.64C190.409 207.228 190.538 207.861 190.538 208.5C190.538 209.139 190.409 209.771 190.157 210.36C189.906 210.948 189.538 211.481 189.075 211.925C188.612 212.37 188.064 212.718 187.463 212.948C186.862 213.178 186.221 213.286 185.577 213.265H129.999C128.752 213.226 127.569 212.706 126.701 211.817C125.833 210.927 125.348 209.738 125.348 208.5C125.348 207.262 125.833 206.072 126.701 205.183C127.569 204.294 128.752 203.774 129.999 203.734H139.607C138.334 203.734 137.112 203.232 136.212 202.339C135.312 201.446 134.806 200.234 134.806 198.971C134.806 197.708 135.312 196.496 136.212 195.603C137.112 194.71 138.334 194.208 139.607 194.208H132.747C131.499 194.168 130.317 193.649 129.448 192.759C128.58 191.87 128.095 190.681 128.095 189.443C128.095 188.205 128.58 187.015 129.448 186.126C130.317 185.236 131.499 184.717 132.747 184.677H188.324C189.571 184.717 190.754 185.236 191.622 186.126C192.49 187.015 192.976 188.205 192.976 189.443C192.976 190.681 192.49 191.87 191.622 192.759C190.754 193.649 189.571 194.168 188.324 194.208H195.185C196.458 194.208 197.679 194.71 198.58 195.603C199.48 196.496 199.986 197.708 199.986 198.971C199.986 200.234 199.48 201.446 198.58 202.339C197.679 203.232 196.458 203.734 195.185 203.734V203.734Z" fill="#60A3D9"/>
<path opacity="0.1" d="M547.751 89.9049L15.0204 102.765C8.53873 119.29 4.26583 137.951 2.27148 157.335H538.417C541.917 145.96 544.506 134.328 546.16 122.549C547.756 111.168 548.394 100.158 547.751 89.9049ZM110.425 132.016H100.817C101.461 131.995 102.103 132.103 102.704 132.334C103.305 132.564 103.853 132.912 104.315 133.356C104.778 133.801 105.146 134.333 105.398 134.921C105.649 135.51 105.778 136.142 105.778 136.782C105.778 137.421 105.649 138.053 105.398 138.642C105.146 139.23 104.778 139.762 104.315 140.207C103.853 140.651 103.305 140.999 102.704 141.229C102.103 141.46 101.461 141.568 100.817 141.547H45.2397C43.9924 141.507 42.8097 140.988 41.9416 140.098C41.0735 139.209 40.5881 138.019 40.5881 136.782C40.5881 135.544 41.0735 134.354 41.9416 133.465C42.8097 132.575 43.9924 132.056 45.2397 132.016H54.8475C53.5741 132.016 52.3528 131.514 51.4524 130.621C50.552 129.728 50.0461 128.516 50.0461 127.253C50.0461 125.99 50.552 124.778 51.4524 123.885C52.3528 122.992 53.5741 122.49 54.8475 122.49H47.9869C46.7397 122.45 45.5569 121.93 44.6888 121.041C43.8207 120.152 43.3353 118.962 43.3353 117.724C43.3353 116.486 43.8207 115.297 44.6888 114.407C45.5569 113.518 46.7397 112.999 47.9869 112.959H103.564C104.812 112.999 105.994 113.518 106.863 114.407C107.731 115.297 108.216 116.486 108.216 117.724C108.216 118.962 107.731 120.152 106.863 121.041C105.994 121.93 104.812 122.45 103.564 122.49H110.425C111.698 122.49 112.92 122.992 113.82 123.885C114.721 124.778 115.226 125.99 115.226 127.253C115.226 128.516 114.721 129.728 113.82 130.621C112.92 131.514 111.698 132.016 110.425 132.016V132.016Z" fill="#60A3D9"/>
<g opacity="0.1">
<path opacity="0.1" d="M398.529 266.149C398.529 266.149 412.589 231.774 438.844 219.023C449.892 213.745 458.915 205.053 464.556 194.253C467.195 189.106 469.353 183.73 471.003 178.193" stroke="#535461" stroke-width="2" stroke-miterlimit="10"/>
<path opacity="0.1" d="M487.501 170.061C484.764 173.474 470.599 178.47 470.599 178.47C470.599 178.47 472.305 163.656 475.042 160.243C475.666 159.359 476.466 158.611 477.393 158.044C478.32 157.478 479.354 157.106 480.431 156.951C481.508 156.796 482.606 156.862 483.657 157.143C484.708 157.425 485.689 157.917 486.541 158.589C487.393 159.261 488.097 160.099 488.611 161.051C489.124 162.003 489.435 163.05 489.526 164.126C489.616 165.202 489.484 166.285 489.136 167.308C488.789 168.331 488.234 169.273 487.506 170.076L487.501 170.061Z" fill="#60A3D9"/>
<path opacity="0.1" d="M482.64 197.092C478.472 198.481 463.854 195.024 463.854 195.024C463.854 195.024 473.401 183.51 477.57 182.12C478.579 181.709 479.663 181.509 480.754 181.53C481.845 181.552 482.92 181.795 483.912 182.245C484.904 182.695 485.793 183.343 486.523 184.147C487.253 184.952 487.809 185.896 488.157 186.922C488.504 187.948 488.636 189.034 488.544 190.113C488.451 191.191 488.137 192.239 487.62 193.193C487.103 194.146 486.394 194.984 485.537 195.654C484.681 196.325 483.695 196.814 482.64 197.092V197.092Z" fill="#60A3D9"/>
<path opacity="0.1" d="M456.285 229.048C451.982 228.158 441.118 217.855 441.118 217.855C441.118 217.855 455.223 212.697 459.526 213.582C461.484 214.113 463.164 215.365 464.224 217.083C465.285 218.8 465.645 220.854 465.232 222.826C464.818 224.798 463.663 226.539 462.001 227.695C460.338 228.851 458.294 229.335 456.285 229.048V229.048Z" fill="#60A3D9"/>
<path opacity="0.1" d="M430.857 248.768C426.464 248.62 414 240.281 414 240.281C414 240.281 427.023 232.832 431.415 232.985C432.507 232.952 433.594 233.14 434.609 233.54C435.624 233.94 436.546 234.543 437.316 235.31C438.087 236.078 438.691 236.994 439.09 238.003C439.489 239.011 439.675 240.09 439.637 241.173C439.599 242.256 439.337 243.319 438.867 244.297C438.398 245.276 437.731 246.148 436.908 246.86C436.085 247.572 435.123 248.109 434.082 248.437C433.041 248.765 431.944 248.878 430.857 248.768V248.768Z" fill="#60A3D9"/>
<path opacity="0.1" d="M450.242 185.365C450.8 189.692 460.324 201.227 460.324 201.227C460.324 201.227 466.596 187.674 466.032 183.351C465.643 181.38 464.512 179.63 462.869 178.456C461.227 177.281 459.196 176.77 457.187 177.026C455.179 177.282 453.344 178.286 452.055 179.834C450.765 181.383 450.117 183.36 450.242 185.365Z" fill="#60A3D9"/>
<path opacity="0.1" d="M420.795 208.804C422.635 212.761 435.205 220.947 435.205 220.947C435.205 220.947 437.094 206.158 435.254 202.196C434.287 200.432 432.681 199.099 430.76 198.466C428.839 197.834 426.747 197.949 424.909 198.789C423.07 199.63 421.622 201.132 420.859 202.991C420.095 204.851 420.072 206.929 420.795 208.804Z" fill="#60A3D9"/>
<path opacity="0.1" d="M395.328 235.483C396.469 239.697 407.458 249.866 407.458 249.866C407.458 249.866 411.846 235.607 410.709 231.393C410.063 229.483 408.708 227.889 406.919 226.936C405.13 225.983 403.041 225.743 401.08 226.265C399.119 226.787 397.432 228.031 396.363 229.743C395.294 231.456 394.924 233.509 395.328 235.483V235.483Z" fill="#60A3D9"/>
<path opacity="0.25" d="M487.501 170.061C484.764 173.474 470.599 178.47 470.599 178.47C470.599 178.47 472.305 163.656 475.042 160.243C475.666 159.359 476.466 158.611 477.393 158.044C478.32 157.478 479.354 157.106 480.431 156.951C481.508 156.796 482.606 156.862 483.657 157.143C484.708 157.425 485.689 157.917 486.541 158.589C487.393 159.261 488.097 160.099 488.611 161.051C489.124 162.003 489.435 163.05 489.526 164.126C489.616 165.202 489.484 166.285 489.136 167.308C488.789 168.331 488.234 169.273 487.506 170.076L487.501 170.061Z" fill="black"/>
<path opacity="0.25" d="M482.64 197.092C478.472 198.481 463.854 195.024 463.854 195.024C463.854 195.024 473.401 183.51 477.57 182.12C478.579 181.709 479.663 181.509 480.754 181.53C481.845 181.552 482.92 181.795 483.912 182.245C484.904 182.695 485.793 183.343 486.523 184.147C487.253 184.952 487.809 185.896 488.157 186.922C488.504 187.948 488.636 189.034 488.544 190.113C488.451 191.191 488.137 192.239 487.62 193.193C487.103 194.146 486.394 194.984 485.537 195.654C484.681 196.325 483.695 196.814 482.64 197.092V197.092Z" fill="black"/>
<path opacity="0.25" d="M456.285 229.048C451.982 228.158 441.118 217.855 441.118 217.855C441.118 217.855 455.223 212.697 459.526 213.582C461.484 214.113 463.164 215.365 464.224 217.083C465.285 218.8 465.645 220.854 465.232 222.826C464.818 224.798 463.663 226.539 462.001 227.695C460.338 228.851 458.294 229.335 456.285 229.048V229.048Z" fill="black"/>
<path opacity="0.25" d="M430.857 248.768C426.464 248.62 414 240.281 414 240.281C414 240.281 427.023 232.832 431.415 232.985C432.507 232.952 433.594 233.14 434.609 233.54C435.624 233.94 436.546 234.543 437.316 235.31C438.087 236.078 438.691 236.994 439.09 238.003C439.489 239.011 439.675 240.09 439.637 241.173C439.599 242.256 439.337 243.319 438.867 244.297C438.398 245.276 437.731 246.148 436.908 246.86C436.085 247.572 435.123 248.109 434.082 248.437C433.041 248.765 431.944 248.878 430.857 248.768V248.768Z" fill="black"/>
<path opacity="0.25" d="M450.242 185.365C450.8 189.692 460.324 201.227 460.324 201.227C460.324 201.227 466.596 187.674 466.032 183.351C465.643 181.38 464.512 179.63 462.869 178.456C461.227 177.281 459.196 176.77 457.187 177.026C455.179 177.282 453.344 178.286 452.055 179.834C450.765 181.383 450.117 183.36 450.242 185.365Z" fill="black"/>
<path opacity="0.25" d="M420.795 208.804C422.635 212.761 435.205 220.947 435.205 220.947C435.205 220.947 437.094 206.158 435.254 202.196C434.287 200.432 432.681 199.099 430.76 198.466C428.839 197.834 426.747 197.949 424.909 198.789C423.07 199.63 421.622 201.132 420.859 202.991C420.095 204.851 420.072 206.929 420.795 208.804Z" fill="black"/>
<path opacity="0.25" d="M395.328 235.483C396.469 239.697 407.458 249.866 407.458 249.866C407.458 249.866 411.846 235.607 410.709 231.393C410.063 229.483 408.708 227.889 406.919 226.936C405.13 225.983 403.041 225.743 401.08 226.265C399.119 226.787 397.432 228.031 396.363 229.743C395.294 231.456 394.924 233.509 395.328 235.483V235.483Z" fill="black"/>
</g>
<g opacity="0.1">
<path opacity="0.1" d="M376.142 211.153C376.142 211.153 377.917 174.097 398.424 153.428C407.081 144.814 412.688 133.648 414.404 121.604C415.168 115.875 415.402 110.089 415.102 104.318" stroke="#535461" stroke-width="2" stroke-miterlimit="10"/>
<path opacity="0.1" d="M427.96 91.2107C426.519 95.3357 414.823 104.694 414.823 104.694C414.823 104.694 411.482 90.1572 412.918 86.0371C413.705 84.1855 415.172 82.7002 417.023 81.8826C418.873 81.065 420.968 80.9764 422.882 81.6346C424.796 82.2929 426.385 83.6487 427.329 85.4271C428.272 87.2055 428.498 89.2732 427.96 91.2107Z" fill="#60A3D9"/>
<path opacity="0.1" d="M432.412 118.315C428.922 120.996 413.995 122.549 413.995 122.549C413.995 122.549 419.155 108.542 422.62 105.861C424.295 104.729 426.342 104.272 428.345 104.583C430.347 104.893 432.155 105.949 433.402 107.534C434.648 109.12 435.24 111.116 435.056 113.119C434.872 115.121 433.927 116.979 432.412 118.315V118.315Z" fill="#60A3D9"/>
<path opacity="0.1" d="M418.233 157.132C413.875 157.711 400.179 151.563 400.179 151.563C400.179 151.563 411.761 142.057 416.133 141.478C418.155 141.341 420.153 141.972 421.723 143.243C423.293 144.514 424.316 146.33 424.585 148.322C424.854 150.315 424.349 152.334 423.172 153.97C421.995 155.606 420.234 156.737 418.247 157.132H418.233Z" fill="#60A3D9"/>
<path opacity="0.1" d="M400.832 184.103C396.639 185.409 382.095 181.63 382.095 181.63C382.095 181.63 391.887 170.323 396.085 169.023C397.105 168.628 398.195 168.445 399.289 168.486C400.382 168.527 401.455 168.79 402.442 169.26C403.428 169.73 404.307 170.397 405.022 171.218C405.738 172.039 406.276 172.998 406.602 174.034C406.929 175.07 407.037 176.162 406.919 177.241C406.802 178.32 406.463 179.364 405.921 180.308C405.38 181.251 404.649 182.074 403.773 182.726C402.898 183.377 401.897 183.842 400.832 184.093V184.103Z" fill="#60A3D9"/>
<path opacity="0.1" d="M397.925 117.91C399.92 121.807 412.743 129.558 412.743 129.558C412.743 129.558 414.124 114.719 412.15 110.817C411.124 109.085 409.472 107.805 407.53 107.237C405.587 106.668 403.499 106.854 401.69 107.756C399.881 108.658 398.485 110.21 397.786 112.095C397.086 113.981 397.136 116.059 397.925 117.91V117.91Z" fill="#60A3D9"/>
<path opacity="0.1" d="M377.982 149.713C381.043 152.844 395.632 156.43 395.632 156.43C395.632 156.43 392.476 141.849 389.414 138.718C387.913 137.364 385.949 136.628 383.92 136.66C381.891 136.692 379.951 137.489 378.494 138.891C377.037 140.292 376.174 142.191 376.078 144.201C375.983 146.212 376.664 148.183 377.982 149.713V149.713Z" fill="#60A3D9"/>
<path opacity="0.1" d="M362.875 183.257C365.368 186.858 379.128 192.838 379.128 192.838C379.128 192.838 378.495 177.94 376.017 174.34C374.764 172.771 372.958 171.731 370.963 171.431C368.968 171.13 366.933 171.59 365.266 172.719C363.6 173.848 362.427 175.561 361.983 177.514C361.539 179.467 361.858 181.514 362.875 183.243V183.257Z" fill="#60A3D9"/>
</g>
<path opacity="0.1" d="M215.896 64.2891C215.896 64.2891 204.015 63.5818 205.426 71.8418C205.353 72.2609 205.417 72.6919 205.607 73.0731C205.797 73.4543 206.103 73.766 206.483 73.9637C206.483 73.9637 206.483 73.3503 207.699 73.5581C208.125 73.6316 208.559 73.6532 208.991 73.6224C209.574 73.5822 210.129 73.3548 210.571 72.9744V72.9744C210.571 72.9744 213.912 71.6044 215.208 66.1884C215.208 66.1884 216.17 65.0063 216.13 64.7046L214.136 65.5553C214.136 65.5553 214.819 66.9897 214.281 68.1817C214.281 68.1817 214.216 65.6048 213.832 65.6641C213.752 65.6641 212.79 66.1587 212.79 66.1587C212.79 66.1587 213.972 68.6615 213.079 70.4767C213.079 70.4767 213.418 67.3953 212.421 66.3417L211.01 67.1578C211.01 67.1578 212.386 69.7397 211.454 71.8467C211.454 71.8467 211.693 68.6169 210.716 67.3557L209.434 68.3449C209.434 68.3449 210.731 70.8921 209.933 72.6381C209.933 72.6381 209.833 68.8741 209.15 68.5922C208.667 68.9987 208.235 69.4621 207.864 69.9722C207.864 69.9722 208.746 71.822 208.198 72.7964C208.198 72.7964 207.864 70.2887 207.585 70.2788C207.585 70.2788 206.468 71.9407 206.353 73.0783C206.407 72.0226 206.739 70.9994 207.315 70.1107C206.672 70.2317 206.078 70.5359 205.605 70.9861C205.605 70.9861 205.78 69.8139 207.6 69.71C207.6 69.71 208.522 68.4488 208.766 68.3746C208.766 68.3746 206.966 68.2213 205.879 68.706C205.879 68.706 206.837 67.598 209.095 68.0976L210.362 67.0787C210.362 67.0787 207.993 66.7572 206.986 67.1084C206.986 67.1084 208.143 66.1192 210.701 66.8462L212.077 66.0301C211.019 65.7976 209.934 65.7045 208.851 65.7532C208.851 65.7532 210.122 65.0755 212.481 65.8076L213.478 65.3723C213.478 65.3723 211.982 65.0854 211.563 65.036C211.145 64.9865 211.11 64.8727 211.11 64.8727C212.046 64.7178 213.008 64.824 213.887 65.1794C213.887 65.1794 215.936 64.4227 215.896 64.2891Z" fill="#60A3D9"/>
<path opacity="0.1" d="M184.695 104.486C184.695 104.486 180.636 115.59 189.017 116.604C189.403 116.791 189.838 116.853 190.26 116.78C190.683 116.707 191.072 116.503 191.371 116.198C191.371 116.198 190.782 116.005 191.326 114.927C191.511 114.541 191.648 114.134 191.735 113.715C191.862 113.149 191.801 112.557 191.56 112.029V112.029C191.56 112.029 191.186 108.463 186.32 105.693C186.32 105.693 185.447 104.441 185.143 104.392L185.398 106.539C185.398 106.539 186.978 106.296 187.98 107.147C187.98 107.147 185.487 106.479 185.417 106.86C185.417 106.939 185.602 107.993 185.602 107.993C185.602 107.993 188.354 107.582 189.86 108.942C189.86 108.942 186.978 107.75 185.677 108.393L186.066 109.971C186.066 109.971 188.952 109.393 190.722 110.881C190.722 110.881 187.666 109.734 186.17 110.308L186.764 111.791C186.764 111.791 189.591 111.297 191.057 112.528C191.057 112.528 187.392 111.539 186.923 112.128C187.179 112.705 187.505 113.248 187.895 113.745C187.895 113.745 189.93 113.429 190.717 114.24C190.717 114.24 188.2 113.849 188.11 114.111C188.11 114.111 189.396 115.644 190.463 116.09C189.463 115.74 188.572 115.136 187.881 114.339C187.82 114.977 187.946 115.619 188.244 116.188C188.244 116.188 187.163 115.694 187.576 113.943C187.576 113.943 186.619 112.706 186.614 112.459C186.614 112.459 185.961 114.131 186.116 115.303C186.116 115.303 185.318 114.076 186.445 112.068L185.816 110.585C185.816 110.585 184.819 112.746 184.889 113.799C184.889 113.799 184.271 112.424 185.687 110.194L185.288 108.656C184.767 109.59 184.37 110.588 184.106 111.623C184.106 111.623 183.812 110.219 185.193 108.191L185.049 107.127C185.049 107.127 184.351 108.453 184.181 108.853C184.011 109.254 183.892 109.239 183.892 109.239C184.01 108.304 184.386 107.419 184.979 106.682C184.979 106.682 184.834 104.491 184.695 104.486Z" fill="#60A3D9"/>
<path opacity="0.1" d="M263.491 95.1329C263.491 95.1329 259.428 106.232 267.814 107.246C268.198 107.433 268.632 107.495 269.053 107.424C269.475 107.352 269.863 107.149 270.162 106.845C270.162 106.845 269.579 106.652 270.117 105.569C270.309 105.184 270.453 104.777 270.546 104.357C270.675 103.793 270.612 103.201 270.367 102.676V102.676C270.367 102.676 269.993 99.1096 265.126 96.3348C265.126 96.3348 264.259 95.0835 263.955 95.034L264.204 97.1856C264.204 97.1856 265.79 96.9382 266.787 97.789C266.787 97.789 264.294 97.1212 264.229 97.507C264.229 97.5812 264.413 98.6397 264.413 98.6397C264.413 98.6397 267.166 98.2242 268.666 99.5894C268.666 99.5894 265.79 98.3924 264.483 99.0403L264.872 100.613C264.872 100.613 267.759 100.035 269.534 101.523C269.534 101.523 266.478 100.376 264.982 100.954L265.575 102.438C265.575 102.438 268.402 101.944 269.868 103.175C269.868 103.175 266.203 102.186 265.735 102.77C265.99 103.346 266.315 103.889 266.702 104.387C266.702 104.387 268.741 104.071 269.529 104.882C269.529 104.882 267.006 104.491 266.921 104.748C266.921 104.748 268.208 106.281 269.275 106.727C268.273 106.375 267.381 105.77 266.687 104.971C266.621 105.617 266.747 106.269 267.051 106.845C267.051 106.845 265.964 106.351 266.378 104.595C266.378 104.595 265.426 103.363 265.421 103.111C265.421 103.111 264.762 104.778 264.922 105.955C264.922 105.955 264.124 104.723 265.256 102.72L264.623 101.236C264.623 101.236 263.626 103.398 263.7 104.456C263.7 104.456 263.082 103.076 264.498 100.846L264.099 99.3074C263.578 100.242 263.18 101.239 262.918 102.275C262.918 102.275 262.619 100.875 264 98.8425L263.855 97.784C263.855 97.784 263.157 99.1096 262.992 99.5053C262.828 99.901 262.703 99.896 262.703 99.896C262.819 98.9599 263.195 98.0742 263.79 97.3389C263.79 97.3389 263.626 95.1329 263.491 95.1329Z" fill="#60A3D9"/>
<path opacity="0.1" d="M134.741 81.2245C134.741 81.2245 130.678 92.3285 139.064 93.3375C139.447 93.5265 139.882 93.5895 140.304 93.5174C140.726 93.4454 141.114 93.2421 141.412 92.9369C141.412 92.9369 140.829 92.744 141.367 91.6657C141.557 91.2795 141.701 90.8729 141.796 90.4539C141.922 89.8873 141.859 89.2954 141.617 88.7673C141.617 88.7673 141.243 85.2012 136.376 82.4264C136.376 82.4264 135.509 81.18 135.205 81.1306L135.454 83.2772C135.454 83.2772 137.035 83.0348 138.037 83.8855C138.037 83.8855 135.544 83.2129 135.479 83.5987C135.479 83.6778 135.663 84.7313 135.663 84.7313C135.663 84.7313 138.416 84.3208 139.916 85.681C139.916 85.681 137.035 84.484 135.733 85.132L136.122 86.7097C136.122 86.7097 139.009 86.1311 140.779 87.6198C140.779 87.6198 137.728 86.4723 136.232 87.0461L136.825 88.5299C136.825 88.5299 139.652 88.0353 141.118 89.2669C141.118 89.2669 137.448 88.2777 136.985 88.8613C137.24 89.4389 137.565 89.9836 137.952 90.4836C137.952 90.4836 139.991 90.1621 140.774 90.9782C140.774 90.9782 138.256 90.5875 138.166 90.8496C138.166 90.8496 139.458 92.378 140.525 92.8281C139.522 92.4784 138.629 91.8728 137.937 91.0722C137.871 91.7189 137.997 92.3707 138.301 92.9468C138.301 92.9468 137.214 92.4522 137.628 90.7012C137.628 90.7012 136.671 89.4647 136.671 89.2174C136.671 89.2174 136.012 90.8892 136.172 92.0614C136.172 92.0614 135.374 90.8348 136.501 88.8267L135.873 87.3428C135.873 87.3428 134.876 89.5092 134.945 90.5628C134.945 90.5628 134.327 89.1877 135.743 86.9571L135.349 85.4139C134.828 86.3481 134.43 87.3457 134.168 88.3815C134.168 88.3815 133.869 86.9818 135.25 84.9489L135.105 83.8905C135.105 83.8905 134.407 85.216 134.242 85.6167C134.078 86.0173 133.953 86.0025 133.953 86.0025C134.068 85.0671 134.443 84.1818 135.035 83.4453C135.035 83.4453 134.896 81.2295 134.741 81.2245Z" fill="#60A3D9"/>
<path opacity="0.1" d="M259.567 156.544C259.567 156.544 262.704 167.92 270.142 163.963C270.565 163.896 270.956 163.698 271.258 163.398C271.561 163.098 271.76 162.71 271.828 162.291C271.828 162.291 271.239 162.464 271.05 161.272C270.982 160.849 270.863 160.435 270.696 160.04C270.47 159.506 270.077 159.059 269.574 158.764V158.764C269.574 158.764 267.196 156.069 261.597 156.583C261.597 156.583 260.161 156.059 259.881 156.192L261.337 157.805C261.337 157.805 262.484 156.702 263.795 156.816C263.795 156.816 261.357 157.701 261.542 158.042C261.577 158.112 262.35 158.863 262.35 158.863C262.35 158.863 264.344 156.954 266.378 157.206C266.378 157.206 263.332 157.879 262.639 159.15L263.875 160.219C263.875 160.219 265.899 158.092 268.208 158.295C268.208 158.295 265.047 159.106 264.159 160.431L265.516 161.317C265.516 161.317 267.51 159.284 269.449 159.462C269.449 159.462 265.894 160.768 265.84 161.495C266.384 161.821 266.967 162.08 267.575 162.266C267.575 162.266 269.07 160.842 270.157 161.045C270.157 161.045 267.874 162.162 267.954 162.429C267.954 162.429 269.893 162.924 271.02 162.687C269.998 162.973 268.918 162.989 267.889 162.731C268.209 163.297 268.689 163.758 269.27 164.057C269.27 164.057 268.093 164.269 267.415 162.603C267.415 162.603 265.919 162.143 265.765 161.935C265.765 161.935 266.199 163.671 267.011 164.541C267.011 164.541 265.645 163.997 265.401 161.712L264.03 160.866C264.03 160.866 264.478 163.196 265.142 164.027C265.142 164.027 263.835 163.255 263.696 160.624L262.474 159.595C262.596 160.663 262.855 161.71 263.247 162.711C263.247 162.711 262.19 161.722 262.14 159.284L261.402 158.502C261.402 158.502 261.602 159.986 261.701 160.407C261.801 160.827 261.701 160.901 261.701 160.901C261.251 160.071 261.042 159.132 261.098 158.191C261.098 158.191 259.682 156.464 259.567 156.544Z" fill="#60A3D9"/>
<path d="M407.593 220.714C408.68 221.961 409.88 223.107 411.178 224.137L420.89 232.347C422.62 233.807 424.38 235.315 426.574 236.003C427.872 236.407 429.247 236.511 430.592 236.306C431.937 236.101 433.216 235.593 434.332 234.821L434.168 234.766L434.332 234.657C432.692 234.133 431.012 233.589 429.66 232.535C429.104 232.122 428.636 231.603 428.283 231.009C427.931 230.414 427.701 229.756 427.606 229.073V229.073C427.606 229.004 427.606 228.94 427.606 228.87C427.61 228.683 427.628 228.496 427.661 228.311C429.754 228.135 431.767 227.432 433.51 226.269L433.34 226.209L433.51 226.105C428.334 224.458 424.749 219.641 423.124 214.542C421.499 209.442 421.494 204.011 421.319 198.674C421.145 193.338 420.746 187.852 418.422 183.025C417.55 181.215 416.428 179.494 416.004 177.535C415.888 176.954 415.833 176.362 415.84 175.769C415.875 173.865 416.433 171.951 416.946 170.091C418.088 165.938 419 161.725 419.679 157.473C419.946 155.962 420.094 154.433 420.122 152.898C420.169 151.401 419.927 149.909 419.41 148.501C417.126 142.615 409.188 139.841 407.977 133.663C407.835 132.832 407.775 131.988 407.797 131.145C407.797 130.681 407.797 130.221 407.797 129.761C407.797 129.301 407.797 128.771 407.758 128.316C407.414 123.969 404.701 120.195 402.084 116.668C398.933 112.424 395.602 108.013 390.761 105.752C387.001 103.986 381.976 103.403 377.493 103.798C375.482 102.077 373.277 100.592 370.922 99.3717C367.497 97.4823 363.942 95.6226 360.147 95.2071C355.336 94.6828 350.58 96.5129 345.753 96.8196C339.192 97.24 332.75 94.8411 326.189 94.3465C319.627 93.8519 312.074 96.043 309.142 102.597C308.455 104.188 308.037 105.881 307.905 107.607V107.607C307.876 107.938 307.856 108.265 307.841 108.596V108.631C307.792 109.969 307.83 111.309 307.955 112.642V112.795C307.955 113.063 308.005 113.33 308.035 113.597C308.035 113.676 308.035 113.75 308.06 113.829C308.06 114.076 308.115 114.324 308.145 114.571L308.175 114.804C308.215 115.115 308.259 115.427 308.299 115.738C308.375 116.38 308.514 117.013 308.713 117.628C308.835 117.983 309.014 118.317 309.242 118.617C309.955 119.517 311.027 119.784 312.133 119.952L313.006 120.076C312.916 120.254 312.822 120.432 312.737 120.615C310.758 124.753 309.736 129.276 309.745 133.856C309.745 149.416 321.357 162.316 336.529 164.66L337.442 165.788C343.036 172.742 350.056 182.026 353.397 188.708C349.537 193.461 345.02 201.889 343.734 216.025L341.824 220.447C337.821 226.16 336.789 234.4 337.821 242.067C336.694 246.211 335.408 251.42 334.515 255.728C327.879 254.269 305.228 250.658 299.873 247.151L284.168 239.811C284.168 239.811 263.726 225.645 252.727 230.374C248.524 225.25 242.182 219.883 239.449 217.855C234.763 214.368 223.106 200.747 223.106 200.747L204.842 176.699C204.793 173.914 204.493 171.535 203.726 170.511C201.572 167.653 190.169 161.307 187.891 162.677C185.612 164.047 183.707 159.709 183.707 159.709L183.533 159.615C183.104 159.368 181.888 158.685 180.197 157.785C180.108 155.778 180.158 153.766 180.347 151.766C180.382 151.429 180.427 151.093 180.477 150.776C186.53 150.56 192.347 148.387 197.042 144.589C201.736 140.791 205.051 135.575 206.483 129.736C206.563 129.424 206.617 129.103 206.682 128.786C207.5 128.974 208.352 128.951 209.158 128.719C209.963 128.487 210.696 128.054 211.284 127.461C212.88 125.759 212.949 123.143 212.441 120.887C211.932 118.632 210.945 116.47 210.696 114.166C210.382 111.025 211.499 107.736 210.472 104.768C209.609 102.236 207.335 100.396 204.912 99.1937C202.489 97.9918 199.837 97.2894 197.359 96.1963C194.995 95.1577 192.797 93.7629 190.344 92.9418C187.163 91.8784 183.742 91.8388 180.372 91.918C178.258 91.0722 176.104 90.266 173.84 90.0137C171.347 89.7318 168.605 90.2116 166.706 91.8586C165.21 93.1743 163.993 95.2863 161.964 95.3555C160.967 95.3901 160.069 94.9005 159.182 94.4801C156.664 93.2831 153.478 92.6055 151.204 94.1932C149.38 95.4594 148.712 97.789 148.397 99.9603C148.083 102.132 148.028 104.412 146.971 106.356C146.318 107.553 145.326 108.527 144.503 109.615C142.421 112.377 141.439 115.805 141.746 119.24V119.339C141.627 118.845 141.512 118.385 141.427 117.9C141.427 118.266 141.427 118.627 141.477 118.993C141.694 120.69 142.066 122.364 142.589 123.993L144.653 131.165C145.7 134.806 146.772 138.5 148.766 141.74C149.544 143.016 150.484 144.188 151.563 145.227C153.263 146.997 155.438 148.248 157.831 148.833C158.671 149.02 159.536 149.072 160.393 148.986C160.393 149.09 160.368 149.189 160.349 149.293C160.164 149.258 159.975 149.218 159.8 149.194C158.99 149.026 158.152 149.048 157.352 149.258C153.413 150.648 152.217 154.877 151.868 156.539C151.788 156.964 151.763 157.221 151.763 157.221C151.763 157.221 151.828 157.469 151.902 157.889L151.868 158.032C151.788 158.453 151.763 158.715 151.763 158.715C151.763 158.715 151.828 158.962 151.902 159.393L150.875 159.417L133.699 161.643C129.775 161.376 126.041 161.312 124.041 161.786C123.872 161.824 123.706 161.871 123.543 161.93C121.05 162.786 109.627 170.605 99.3763 177.802C99.3763 177.604 99.3763 177.411 99.3464 177.223L96.4297 179.281C96.4297 179.474 96.4297 179.677 96.4297 179.879C95.7017 180.374 94.9788 180.898 94.2807 181.398C91.1446 183.623 88.2977 185.632 86.1787 187.17C83.596 189.01 81.9955 190.172 81.9955 190.172C81.9955 190.172 81.0482 190.479 80.42 191.928C79.6123 193.783 79.3331 197.512 82.2498 204.852C87.4451 217.915 88.5819 226.748 88.5819 226.748C87.1724 226.894 85.789 227.227 84.4685 227.738C82.6686 228.45 80.789 229.657 80.0062 231.695C79.5037 233.118 79.4914 234.666 79.9713 236.097C82.3745 244.554 122.157 292.581 122.157 292.581L122.655 292.625C124.696 292.804 126.748 292.804 128.788 292.625C130.648 292.433 132.388 291.992 133.186 291.063C133.186 291.063 142.006 302.295 154.959 294.644C154.869 304.832 154.61 312.306 156.24 316.07C158.778 321.916 158.778 335.226 158.778 335.226L161.191 335.31C161.062 335.805 160.917 336.3 160.762 336.794C159.651 340.439 158.01 344.846 156.275 345.9C153.353 347.68 154.739 378.287 154.859 380.928C154.859 381.032 154.859 381.086 154.859 381.086L154.69 393.452V394.441C154.327 393.958 154.002 393.449 153.717 392.917C153.717 392.917 149.021 397.369 148.936 406.766C148.851 416.164 149.021 416.481 149.021 416.481C149.021 416.481 167.967 415.754 171.522 417.049C175.077 418.345 204.808 415.922 204.808 415.922C204.808 415.922 205.909 413.083 202.738 410.901C207.794 410.54 213.308 409.581 216.539 407.256C223.644 402.167 202.205 398.2 200.709 397.394C199.213 396.587 191.804 390.103 188.743 387.675C187.818 387.004 186.724 386.6 185.582 386.507L185.966 375.423C190.528 370.324 195.469 342.205 195.469 342.205C197.084 340.87 197.787 337.62 198.077 335.637C198.667 335.443 199.183 335.073 199.555 334.579C199.926 334.084 200.136 333.488 200.156 332.872V332.872C205.376 333.045 211.942 333.005 213.204 331.764C215.358 329.647 215.103 322.431 215.103 322.431L212.062 246.043L211.863 245.751C212.365 242.255 212.375 238.706 211.892 235.206C218.723 237.14 224.038 238.456 224.038 238.456C224.038 238.456 234.319 240.335 241.534 241.918C240.353 243.162 239.461 244.648 238.921 246.271C232.439 264.571 269.2 263.814 269.2 263.814L286.556 271.778L327.41 285.023C314.282 281.18 299.285 276.66 289.079 273.558C288.074 273.253 287.052 273.007 286.017 272.821C276.654 271.14 266.927 274.523 260.963 281.986C260.894 282.08 260.829 282.165 260.754 282.254C259.326 284.096 258.531 286.344 258.484 288.668C258.437 290.992 259.142 293.27 260.495 295.168C262.055 297.359 264.144 300.272 266.593 303.66C261.412 305.213 252.841 309.541 258.052 320.67C265.271 336.097 284.651 344.906 284.651 344.906C284.651 344.906 297.32 348.516 300.606 352.498C301.529 353.616 305.093 356.094 309.755 359.081C312.747 362.222 315.09 364.275 316.481 364.73C322.035 366.545 332.85 375.255 340.458 381.789L339.316 397.399L339.242 398.338L338.773 397.943C338.773 397.943 335.408 404.867 325.655 407.187C323.699 407.623 321.966 408.743 320.774 410.342L320.739 410.387L320.45 410.803L320.231 410.639C318.236 413.424 317.309 417.48 324.837 418.598C336.619 420.339 349.767 417.851 349.767 417.851L361.514 407.078C362.819 408.168 364.351 408.957 366.001 409.388C374.781 411.366 399.441 420.833 399.441 420.833C399.441 418.177 421.234 384.009 421.234 384.009C450.651 328.772 418.662 287.491 415.127 283.193L414.813 282.817L414.538 278.227L414.478 277.174C414.478 277.174 430.354 270.21 424.271 266.896C418.188 263.582 414.798 247.651 409.069 241.018C404.582 235.844 404.841 223.835 404.367 213.602C404.882 216.129 405.986 218.5 407.593 220.526C407.628 220.571 407.668 220.605 407.703 220.65L407.279 220.284C407.384 220.442 407.483 220.581 407.593 220.714ZM211.982 216.47C214.026 218.652 217.596 221.441 219.96 223.212C217.128 221.842 214.924 220.685 213.224 219.75C212.825 218.652 212.406 217.554 211.982 216.47V216.47ZM151.509 164.71C151.02 166.162 150.13 167.449 148.941 168.424L147.944 164.156C149.25 164.363 150.467 164.556 151.509 164.71ZM350.784 281.986C351.178 281.146 351.587 280.32 352.001 279.513C353.749 278.949 355.291 277.886 356.433 276.457C357.302 279.449 357.945 282.501 358.357 285.587C358.357 285.731 358.357 285.81 358.357 285.81C358.336 287.054 358.147 288.29 357.794 289.485C357.335 290.929 356.498 292.289 354.977 292.452C354.344 292.517 351.228 291.77 346.566 290.509C345.215 290.143 343.729 289.732 342.143 289.287C344.631 289.124 348.092 287.734 350.784 281.986ZM389.798 177.624C388.866 176.14 386.922 175.19 384.543 174.631C384.11 174.345 383.436 173.89 382.579 173.271C378.391 170.229 370.029 163.379 366.195 154.629C367.264 154.334 368.308 153.955 369.316 153.497C370.883 152.785 372.361 151.897 373.724 150.851C374.183 150.495 374.631 150.124 375.06 149.738C376.159 148.755 377.161 147.67 378.052 146.498C378.406 146.004 378.75 145.534 379.049 145.014C379.538 144.253 379.981 143.463 380.375 142.65C381.283 140.751 381.983 138.761 382.464 136.715C382.659 135.894 382.828 135.058 382.963 134.217C383.097 133.376 383.227 132.53 383.322 131.68C383.632 128.678 383.75 125.66 383.676 122.643C383.676 122.5 383.676 122.351 383.676 122.208C383.676 122.153 383.676 122.099 383.676 122.05C383.661 118.992 383.327 115.943 382.679 112.954C382.903 113.038 383.127 113.122 383.342 113.221C383.702 113.396 384.046 113.603 384.369 113.839C384.289 113.725 384.199 113.612 384.114 113.498C385.56 114.428 386.637 115.877 387.605 117.321C392.036 124.174 394.865 131.923 395.887 140.001C396.908 148.079 396.095 156.281 393.508 164.007C392.78 166.129 391.907 168.241 391.713 170.472C391.01 178.44 398.693 184.519 401.55 192.007C402.981 195.761 403.205 199.921 403.395 204.036C401.241 193.615 393.368 183.356 389.813 177.644L389.798 177.624Z" fill="url(#paint0_linear)"/>
<path d="M199.213 335.187C199.213 335.187 198.839 341.369 196.471 343.348C196.471 343.348 191.61 371.293 187.123 376.363L186.375 379.207L167.678 377.105L171.417 352.374L174.907 329.622L199.213 335.187Z" fill="#FFC1C8"/>
<path opacity="0.03" d="M199.213 335.187C199.213 335.187 198.839 341.369 196.471 343.348C196.471 343.348 191.61 371.293 187.123 376.363L186.375 379.207L167.678 377.105L171.417 352.374L174.907 329.622L199.213 335.187Z" fill="black"/>
<path d="M179.065 376.709L187.123 376.358L186.694 388.941L180.526 393.041L169.418 390.627L173.471 373.811L179.065 376.709Z" fill="#FF748F"/>
<path opacity="0.03" d="M179.065 376.709L187.123 376.358L186.694 388.941L180.526 393.041L169.418 390.627L173.471 373.811L179.065 376.709Z" fill="black"/>
<path d="M180.526 387.976C180.526 387.976 186.853 386.126 189.855 388.54C192.856 390.954 200.156 397.389 201.616 398.195C203.077 399.001 224.143 402.943 217.187 408.008C210.232 413.073 192.373 411.628 192.373 411.628C192.373 411.628 180.691 408.245 180.367 408.087C180.043 407.929 172.888 404.466 172.663 404.224C172.439 403.982 174.688 387.902 174.688 387.902L180.526 387.976Z" fill="#5D618C"/>
<path opacity="0.03" d="M180.526 387.976C180.526 387.976 186.853 386.126 189.855 388.54C192.856 390.954 200.156 397.389 201.616 398.195C203.077 399.001 224.143 402.943 217.187 408.008C210.232 413.073 192.373 411.628 192.373 411.628C192.373 411.628 180.691 408.245 180.367 408.087C180.043 407.929 172.888 404.466 172.663 404.224C172.439 403.982 174.688 387.902 174.688 387.902L180.526 387.976Z" fill="black"/>
<path d="M162.193 220.808L161.819 243.798L160.972 292.838L160.473 293.268C145.64 306.005 135.17 292.527 135.17 292.527C134.382 293.451 132.677 293.892 130.842 294.08C128.835 294.258 126.816 294.258 124.809 294.08L124.311 294.035C124.311 294.035 85.1616 246.271 82.7933 237.862C82.3235 236.44 82.3358 234.905 82.8282 233.49C83.601 231.482 85.4508 230.285 87.2208 229.578C88.5192 229.068 89.881 228.736 91.2693 228.588C91.2693 228.588 90.1475 219.809 85.0369 206.826C82.1651 199.53 82.4443 195.825 83.237 193.966C83.8553 192.526 84.7876 192.22 84.7876 192.22C84.7876 192.22 86.3632 191.067 88.901 189.252C91.01 187.724 93.7871 185.726 96.8784 183.515L99.7453 181.477C110.32 173.949 123.064 165.086 125.672 164.166C125.835 164.107 126.001 164.059 126.17 164.022C131.52 162.741 149.474 165.402 149.474 165.402L162.193 220.808Z" fill="#60A3D9"/>
<path opacity="0.1" d="M162.193 220.808L161.819 243.798C144.085 238.609 127.596 204.229 125.422 201.518C123.563 199.164 125.472 172.945 126.175 164.032C131.525 162.751 149.479 165.412 149.479 165.412L162.193 220.808Z" fill="black"/>
<path d="M365.741 176.036C365.741 176.036 351.906 183.084 350.161 210.782C350.161 210.782 347.917 224.879 346.67 227.352C345.424 229.825 339.441 253.195 340.189 256.039C340.189 256.039 338.942 258.883 334.33 257.647C329.719 256.41 304.789 252.577 299.18 248.867L283.724 241.572C283.724 241.572 253.559 220.427 247.202 238.604C240.845 256.781 276.993 256.049 276.993 256.049L294.07 263.963L345.798 280.893C345.798 280.893 352.654 283.985 357.265 274.092C360.216 267.861 363.72 261.902 367.736 256.286C367.736 256.286 378.206 227.105 378.081 222.158C377.957 217.212 389.3 205.465 389.3 205.465C389.3 205.465 391.543 174.305 373.096 174.923L365.741 176.036Z" fill="#FFC1C7"/>
<path opacity="0.03" d="M365.741 176.036C365.741 176.036 351.906 183.084 350.161 210.782C350.161 210.782 347.917 224.879 346.67 227.352C345.424 229.825 339.441 253.195 340.189 256.039C340.189 256.039 338.942 258.883 334.33 257.647C329.719 256.41 304.789 252.577 299.18 248.867L283.724 241.572C283.724 241.572 253.559 220.427 247.202 238.604C240.845 256.781 276.993 256.049 276.993 256.049L294.07 263.963L345.798 280.893C345.798 280.893 352.654 283.985 357.265 274.092C360.216 267.861 363.72 261.902 367.736 256.286C367.736 256.286 378.206 227.105 378.081 222.158C377.957 217.212 389.3 205.465 389.3 205.465C389.3 205.465 391.543 174.305 373.096 174.923L365.741 176.036Z" fill="black"/>
<path d="M219.406 200.094C220.154 200.96 223.644 202.745 223.644 202.745C223.644 202.745 235.112 216.283 239.723 219.745C244.335 223.207 259.418 236.438 256.366 241.448C253.315 246.459 249.885 245.341 249.885 245.341L222.896 226.793C222.896 226.793 213.423 220.056 211.493 216.841C209.564 213.626 207.191 206.895 207.191 206.895L219.406 200.094Z" fill="#FFC1C8"/>
<path opacity="0.03" d="M219.406 200.094C220.154 200.96 223.644 202.745 223.644 202.745C223.644 202.745 235.112 216.283 239.723 219.745C244.335 223.207 259.418 236.438 256.366 241.448C253.315 246.459 249.885 245.341 249.885 245.341L222.896 226.793C222.896 226.793 213.423 220.056 211.493 216.841C209.564 213.626 207.191 206.895 207.191 206.895L219.406 200.094Z" fill="black"/>
<path d="M204.264 176.971L223.644 202.75L206.194 209.492L198.964 187.912L204.264 176.971Z" fill="#DCE6F2"/>
<path opacity="0.03" d="M204.264 176.971L223.644 202.75L206.194 209.492L198.964 187.912L204.264 176.971Z" fill="black"/>
<path d="M209.31 242.695L212.8 247.764L215.791 323.687C215.791 323.687 216.041 330.859 213.922 332.961C211.803 335.063 194.477 333.703 194.477 333.703C194.477 333.703 195.1 256.296 195.349 254.813C195.599 253.329 209.31 242.695 209.31 242.695Z" fill="#575988"/>
<path opacity="0.1" d="M209.31 242.695L212.8 247.764L215.791 323.687C215.791 323.687 216.041 330.859 213.922 332.961C211.803 335.063 194.477 333.703 194.477 333.703C194.477 333.703 195.1 256.296 195.349 254.813C195.599 253.329 209.31 242.695 209.31 242.695Z" fill="black"/>
<path d="M185.971 338.669C184.836 341.437 183.503 344.121 181.982 346.701C181.982 346.701 178.741 365.046 177.36 366.738C176.363 367.974 175.904 377.204 175.74 382.016C175.68 383.757 175.655 384.92 175.655 384.92L156.599 393.931L156.514 382.021C156.514 382.021 156.514 381.967 156.514 381.863C156.395 379.236 155.019 348.818 157.905 347.047C159.601 346.004 161.216 341.607 162.308 338.001C163.141 335.216 163.664 332.887 163.664 332.887C163.664 332.887 184.834 331.522 186.599 333.772C187.247 334.573 186.799 336.522 185.971 338.669Z" fill="#FFC1C8"/>
<path opacity="0.1" d="M185.971 338.669C177.385 338.491 166.626 338.13 162.278 337.976C163.111 335.192 163.634 332.862 163.634 332.862C163.634 332.862 184.804 331.497 186.569 333.747C187.247 334.573 186.799 336.522 185.971 338.669Z" fill="black"/>
<path d="M160.947 226.125C160.947 226.125 155.088 257.038 156.21 276.946C157.332 296.854 155.338 311.559 157.831 317.381C160.323 323.202 160.323 336.423 160.323 336.423C160.323 336.423 194.227 337.66 197.718 337.165C201.208 336.67 201.083 334.074 201.083 334.074C201.083 334.074 198.715 313.538 200.958 307.108C203.202 300.678 202.828 281.017 202.828 281.017L212.301 249.362C212.301 249.362 215.168 235.142 209.185 229.33C203.202 223.519 160.947 226.125 160.947 226.125Z" fill="#575988"/>
<path d="M362.127 389.47L360.631 391.646L351.382 405.297L343.529 407.647L337.671 401.959L337.955 398.205L339.416 378.712C339.416 378.712 303.169 357.558 299.928 353.601C296.687 349.644 284.222 346.058 284.222 346.058C284.222 346.058 265.151 337.279 258.047 321.946C250.942 306.613 269.888 304.264 269.888 304.264L341.061 371.788L362.127 389.47Z" fill="#FFC1C7"/>
<path opacity="0.1" d="M360.656 391.641L351.407 405.293L343.554 407.642L337.696 401.954L337.98 398.2L344.427 403.685L356.517 389.712L360.656 391.641Z" fill="black"/>
<path d="M370.852 397.384L348.291 418.281C348.291 418.281 335.328 420.754 323.736 419.023C316.327 417.915 317.753 413.884 319.702 411.109L319.737 411.06C320.905 409.473 322.612 408.359 324.543 407.924C334.136 405.629 337.447 398.739 337.447 398.739L344.427 404.674L356.518 390.697L365.457 394.861L370.852 397.384Z" fill="#575988"/>
<path d="M370.852 397.621L348.291 418.528C348.291 418.528 335.328 421.001 323.735 419.27C316.326 418.162 317.254 414.131 319.203 411.356C321.445 413.119 324.136 414.231 326.976 414.566C333.333 415.185 342.931 414.566 342.931 414.566L365.457 395.113L370.852 397.621Z" fill="white"/>
<path d="M184.59 147.151C182.755 148.061 181.912 150.87 181.573 154.076C181 159.546 181.927 166.134 181.927 166.134C181.927 166.134 156.998 159.373 159.66 158.052C161.191 157.295 162.004 151.785 162.418 147.25C162.727 143.896 162.817 141.072 162.817 141.072C162.817 141.072 189.576 144.678 184.59 147.151Z" fill="#FFC1C8"/>
<path d="M383.027 177.159C383.027 177.159 352.778 205.515 353.775 197.275C353.915 196.127 353.516 194.539 352.728 192.665C349.931 185.978 342.198 175.596 336.15 168.004C331.713 162.434 328.173 158.364 328.173 158.364C328.173 158.364 365.741 127.04 362.75 144.846C362.126 148.906 362.696 153.059 364.39 156.806C368.135 165.55 376.431 172.43 380.574 175.467C382.07 176.56 383.027 177.159 383.027 177.159Z" fill="#FFC1C7"/>
<path opacity="0.1" d="M358.597 150.282C358.053 150.95 356.039 153.294 355.441 153.912C349.757 159.783 348.999 168.256 340.149 168.256C338.815 168.257 337.483 168.173 336.16 168.004C331.723 162.434 328.183 158.364 328.183 158.364C328.183 158.364 365.741 127.04 362.75 144.846C362.042 149.07 357.016 146.582 358.597 150.282Z" fill="black"/>
<path d="M371.39 136.27C371.391 142.401 369.559 148.394 366.126 153.493C362.693 158.591 357.813 162.565 352.104 164.911C346.394 167.258 340.111 167.872 334.049 166.676C327.988 165.48 322.42 162.528 318.049 158.193C313.679 153.858 310.703 148.334 309.498 142.321C308.292 136.307 308.911 130.074 311.277 124.41C313.643 118.746 317.648 113.905 322.787 110.499C327.927 107.094 333.968 105.276 340.149 105.277C344.256 105.262 348.326 106.053 352.123 107.605C355.921 109.157 359.371 111.439 362.275 114.32C365.179 117.201 367.48 120.624 369.044 124.391C370.609 128.158 371.406 132.195 371.39 136.27V136.27Z" fill="#FFC1C7"/>
<path opacity="0.1" d="M383.027 177.159C383.027 177.159 352.778 205.515 353.775 197.275C353.915 196.127 353.516 194.54 352.728 192.665L357.101 182.436C362.458 177.781 369.329 175.199 376.451 175.166C377.747 175.164 379.041 175.252 380.325 175.428L380.574 175.467C382.07 176.56 383.027 177.159 383.027 177.159Z" fill="black"/>
<path d="M418.592 384.895C418.592 384.895 397.152 418.855 397.152 421.496C397.152 421.496 372.886 412.098 364.246 410.12C355.605 408.141 347.458 390.172 347.458 390.172C347.458 390.172 324.523 368.736 315.549 365.768C307.935 363.251 271.349 312.054 260.45 296.607C259.115 294.717 258.421 292.455 258.468 290.148C258.515 287.84 259.299 285.608 260.709 283.772L260.913 283.51C263.798 279.91 267.617 277.159 271.961 275.554C276.305 273.948 281.008 273.549 285.564 274.399C286.575 274.584 287.573 274.828 288.555 275.131C304.251 279.944 331.434 288.214 345.145 291.948C349.732 293.199 352.798 293.926 353.421 293.882C354.917 293.728 355.74 292.398 356.193 290.939C356.54 289.752 356.726 288.524 356.747 287.289C356.747 287.289 356.747 287.209 356.747 287.066C356.327 283.921 355.667 280.813 354.772 277.767C353.172 272.327 350.4 265.941 345.798 262.89C341.979 260.362 338.942 254.788 337.352 248.308C335.213 239.559 335.706 229.147 340.478 222.332L345.09 211.539L352.803 193.486L357.101 183.426C362.458 178.77 369.329 176.189 376.451 176.155C377.747 176.154 379.041 176.241 380.325 176.417C383.631 176.872 386.488 177.856 387.679 179.795C391.334 185.731 399.645 196.612 401.306 207.493C402.966 218.375 400.976 236.181 406.625 242.779C412.274 249.377 415.6 265.199 421.583 268.498C427.566 271.797 411.945 278.717 411.945 278.717L412.005 279.761L412.274 284.326C412.274 284.326 412.384 284.45 412.584 284.697C416.064 288.97 447.51 329.998 418.592 384.895Z" fill="#FF6584"/>
<path d="M412.609 284.697C406.057 286.057 391.728 289.02 385.336 290.321L384.214 290.548C383.84 290.622 383.421 290.692 382.968 290.756C376.546 291.631 362.615 291.201 356.238 290.944C356.584 289.757 356.771 288.529 356.792 287.294C356.792 287.294 356.792 287.214 356.792 287.071C361.643 286.759 373.14 285.849 382.992 283.841C383.795 283.678 384.588 283.505 385.361 283.347C386.478 283.089 387.565 282.817 388.602 282.531C397.437 280.057 406.765 279.731 412.035 279.78L412.304 284.346C412.304 284.346 412.384 284.45 412.609 284.697Z" fill="#575988"/>
<path d="M385.311 283.327V290.321L384.189 290.548C383.815 290.622 383.396 290.692 382.943 290.756V283.861C383.745 283.678 384.538 283.505 385.311 283.327Z" fill="#FF6584"/>
<path opacity="0.1" d="M391.419 296.721C391.419 296.721 378.081 327.016 369.979 329.983C361.877 332.951 341.685 343.461 341.685 343.461C341.685 343.461 353.277 353.601 365.367 342.472C377.458 331.343 394.909 301.667 391.419 296.721Z" fill="black"/>
<path opacity="0.1" d="M406.002 292.65C406.002 292.65 407.249 304.15 405.504 306.252C403.759 308.354 406.002 292.65 406.002 292.65Z" fill="black"/>
<path opacity="0.1" d="M413.232 300.183C413.232 300.183 419.963 370.17 386.557 370.541C386.557 370.551 417.844 339.752 413.232 300.183Z" fill="black"/>
<path opacity="0.1" d="M421.708 317C421.708 317 431.306 353.724 418.716 357.929C418.716 357.939 425.323 338.896 421.708 317Z" fill="black"/>
<path opacity="0.1" d="M362.002 307.602C361.379 307.602 336.076 311.93 341.56 315.392C347.045 318.855 362.002 307.602 362.002 307.602Z" fill="black"/>
<path opacity="0.1" d="M379.453 258.028C379.453 258.028 400.144 276.204 396.155 278.183Z" fill="black"/>
<path opacity="0.1" d="M377.708 263.839C377.708 263.839 389.674 278.43 388.303 279.296Z" fill="black"/>
<path opacity="0.1" d="M403.26 261.604C403.26 261.604 408.744 268.404 407.872 269.888Z" fill="black"/>
<path opacity="0.1" d="M408.745 258.028C408.745 258.028 416.597 264.077 414.852 266.436Z" fill="black"/>
<path d="M365.118 184.331C365.118 184.331 390.671 186.309 389.549 206.712C388.427 227.114 369.356 232.308 369.356 232.308L344.552 225.26C344.552 225.26 355.645 185.691 365.118 184.331Z" fill="#FFC1C7"/>
<path opacity="0.1" d="M288.575 275.131C304.271 279.944 331.454 288.214 345.165 291.948C344.266 292.402 343.282 292.665 342.275 292.721C341.268 292.776 340.26 292.622 339.316 292.269L287.588 275.339L285.564 274.399C286.581 274.583 287.587 274.827 288.575 275.131Z" fill="black"/>
<path opacity="0.1" d="M376.112 224.701C373.684 227.916 371.545 231.378 371.625 233.544C371.665 235.102 370.628 239.074 369.242 243.778C365.671 255.592 360.823 266.988 354.783 277.767C353.182 272.327 350.41 265.941 345.808 262.89C341.989 260.362 338.953 254.788 337.362 248.308C338.574 243.62 339.725 239.678 340.199 238.738C341.445 236.265 343.689 222.168 343.689 222.168C343.9 218.596 344.372 215.044 345.1 211.539C346.91 202.968 349.986 197.196 352.813 193.486C356.224 188.975 359.295 187.422 359.295 187.422L366.649 186.309C375.125 186.027 379.213 192.423 381.183 199.431C383.596 208.141 381.577 217.46 376.112 224.701Z" fill="black"/>
<path d="M357.764 185.434C357.764 185.434 343.928 192.482 342.183 220.18C342.183 220.18 339.94 234.276 338.693 236.749C337.447 239.222 331.464 262.593 332.212 265.437C332.212 265.437 330.965 268.281 326.353 267.044C321.741 265.808 296.812 261.975 291.203 258.265L275.747 250.969C275.747 250.969 245.582 229.825 239.225 248.002C232.868 266.179 269.016 265.447 269.016 265.447L286.092 273.36L337.821 290.291C337.821 290.291 344.676 293.382 349.288 283.49C350.44 281.017 351.671 278.668 352.873 276.531C359.095 265.536 364.08 253.895 367.736 241.819C369.147 237.115 370.159 233.144 370.119 231.586C370.064 229.419 372.208 225.952 374.606 222.742C380.091 215.501 382.085 206.183 379.642 197.468C377.673 190.459 373.564 184.064 365.108 184.351L357.764 185.434Z" fill="#FFC1C7"/>
<path opacity="0.1" d="M184.59 147.151C182.755 148.061 181.912 150.87 181.573 154.076C181.249 154.076 180.925 154.076 180.601 154.076C173.898 154.088 167.425 151.651 162.417 147.23C162.727 143.877 162.816 141.052 162.816 141.052C162.816 141.052 189.576 144.678 184.59 147.151Z" fill="black"/>
<path d="M208.023 125.883C208.023 131.263 206.415 136.523 203.402 140.996C200.389 145.47 196.106 148.957 191.095 151.016C186.084 153.074 180.571 153.613 175.251 152.564C169.932 151.514 165.046 148.923 161.211 145.119C157.375 141.314 154.764 136.467 153.706 131.19C152.648 125.913 153.191 120.443 155.266 115.472C157.342 110.502 160.856 106.253 165.366 103.264C169.876 100.275 175.177 98.6793 180.601 98.6793C187.869 98.6949 194.835 101.566 199.974 106.664C205.113 111.763 208.008 118.673 208.023 125.883V125.883Z" fill="#FFC1C8"/>
<path opacity="0.1" d="M217.287 232.422C217.287 232.422 202.953 238.11 198.465 240.088C193.978 242.066 168.301 237.491 168.301 237.491C168.301 237.491 154.964 230.814 156.086 224.137C157.207 217.46 145.366 195.583 145.366 195.583C145.366 195.583 144.992 176.17 150.227 172.46C155.462 168.751 153.468 160.96 153.468 160.96C153.468 160.96 153.493 160.703 153.573 160.283C153.897 158.631 155.068 154.427 158.952 153.047C159.739 152.837 160.564 152.815 161.361 152.982C165.085 153.541 171.203 156.291 176.263 158.829C180.452 160.931 183.917 162.884 184.709 163.34L184.879 163.434C184.879 163.434 186.749 167.761 188.992 166.401C191.236 165.041 202.454 171.347 204.573 174.191C206.692 177.035 205.196 190.39 204.822 193.728C204.449 197.067 206.941 206.959 209.684 212.637C212.426 218.315 217.287 232.422 217.287 232.422Z" fill="black"/>
<path d="M217.287 230.938C217.287 230.938 202.953 236.626 198.465 238.604C193.978 240.583 168.301 236.008 168.301 236.008C168.301 236.008 154.964 229.33 156.086 222.653C157.207 215.976 145.366 194.099 145.366 194.099C145.366 194.099 144.992 174.686 150.227 170.976C155.462 167.267 153.468 159.477 153.468 159.477C153.468 159.477 153.493 159.219 153.573 158.799C153.897 157.147 155.068 152.943 158.952 151.563C159.739 151.353 160.564 151.331 161.361 151.499C165.085 152.058 171.203 154.808 176.263 157.345C180.452 159.447 183.917 161.401 184.709 161.856L184.879 161.95C184.879 161.95 186.749 166.278 188.992 164.917C191.236 163.557 202.454 169.863 204.573 172.707C206.692 175.551 205.196 188.906 204.822 192.244C204.449 195.583 206.941 205.475 209.684 211.153C212.426 216.832 217.287 230.938 217.287 230.938Z" fill="#DCE6F2"/>
<path d="M170.878 211.945C170.878 211.945 158.578 231.729 156.584 232.802L157.332 239.727C157.332 239.727 174.867 236.097 175.949 231.235C177.031 226.373 176.448 211.698 176.448 211.698L170.878 211.945Z" fill="#575988"/>
<path opacity="0.2" d="M170.878 211.945C170.878 211.945 158.578 231.729 156.584 232.802L157.332 239.727C157.332 239.727 174.867 236.097 175.949 231.235C177.031 226.373 176.448 211.698 176.448 211.698L170.878 211.945Z" fill="black"/>
<path opacity="0.1" d="M188.185 186.74C188.185 186.74 190.363 195.088 193.794 197.932C197.224 200.776 188.185 186.74 188.185 186.74Z" fill="black"/>
<path d="M166.805 208.75C167.119 209.309 177.649 223.529 188.743 228.781C199.837 234.034 224.581 240.222 224.581 240.222C224.581 240.222 244.65 243.931 248.075 245.351C251.5 246.77 255.868 240.405 234.364 231.319C212.86 222.233 208.686 218.212 208.686 218.212C208.686 218.212 189.989 209.175 186.998 204.724C184.006 200.272 166.805 208.75 166.805 208.75Z" fill="#FFC1C8"/>
<path opacity="0.1" d="M174.658 277.926C175.032 277.678 184.006 268.157 185.128 272.238C186.25 276.318 174.658 277.926 174.658 277.926Z" fill="black"/>
<path opacity="0.1" d="M179.893 259.13C179.768 259.501 178.522 270.012 174.907 271.248Z" fill="black"/>
<path opacity="0.1" d="M183.632 261.984C183.632 261.984 180.392 273.237 176.278 273.969Z" fill="black"/>
<path opacity="0.1" d="M167.179 295.732C167.179 295.732 172.664 295.855 173.412 292.393Z" fill="black"/>
<path opacity="0.1" d="M174.658 318.246C175.406 318.37 187.123 325.789 184.131 327.273C181.14 328.757 174.658 318.246 174.658 318.246Z" fill="black"/>
<path opacity="0.1" d="M175.72 380.874V382.016C175.66 383.757 175.635 384.92 175.635 384.92L156.579 393.931L156.494 382.021C156.494 382.021 156.494 381.967 156.494 381.863V381.057L164.123 381.299L175.72 380.874Z" fill="black"/>
<path d="M179.285 398.19L163.39 404.224L156.255 400.04L156.33 394.312L156.494 382.016L164.123 382.259L175.72 381.858V390.469L179.285 398.19Z" fill="#FF748F"/>
<path opacity="0.1" d="M179.27 398.195L163.375 404.229L156.24 400.045L156.315 394.317C157.35 395.663 158.673 396.765 160.189 397.543C161.704 398.321 163.375 398.757 165.08 398.818C165.08 398.818 170.674 391.893 174.08 389.885C174.322 389.742 174.59 389.648 174.87 389.611C175.149 389.573 175.433 389.593 175.705 389.668V390.474L179.27 398.195Z" fill="black"/>
<path d="M165.095 399.802C165.095 399.802 158.614 399.886 155.363 393.768C155.363 393.768 150.741 398.195 150.656 407.528C150.571 416.861 150.741 417.183 150.741 417.183C150.741 417.183 169.393 416.461 172.883 417.747C176.373 419.033 205.65 416.619 205.65 416.619C205.65 416.619 207.595 411.549 198.755 409.779C189.915 408.008 182.616 398.675 182.371 398.274C182.127 397.873 177.505 388.876 174.1 390.855C170.694 392.833 165.095 399.802 165.095 399.802Z" fill="#5D618C"/>
<path opacity="0.1" d="M182.286 95.8303L180.427 95.5781L181.588 95.5484L182.286 95.8303Z" fill="black"/>
<path opacity="0.1" d="M208.023 125.883C208.024 127.993 207.778 130.096 207.29 132.149C206.874 132.043 206.476 131.876 206.109 131.655C205.575 131.314 205.042 130.844 204.414 130.898C204.045 130.956 203.7 131.113 203.416 131.353C200.465 133.495 198.271 137.016 194.681 137.699C195.041 136.657 195.089 135.533 194.821 134.464C194.059 135.224 193.125 135.791 192.097 136.118C191.069 136.445 189.977 136.522 188.912 136.344C189.172 135.726 189.202 135.037 188.997 134.4C186.469 135.804 183.837 137.016 181.124 138.025C181.03 137.531 180.94 137.076 180.845 136.601C177.026 138.451 177.325 144.727 173.506 146.577C171.233 147.68 168.022 146.889 166.451 148.877C166.391 148.956 166.336 149.035 166.282 149.12C162.201 146.643 158.844 143.151 156.544 138.989C154.245 134.828 153.083 130.142 153.174 125.397C153.264 120.652 154.605 116.013 157.062 111.942C159.519 107.87 163.007 104.506 167.18 102.185C171.352 99.8642 176.065 98.6666 180.848 98.7111C185.632 98.7556 190.321 100.041 194.449 102.439C198.577 104.837 202.001 108.265 204.38 112.382C206.76 116.499 208.012 121.162 208.013 125.908L208.023 125.883Z" fill="black"/>
<path d="M182.286 94.8362C179.983 93.8915 177.644 92.9418 175.166 92.6599C172.688 92.378 170.016 92.8578 168.146 94.4949C166.65 95.8007 165.479 97.8978 163.484 97.9572C162.512 97.9918 161.615 97.5071 160.742 97.0867C158.249 95.8996 155.133 95.2269 152.884 96.7998C151.09 98.061 150.416 100.376 150.122 102.537C149.828 104.699 149.758 106.989 148.721 108.893C148.078 110.08 147.101 111.049 146.293 112.133C144.24 114.885 143.275 118.288 143.581 121.698C143.789 123.385 144.153 125.049 144.668 126.669L146.702 133.797C147.734 137.417 148.786 141.087 150.751 144.307C152.715 147.527 155.736 150.297 159.426 151.128C161.65 151.622 164.342 151.217 165.588 149.322C165.908 148.828 166.112 148.298 166.461 147.839C168.007 145.86 171.242 146.647 173.516 145.544C177.335 143.694 177.036 137.417 180.855 135.567L181.139 136.987C183.849 135.976 186.479 134.766 189.007 133.366C189.211 134.003 189.183 134.691 188.927 135.31C189.991 135.486 191.082 135.407 192.109 135.081C193.136 134.754 194.069 134.188 194.831 133.431C195.099 134.5 195.051 135.623 194.691 136.665C198.281 135.978 200.475 132.456 203.426 130.315C203.712 130.078 204.056 129.922 204.423 129.864C205.057 129.81 205.585 130.28 206.119 130.616C207.043 131.173 208.13 131.402 209.202 131.266C210.274 131.131 211.268 130.638 212.022 129.869C213.592 128.178 213.662 125.576 213.159 123.331C212.655 121.085 211.663 118.943 211.449 116.653C211.134 113.532 212.231 110.273 211.224 107.305C210.372 104.788 208.138 102.963 205.74 101.766C203.342 100.569 200.754 99.8713 198.306 98.798C195.982 97.7643 193.818 96.3794 191.405 95.5633C187.915 94.3811 184.121 94.4751 180.436 94.574" fill="#794F6A"/>
<path d="M182.76 186.967C182.76 186.967 186.749 160.342 152.595 161.658L135.394 163.928C135.394 163.928 151.803 166.856 155.751 167.287L156.17 167.346C159.825 168.009 172.459 167.183 182.76 186.967Z" fill="#60A3D9"/>
<path opacity="0.1" d="M160.947 293.145V292.838C174.952 280.824 160.947 293.145 160.947 293.145Z" fill="black"/>
<path d="M130.817 294.08C128.81 294.258 126.791 294.258 124.784 294.08L82.8281 233.5C83.6009 231.492 85.4507 230.295 87.2207 229.588L130.817 294.08Z" fill="#575988"/>
<path d="M103.609 229.217L101.615 231.566C101.615 231.566 86.4878 206.638 83.2371 193.976C83.8553 192.536 84.7877 192.23 84.7877 192.23C84.7877 192.23 86.3632 191.077 88.901 189.262C89.8433 195.217 93.0592 209.778 103.609 229.217Z" fill="#575988"/>
<path d="M114.703 221.54L110.714 223.766C99.8248 211.124 98.8975 189.885 98.9972 181.422L101.869 179.375C102.258 190.489 114.703 221.54 114.703 221.54Z" fill="#575988"/>
<path opacity="0.1" d="M125.173 219.324C125.049 220.932 120.437 237.254 127.168 239.974C133.898 242.695 125.173 219.324 125.173 219.324Z" fill="black"/>
<path opacity="0.1" d="M139.632 247.393C139.881 248.259 142.125 276.452 146.986 274.226C151.847 272 149.23 239.851 149.23 239.851L139.632 247.393Z" fill="black"/>
<path opacity="0.1" d="M371.39 136.27C371.401 144.275 368.276 151.972 362.675 157.736C360.394 158.215 358.041 158.255 355.745 157.854C354.571 157.707 353.455 157.262 352.504 156.563C351.588 155.725 350.872 154.697 350.405 153.551C348.585 149.669 347.653 145.182 345.1 141.859C342.547 138.535 337.367 137.076 334.904 140.484C333.563 142.333 333.338 145.178 331.548 146.459C329.399 148.002 326.562 146.187 324.892 143.985C319.956 137.556 321.646 124.913 312.233 123.138L311.854 123.073C314.873 116.688 319.996 111.515 326.378 108.408C332.76 105.301 340.019 104.446 346.957 105.984C353.895 107.522 360.098 111.36 364.54 116.867C368.982 122.373 371.398 129.217 371.39 136.27V136.27Z" fill="black"/>
<path d="M312.732 122.678C311.206 122.386 309.436 122.425 308.414 121.12C307.811 120.348 307.636 119.28 307.491 118.266C306.878 113.884 306.544 109.18 308.304 105.208C311.191 98.6941 318.62 96.5178 325.077 97.0026C331.533 97.4873 337.87 99.8762 344.327 99.4756C349.074 99.169 353.755 97.3488 358.487 97.8681C362.231 98.2836 365.722 100.128 369.087 102.013C372.238 103.774 375.459 105.668 377.693 108.725C380.973 113.201 381.592 119.384 381.681 125.185C381.791 131.996 381.307 139.069 378.426 145.064C374.247 153.764 364.929 158.942 356.243 157.384C355.069 157.237 353.953 156.792 353.003 156.094C352.09 155.254 351.375 154.226 350.908 153.081C349.084 149.194 348.151 144.713 345.598 141.384C343.046 138.055 337.865 136.606 335.402 140.014C334.061 141.859 333.837 144.708 332.047 145.989C329.898 147.527 327.061 145.712 325.391 143.516C320.455 137.081 322.145 124.448 312.732 122.678Z" fill="#945B79"/>
<path d="M388.607 108.299C393.358 110.55 396.654 114.932 399.75 119.151C402.328 122.658 404.995 126.407 405.334 130.73C405.469 132.501 405.205 134.301 405.544 136.042C406.735 142.19 414.518 144.945 416.792 150.801C417.849 153.561 417.515 156.633 417.051 159.551C416.385 163.772 415.487 167.954 414.364 172.079C413.691 174.552 412.928 177.124 413.441 179.637C413.835 181.586 414.937 183.297 415.815 185.078C418.103 189.88 418.497 195.326 418.672 200.633C418.846 205.94 418.841 211.341 420.442 216.406C422.042 221.471 425.572 226.259 430.663 227.896C428.953 229.052 426.971 229.751 424.909 229.924C424.605 231.581 425.557 233.267 426.903 234.316C428.249 235.365 429.895 235.909 431.5 236.428C430.405 237.195 429.145 237.699 427.819 237.902C426.494 238.104 425.139 237.999 423.862 237.595C421.733 236.903 419.973 235.419 418.273 233.965L408.715 225.809C407.438 224.783 406.258 223.644 405.19 222.406C399.007 214.784 402.697 203.235 399.247 194.079C396.435 186.636 388.876 180.592 389.569 172.673C389.758 170.457 390.616 168.36 391.334 166.243C393.881 158.563 394.68 150.418 393.676 142.395C392.672 134.371 389.888 126.668 385.525 119.839C384.434 118.157 383.167 116.465 381.347 115.6C378.58 114.289 374.626 114.853 373.056 112.236C372.223 110.857 372.059 108.428 371.984 106.88C377.06 105.727 383.86 106.049 388.607 108.299Z" fill="#945B79"/>
<path opacity="0.1" d="M145.8 192.042C148.133 176.828 167.304 171.332 177.48 182.961C180.422 186.334 183.029 190.029 184.505 193.723C189.491 206.212 189.865 207.325 189.865 207.325C189.865 207.325 159.077 213.26 159.326 217.712L145.366 195.578C145.366 195.578 145.471 194.193 145.8 192.042Z" fill="black"/>
<path d="M145.8 190.558C148.133 175.344 167.304 169.849 177.48 181.477C180.422 184.85 183.029 188.545 184.505 192.24C189.491 204.728 189.865 205.841 189.865 205.841C189.865 205.841 159.077 211.777 159.326 216.228L145.366 194.094C145.366 194.094 145.471 192.709 145.8 190.558Z" fill="#DCE6F2"/>
<path opacity="0.1" d="M154.465 171.036C154.839 171.654 169.547 189.46 177.275 191.997C185.004 194.535 154.465 171.036 154.465 171.036Z" fill="black"/>
<path opacity="0.1" d="M91.2693 228.598C91.2693 228.598 130.159 274.102 135.145 292.527Z" fill="black"/>
<path opacity="0.1" d="M92.7649 186.557C92.7649 186.557 101.241 230.082 117.694 248.383C134.148 266.683 151.1 297.844 151.1 297.844" stroke="black" stroke-width="2" stroke-miterlimit="10"/>
<g opacity="0.1">
<path opacity="0.1" d="M212.929 123.232C212.963 124.678 212.459 126.087 211.513 127.189C210.76 127.957 209.766 128.45 208.693 128.585C207.621 128.721 206.534 128.492 205.61 127.935C205.077 127.599 204.548 127.129 203.915 127.184C203.548 127.242 203.203 127.397 202.918 127.634C200.111 129.672 197.987 132.956 194.691 133.861C194.808 134.735 194.719 135.623 194.432 136.458C198.022 135.77 200.215 132.248 203.167 130.107C203.452 129.87 203.797 129.715 204.164 129.657C204.798 129.602 205.326 130.072 205.86 130.408C206.783 130.965 207.87 131.194 208.943 131.059C210.015 130.923 211.009 130.43 211.763 129.662C213.303 127.98 213.398 125.448 212.929 123.232Z" fill="black"/>
<path opacity="0.1" d="M210.94 113.953C210.98 114.358 211.05 114.759 211.13 115.16C211.13 112.687 211.723 110.115 211.13 107.741C211.14 109.759 210.731 111.895 210.94 113.953Z" fill="black"/>
<path opacity="0.1" d="M194.332 130.73C193.57 131.487 192.637 132.053 191.61 132.38C190.583 132.707 189.493 132.786 188.429 132.61C188.684 131.991 188.712 131.303 188.509 130.666C185.981 132.066 183.351 133.276 180.641 134.286L180.357 132.867C176.538 134.717 176.837 140.993 173.018 142.843C170.744 143.946 167.533 143.15 165.963 145.138C165.614 145.588 165.409 146.127 165.09 146.622C163.844 148.516 161.151 148.927 158.928 148.427C155.228 147.596 152.212 144.826 150.252 141.606C148.293 138.387 147.236 134.717 146.204 131.096L144.169 123.969C143.835 122.782 143.496 121.595 143.277 120.383C143.277 120.749 143.277 121.11 143.332 121.471C143.54 123.157 143.904 124.821 144.419 126.442L146.453 133.569C147.485 137.19 148.537 140.86 150.501 144.079C152.466 147.299 155.487 150.069 159.177 150.9C161.401 151.395 164.093 150.989 165.339 149.095C165.658 148.6 165.863 148.071 166.212 147.611C167.757 145.633 170.993 146.419 173.267 145.316C177.086 143.466 176.787 137.19 180.606 135.34L180.89 136.759C183.595 135.748 186.22 134.538 188.743 133.139C188.947 133.776 188.918 134.464 188.663 135.083C189.675 135.249 190.711 135.184 191.694 134.895C192.677 134.605 193.581 134.098 194.337 133.411C194.55 132.529 194.548 131.611 194.332 130.73V130.73Z" fill="black"/>
</g>
<path opacity="0.1" d="M184.709 163.34C182.027 164.873 175.795 168.286 174.533 167.702C173.187 167.084 158.499 161.984 153.593 160.283C153.917 158.631 155.088 154.427 158.972 153.047C159.759 152.837 160.584 152.815 161.38 152.982L176.278 158.829C180.451 160.931 183.917 162.884 184.709 163.34Z" fill="black"/>
<path d="M184.709 161.856C182.027 163.389 175.795 166.802 174.533 166.218C173.187 165.6 158.499 160.5 153.593 158.799C153.917 157.147 155.088 152.943 158.972 151.563C159.759 151.353 160.584 151.331 161.38 151.499L176.278 157.345C180.451 159.447 183.917 161.401 184.709 161.856Z" fill="#DCE6F2"/>
<path opacity="0.1" d="M381.696 124.597C381.552 130.171 380.789 135.745 378.451 140.617C374.272 149.317 364.954 154.496 356.268 152.938C355.094 152.79 353.978 152.346 353.028 151.647C352.115 150.808 351.4 149.779 350.934 148.635C349.109 144.747 348.176 140.266 345.624 136.937C343.071 133.609 337.89 132.159 335.427 135.567C334.086 137.412 333.862 140.261 332.072 141.542C329.923 143.08 327.086 141.265 325.416 139.069C320.48 132.639 322.17 119.992 312.757 118.221C311.231 117.929 309.461 117.969 308.439 116.663C307.836 115.892 307.661 114.823 307.516 113.809C307.347 112.617 307.202 111.401 307.118 110.179C306.944 112.879 307.078 115.59 307.516 118.261C307.661 119.275 307.836 120.343 308.439 121.115C309.461 122.421 311.231 122.381 312.757 122.673C322.17 124.443 320.48 137.076 325.416 143.521C327.081 145.692 329.903 147.507 332.072 145.994C333.862 144.713 334.066 141.864 335.427 140.019C337.89 136.611 343.071 138.065 345.624 141.389C348.176 144.713 349.114 149.199 350.934 153.086C351.4 154.231 352.115 155.259 353.028 156.098C353.978 156.797 355.094 157.242 356.268 157.389C364.954 158.947 374.272 153.769 378.451 145.069C381.332 139.074 381.816 132.001 381.706 125.19C381.696 124.973 381.696 124.775 381.696 124.597Z" fill="black"/>
<g opacity="0.1">
<path opacity="0.1" d="M414.299 148.338C415.356 151.098 415.022 154.169 414.558 157.088C413.891 161.306 412.994 165.485 411.871 169.606C411.198 172.079 410.435 174.651 410.948 177.164C411.342 179.113 412.444 180.824 413.321 182.605C415.61 187.407 416.004 192.853 416.178 198.16C416.353 203.467 416.348 208.868 417.948 213.933C418.985 217.385 420.967 220.484 423.672 222.885C422.243 220.986 421.15 218.858 420.441 216.594C418.841 211.529 418.841 206.128 418.671 200.821C418.502 195.514 418.103 190.068 415.814 185.27C414.957 183.475 413.82 181.764 413.441 179.83C412.943 177.317 413.69 174.74 414.364 172.267C415.488 168.134 416.385 163.944 417.051 159.714C417.515 156.796 417.849 153.719 416.792 150.959C415.939 148.749 414.299 147.003 412.519 145.306C413.264 146.221 413.864 147.243 414.299 148.338V148.338Z" fill="black"/>
<path opacity="0.1" d="M430.662 228.094C429.33 227.657 428.077 227.009 426.953 226.175C425.542 226.903 424 227.346 422.416 227.48C422.112 229.137 423.064 230.824 424.41 231.873C424.678 232.086 424.961 232.28 425.258 232.451C424.911 231.726 424.794 230.914 424.924 230.122C426.979 229.942 428.955 229.244 430.662 228.094V228.094Z" fill="black"/>
<path opacity="0.1" d="M378.839 113.166C376.94 112.266 374.482 112.246 372.617 111.48C372.722 111.823 372.865 112.155 373.041 112.469C374.611 115.08 378.565 114.517 381.332 115.832C381.682 116.006 382.015 116.21 382.329 116.441C381.465 115.073 380.264 113.947 378.839 113.166V113.166Z" fill="black"/>
<path opacity="0.1" d="M427.382 234.895C425.472 235.702 423.332 235.803 421.354 235.177C419.225 234.484 417.465 233 415.765 231.546L406.207 223.39C405.753 223.004 405.304 222.613 404.866 222.218C404.965 222.351 405.065 222.49 405.175 222.623C406.242 223.863 407.422 225.002 408.7 226.026L418.258 234.187C419.958 235.637 421.718 237.125 423.847 237.818C425.125 238.221 426.48 238.326 427.805 238.122C429.13 237.919 430.39 237.413 431.485 236.646C430.042 236.253 428.661 235.664 427.382 234.895Z" fill="black"/>
<path opacity="0.1" d="M397.257 116.683C399.835 120.19 402.502 123.939 402.841 128.262C402.976 130.033 402.712 131.833 403.051 133.574C403.589 136.359 405.489 138.451 407.613 140.444C406.586 139.223 405.876 137.771 405.544 136.215C405.205 134.469 405.469 132.669 405.334 130.898C404.995 126.575 402.343 122.826 399.75 119.324C397.876 116.767 395.921 114.156 393.623 111.989C394.904 113.493 396.096 115.095 397.257 116.683Z" fill="black"/>
</g>
<path opacity="0.1" d="M375.384 106.43C375.384 106.43 372.393 111.376 380.868 115.496L381.367 114.175L375.384 106.43Z" fill="black"/>
<path d="M374.886 106.43C374.886 106.43 371.894 111.376 380.37 115.496L380.869 114.175L374.886 106.43Z" fill="#FF6584"/>
<path d="M492.906 386.374C492.906 386.374 495.648 389.93 491.645 395.277C487.641 400.623 484.34 405.169 485.662 408.517C485.662 408.517 491.705 398.551 496.631 398.412C501.557 398.274 498.316 392.368 492.906 386.374Z" fill="#60A3D9"/>
<path opacity="0.1" d="M492.906 386.374C493.145 386.717 493.335 387.091 493.47 387.487C498.266 393.081 500.819 398.299 496.207 398.427C491.914 398.551 486.764 406.168 485.527 408.092C485.567 408.24 485.617 408.384 485.672 408.532C485.672 408.532 491.715 398.566 496.641 398.427C501.567 398.289 498.316 392.368 492.906 386.374Z" fill="black"/>
<path d="M498.002 390.904C498.002 392.156 497.857 393.17 497.683 393.17C497.508 393.17 497.368 392.18 497.368 390.904C497.368 389.628 497.543 390.241 497.717 390.241C497.892 390.241 498.002 389.653 498.002 390.904Z" fill="#FFD037"/>
<path d="M499.747 392.398C498.64 392.997 497.673 393.358 497.593 393.204C497.513 393.051 498.336 392.443 499.443 391.844C500.549 391.246 500.116 391.681 500.2 391.844C500.285 392.007 500.859 391.8 499.747 392.398Z" fill="#FFD037"/>
<path d="M478.422 386.374C478.422 386.374 475.68 389.93 479.684 395.277C483.687 400.623 486.988 405.169 485.667 408.517C485.667 408.517 479.629 398.551 474.698 398.412C469.767 398.274 473.033 392.368 478.422 386.374Z" fill="#60A3D9"/>
<path opacity="0.1" d="M478.422 386.374C478.183 386.717 477.993 387.091 477.859 387.487C473.062 393.081 470.51 398.299 475.122 398.427C479.414 398.551 484.565 406.168 485.801 408.092C485.76 408.242 485.71 408.389 485.652 408.532C485.652 408.532 479.614 398.566 474.683 398.427C469.752 398.289 473.032 392.368 478.422 386.374Z" fill="black"/>
<path d="M473.346 390.904C473.346 392.156 473.491 393.17 473.666 393.17C473.84 393.17 473.98 392.18 473.98 390.904C473.98 389.628 473.805 390.241 473.631 390.241C473.456 390.241 473.346 389.653 473.346 390.904Z" fill="#FFD037"/>
<path d="M471.601 392.398C472.708 392.997 473.671 393.358 473.755 393.204C473.84 393.051 473.012 392.443 471.906 391.844C470.799 391.246 471.233 391.681 471.148 391.844C471.063 392.007 470.495 391.8 471.601 392.398Z" fill="#FFD037"/>
<path d="M474.219 408.067C474.219 408.067 481.877 407.83 484.191 406.203C486.504 404.575 495.972 402.622 496.546 405.213C497.119 407.805 508.053 418.217 499.408 418.286C490.762 418.355 479.32 416.95 477.016 415.561C474.713 414.171 474.219 408.067 474.219 408.067Z" fill="#A8A8A8"/>
<path opacity="0.2" d="M499.557 417.405C490.912 417.475 479.469 416.07 477.166 414.68C475.411 413.617 474.713 409.813 474.478 408.062H474.219C474.219 408.062 474.718 414.19 477.011 415.585C479.305 416.98 490.757 418.38 499.403 418.311C501.896 418.311 502.758 417.41 502.713 416.105C502.354 416.911 501.412 417.405 499.557 417.405Z" fill="black"/>
<path d="M131.949 399.347C132.864 398.609 133.532 397.612 133.864 396.488C134.108 395.351 133.619 393.986 132.527 393.57C131.301 393.105 129.99 393.951 128.997 394.802C128.005 395.653 126.863 396.627 125.562 396.444C126.231 395.843 126.732 395.08 127.015 394.229C127.298 393.379 127.354 392.47 127.178 391.592C127.121 391.228 126.966 390.886 126.729 390.603C126.051 389.88 124.814 390.192 123.997 390.761C121.404 392.566 120.681 396.063 120.671 399.204C120.407 398.071 120.626 396.889 120.621 395.742C120.616 394.594 120.292 393.269 119.305 392.665C118.695 392.33 118.007 392.16 117.31 392.17C116.144 392.126 114.847 392.245 114.05 393.09C113.053 394.139 113.317 395.905 114.179 397.047C115.042 398.19 116.348 398.932 117.55 399.728C118.517 400.298 119.342 401.078 119.963 402.008C120.036 402.139 120.096 402.277 120.142 402.419H127.417C129.061 401.603 130.585 400.57 131.949 399.347V399.347Z" fill="#60A3D9"/>
<path d="M73.8983 407.147C73.8983 407.147 66.9181 383.554 75.2096 366.184C78.7447 358.922 79.8118 350.718 78.251 342.804C77.4764 339.052 76.3582 335.378 74.9105 331.828" stroke="#535461" stroke-width="2" stroke-miterlimit="10"/>
<path d="M80.0908 320.853C80.0908 323.741 74.8108 332.13 74.8108 332.13C74.8108 332.13 69.5308 323.721 69.5308 320.853C69.5308 319.464 70.0871 318.131 71.0773 317.149C72.0674 316.167 73.4105 315.615 74.8108 315.615C76.2112 315.615 77.5541 316.167 78.5443 317.149C79.5345 318.131 80.0908 319.464 80.0908 320.853V320.853Z" fill="#60A3D9"/>
<path d="M88.8162 336.868C87.2307 339.297 78.2063 343.491 78.2063 343.491C78.2063 343.491 78.3658 333.599 79.9514 331.18C80.7262 330.047 81.9176 329.26 83.2703 328.987C84.6231 328.715 86.0297 328.979 87.1887 329.722C88.3478 330.466 89.1672 331.63 89.4714 332.966C89.7756 334.302 89.5404 335.703 88.8162 336.868V336.868Z" fill="#60A3D9"/>
<path d="M88.4323 364.245C85.8297 365.546 75.9028 364.646 75.9028 364.646C75.9028 364.646 81.0782 356.198 83.6808 354.892C84.3015 354.566 84.9815 354.366 85.6811 354.304C86.3807 354.242 87.0857 354.319 87.7549 354.53C88.4242 354.742 89.0441 355.083 89.5785 355.536C90.1129 355.988 90.5509 356.541 90.867 357.163C91.1831 357.786 91.3709 358.464 91.4194 359.159C91.4678 359.854 91.376 360.552 91.1493 361.212C90.9226 361.871 90.5655 362.479 90.0989 363C89.6324 363.521 89.0658 363.944 88.4323 364.245Z" fill="#60A3D9"/>
<path d="M83.4413 384.89C81.098 386.611 71.1611 387.363 71.1611 387.363C71.1611 387.363 74.8208 378.168 77.1442 376.447C77.6973 375.997 78.3368 375.663 79.0239 375.466C79.711 375.269 80.4313 375.212 81.1411 375.3C81.8509 375.387 82.5354 375.616 83.1531 375.974C83.7708 376.332 84.3088 376.81 84.7345 377.38C85.1602 377.951 85.4646 378.601 85.6294 379.291C85.7942 379.982 85.8158 380.698 85.693 381.397C85.5702 382.096 85.3055 382.763 84.9151 383.357C84.5246 383.952 84.0164 384.462 83.4214 384.855L83.4413 384.89Z" fill="#60A3D9"/>
<path d="M67.1225 344.05C69.2116 346.068 78.954 348.155 78.954 348.155C78.954 348.155 76.5657 338.555 74.4667 336.537C73.9738 336.037 73.3851 335.64 72.7352 335.37C72.0853 335.099 71.3874 334.961 70.6826 334.962C69.9779 334.963 69.2805 335.105 68.6317 335.378C67.9828 335.651 67.3956 336.05 66.9046 336.551C66.4137 337.053 66.0289 337.647 65.773 338.298C65.5171 338.95 65.3952 339.645 65.4146 340.344C65.434 341.043 65.5942 341.731 65.8858 342.367C66.1774 343.004 66.5945 343.576 67.1125 344.05H67.1225Z" fill="#60A3D9"/>
<path d="M61.6034 368.271C64.206 369.572 74.1329 368.677 74.1329 368.677C74.1329 368.677 68.9625 360.224 66.3549 358.923C65.7362 358.613 65.062 358.428 64.371 358.377C63.6799 358.326 62.9855 358.41 62.3274 358.625C61.6693 358.84 61.0603 359.182 60.5353 359.631C60.0103 360.079 59.5795 360.626 59.2675 361.24C58.9555 361.854 58.7684 362.523 58.717 363.208C58.6655 363.894 58.7507 364.583 58.9676 365.235C59.1845 365.888 59.5289 366.492 59.9811 367.013C60.4334 367.534 60.9846 367.961 61.6034 368.271V368.271Z" fill="#60A3D9"/>
<path d="M59.4793 392.546C61.8227 394.263 71.7595 395.019 71.7595 395.019C71.7595 395.019 68.0999 385.82 65.7765 384.098C64.6489 383.352 63.2752 383.065 61.94 383.296C60.6047 383.527 59.41 384.258 58.6033 385.339C57.7967 386.419 57.4398 387.766 57.6065 389.1C57.7733 390.435 58.451 391.654 59.4992 392.507L59.4793 392.546Z" fill="#60A3D9"/>
<path d="M80.0908 320.853C80.0908 323.741 74.8108 332.13 74.8108 332.13C74.8108 332.13 69.5308 323.721 69.5308 320.853C69.5308 319.464 70.0871 318.131 71.0773 317.149C72.0674 316.167 73.4105 315.615 74.8108 315.615C76.2112 315.615 77.5541 316.167 78.5443 317.149C79.5345 318.131 80.0908 319.464 80.0908 320.853V320.853Z" fill="#60A3D9"/>
<path d="M88.8162 336.868C87.2307 339.297 78.2063 343.491 78.2063 343.491C78.2063 343.491 78.3658 333.599 79.9514 331.18C80.7262 330.047 81.9176 329.26 83.2703 328.987C84.6231 328.715 86.0297 328.979 87.1887 329.722C88.3478 330.466 89.1672 331.63 89.4714 332.966C89.7756 334.302 89.5404 335.703 88.8162 336.868V336.868Z" fill="#60A3D9"/>
<path d="M88.4323 364.245C85.8297 365.546 75.9028 364.646 75.9028 364.646C75.9028 364.646 81.0782 356.198 83.6808 354.892C84.3015 354.566 84.9815 354.366 85.6811 354.304C86.3807 354.242 87.0857 354.319 87.7549 354.53C88.4242 354.742 89.0441 355.083 89.5785 355.536C90.1129 355.988 90.5509 356.541 90.867 357.163C91.1831 357.786 91.3709 358.464 91.4194 359.159C91.4678 359.854 91.376 360.552 91.1493 361.212C90.9226 361.871 90.5655 362.479 90.0989 363C89.6324 363.521 89.0658 363.944 88.4323 364.245Z" fill="#60A3D9"/>
<path d="M83.4413 384.89C81.098 386.611 71.1611 387.363 71.1611 387.363C71.1611 387.363 74.8208 378.168 77.1442 376.447C77.6973 375.997 78.3368 375.663 79.0239 375.466C79.711 375.269 80.4313 375.212 81.1411 375.3C81.8509 375.387 82.5354 375.616 83.1531 375.974C83.7708 376.332 84.3088 376.81 84.7345 377.38C85.1602 377.951 85.4646 378.601 85.6294 379.291C85.7942 379.982 85.8158 380.698 85.693 381.397C85.5702 382.096 85.3055 382.763 84.9151 383.357C84.5246 383.952 84.0164 384.462 83.4214 384.855L83.4413 384.89Z" fill="#60A3D9"/>
<path d="M67.1225 344.05C69.2116 346.068 78.954 348.155 78.954 348.155C78.954 348.155 76.5657 338.555 74.4667 336.537C73.9738 336.037 73.3851 335.64 72.7352 335.37C72.0853 335.099 71.3874 334.961 70.6826 334.962C69.9779 334.963 69.2805 335.105 68.6317 335.378C67.9828 335.651 67.3956 336.05 66.9046 336.551C66.4137 337.053 66.0289 337.647 65.773 338.298C65.5171 338.95 65.3952 339.645 65.4146 340.344C65.434 341.043 65.5942 341.731 65.8858 342.367C66.1774 343.004 66.5945 343.576 67.1125 344.05H67.1225Z" fill="#60A3D9"/>
<path d="M61.6034 368.271C64.206 369.572 74.1329 368.677 74.1329 368.677C74.1329 368.677 68.9625 360.224 66.3549 358.923C65.7362 358.613 65.062 358.428 64.371 358.377C63.6799 358.326 62.9855 358.41 62.3274 358.625C61.6693 358.84 61.0603 359.182 60.5353 359.631C60.0103 360.079 59.5795 360.626 59.2675 361.24C58.9555 361.854 58.7684 362.523 58.717 363.208C58.6655 363.894 58.7507 364.583 58.9676 365.235C59.1845 365.888 59.5289 366.492 59.9811 367.013C60.4334 367.534 60.9846 367.961 61.6034 368.271V368.271Z" fill="#60A3D9"/>
<path d="M59.4793 392.546C61.8227 394.263 71.7595 395.019 71.7595 395.019C71.7595 395.019 68.0999 385.82 65.7765 384.098C64.6489 383.352 63.2752 383.065 61.94 383.296C60.6047 383.527 59.41 384.258 58.6033 385.339C57.7967 386.419 57.4398 387.766 57.6065 389.1C57.7733 390.435 58.451 391.654 59.4992 392.507L59.4793 392.546Z" fill="#60A3D9"/>
<path d="M57.3403 405.663C57.3403 405.663 65.8712 403.982 68.1447 401.741C70.4183 399.501 80.6593 395.578 81.796 398.378C82.9328 401.177 97.1525 410.703 87.4849 412.385C77.8173 414.067 64.7344 414.626 61.8875 413.503C59.0405 412.38 57.3403 405.663 57.3403 405.663Z" fill="#A8A8A8"/>
<path opacity="0.2" d="M87.4849 411.342C77.8123 413.023 64.7344 413.582 61.8875 412.464C59.7236 411.609 58.2178 407.518 57.6245 405.604L57.3403 405.663C57.3403 405.663 59.0455 412.385 61.8875 413.503C64.7294 414.621 77.8123 414.067 87.4849 412.385C90.272 411.891 91.0698 410.758 90.7706 409.319C90.5213 410.258 89.559 410.976 87.4849 411.342Z" fill="black"/>
<defs>
<linearGradient id="paint0_linear" x1="256.97" y1="420.833" x2="256.97" y2="89.9" gradientUnits="userSpaceOnUse">
<stop stop-color="#808080" stop-opacity="0.25"/>
<stop offset="0.54" stop-color="#808080" stop-opacity="0.12"/>
<stop offset="1" stop-color="#808080" stop-opacity="0.1"/>
</linearGradient>
</defs>
</svg>
