<svg width="550" height="450" viewBox="0 0 550 450" fill="none" xmlns="http://www.w3.org/2000/svg">
<path d="M283.978 435.736C422.241 435.736 534.325 428.368 534.325 419.28C534.325 410.191 422.241 402.824 283.978 402.824C145.715 402.824 33.6304 410.191 33.6304 419.28C33.6304 428.368 145.715 435.736 283.978 435.736Z" fill="#3F3D56"/>
<path opacity="0.1" d="M282.059 427.103C329.736 427.103 368.386 422.996 368.386 417.931C368.386 412.865 329.736 408.759 282.059 408.759C234.382 408.759 195.732 412.865 195.732 417.931C195.732 422.996 234.382 427.103 282.059 427.103Z" fill="black"/>
<path d="M292.052 115.104C292.052 115.104 290.7 125.92 285.968 126.596C281.236 127.272 262.983 127.948 260.955 133.356C259.727 136.641 258.821 140.037 258.251 143.497L287.32 150.257L317.741 155.665L337.345 154.313C337.345 154.313 338.021 136.06 327.881 133.356C317.741 130.652 310.304 129.3 309.628 124.568C308.952 119.836 308.276 116.456 308.276 116.456L292.052 115.104Z" fill="#FFB9B9"/>
<path d="M298.128 120.208C311.013 120.208 321.459 109.762 321.459 96.8768C321.459 83.9914 311.013 73.5458 298.128 73.5458C285.243 73.5458 274.797 83.9914 274.797 96.8768C274.797 109.762 285.243 120.208 298.128 120.208Z" fill="#2F2E41"/>
<path d="M245.407 183.382L221.07 223.267C221.07 223.267 200.114 240.843 209.578 243.547C219.042 246.251 228.507 225.971 228.507 225.971L258.251 192.17L245.407 183.382Z" fill="#FFB9B9"/>
<path d="M345.458 200.958L355.598 239.491C355.598 239.491 378.929 254.989 369.465 254.989C360.001 254.989 348.838 241.519 348.838 241.519L331.938 203.662L345.458 200.958Z" fill="#FFB9B9"/>
<path d="M258.927 266.532C258.927 266.532 258.251 310.473 254.871 313.853C251.491 317.233 249.463 363.879 250.139 373.343C250.815 382.807 248.787 390.244 248.787 391.596C248.787 392.948 259.603 393.624 259.603 393.624L275.152 286.813L258.927 266.532Z" fill="#FFB9B9"/>
<path d="M252.167 386.863L247.435 388.215C247.435 388.215 246.083 399.032 245.407 401.06C244.731 403.088 239.999 417.96 248.787 419.312C257.576 420.664 262.984 413.904 262.984 413.228C262.984 412.552 260.28 400.384 260.956 399.032C261.632 397.68 262.984 386.863 262.984 386.863L252.167 386.863Z" fill="#2F2E41"/>
<path opacity="0.1" d="M252.167 386.863L247.435 388.215C247.435 388.215 246.083 399.032 245.407 401.06C244.731 403.088 239.999 417.96 248.787 419.312C257.576 420.664 262.984 413.904 262.984 413.228C262.984 412.552 260.28 400.384 260.956 399.032C261.632 397.68 262.984 386.863 262.984 386.863L252.167 386.863Z" fill="black"/>
<path d="M320.445 388.892L325.177 390.244C325.177 390.244 326.529 401.06 327.205 403.088C327.881 405.116 332.613 419.988 323.825 421.34C315.037 422.692 309.628 415.932 309.628 415.256C309.628 414.58 312.332 402.412 311.656 401.06C310.98 399.708 309.628 388.891 309.628 388.891L320.445 388.892Z" fill="#2F2E41"/>
<path opacity="0.1" d="M320.445 388.892L325.177 390.244C325.177 390.244 326.529 401.06 327.205 403.088C327.881 405.116 332.613 419.988 323.825 421.34C315.037 422.692 309.628 415.932 309.628 415.256C309.628 414.58 312.332 402.412 311.656 401.06C310.98 399.708 309.628 388.891 309.628 388.891L320.445 388.892Z" fill="black"/>
<path d="M301.516 121.188C310.477 121.188 317.741 113.924 317.741 104.964C317.741 96.003 310.477 88.7391 301.516 88.7391C292.556 88.7391 285.292 96.003 285.292 104.964C285.292 113.924 292.556 121.188 301.516 121.188Z" fill="#FFB9B9"/>
<path d="M273.124 186.762L270.42 200.282C270.42 200.282 252.167 225.971 255.547 257.744C258.927 289.517 258.251 322.642 258.927 331.43C259.603 340.218 262.983 378.751 256.899 392.272C250.815 405.792 258.927 406.468 259.603 406.468C260.279 406.468 262.307 403.088 267.039 408.496C271.772 413.904 285.292 409.848 285.292 409.848C285.292 409.848 310.305 415.256 319.769 410.524C329.233 405.792 348.838 398.356 347.486 393.624C346.134 388.892 332.613 365.907 336.669 352.387C340.725 338.866 331.261 207.042 320.445 201.634L317.741 188.79L273.124 186.762Z" fill="#2F2E41"/>
<path d="M298.128 100.095C307.014 100.095 314.218 95.7725 314.218 90.4407C314.218 85.1088 307.014 80.7864 298.128 80.7864C289.242 80.7864 282.038 85.1088 282.038 90.4407C282.038 95.7725 289.242 100.095 298.128 100.095Z" fill="#2F2E41"/>
<path d="M299.737 83.2C305.069 83.2 309.392 78.8777 309.392 73.5458C309.392 68.2139 305.069 63.8915 299.737 63.8915C294.405 63.8915 290.083 68.2139 290.083 73.5458C290.083 78.8777 294.405 83.2 299.737 83.2Z" fill="#2F2E41"/>
<path d="M286.865 68.3164C286.865 65.9301 287.749 63.6283 289.346 61.8552C290.943 60.082 293.14 58.9632 295.513 58.7144C295.179 58.6797 294.844 58.6623 294.508 58.6622C291.947 58.6622 289.492 59.6793 287.681 61.4898C285.871 63.3003 284.854 65.7559 284.854 68.3164C284.854 70.8769 285.871 73.3324 287.681 75.143C289.492 76.9535 291.947 77.9706 294.508 77.9706C294.844 77.9705 295.179 77.9531 295.513 77.9184C293.14 77.6696 290.943 76.5507 289.346 74.7776C287.749 73.0045 286.865 70.7027 286.865 68.3164Z" fill="#2F2E41"/>
<path d="M256.899 140.793L258.251 143.497C258.251 143.497 257.575 145.525 256.899 146.201C256.223 146.877 233.239 169.861 239.999 174.593C246.759 179.326 248.787 179.326 248.787 179.326C248.787 179.326 242.027 184.058 243.379 184.734C244.731 185.41 258.251 196.226 259.603 194.198C260.956 192.17 261.632 187.438 261.632 187.438C261.632 187.438 264.336 191.494 267.04 190.142C269.744 188.79 269.744 186.762 269.744 186.762L271.772 189.466L317.741 191.494C317.741 191.494 321.121 193.522 321.121 190.818C321.121 188.114 323.149 200.958 329.233 200.958C329.233 200.958 329.909 207.718 331.938 207.718C333.966 207.718 349.514 202.31 348.162 200.958C346.81 199.606 346.134 194.874 346.134 194.874C346.134 194.874 357.626 188.79 346.134 175.946C346.134 175.946 344.106 163.777 337.346 161.073C337.346 161.073 336.67 159.045 337.346 158.369C337.503 158.251 337.631 158.098 337.719 157.922C337.807 157.746 337.853 157.552 337.853 157.355C337.853 157.158 337.807 156.964 337.719 156.788C337.631 156.612 337.503 156.459 337.346 156.341C336.67 155.665 338.698 155.665 338.698 153.637C338.698 151.609 335.318 150.933 335.318 150.933C335.318 150.933 298.813 134.708 271.096 138.088L256.899 140.793Z" fill="#FF6584"/>
<path d="M523.934 382.482C523.934 409.76 507.719 419.284 487.715 419.284C487.251 419.284 486.788 419.279 486.327 419.269C485.4 419.249 484.482 419.205 483.575 419.143C465.521 417.865 451.495 407.851 451.495 382.482C451.495 356.229 485.044 323.101 487.564 320.649L487.569 320.645C487.666 320.55 487.715 320.503 487.715 320.503C487.715 320.503 523.934 355.205 523.934 382.482Z" fill="#60A3D9"/>
<path d="M486.395 415.111L499.642 396.601L486.362 417.144L486.326 419.269C485.4 419.249 484.482 419.205 483.575 419.143L485.002 391.852L484.991 391.64L485.016 391.6L485.15 389.023L471.837 368.43L485.192 387.09L485.223 387.637L486.302 367.017L474.904 345.738L486.441 363.398L487.564 320.649L487.569 320.503V320.645L487.381 354.355L498.728 340.991L487.335 357.259L487.035 375.721L497.629 358.003L486.991 378.437L486.823 388.701L502.204 364.04L486.766 392.282L486.395 415.111Z" fill="#3F3D56"/>
<path d="M146.589 406.147V343.51" stroke="#3F3D56" stroke-width="2" stroke-miterlimit="10"/>
<path d="M146.59 352.368C151.482 352.368 155.448 348.402 155.448 343.51C155.448 338.618 151.482 334.652 146.59 334.652C141.698 334.652 137.732 338.618 137.732 343.51C137.732 348.402 141.698 352.368 146.59 352.368Z" fill="#3F3D56"/>
<path d="M146.589 382.115C146.589 382.115 145.324 354.899 119.383 358.062L146.589 382.115Z" fill="#3F3D56"/>
<path d="M74.0698 418.371V212.264" stroke="#3F3D56" stroke-width="2" stroke-miterlimit="10"/>
<path d="M74.0697 221.022C78.9617 221.022 82.9275 217.057 82.9275 212.165C82.9275 207.273 78.9617 203.307 74.0697 203.307C69.1777 203.307 65.2119 207.273 65.2119 212.165C65.2119 217.057 69.1777 221.022 74.0697 221.022Z" fill="#3F3D56"/>
<path d="M46.8637 372.183C51.7557 372.183 55.7215 368.218 55.7215 363.326C55.7215 358.434 51.7557 354.468 46.8637 354.468C41.9716 354.468 38.0059 358.434 38.0059 363.326C38.0059 368.218 41.9716 372.183 46.8637 372.183Z" fill="#3F3D56"/>
<path d="M74.0699 257.411C74.0699 257.411 72.8045 230.195 46.8638 233.358L74.0699 257.411Z" fill="#3F3D56"/>
<path d="M74.0699 334.565C74.0699 334.565 72.8045 307.349 46.8638 310.513L74.0699 334.565Z" fill="#3F3D56"/>
<path d="M74.0699 415.936C74.0699 415.936 79.7642 365.856 46.8638 363.326" stroke="#3F3D56" stroke-width="2" stroke-miterlimit="10"/>
<path d="M101.28 372.183C106.172 372.183 110.137 368.218 110.137 363.326C110.137 358.434 106.172 354.468 101.28 354.468C96.3876 354.468 92.4219 358.434 92.4219 363.326C92.4219 368.218 96.3876 372.183 101.28 372.183Z" fill="#3F3D56"/>
<path d="M74.0738 415.936C74.0738 415.936 68.3795 365.856 101.28 363.326" stroke="#3F3D56" stroke-width="2" stroke-miterlimit="10"/>
<path d="M101.819 289.094C106.711 289.094 110.677 285.128 110.677 280.236C110.677 275.344 106.711 271.378 101.819 271.378C96.9272 271.378 92.9614 275.344 92.9614 280.236C92.9614 285.128 96.9272 289.094 101.819 289.094Z" fill="#3F3D56"/>
<path d="M74.6133 332.846C74.6133 332.846 68.919 282.767 101.819 280.236" stroke="#3F3D56" stroke-width="2" stroke-miterlimit="10"/>
<path d="M133.573 91.1493C133.573 91.1493 129.391 83.5812 124.251 87.2371C119.111 90.893 126.005 95.3313 126.005 95.3313L133.749 91.9588" fill="#3F3D56"/>
<path d="M78.8828 206.384L79.7866 222.289C79.7866 222.289 98.8351 204.603 121.351 210.741C121.351 210.741 151.987 176.139 180.911 176.651C180.911 176.651 188.776 150.372 235.304 134.359C235.304 134.359 238.947 108.148 261.368 98.2052L245.962 89.6793L218.374 91.4194L180.924 106.313L135.017 140.834L82.6332 176.759L78.8828 206.384Z" fill="#60A3D9"/>
<path opacity="0.1" d="M78.8828 206.384L79.7866 222.289C79.7866 222.289 98.8351 204.603 121.351 210.741C121.351 210.741 151.987 176.139 180.911 176.651C180.911 176.651 188.776 150.372 235.304 134.359C235.304 134.359 238.947 108.148 261.368 98.2052L245.962 89.6793L218.374 91.4194L180.924 106.313L135.017 140.834L82.6332 176.759L78.8828 206.384Z" fill="black"/>
<path d="M154.402 144.261L214.893 239.625C214.893 239.625 225.051 255.22 236.423 245.129C243.261 239.062 241.628 232.073 239.238 227.464C236.686 222.542 229.185 225.507 230.759 230.824C230.784 230.91 230.811 230.997 230.839 231.085C230.839 231.085 231.279 242.474 223.615 236.945C221.86 235.653 220.378 234.028 219.253 232.162L162.955 140.713L154.402 144.261Z" fill="#3F3D56"/>
<path opacity="0.1" d="M110.855 174.034C110.855 174.034 113.931 203.875 121.35 210.741L110.855 174.034Z" fill="black"/>
<path opacity="0.1" d="M206.61 107.527C206.61 107.527 230.947 125.982 235.304 134.359L206.61 107.527Z" fill="black"/>
<path d="M128.225 91.8845C128.225 91.8845 119.914 100.464 112.98 103.662C112.98 103.662 57.7371 153.765 80.1039 221.797C80.1039 221.797 85.4057 187.599 107.503 187.895C107.503 187.895 120.157 156.342 163.232 147.856C163.232 147.856 176.587 119.54 222.725 109.544C222.725 109.544 233.261 87.7703 261.685 97.7128C261.685 97.7128 225.612 56.3782 147.057 81.0248C147.057 81.0248 133.081 90.8323 128.225 91.8845Z" fill="#60A3D9"/>
<path opacity="0.1" d="M112.663 104.154C112.663 104.154 90.8894 144.463 107.186 188.388L112.663 104.154Z" fill="black"/>
<path opacity="0.1" d="M162.915 148.349C146.37 130.937 134.787 112.258 127.907 92.3769L162.915 148.349Z" fill="black"/>
<path opacity="0.1" d="M222.407 110.036C222.407 110.036 193.183 76.8461 146.859 82.0685L222.407 110.036Z" fill="black"/>
<path d="M400.223 24.547C399.239 28.6663 397.996 29.6468 396.819 29.3657C395.642 29.0847 394.977 27.6485 395.961 23.5292C396.944 19.4099 400.382 14.4484 400.382 14.4484C400.382 14.4484 401.206 20.4277 400.223 24.547Z" fill="#F2F2F2"/>
<path d="M547.517 61.2359C546.534 65.3552 545.291 66.3356 544.114 66.0546C542.937 65.7735 542.272 64.3374 543.255 60.2181C544.239 56.0988 547.677 51.1373 547.677 51.1373C547.677 51.1373 548.501 57.1166 547.517 61.2359Z" fill="#F2F2F2"/>
<path d="M145.516 65.0805C143.904 71.8313 141.867 73.4381 139.938 72.9775C138.009 72.5169 136.919 70.1633 138.531 63.4125C140.143 56.6618 145.776 48.5307 145.776 48.5307C145.776 48.5307 147.128 58.3297 145.516 65.0805Z" fill="#F2F2F2"/>
<path d="M86.1661 93.1367C84.5539 99.8875 82.5174 101.494 80.5886 101.034C78.6598 100.573 77.5691 98.2195 79.1812 91.4688C80.7934 84.718 86.4267 76.5869 86.4267 76.5869C86.4267 76.5869 87.7782 86.3859 86.1661 93.1367Z" fill="#F2F2F2"/>
<path d="M32.7515 196.729C31.1394 203.48 29.1029 205.086 27.1741 204.626C25.2453 204.165 24.1546 201.812 25.7667 195.061C27.3788 188.31 33.0121 180.179 33.0121 180.179C33.0121 180.179 34.3636 189.978 32.7515 196.729Z" fill="#F2F2F2"/>
<path d="M28.4351 314.349C26.8229 321.1 24.7865 322.706 22.8577 322.246C20.9289 321.785 19.8381 319.432 21.4503 312.681C23.0624 305.93 28.6957 297.799 28.6957 297.799C28.6957 297.799 30.0472 307.598 28.4351 314.349Z" fill="#F2F2F2"/>
<path d="M437.408 85.5831C435.796 92.334 433.759 93.9408 431.83 93.4802C429.902 93.0196 428.811 90.666 430.423 83.9152C432.035 77.1644 437.668 69.0333 437.668 69.0333C437.668 69.0333 439.02 78.8323 437.408 85.5831Z" fill="#F2F2F2"/>
<path d="M261.517 55.3688C259.905 62.1196 257.868 63.7264 255.94 63.2658C254.011 62.8052 252.92 60.4516 254.532 53.7008C256.144 46.95 261.778 38.819 261.778 38.819C261.778 38.819 263.129 48.618 261.517 55.3688Z" fill="#F2F2F2"/>
<path d="M430.394 141.695C428.782 148.446 426.745 150.053 424.817 149.592C422.888 149.132 421.797 146.778 423.409 140.027C425.021 133.277 430.655 125.146 430.655 125.146C430.655 125.146 432.006 134.945 430.394 141.695Z" fill="#F2F2F2"/>
<path d="M503.232 30.5498C501.62 37.3006 499.583 38.9074 497.655 38.4468C495.726 37.9862 494.635 35.6326 496.247 28.8818C497.859 22.131 503.493 14 503.493 14C503.493 14 504.844 23.799 503.232 30.5498Z" fill="#F2F2F2"/>
<path d="M505.973 105.478C504.989 109.598 503.746 110.578 502.569 110.297C501.392 110.016 500.727 108.58 501.711 104.46C502.694 100.341 506.132 95.3797 506.132 95.3797C506.132 95.3797 506.956 101.359 505.973 105.478Z" fill="#F2F2F2"/>
<path d="M339.254 105.478C338.271 109.598 337.028 110.578 335.851 110.297C334.674 110.016 334.009 108.58 334.992 104.46C335.976 100.341 339.413 95.3797 339.413 95.3797C339.413 95.3797 340.238 101.359 339.254 105.478Z" fill="#F2F2F2"/>
<path d="M260.481 331.007C259.497 335.126 258.255 336.107 257.078 335.826C255.901 335.544 255.235 334.108 256.219 329.989C257.203 325.87 260.64 320.908 260.64 320.908C260.64 320.908 261.465 326.887 260.481 331.007Z" fill="#F2F2F2"/>
<path d="M435.832 191.265C434.848 195.385 433.606 196.365 432.429 196.084C431.252 195.803 430.586 194.367 431.57 190.248C432.554 186.128 435.991 181.167 435.991 181.167C435.991 181.167 436.816 187.146 435.832 191.265Z" fill="#F2F2F2"/>
<path d="M97.5395 28.8634C96.5558 32.9827 95.3132 33.9631 94.1362 33.6821C92.9593 33.401 92.2937 31.9649 93.2774 27.8456C94.2611 23.7263 97.6986 18.7648 97.6986 18.7648C97.6986 18.7648 98.5233 24.7441 97.5395 28.8634Z" fill="#F2F2F2"/>
<path d="M60.311 171.302C59.3273 175.422 58.0846 176.402 56.9077 176.121C55.7308 175.84 55.0652 174.404 56.0489 170.285C57.0326 166.165 60.47 161.204 60.47 161.204C60.47 161.204 61.2947 167.183 60.311 171.302Z" fill="#F2F2F2"/>
<path d="M89.4463 140.009C88.4625 144.128 87.2199 145.109 86.043 144.828C84.866 144.547 84.2005 143.11 85.1842 138.991C86.1679 134.872 89.6053 129.91 89.6053 129.91C89.6053 129.91 90.43 135.89 89.4463 140.009Z" fill="#F2F2F2"/>
<path d="M157.429 88.213C156.445 92.3323 155.202 93.3127 154.025 93.0317C152.848 92.7506 152.183 91.3145 153.167 87.1952C154.15 83.0759 157.588 78.1144 157.588 78.1144C157.588 78.1144 158.412 84.0937 157.429 88.213Z" fill="#F2F2F2"/>
<path d="M78.1162 217.703C77.1325 221.822 75.8898 222.803 74.7129 222.522C73.5359 222.241 72.8704 220.805 73.8541 216.685C74.8378 212.566 78.2752 207.604 78.2752 207.604C78.2752 207.604 79.0999 213.584 78.1162 217.703Z" fill="#F2F2F2"/>
<path d="M35.4922 266.262C34.5084 270.381 33.2658 271.362 32.0889 271.08C30.9119 270.799 30.2464 269.363 31.2301 265.244C32.2138 261.125 35.6512 256.163 35.6512 256.163C35.6512 256.163 36.4759 262.142 35.4922 266.262Z" fill="#F2F2F2"/>
<path d="M4.73825 286.225C3.75454 290.344 2.51189 291.325 1.33495 291.044C0.158009 290.762 -0.507543 289.326 0.476166 285.207C1.45987 281.088 4.89729 276.126 4.89729 276.126C4.89729 276.126 5.72197 282.106 4.73825 286.225Z" fill="#F2F2F2"/>
<path d="M322.528 249.536C321.545 253.655 320.302 254.636 319.125 254.355C317.948 254.074 317.282 252.637 318.266 248.518C319.25 244.399 322.687 239.437 322.687 239.437C322.687 239.437 323.512 245.417 322.528 249.536Z" fill="#F2F2F2"/>
<path d="M314.436 158.353C313.452 162.473 312.209 163.453 311.032 163.172C309.855 162.891 309.19 161.455 310.173 157.336C311.157 153.216 314.595 148.255 314.595 148.255C314.595 148.255 315.419 154.234 314.436 158.353Z" fill="#F2F2F2"/>
<path d="M476.298 258.708C475.314 262.828 474.071 263.808 472.895 263.527C471.718 263.246 471.052 261.81 472.036 257.69C473.019 253.571 476.457 248.61 476.457 248.61C476.457 248.61 477.282 254.589 476.298 258.708Z" fill="#F2F2F2"/>
<path d="M430.394 314.349C428.782 321.1 426.745 322.706 424.817 322.246C422.888 321.785 421.797 319.432 423.409 312.681C425.021 305.93 430.655 297.799 430.655 297.799C430.655 297.799 432.006 307.598 430.394 314.349Z" fill="#F2F2F2"/>
<path d="M368.886 293.307C367.274 300.058 365.238 301.664 363.309 301.204C361.38 300.743 360.289 298.39 361.901 291.639C363.514 284.888 369.147 276.757 369.147 276.757C369.147 276.757 370.498 286.556 368.886 293.307Z" fill="#F2F2F2"/>
<path d="M520.498 205.361C518.885 212.112 516.849 213.719 514.92 213.258C512.991 212.798 511.901 210.444 513.513 203.693C515.125 196.943 520.758 188.812 520.758 188.812C520.758 188.812 522.11 198.611 520.498 205.361Z" fill="#F2F2F2"/>
<path d="M525.935 267.341C524.952 271.46 523.709 272.441 522.532 272.16C521.355 271.879 520.69 270.442 521.673 266.323C522.657 262.204 526.095 257.242 526.095 257.242C526.095 257.242 526.919 263.222 525.935 267.341Z" fill="#F2F2F2"/>
<path d="M311.738 327.77C310.754 331.889 309.511 332.869 308.334 332.588C307.158 332.307 306.492 330.871 307.476 326.752C308.459 322.633 311.897 317.671 311.897 317.671C311.897 317.671 312.721 323.65 311.738 327.77Z" fill="#F2F2F2"/>
<path d="M367.311 241.982C366.327 246.102 365.084 247.082 363.907 246.801C362.73 246.52 362.065 245.084 363.048 240.965C364.032 236.845 367.47 231.884 367.47 231.884C367.47 231.884 368.294 237.863 367.311 241.982Z" fill="#F2F2F2"/>
<path d="M319.831 86.0548C318.847 90.1741 317.604 91.1545 316.427 90.8735C315.25 90.5924 314.585 89.1563 315.568 85.037C316.552 80.9177 319.99 75.9562 319.99 75.9562C319.99 75.9562 320.814 81.9355 319.831 86.0548Z" fill="#F2F2F2"/>
<path d="M385.115 371.473C384.131 375.592 382.889 376.572 381.712 376.291C380.535 376.01 379.869 374.574 380.853 370.455C381.837 366.335 385.274 361.374 385.274 361.374C385.274 361.374 386.099 367.353 385.115 371.473Z" fill="#F2F2F2"/>
<path d="M309.04 32.1006C308.056 36.2199 306.814 37.2004 305.637 36.9193C304.46 36.6383 303.794 35.2021 304.778 31.0828C305.762 26.9635 309.199 22.002 309.199 22.002C309.199 22.002 310.024 27.9813 309.04 32.1006Z" fill="#F2F2F2"/>
<path d="M382.417 175.079C381.434 179.199 380.191 180.179 379.014 179.898C377.837 179.617 377.172 178.181 378.155 174.061C379.139 169.942 382.576 164.981 382.576 164.981C382.576 164.981 383.401 170.96 382.417 175.079Z" fill="#F2F2F2"/>
</svg>
