<svg width="550" height="450" viewBox="0 0 550 450" fill="none" xmlns="http://www.w3.org/2000/svg">
<path d="M507.831 310.452C507.218 311.772 506.607 313.075 505.998 314.36C505.047 316.357 504.109 318.315 503.183 320.234C502.771 321.084 502.359 321.919 501.957 322.753C497.415 332.033 493.174 340.241 489.572 346.991C486.303 353.107 481.45 358.232 475.52 361.828C469.591 365.424 462.803 367.36 455.869 367.432L375.771 368.303H374.926L368.06 368.377L362.186 368.44L344.175 368.636H343.447L334.277 368.736H333.997L277.483 369.349L227.037 369.877L221.169 369.94L184.724 370.337H184.682L161.046 370.59H160.793L86.0559 371.398L63.6982 371.641C61.7945 371.663 59.8912 371.568 57.9992 371.356C57.3548 371.282 56.7104 371.197 56.0713 371.097C45.6441 369.487 36.0831 364.354 28.9812 356.551C19.3631 345.972 12.3648 333.628 7.66401 320.234C6.98442 318.301 6.35061 316.343 5.76258 314.36C-10.5105 259.351 9.32777 188.38 45.0325 140.886C46.529 138.9 48.0501 136.964 49.5959 135.076L49.6329 135.034C60.6136 121.555 72.9254 110.294 86.04 102.287C109.28 88.0741 135.028 84.0705 160.354 96.002C181.782 106.101 201.79 110.849 221.184 112.138C223.144 112.265 225.103 112.36 227.052 112.418C271.541 113.817 313.235 97.7872 362.197 87.4402C364.146 87.0283 366.1 86.6216 368.07 86.236C402.998 79.2852 441.745 75.6197 487.823 83.3258C492.611 84.1078 497.334 85.2376 501.957 86.7061C503.989 87.361 505.947 88.0653 507.831 88.8188C529.824 97.7661 541.819 114.298 546.916 135.013C547.398 136.936 547.815 138.892 548.167 140.881C557.205 190.709 530.738 261.39 507.831 310.452Z" fill="#F2F2F2"/>
<path opacity="0.1" d="M262.514 314.36C262.301 316.336 261.971 318.297 261.526 320.234H311.017V314.36H262.514ZM221.184 347.535L227.052 347.488V332.979C225.04 332.889 223.081 332.799 221.184 332.704V347.535ZM98.1617 314.36V320.234H203.005V314.36H98.1617ZM546.942 135.034H507.857V88.8241C505.973 88.06 504.016 87.3557 501.984 86.7114V135.034H368.07V86.2202C366.1 86.6057 364.146 87.0124 362.197 87.4244V135.034H227.052V112.402C225.103 112.344 223.144 112.249 221.184 112.122V135.034H86.0401V102.287C72.9254 110.294 60.6137 121.555 49.6329 135.034H49.5959V135.076C48.0466 136.978 46.5255 138.914 45.0325 140.886H49.5959V314.36H5.75732C6.34184 316.343 6.97565 318.301 7.65876 320.234H49.5906V369.682C51.7004 370.327 53.8539 370.819 56.0344 371.155C56.6735 371.255 57.3179 371.34 57.9622 371.414C59.8543 371.626 61.7575 371.721 63.6612 371.699L86.0189 371.456V320.223H221.184V369.983L227.052 369.919V320.234H362.197V368.488L368.07 368.424V320.234H501.957V322.753C502.359 321.919 502.771 321.084 503.183 320.234C504.109 318.315 505.047 316.357 505.998 314.36C506.607 313.079 507.218 311.776 507.831 310.452V140.907H548.194C547.838 138.904 547.421 136.946 546.942 135.034ZM86.0401 314.36V140.886H221.184V314.36H86.0401ZM227.063 314.36V140.886H362.197V314.36H227.063ZM501.968 314.36H368.07V140.886H501.957L501.968 314.36Z" fill="black"/>
<path d="M455.863 360.861V367.727L375.623 368.467L374.767 368.483L344.27 368.763L343.541 368.773L334.272 368.852H333.997L277.493 369.375L184.74 370.236H184.661L161.078 370.458L160.824 370.463L56.0342 371.425V363.502L80.6736 348.713L130.111 348.301L131.167 348.296L131.516 348.29L132.572 348.275L156.308 348.079L157.37 348.074L157.708 348.069L158.764 348.063L166.375 348L166.576 347.995L185.353 347.836H185.506L332.022 346.6L335.608 346.574H335.967L338.703 346.547L358.589 346.384L359.645 346.368L360.623 346.357H361.13L367.315 346.31L368.54 346.294L370.183 346.283L375.332 346.236L383.503 346.167L384.56 346.157L386.398 346.146H386.741L426.201 345.808L455.863 360.861Z" fill="#65617D"/>
<path opacity="0.2" d="M455.863 360.861V367.727L375.623 368.467L374.767 368.483L344.27 368.763L343.541 368.773L334.272 368.852H333.997L277.493 369.375L184.74 370.236H184.661L161.078 370.458L160.824 370.463L56.0342 371.425V363.502L80.6736 348.713L130.111 348.301L131.167 348.296L131.516 348.29L132.572 348.275L156.308 348.079L157.37 348.074L157.708 348.069L158.764 348.063L166.375 348L166.576 347.995L185.353 347.836H185.506L332.022 346.6L335.608 346.574H335.967L338.703 346.547L358.589 346.384L359.645 346.368L360.623 346.357H361.13L367.315 346.31L368.54 346.294L370.183 346.283L375.332 346.236L383.503 346.167L384.56 346.157L386.398 346.146H386.741L426.201 345.808L455.863 360.861Z" fill="black"/>
<path d="M156.393 334.458V347.393C156.393 348.005 156.219 348.605 155.892 349.123C155.565 349.641 155.097 350.056 154.544 350.319C154.132 350.518 153.681 350.627 153.224 350.636L134.79 351.026C134.298 351.038 133.81 350.935 133.364 350.725C132.801 350.467 132.324 350.053 131.99 349.531C131.655 349.01 131.478 348.403 131.479 347.783V334.458H156.393Z" fill="#3F3D56"/>
<path opacity="0.1" d="M156.393 334.458V347.393C156.393 348.005 156.219 348.605 155.892 349.123C155.565 349.641 155.097 350.056 154.544 350.319C154.132 350.518 153.681 350.627 153.224 350.636L134.79 351.026C134.298 351.038 133.81 350.935 133.364 350.725C132.801 350.467 132.324 350.053 131.99 349.531C131.655 349.01 131.478 348.403 131.479 347.783V334.458H156.393Z" fill="black"/>
<path d="M157.449 334.458V347.393C157.449 348.005 157.276 348.605 156.949 349.123C156.621 349.641 156.154 350.056 155.601 350.319C155.188 350.518 154.738 350.627 154.28 350.636L135.847 351.026C135.355 351.038 134.866 350.935 134.421 350.725C133.858 350.467 133.38 350.053 133.046 349.531C132.712 349.01 132.534 348.403 132.535 347.783V334.458H157.449Z" fill="#3F3D56"/>
<path d="M384.56 334.452H359.646V351.09H384.56V334.452Z" fill="#3F3D56"/>
<path opacity="0.1" d="M384.56 334.452H359.646V351.09H384.56V334.452Z" fill="black"/>
<path d="M383.503 334.452H358.589V351.09H383.503V334.452Z" fill="#3F3D56"/>
<path opacity="0.1" d="M157.444 334.452V337.077L132.53 337.743V334.452H157.444Z" fill="black"/>
<path d="M201.42 243.981V332.82C201.414 333.362 201.199 333.882 200.82 334.27C200.442 334.658 199.928 334.886 199.386 334.906L98.1615 337.6H98.1351C97.5839 337.593 97.0572 337.371 96.6675 336.982C96.2777 336.592 96.0557 336.065 96.0488 335.514V243.981C96.0557 243.43 96.2777 242.903 96.6675 242.513C97.0572 242.124 97.5839 241.902 98.1351 241.895H199.334C199.885 241.902 200.412 242.124 200.801 242.513C201.191 242.903 201.413 243.43 201.42 243.981Z" fill="#65617D"/>
<path opacity="0.1" d="M98.1615 241.895V337.6H98.1351C97.5839 337.593 97.0572 337.371 96.6675 336.982C96.2777 336.592 96.0557 336.065 96.0488 335.514V243.981C96.0557 243.43 96.2777 242.903 96.6675 242.513C97.0572 242.124 97.5839 241.902 98.1351 241.895H98.1615Z" fill="black"/>
<path d="M102.778 247.567H196.529V325.869L102.778 327.982V247.567Z" fill="#60A3D9"/>
<path opacity="0.1" d="M383.503 334.452V337.838L358.589 337.172V334.452H383.503Z" fill="black"/>
<path d="M416.387 243.981V335.514C416.38 336.07 416.155 336.6 415.759 336.991C415.364 337.381 414.83 337.6 414.275 337.6L313.029 334.906C312.487 334.886 311.973 334.658 311.595 334.27C311.216 333.882 311.002 333.362 310.995 332.82V243.981C311.002 243.43 311.224 242.903 311.614 242.513C312.004 242.124 312.53 241.902 313.081 241.895H414.28C414.835 241.896 415.367 242.116 415.761 242.506C416.155 242.896 416.38 243.426 416.387 243.981Z" fill="#65617D"/>
<path opacity="0.1" d="M416.387 243.981V335.514C416.38 336.07 416.155 336.6 415.759 336.991C415.364 337.381 414.83 337.6 414.274 337.6V241.895C414.83 241.895 415.364 242.114 415.759 242.504C416.155 242.895 416.38 243.425 416.387 243.981Z" fill="black"/>
<path d="M409.648 247.567H315.897V325.869L409.648 327.982V247.567Z" fill="#60A3D9"/>
<path d="M308.375 243.981V332.82C308.369 333.362 308.154 333.882 307.776 334.27C307.397 334.658 306.884 334.886 306.342 334.906L205.117 337.6C204.561 337.6 204.028 337.381 203.632 336.991C203.237 336.6 203.011 336.07 203.004 335.514V243.981C203.011 243.43 203.233 242.903 203.623 242.513C204.013 242.124 204.54 241.902 205.091 241.895H306.289C306.84 241.902 307.367 242.124 307.757 242.513C308.147 242.903 308.369 243.43 308.375 243.981Z" fill="#65617D"/>
<path d="M209.733 247.567H303.485V325.869L209.733 327.982V247.567Z" fill="#60A3D9"/>
<path opacity="0.1" d="M455.863 360.861V367.727L375.623 368.467L374.767 368.483L344.27 368.763L343.541 368.773L334.272 368.852H333.997L277.493 369.375L184.74 370.236H184.661L161.078 370.458L160.824 370.463L56.0342 371.425V363.502L162.995 362.799H163.249L184.899 362.652H184.999L334.515 361.664H334.668L334.758 361.659H335.006L337.536 361.643H338.307L377.651 361.379L379.975 361.368L380.493 361.363L455.863 360.861Z" fill="black"/>
<path d="M257.359 263.587C272.332 263.587 284.47 251.449 284.47 236.476C284.47 221.502 272.332 209.364 257.359 209.364C242.386 209.364 230.248 221.502 230.248 236.476C230.248 251.449 242.386 263.587 257.359 263.587Z" fill="#FBBEBE"/>
<path d="M284.476 278.207C284.476 278.207 231.922 284.545 236.94 278.207C238.757 275.915 239.258 269.122 239.158 261.384C239.126 259.034 239.042 256.599 238.92 254.175C238.339 242.555 236.94 231.199 236.94 231.199C236.94 231.199 282.891 209.544 277.609 226.71C275.497 233.645 276.189 243.384 277.794 252.527C278.264 255.194 278.808 257.809 279.379 260.291C280.771 266.346 282.472 272.326 284.476 278.207Z" fill="#FBBEBE"/>
<path d="M267.326 276.057C273.405 274.932 279.844 272.888 285.564 275.244C287.069 275.862 288.453 276.765 289.995 277.283C291.537 277.8 293.228 277.927 294.833 278.291C300.474 279.569 305.048 283.864 307.985 288.855C310.921 293.846 312.443 299.492 313.932 305.08L317.576 318.723C320.746 330.581 323.915 342.539 324.649 354.798C280.528 357.323 236.307 357.575 192.161 355.553C195.034 350.092 197.971 344.297 197.728 338.123C197.485 331.949 193.931 325.859 195.214 319.774C196.033 315.897 198.684 312.702 200.306 309.095C204.927 298.785 201.33 284.909 209.454 277.061C213.109 273.532 218.433 272.196 223.519 272.365C230.005 272.582 236.644 274.605 243.061 275.592C251.28 276.839 259.044 277.578 267.326 276.057Z" fill="#FF6584"/>
<path opacity="0.1" d="M336.464 334.774L336.411 335.53V335.583L336.321 336.797L335.619 346.574L334.768 358.352L334.525 361.669L333.997 368.768V368.858L277.482 369.386L184.74 370.389V370.833H184.666V370.389V370.241L184.904 362.657L185.358 347.836L185.749 335.271L185.786 334.019C185.809 333.264 185.986 332.521 186.306 331.836C186.625 331.151 187.082 330.538 187.646 330.036C188.211 329.533 188.872 329.151 189.589 328.912C190.306 328.673 191.064 328.583 191.818 328.648C194.311 328.859 197.548 329.118 201.42 329.392L203.004 329.508C225.362 331.061 266.681 333.068 308.375 330.565C309.252 330.517 310.134 330.464 311.016 330.401C317.481 329.994 323.941 329.472 330.337 328.817C331.146 328.732 331.963 328.825 332.731 329.091C333.5 329.356 334.201 329.787 334.785 330.352C335.369 330.918 335.822 331.604 336.112 332.364C336.402 333.123 336.522 333.937 336.464 334.748V334.774Z" fill="black"/>
<path d="M184.724 370.833V370.389L277.482 369.38L333.997 368.852H334.156V368.763L334.684 361.664L334.911 358.495L335.777 346.553L336.458 337.098V336.866C336.49 336.43 336.47 335.993 336.4 335.561C336.403 335.544 336.403 335.526 336.4 335.509C336.255 334.617 335.892 333.775 335.344 333.058C334.762 332.312 334 331.727 333.13 331.357C332.259 330.987 331.309 330.846 330.369 330.945C323.972 331.6 317.513 332.123 311.048 332.53C310.166 332.593 309.284 332.646 308.407 332.693C266.713 335.171 225.394 333.163 203.036 331.637L201.451 331.521C197.58 331.246 194.342 330.993 191.849 330.776C190.478 330.66 189.112 331.057 188.016 331.889C186.919 332.721 186.17 333.929 185.913 335.281C185.859 335.567 185.827 335.857 185.817 336.148L185.458 347.852L184.967 362.678L184.735 370.263V370.41V370.854L184.724 370.833Z" fill="#3F3D56"/>
<path opacity="0.1" d="M336.622 338.477L335.973 346.574L335.006 358.643L334.763 361.664L334.235 368.43L334.203 368.768V368.858L334.124 369.639L334.182 368.858H334.029L277.514 369.386L184.74 370.389V370.241L184.999 362.657L185.527 347.836L185.865 337.986C185.882 337.425 186.038 336.878 186.321 336.394C186.603 335.909 187.002 335.503 187.481 335.213C188.08 334.846 188.779 334.68 189.478 334.737C190.587 334.827 191.95 334.933 193.54 335.049C196.122 335.239 199.307 335.461 203.015 335.693C209.881 336.126 218.496 336.591 228.368 336.972C255.833 338.028 292.911 338.382 328.129 335.297C329.714 335.16 331.351 335.007 332.952 334.854C333.585 334.79 334.223 334.911 334.79 335.202C334.95 335.282 335.102 335.378 335.244 335.487C335.704 335.821 336.068 336.269 336.3 336.787C336.354 336.89 336.398 336.998 336.432 337.109C336.591 337.547 336.656 338.013 336.622 338.477Z" fill="black"/>
<path opacity="0.1" d="M157.449 345.708V347.393C157.449 348.005 157.276 348.605 156.949 349.123C156.621 349.641 156.154 350.056 155.601 350.319L134.421 350.725C133.858 350.467 133.38 350.053 133.046 349.531C132.712 349.01 132.534 348.403 132.535 347.783V346.199L157.449 345.708Z" fill="black"/>
<path d="M157.708 351.312L130.111 351.84V347.26L157.708 346.732V351.312Z" fill="#3F3D56"/>
<path opacity="0.1" d="M157.708 351.312L130.111 351.84V347.26L157.708 346.732V351.312Z" fill="black"/>
<path d="M158.765 351.312L131.167 351.84V347.26L158.765 346.732V351.312Z" fill="#3F3D56"/>
<path opacity="0.1" d="M358.748 346.764V348.449C358.747 349.062 358.921 349.662 359.248 350.18C359.575 350.698 360.043 351.112 360.596 351.375L381.776 351.782C382.339 351.524 382.816 351.109 383.151 350.588C383.485 350.066 383.662 349.459 383.662 348.84V347.255L358.748 346.764Z" fill="black"/>
<path opacity="0.1" d="M358.483 352.368L386.081 352.896V348.317L358.483 347.789V352.368Z" fill="black"/>
<path d="M357.427 352.368L385.024 352.896V348.317L357.427 347.789V352.368Z" fill="#3F3D56"/>
<path d="M240.209 244.784C240.251 248.481 238.54 251.967 237.087 255.384C231.799 267.832 229.509 281.349 230.401 294.844C230.786 300.654 231.763 306.464 230.786 312.221C229.809 317.978 226.334 323.72 220.751 325.373C230.01 330.892 242.544 330.311 251.258 323.968C255.901 320.588 259.361 315.871 262.746 311.234C262.344 319.564 259.932 327.673 255.716 334.869C263.337 334.195 270.731 331.927 277.419 328.213C284.107 324.499 289.941 319.421 294.542 313.309C296.819 310.241 298.799 306.871 299.676 303.153C301.308 296.286 299.032 289.151 297.294 282.29C295.842 276.554 294.754 270.733 294.035 264.86C293.808 262.979 293.623 261.046 294.088 259.208C294.616 257.059 296.027 255.242 297.067 253.282C300.025 247.715 300.094 240.976 298.578 234.859C297.062 228.743 294.093 223.102 291.152 217.53C288.796 213.062 286.239 208.387 281.93 205.762C279.236 204.125 276.12 203.443 273.014 202.783L259.614 199.915C256.683 199.287 253.667 198.658 250.704 199.118C245.702 199.899 242.179 203.512 239.084 207.22C236.66 210.104 230.734 215.518 230.316 219.294C229.936 222.775 233.01 228.606 233.533 232.277C234.219 237.03 234.705 235.446 237.388 238.361C239.084 240.168 240.177 242.254 240.209 244.784Z" fill="#3F3D56"/>
<path d="M158.59 255.194H105.984C105.914 255.194 105.847 255.166 105.797 255.117C105.748 255.067 105.72 255 105.72 254.93C105.72 254.86 105.748 254.793 105.797 254.743C105.847 254.694 105.914 254.666 105.984 254.666H158.59C158.66 254.666 158.727 254.694 158.777 254.743C158.826 254.793 158.854 254.86 158.854 254.93C158.854 255 158.826 255.067 158.777 255.117C158.727 255.166 158.66 255.194 158.59 255.194Z" fill="#F2F2F2"/>
<path d="M158.59 259.948H105.984C105.914 259.948 105.847 259.92 105.797 259.87C105.748 259.821 105.72 259.754 105.72 259.684C105.72 259.614 105.748 259.546 105.797 259.497C105.847 259.447 105.914 259.42 105.984 259.42H158.59C158.66 259.42 158.727 259.447 158.777 259.497C158.826 259.546 158.854 259.614 158.854 259.684C158.854 259.754 158.826 259.821 158.777 259.87C158.727 259.92 158.66 259.948 158.59 259.948Z" fill="#F2F2F2"/>
<path d="M158.59 264.701H105.984C105.914 264.701 105.847 264.674 105.797 264.624C105.748 264.574 105.72 264.507 105.72 264.437C105.72 264.367 105.748 264.3 105.797 264.25C105.847 264.201 105.914 264.173 105.984 264.173H158.59C158.66 264.173 158.727 264.201 158.777 264.25C158.826 264.3 158.854 264.367 158.854 264.437C158.854 264.507 158.826 264.574 158.777 264.624C158.727 264.674 158.66 264.701 158.59 264.701Z" fill="#F2F2F2"/>
</svg>
