<svg width="550" height="450" viewBox="0 0 550 450" fill="none" xmlns="http://www.w3.org/2000/svg">
<g clip-path="url(#clip0)">
<path d="M221.22 167.848C242.605 167.848 259.942 150.512 259.942 129.127C259.942 107.741 242.605 90.4048 221.22 90.4048C199.834 90.4048 182.498 107.741 182.498 129.127C182.498 150.512 199.834 167.848 221.22 167.848Z" fill="#60A3D9"/>
<path d="M173.718 289.937L128.234 245.12L116.954 234.005L83.2877 200.834L41.5544 245.385L0 289.75" fill="#F2F2F2"/>
<path d="M397.711 290.207H90.1855L128.234 248.963L198.531 166.508L203.269 160.951L266.858 86.3626L310.857 156.05L312.009 157.874L367.986 246.518L397.711 290.207Z" fill="#F2F2F2"/>
<path d="M550 289.937L474.041 200.31L436.803 156.375L400.813 201.501L367.986 242.674L330.44 289.75" fill="#F2F2F2"/>
<path opacity="0.1" d="M116.954 234.005L96.9121 247.443L73.2491 238.121L41.5547 245.385L83.2881 200.834L116.954 234.005Z" fill="black"/>
<path opacity="0.1" d="M310.857 156.05L304.143 167.846L289.089 152.075L272.595 167.846L263.272 149.923L248.212 167.846L243.909 156.377L233.874 167.846L215.946 156.377L203.269 160.951L266.857 86.3626L310.857 156.05Z" fill="black"/>
<path opacity="0.1" d="M474.041 200.31L455.447 223.062L440.389 205.136L417.443 223.78L400.813 201.501L436.803 156.375L474.041 200.31Z" fill="black"/>
<path d="M474.27 290.805L473.266 290.287C486.3 265.088 479.33 232.364 471.189 209.35C465.66 193.881 458.609 178.999 450.139 164.924L451.093 164.32C459.608 178.467 466.696 193.425 472.253 208.973C480.47 232.198 487.488 265.248 474.27 290.805Z" fill="#2F2E41"/>
<path d="M483.936 164.522L476.609 204.617L477.72 204.82L485.046 164.725L483.936 164.522Z" fill="#2F2E41"/>
<path d="M435.219 198.683L434.392 199.452L472.225 240.11L473.052 239.34L435.219 198.683Z" fill="#2F2E41"/>
<path d="M503.234 243.343L484.044 269.89L484.959 270.552L504.15 244.005L503.234 243.343Z" fill="#2F2E41"/>
<path d="M487.321 153.893C490.439 153.893 492.967 151.365 492.967 148.246C492.967 145.128 490.439 142.599 487.321 142.599C484.202 142.599 481.674 145.128 481.674 148.246C481.674 151.365 484.202 153.893 487.321 153.893Z" fill="#60A3D9"/>
<path d="M425.77 197.373C428.889 197.373 431.417 194.845 431.417 191.727C431.417 188.608 428.889 186.08 425.77 186.08C422.651 186.08 420.123 188.608 420.123 191.727C420.123 194.845 422.651 197.373 425.77 197.373Z" fill="#3F3D56"/>
<path d="M450.616 203.02C453.734 203.02 456.262 200.492 456.262 197.374C456.262 194.255 453.734 191.727 450.616 191.727C447.497 191.727 444.969 194.255 444.969 197.374C444.969 200.492 447.497 203.02 450.616 203.02Z" fill="#3F3D56"/>
<path d="M439.323 225.043C442.441 225.043 444.969 222.515 444.969 219.396C444.969 216.277 442.441 213.749 439.323 213.749C436.204 213.749 433.676 216.277 433.676 219.396C433.676 222.515 436.204 225.043 439.323 225.043Z" fill="#60A3D9"/>
<path d="M509.908 239.16C513.026 239.16 515.554 236.632 515.554 233.513C515.554 230.394 513.026 227.866 509.908 227.866C506.789 227.866 504.261 230.394 504.261 233.513C504.261 236.632 506.789 239.16 509.908 239.16Z" fill="#3F3D56"/>
<path d="M491.273 245.371C494.391 245.371 496.92 242.843 496.92 239.725C496.92 236.606 494.391 234.078 491.273 234.078C488.154 234.078 485.626 236.606 485.626 239.725C485.626 242.843 488.154 245.371 491.273 245.371Z" fill="#3F3D56"/>
<path d="M504.261 263.441C507.38 263.441 509.908 260.913 509.908 257.794C509.908 254.676 507.38 252.148 504.261 252.148C501.142 252.148 498.614 254.676 498.614 257.794C498.614 260.913 501.142 263.441 504.261 263.441Z" fill="#3F3D56"/>
<path d="M444.969 160.669C448.088 160.669 450.616 158.141 450.616 155.022C450.616 151.904 448.088 149.376 444.969 149.376C441.85 149.376 439.322 151.904 439.322 155.022C439.322 158.141 441.85 160.669 444.969 160.669Z" fill="#3F3D56"/>
<path d="M333.664 289.676L332.661 289.157C345.695 263.959 338.725 231.235 330.583 208.22C325.055 192.751 318.004 177.869 309.533 163.794L310.488 163.191C319.002 177.338 326.09 192.295 331.648 207.843C339.864 231.069 346.883 264.119 333.664 289.676Z" fill="#2F2E41"/>
<path d="M343.33 163.392L336.004 203.487L337.115 203.69L344.441 163.595L343.33 163.392Z" fill="#2F2E41"/>
<path d="M294.613 197.553L293.786 198.323L331.62 238.98L332.447 238.21L294.613 197.553Z" fill="#2F2E41"/>
<path d="M362.628 242.214L343.438 268.76L344.353 269.422L363.543 242.876L362.628 242.214Z" fill="#2F2E41"/>
<path d="M346.714 152.764C349.833 152.764 352.361 150.235 352.361 147.117C352.361 143.998 349.833 141.47 346.714 141.47C343.596 141.47 341.067 143.998 341.067 147.117C341.067 150.235 343.596 152.764 346.714 152.764Z" fill="#3F3D56"/>
<path d="M285.164 196.244C288.283 196.244 290.811 193.716 290.811 190.597C290.811 187.479 288.283 184.951 285.164 184.951C282.046 184.951 279.518 187.479 279.518 190.597C279.518 193.716 282.046 196.244 285.164 196.244Z" fill="#3F3D56"/>
<path d="M310.01 201.891C313.129 201.891 315.657 199.363 315.657 196.244C315.657 193.125 313.129 190.597 310.01 190.597C306.891 190.597 304.363 193.125 304.363 196.244C304.363 199.363 306.891 201.891 310.01 201.891Z" fill="#3F3D56"/>
<path d="M298.717 223.913C301.836 223.913 304.364 221.385 304.364 218.267C304.364 215.148 301.836 212.62 298.717 212.62C295.598 212.62 293.07 215.148 293.07 218.267C293.07 221.385 295.598 223.913 298.717 223.913Z" fill="#3F3D56"/>
<path d="M369.302 238.031C372.421 238.031 374.949 235.502 374.949 232.384C374.949 229.265 372.421 226.737 369.302 226.737C366.183 226.737 363.655 229.265 363.655 232.384C363.655 235.502 366.183 238.031 369.302 238.031Z" fill="#60A3D9"/>
<path d="M350.667 244.242C353.786 244.242 356.314 241.714 356.314 238.595C356.314 235.477 353.786 232.948 350.667 232.948C347.549 232.948 345.021 235.477 345.021 238.595C345.021 241.714 347.549 244.242 350.667 244.242Z" fill="#3F3D56"/>
<path d="M363.655 262.312C366.773 262.312 369.301 259.784 369.301 256.665C369.301 253.546 366.773 251.018 363.655 251.018C360.536 251.018 358.008 253.546 358.008 256.665C358.008 259.784 360.536 262.312 363.655 262.312Z" fill="#3F3D56"/>
<path d="M304.364 159.54C307.482 159.54 310.01 157.012 310.01 153.893C310.01 150.774 307.482 148.246 304.364 148.246C301.245 148.246 298.717 150.774 298.717 153.893C298.717 157.012 301.245 159.54 304.364 159.54Z" fill="#3F3D56"/>
<path d="M97.7531 289.676L98.7567 289.157C85.7227 263.959 92.6925 231.235 100.834 208.22C106.362 192.751 113.414 177.869 121.884 163.794L120.93 163.191C112.415 177.338 105.327 192.295 99.7697 207.843C91.5532 231.069 84.5343 264.119 97.7531 289.676Z" fill="#2F2E41"/>
<path d="M88.0882 163.39L86.9775 163.593L94.3037 203.688L95.4144 203.485L88.0882 163.39Z" fill="#2F2E41"/>
<path d="M136.804 197.553L98.9707 238.211L99.7978 238.98L137.631 198.323L136.804 197.553Z" fill="#2F2E41"/>
<path d="M68.7884 242.214L67.873 242.876L87.0633 269.422L87.9787 268.76L68.7884 242.214Z" fill="#2F2E41"/>
<path d="M84.7025 152.764C87.8211 152.764 90.3493 150.235 90.3493 147.117C90.3493 143.998 87.8211 141.47 84.7025 141.47C81.5838 141.47 79.0557 143.998 79.0557 147.117C79.0557 150.235 81.5838 152.764 84.7025 152.764Z" fill="#3F3D56"/>
<path d="M146.252 196.244C149.371 196.244 151.899 193.716 151.899 190.597C151.899 187.479 149.371 184.951 146.252 184.951C143.134 184.951 140.605 187.479 140.605 190.597C140.605 193.716 143.134 196.244 146.252 196.244Z" fill="#3F3D56"/>
<path d="M121.407 201.891C124.525 201.891 127.053 199.363 127.053 196.244C127.053 193.125 124.525 190.597 121.407 190.597C118.288 190.597 115.76 193.125 115.76 196.244C115.76 199.363 118.288 201.891 121.407 201.891Z" fill="#3F3D56"/>
<path d="M132.701 223.913C135.819 223.913 138.347 221.385 138.347 218.267C138.347 215.148 135.819 212.62 132.701 212.62C129.582 212.62 127.054 215.148 127.054 218.267C127.054 221.385 129.582 223.913 132.701 223.913Z" fill="#3F3D56"/>
<path d="M62.1146 238.031C65.2332 238.031 67.7614 235.502 67.7614 232.384C67.7614 229.265 65.2332 226.737 62.1146 226.737C58.9959 226.737 56.4678 229.265 56.4678 232.384C56.4678 235.502 58.9959 238.031 62.1146 238.031Z" fill="#3F3D56"/>
<path d="M80.7494 244.242C83.868 244.242 86.3962 241.714 86.3962 238.595C86.3962 235.477 83.868 232.948 80.7494 232.948C77.6307 232.948 75.1025 235.477 75.1025 238.595C75.1025 241.714 77.6307 244.242 80.7494 244.242Z" fill="#3F3D56"/>
<path d="M67.7621 262.312C70.8807 262.312 73.4089 259.784 73.4089 256.665C73.4089 253.546 70.8807 251.018 67.7621 251.018C64.6434 251.018 62.1152 253.546 62.1152 256.665C62.1152 259.784 64.6434 262.312 67.7621 262.312Z" fill="#60A3D9"/>
<path d="M127.053 159.54C130.172 159.54 132.7 157.012 132.7 153.893C132.7 150.774 130.172 148.246 127.053 148.246C123.934 148.246 121.406 150.774 121.406 153.893C121.406 157.012 123.934 159.54 127.053 159.54Z" fill="#3F3D56"/>
<path d="M550 289.417H0V290.546H550V289.417Z" fill="#2F2E41"/>
<path d="M242.819 284.015C246.572 284.015 249.614 280.973 249.614 277.22C249.614 273.467 246.572 270.425 242.819 270.425C239.066 270.425 236.023 273.467 236.023 277.22C236.023 280.973 239.066 284.015 242.819 284.015Z" fill="#2F2E41"/>
<path d="M239.149 282.385C239.149 282.385 239.285 284.831 237.654 285.103L239.965 290.675L242.819 295.295H245.265L246.76 293.936L246.488 292.17L245.673 289.044L244.721 288.092C244.721 288.092 244.857 284.151 246.08 282.385C247.304 280.618 239.149 282.385 239.149 282.385Z" fill="#FFB8B8"/>
<path opacity="0.1" d="M239.149 282.385C239.149 282.385 239.285 284.831 237.654 285.103L239.965 290.675L242.819 295.295H245.265L246.76 293.936L246.488 292.17L245.673 289.044L244.721 288.092C244.721 288.092 244.857 284.151 246.08 282.385C247.304 280.618 239.149 282.385 239.149 282.385Z" fill="black"/>
<path d="M244.722 273.958C246.523 273.958 247.983 272.498 247.983 270.697C247.983 268.895 246.523 267.435 244.722 267.435C242.92 267.435 241.46 268.895 241.46 270.697C241.46 272.498 242.92 273.958 244.722 273.958Z" fill="#2F2E41"/>
<path d="M241.596 269.338C241.596 268.909 241.68 268.485 241.844 268.089C242.008 267.694 242.248 267.334 242.551 267.031C242.854 266.728 243.213 266.488 243.609 266.324C244.005 266.16 244.429 266.076 244.857 266.076C244.9 266.076 244.943 266.078 244.986 266.079C244.542 265.945 244.075 265.907 243.616 265.968C243.157 266.028 242.716 266.186 242.322 266.43C241.928 266.674 241.591 267 241.333 267.384C241.075 267.769 240.902 268.204 240.825 268.661C240.749 269.118 240.77 269.586 240.888 270.034C241.007 270.482 241.219 270.899 241.511 271.259C241.803 271.618 242.169 271.911 242.583 272.118C242.997 272.326 243.451 272.442 243.914 272.46C243.243 272.257 242.656 271.844 242.239 271.282C241.821 270.72 241.596 270.038 241.596 269.338Z" fill="#2F2E41"/>
<path d="M238.334 285.238L236.975 285.103C236.597 284.993 236.196 284.986 235.814 285.082C235.433 285.177 235.083 285.372 234.8 285.646C233.849 286.598 234.936 297.334 234.936 297.334L238.334 295.024L238.878 289.587L238.334 285.238Z" fill="#FFB8B8"/>
<path d="M231.675 327.369L229.772 338.105C229.772 338.105 228.549 342.59 227.054 343.949C225.559 345.308 223.249 356.588 222.705 359.035C222.161 361.481 222.025 362.84 221.346 363.791C220.666 364.743 221.346 368.14 221.346 368.14H222.841L225.015 367.733C225.015 367.733 225.423 362.568 225.831 361.617C226.238 360.666 232.898 346.396 232.898 346.396C232.898 346.396 237.383 339.736 238.198 336.067C238.815 333.61 239.824 331.27 241.188 329.136L231.675 327.369Z" fill="#FFB8B8"/>
<path d="M245.401 326.825L247.168 339.193C247.168 339.193 247.168 342.998 247.712 344.493C248.255 345.988 248.663 354.822 249.207 356.86C249.75 358.899 250.973 363.384 250.566 363.927C250.089 364.8 249.68 365.709 249.343 366.645L250.702 369.635L254.371 367.053L253.827 344.765C253.827 344.765 255.322 325.874 254.371 325.33C253.42 324.787 248.663 323.156 245.401 326.825Z" fill="#FFB8B8"/>
<path d="M234.937 313.507L232.219 320.981C232.219 320.981 230.18 328.864 231.267 329.272C232.355 329.679 244.722 331.446 244.994 329.951C245.119 329.368 245.21 328.778 245.266 328.184C245.266 328.184 255.866 328.592 256.002 326.146C256.008 322.831 255.827 319.519 255.459 316.225C255.327 315.666 255.017 315.165 254.576 314.797C254.135 314.429 253.586 314.215 253.012 314.186C251.517 314.186 238.606 310.789 234.937 313.507Z" fill="#2F2E41"/>
<path d="M221.618 366.509C221.746 366.313 221.946 366.175 222.174 366.124C222.403 366.073 222.642 366.114 222.841 366.238C223.657 366.645 225.288 366.509 225.288 366.509L224.88 370.179C224.88 370.179 226.511 376.702 223.521 376.702C220.531 376.702 218.9 374.528 219.172 373.712C219.444 372.897 220.123 366.509 220.123 366.509C220.123 366.509 221.429 363.301 221.482 363.112C221.536 362.923 221.618 366.509 221.618 366.509Z" fill="#2F2E41"/>
<path d="M250.022 365.83C250.022 365.83 249.75 367.325 250.973 367.189C252.197 367.053 254.235 365.83 254.371 365.966C254.72 366.646 254.95 367.382 255.051 368.14C255.186 369.092 255.458 371.13 256.681 372.081C257.905 373.033 259.807 376.023 257.633 376.159C255.458 376.295 251.517 376.159 251.381 374.8C251.245 373.441 251.245 371.946 251.245 371.946C251.245 371.946 250.022 372.082 249.614 371.81C249.207 371.538 246.489 369.907 247.304 367.733C248.119 365.558 250.42 364.157 250.42 364.157L250.022 365.83Z" fill="#2F2E41"/>
<path d="M242.276 284.423C245.203 284.423 247.576 282.05 247.576 279.123C247.576 276.196 245.203 273.823 242.276 273.823C239.349 273.823 236.976 276.196 236.976 279.123C236.976 282.05 239.349 284.423 242.276 284.423Z" fill="#FFB8B8"/>
<path d="M245.13 289.044C245.13 289.044 247.576 289.044 248.12 290.403C248.663 291.762 247.576 294.616 247.576 294.616L246.337 291.587L245.13 289.044Z" fill="#FFB8B8"/>
<path d="M236.296 284.967H237.927C237.927 284.967 242.14 291.218 242.819 291.762C243.499 292.306 245.945 292.441 245.945 292.034C245.945 291.626 244.722 288.092 244.722 288.092L245.809 288.908L247.576 293.257C247.576 293.257 252.333 305.216 251.925 306.44C251.857 306.591 251.821 306.754 251.819 306.919C251.817 307.085 251.848 307.249 251.912 307.402C251.976 307.555 252.07 307.693 252.189 307.808C252.308 307.923 252.45 308.012 252.605 308.07C252.74 308.206 254.235 311.332 253.556 312.555C252.876 313.778 254.235 315.273 254.235 315.273C254.235 315.273 254.915 318.263 252.605 318.671C250.294 319.079 249.071 316.904 246.353 317.991C243.635 319.079 239.965 319.215 239.15 317.584C238.567 316.35 238.068 315.079 237.655 313.778C237.655 313.778 236.16 316.361 236.84 318.399C237.519 320.438 236.568 318.263 235.888 318.263C235.209 318.263 233.986 318.127 233.986 317.312C233.986 316.497 231.268 302.77 231.268 302.77L235.073 294.072C235.073 294.072 238.606 292.441 238.199 290.539C237.791 288.636 238.335 285.918 236.296 284.967Z" fill="#3F3D56"/>
<path d="M236.74 285.831C236.403 285.527 235.986 285.326 235.539 285.252C235.091 285.177 234.632 285.232 234.215 285.41C233.394 285.761 232.665 286.296 232.084 286.973C231.502 287.65 231.083 288.452 230.859 289.316C229.636 293.257 227.054 303.722 227.598 306.304C228.141 308.886 232.626 320.438 232.626 320.438C232.753 321.488 232.934 322.532 233.17 323.564C233.306 323.699 235.344 318.671 235.344 318.671L231.811 305.216L236.567 290.675C236.567 290.675 238.502 287.482 236.74 285.831Z" fill="#FFB8B8"/>
<path d="M242.751 278.036C245.641 278.036 247.983 276.514 247.983 274.638C247.983 272.761 245.641 271.24 242.751 271.24C239.861 271.24 237.519 272.761 237.519 274.638C237.519 276.514 239.861 278.036 242.751 278.036Z" fill="#2F2E41"/>
<path d="M126.823 289.17C126.823 289.17 117.72 294.071 117.37 298.273C117.02 302.474 111.768 312.978 111.768 312.978C111.768 312.978 91.1114 307.026 90.7613 306.676C90.4112 306.326 89.0107 312.978 89.0107 312.978L96.3632 314.028L110.018 318.93C110.018 318.93 113.169 323.481 118.421 317.179C123.672 310.877 136.977 297.223 136.977 297.223L126.823 289.17Z" fill="#2F2E41"/>
<path d="M125.073 306.326C125.073 306.326 136.627 317.529 136.277 319.98C135.927 322.431 130.675 342.388 130.675 342.388L134.876 344.488L137.677 342.738L143.279 318.58C143.279 318.58 145.388 315.621 141.358 312.199C137.327 308.776 134.526 296.872 134.526 296.872L125.073 306.326Z" fill="#2F2E41"/>
<path d="M157.809 284.093C161.097 284.093 163.761 281.428 163.761 278.141C163.761 274.854 161.097 272.189 157.809 272.189C154.522 272.189 151.857 274.854 151.857 278.141C151.857 281.428 154.522 284.093 157.809 284.093Z" fill="#A0616A"/>
<path d="M153.782 277.266C153.782 277.266 147.83 274.465 147.13 275.165C146.43 275.865 148.531 284.268 148.531 284.268C148.531 284.268 154.133 281.117 154.833 281.117C155.533 281.117 153.782 277.266 153.782 277.266Z" fill="#A0616A"/>
<path d="M150.282 281.117C150.282 281.117 148.531 274.115 147.831 274.115C147.13 274.115 140.478 275.165 136.277 280.067C132.075 284.968 127.524 287.769 126.123 288.82C124.723 289.87 123.673 290.92 126.123 291.971C128.574 293.021 131.375 295.822 132.426 297.573C133.476 299.323 140.478 297.223 140.478 297.223C140.478 297.223 143.629 291.271 144.68 291.271C145.73 291.271 151.332 283.218 150.282 281.117Z" fill="#60A3D9"/>
<path d="M139.778 288.82C139.778 288.82 134.876 295.472 134.876 300.374C134.876 305.275 137.677 313.328 137.677 313.328C137.677 313.328 140.128 325.232 142.228 321.031C144.329 316.829 140.828 311.227 140.828 311.227L139.427 298.623L142.228 291.971L139.778 288.82Z" fill="#A0616A"/>
<path d="M91.8637 307.08C91.8637 307.08 87.96 304.225 87.6099 305.275C87.2598 306.326 82.008 318.23 83.7586 318.93C85.5092 319.63 90.7609 312.628 91.111 312.628C91.4612 312.628 90.8658 306.783 91.8637 307.08Z" fill="#2F2E41"/>
<path d="M136.977 340.637C136.977 340.637 142.229 343.438 143.279 343.438C144.329 343.438 146.43 344.839 143.979 345.539C141.528 346.239 130.675 347.289 130.325 346.239C129.974 345.189 130.325 342.388 130.325 342.388C130.325 342.388 136.977 341.687 136.977 340.637Z" fill="#2F2E41"/>
<path d="M164.712 278.034C164.872 277.603 164.93 277.141 164.879 276.684C164.847 275.678 164.777 274.578 164.093 273.839C163.743 273.461 163.251 273.206 163.004 272.753C162.874 272.436 162.769 272.11 162.688 271.777C162.514 271.379 162.248 271.029 161.911 270.755C161.575 270.481 161.178 270.292 160.753 270.203C159.903 270.032 159.031 270 158.171 270.108C156.937 270.133 155.714 270.348 154.546 270.746C153.963 270.95 153.434 271.285 153.001 271.725C152.567 272.165 152.24 272.699 152.044 273.285C151.941 273.742 151.892 274.21 151.898 274.678L151.847 276.628C152.042 276.8 152.286 276.907 152.544 276.935C152.803 276.963 153.064 276.91 153.291 276.783C153.766 276.572 154.168 276.218 154.65 276.024C154.882 275.907 155.146 275.869 155.402 275.915C155.658 275.961 155.892 276.09 156.068 276.281C156.163 276.454 156.245 276.633 156.315 276.818C157.276 278.731 159.858 276.695 161.199 276.724C162.399 276.75 163.832 279.92 164.712 278.034Z" fill="#2F2E41"/>
<path d="M145.67 347.314C154.395 347.314 155.8 344.063 155.859 343.918L155.21 343.654C155.196 343.687 153.702 346.924 144.342 346.589C135.257 346.265 121.2 346.545 119.322 346.585C118.795 345.693 116.434 342.077 113.101 342.745L113.238 343.431C116.441 342.788 118.79 347.062 118.813 347.105L118.915 347.294L119.129 347.289C119.283 347.286 134.637 346.944 144.317 347.289C144.787 347.306 145.237 347.314 145.67 347.314Z" fill="#2F2E41"/>
<path d="M145.627 350.791H145.832C146.549 350.791 147.13 350.21 147.13 349.493V349.287C147.13 348.571 146.549 347.99 145.832 347.99H145.627C144.91 347.99 144.329 348.571 144.329 349.287V349.493C144.329 350.21 144.91 350.791 145.627 350.791Z" fill="#2F2E41"/>
<path d="M121.469 350.791H121.675C122.392 350.791 122.973 350.21 122.973 349.493V349.287C122.973 348.571 122.392 347.99 121.675 347.99H121.469C120.753 347.99 120.172 348.571 120.172 349.287V349.493C120.172 350.21 120.753 350.791 121.469 350.791Z" fill="#2F2E41"/>
<path d="M149.231 280.417C149.231 280.417 147.566 288.845 145.773 290.408C143.979 291.971 143.557 293.485 142.368 293.953C141.178 294.422 136.977 289.52 136.977 289.17C136.977 288.82 149.231 280.417 149.231 280.417Z" fill="#60A3D9"/>
<path d="M184.651 352.096H96.5605V353.226H184.651V352.096Z" fill="#2F2E41"/>
<path d="M289.682 375.813H201.592V376.942H289.682V375.813Z" fill="#2F2E41"/>
<path d="M361.396 409.129H325.257V410.259H361.396V409.129Z" fill="#2F2E41"/>
<path d="M136.088 399.53H99.9482V400.659H136.088V399.53Z" fill="#2F2E41"/>
<path d="M456.028 319.909H300.646V321.039H456.028V319.909Z" fill="#2F2E41"/>
<path d="M125.05 85.3893C122.016 82.3435 118.266 80.1087 114.144 78.8902C110.021 77.6716 105.659 77.5083 101.457 78.4152C97.2546 79.3221 93.3477 81.2702 90.0948 84.0806C86.8419 86.891 84.3472 90.4736 82.8398 94.4995L129.967 92.3159C128.725 89.7494 127.063 87.4083 125.05 85.3893Z" fill="#F2F2F2"/>
<path d="M226.693 47.5556C223.659 44.5098 219.909 42.2751 215.786 41.0565C211.664 39.8379 207.301 39.6746 203.099 40.5815C198.897 41.4884 194.99 43.4365 191.737 46.2469C188.485 49.0573 185.99 52.64 184.482 56.6658L231.61 54.4822C230.368 51.9157 228.706 49.5746 226.693 47.5556Z" fill="#F2F2F2"/>
<path d="M405.697 141.857C402.663 138.812 398.913 136.577 394.79 135.358C390.668 134.14 386.305 133.976 382.103 134.883C377.901 135.79 373.994 137.738 370.741 140.549C367.488 143.359 364.994 146.942 363.486 150.968L410.614 148.784C409.372 146.218 407.71 143.876 405.697 141.857Z" fill="#F2F2F2"/>
<path d="M468.686 391.624H383.419V392.753H468.686V391.624Z" fill="#2F2E41"/>
<path d="M398.17 369.615C398.17 370.755 397.74 371.852 396.965 372.687C396.191 373.522 395.129 374.034 393.993 374.119H393.989C393.878 374.129 393.767 374.133 393.652 374.133C393.059 374.133 392.472 374.016 391.924 373.789C391.375 373.562 390.877 373.229 390.458 372.81C390.039 372.39 389.706 371.892 389.479 371.344C389.252 370.796 389.135 370.209 389.135 369.615C389.134 369.592 389.135 369.569 389.138 369.546C389.154 368.447 389.571 367.391 390.31 366.577C391.049 365.763 392.059 365.247 393.152 365.126C393.318 365.108 393.485 365.098 393.652 365.098C394.715 365.097 395.744 365.471 396.557 366.155C397.371 366.838 397.917 367.787 398.1 368.833V368.837C398.146 369.094 398.17 369.354 398.17 369.615Z" fill="#60A3D9"/>
<path d="M398.171 369.615C398.171 370.755 397.741 371.852 396.966 372.687C396.191 373.522 395.13 374.034 393.994 374.119H393.99C393.538 373.509 393.297 372.768 393.306 372.009C393.314 371.249 393.571 370.514 394.038 369.914C394.504 369.315 395.153 368.885 395.887 368.69C396.621 368.494 397.399 368.545 398.101 368.833V368.837C398.147 369.094 398.17 369.354 398.171 369.615Z" fill="#F2F2F2"/>
<path d="M393.305 366.14C393.305 366.655 393.191 367.164 392.97 367.629C392.749 368.095 392.428 368.505 392.029 368.831C391.631 369.157 391.164 369.39 390.664 369.514C390.165 369.637 389.643 369.648 389.139 369.546C389.154 368.447 389.571 367.391 390.31 366.577C391.049 365.763 392.06 365.247 393.152 365.126C393.255 365.454 393.306 365.796 393.305 366.14Z" fill="#F2F2F2"/>
<path d="M437.628 363.118C437.628 365.925 433.435 365.538 432.546 368.2C429.439 377.514 427.435 366.816 427.464 363.118C427.464 361.77 428 360.477 428.953 359.524C429.906 358.571 431.198 358.036 432.546 358.036C433.894 358.036 435.187 358.571 436.14 359.524C437.093 360.477 437.628 361.77 437.628 363.118H437.628Z" fill="#2F2E41"/>
<path d="M431.11 377.216C431.11 377.216 431.05 383.615 430.216 384.032C429.383 384.449 424.65 385.343 425.484 386.801C425.922 387.522 426.616 388.052 427.427 388.283C428.238 388.515 429.107 388.432 429.86 388.052C431.319 387.218 434.861 382.217 434.861 382.217L431.11 377.216Z" fill="#3F3D56"/>
<path d="M448.823 382.842C448.823 382.842 448.823 382.903 448.829 383.013C448.881 383.745 449.106 384.454 449.486 385.082C449.867 385.71 450.391 386.239 451.015 386.624C451.64 387.009 452.347 387.241 453.079 387.299C453.811 387.357 454.546 387.24 455.223 386.958C455.831 386.719 456.358 386.683 456.265 387.339C456.056 388.798 456.117 390.761 457.159 390.761C458.201 390.761 459.659 388.26 458.826 385.551C458.163 383.635 457.252 381.813 456.117 380.133L448.823 382.842Z" fill="#3F3D56"/>
<path opacity="0.1" d="M431.11 377.216C431.11 377.216 431.05 383.615 430.216 384.032C429.383 384.449 424.65 385.343 425.484 386.801C425.922 387.522 426.616 388.052 427.427 388.283C428.238 388.515 429.107 388.432 429.86 388.052C431.319 387.218 434.861 382.217 434.861 382.217L431.11 377.216Z" fill="black"/>
<path opacity="0.1" d="M448.823 382.842C448.823 382.842 448.823 382.903 448.829 383.013C448.881 383.745 449.106 384.454 449.486 385.082C449.867 385.71 450.391 386.239 451.015 386.624C451.64 387.009 452.347 387.241 453.079 387.299C453.811 387.357 454.546 387.24 455.223 386.958C455.831 386.719 456.358 386.683 456.265 387.339C456.056 388.798 456.117 390.761 457.159 390.761C458.201 390.761 459.659 388.26 458.826 385.551C458.163 383.635 457.252 381.813 456.117 380.133L448.823 382.842Z" fill="black"/>
<path d="M426.558 364.078C427.001 363.104 427.66 362.243 428.485 361.561C429.271 360.904 430.206 360.449 431.209 360.235C432.211 360.022 433.251 360.056 434.236 360.336C439.029 361.587 439.654 365.129 439.654 365.129V366.559C439.645 367.245 439.843 367.918 440.22 368.49C440.598 369.063 441.139 369.509 441.773 369.77C442.834 370.185 460.303 369.6 461.345 368.558C462.097 367.719 462.723 366.774 463.202 365.754V365.795C463.219 367.704 462.721 369.582 461.762 371.233C461.342 371.824 461.117 372.531 461.118 373.256C461.327 374.715 461.952 378.674 460.701 380.133C459.451 381.592 460.076 382.634 461.535 382.842C462.994 383.051 465.494 382.634 465.286 385.134C465.078 387.635 465.494 388.677 464.452 388.677C463.411 388.677 462.952 388.356 461.91 386.064C461.91 386.064 461.118 385.551 458.201 386.385C456.305 386.927 453.813 387.44 453.084 385.968C451.472 382.712 441.106 383.354 438.746 386.613C438.118 387.542 437.35 388.368 436.47 389.062C436.058 389.384 435.605 389.649 435.122 389.849C433.872 390.292 432.361 390.448 431.319 389.302C429.235 387.01 434.805 386.628 434.805 386.628C434.805 386.628 435.695 384.509 435.278 383.051C435.278 383.051 430.277 382.009 430.069 375.549C430.069 375.549 423.4 375.549 422.358 372.214L421.316 368.88L423.321 367.677C424.731 366.832 425.856 365.584 426.551 364.094L426.558 364.078Z" fill="#3F3D56"/>
<path d="M421.41 370.295C421.947 370.295 422.382 369.736 422.382 369.045C422.382 368.354 421.947 367.795 421.41 367.795C420.873 367.795 420.438 368.354 420.438 369.045C420.438 369.736 420.873 370.295 421.41 370.295Z" fill="#2F2E41"/>
<path d="M442.146 365.17C442.146 368.289 437.486 367.859 436.499 370.817C433.046 381.166 430.82 369.279 430.852 365.17C430.852 363.673 431.447 362.236 432.506 361.177C433.565 360.118 435.001 359.523 436.499 359.523C437.996 359.523 439.433 360.118 440.492 361.177C441.551 362.236 442.146 363.673 442.146 365.17Z" fill="#2F2E41"/>
</g>
<defs>
<clipPath id="clip0">
<rect width="550" height="450" fill="white"/>
</clipPath>
</defs>
</svg>
