<svg width="550" height="450" viewBox="0 0 550 450" fill="none" xmlns="http://www.w3.org/2000/svg">
<g clip-path="url(#clip0)">
<path d="M413.043 435.454C403.307 435.454 394.015 435.641 385.508 435.98C385.522 435.911 385.53 435.841 385.533 435.771C385.533 432.819 375.395 430.123 358.676 428.064C407.913 425.391 440.918 420.482 440.918 414.867C440.918 406.395 365.771 399.527 273.073 399.527C180.375 399.527 105.229 406.395 105.229 414.867C105.229 416.447 107.845 417.972 112.698 419.406C83.7804 420.388 63 423.096 63 426.284C63 430.301 95.9861 433.557 136.677 433.557C149.702 433.557 161.935 433.223 172.553 432.638C169.989 433.635 168.614 434.685 168.614 435.771C168.614 442.232 217.173 447.47 277.073 447.47C301.961 447.47 324.886 446.565 343.188 445.045C352.992 447.925 380.562 450 413.043 450C453.733 450 486.719 446.744 486.719 442.727C486.719 438.711 453.733 435.454 413.043 435.454Z" fill="#3F3D56"/>
<path d="M123.737 393.434C127.978 409.112 142.505 418.822 142.505 418.822C142.505 418.822 150.156 403.112 145.915 387.434C141.673 371.756 127.146 362.046 127.146 362.046C127.146 362.046 119.496 377.756 123.737 393.434Z" fill="#3F3D56"/>
<path d="M129.969 390.064C141.607 401.393 143.028 418.809 143.028 418.809C143.028 418.809 125.581 417.856 113.943 406.527C102.305 395.198 100.884 377.783 100.884 377.783C100.884 377.783 118.331 378.735 129.969 390.064Z" fill="#60A3D9"/>
<path d="M276.493 56.6038C276.493 56.6038 277.829 58.1344 275.54 61.096C273.252 64.0575 275.1 70.4838 279.447 70.6475C283.795 70.8112 285.903 72.6322 284.855 75.0309C283.807 77.4296 282.548 83.1293 287.282 82.2627C292.017 81.396 293.514 83.281 292.675 84.7298C291.837 86.1785 294.787 81.8486 294.787 81.8486C294.787 81.8486 297.425 85.7794 300.664 83.0278C303.902 80.2761 305.19 55.3332 298.588 54.9105C291.986 54.4877 276.493 56.6038 276.493 56.6038Z" fill="#2F2E41"/>
<path d="M309.962 175.221L311.466 185.752H318.237L315.98 173.717L309.962 175.221Z" fill="#9F616A"/>
<path d="M318.989 179.358C318.989 179.358 328.016 187.633 325.759 188.385C323.503 189.138 315.228 198.164 313.723 198.917C312.378 199.59 297.926 204.182 300.183 198.917C302.44 193.651 307.706 190.642 307.706 190.642L309.21 181.615L318.989 179.358Z" fill="#F2F2F2"/>
<path opacity="0.1" d="M318.989 179.358C318.989 179.358 328.016 187.633 325.759 188.385C323.503 189.138 315.228 198.164 313.723 198.917C312.378 199.59 297.926 204.182 300.183 198.917C302.44 193.651 307.706 190.642 307.706 190.642L309.21 181.615L318.989 179.358Z" fill="black"/>
<path d="M318.989 167.322L320.494 177.854H327.264L325.007 165.818L318.989 167.322Z" fill="#9F616A"/>
<path d="M290.7 139.367L300.559 106.767C300.559 106.767 284.01 91.7223 295.294 87.2089C306.577 82.6954 309.586 105.263 309.586 105.263L305.825 144.379H290.78L290.7 139.367Z" fill="#FFB8B8"/>
<path d="M313.724 115.418C313.724 115.418 294.282 140.354 297.233 144.059C300.183 147.764 305.449 170.331 305.449 170.331C305.449 170.331 304.697 179.358 307.706 179.358C310.715 179.358 318.237 177.854 318.237 175.597C318.237 173.34 311.467 144.755 311.467 144.755L331.025 119.179L313.724 115.418Z" fill="#60A3D9"/>
<path d="M315.228 116.922L334.786 106.391C334.786 106.391 348.326 113.161 344.565 119.179C340.804 125.197 323.502 140.994 323.502 140.994C323.502 140.994 328.768 166.57 328.016 167.323C327.264 168.075 318.989 171.084 316.732 170.332C314.476 169.579 302.44 140.242 305.449 138.737C308.458 137.233 318.237 121.436 318.237 121.436L315.228 116.922Z" fill="#60A3D9"/>
<path d="M261.819 392.995C261.819 392.995 275.359 401.27 276.863 401.27C278.368 401.27 298.678 406.535 289.652 410.297C280.625 414.058 246.022 408.792 246.774 406.535C247.526 404.279 246.774 390.738 248.278 390.738C249.783 390.738 261.819 392.995 261.819 392.995Z" fill="#2F2E41"/>
<path d="M276.864 403.526C276.864 403.526 290.404 411.801 291.908 411.801C293.413 411.801 313.723 417.067 304.697 420.828C295.67 424.589 261.066 419.323 261.819 417.067C262.571 414.81 261.819 401.27 263.323 401.27C264.828 401.27 276.864 403.526 276.864 403.526Z" fill="#2F2E41"/>
<path d="M262.571 244.051C262.571 244.051 264.827 255.335 268.589 263.609C272.35 271.884 267.836 311.001 265.58 317.019C263.323 323.037 241.508 394.499 248.278 395.252C255.048 396.004 268.589 395.252 268.589 395.252L290.404 326.798L286.642 235.024L262.571 244.051Z" fill="#575A88"/>
<path opacity="0.1" d="M262.571 244.051C262.571 244.051 264.827 255.335 268.589 263.609C272.35 271.884 267.836 311.001 265.58 317.019C263.323 323.037 241.508 394.499 248.278 395.252C255.048 396.004 268.589 395.252 268.589 395.252L290.404 326.798L286.642 235.024L262.571 244.051Z" fill="black"/>
<path d="M267.084 244.803C267.084 244.803 270.093 265.114 276.863 269.627C283.633 274.141 281.377 278.654 281.377 278.654L278.368 318.523C278.368 318.523 249.03 390.738 258.057 399.765C267.084 408.792 275.359 405.031 279.12 404.279C282.881 403.526 289.651 387.729 285.89 383.216C282.129 378.702 293.413 351.622 296.421 347.108C299.43 342.595 296.421 336.577 300.183 335.072C303.944 333.568 312.219 323.789 312.219 317.019C312.219 310.248 322.75 238.033 315.98 233.52C309.21 229.006 265.813 242.835 265.813 242.835L267.084 244.803Z" fill="#575A88"/>
<path d="M252.792 139.49C261.931 139.49 269.341 132.08 269.341 122.94C269.341 113.8 261.931 106.391 252.792 106.391C243.652 106.391 236.242 113.8 236.242 122.94C236.242 132.08 243.652 139.49 252.792 139.49Z" fill="#FFB8B8"/>
<path d="M290.404 76.3014C297.882 76.3014 303.944 70.2391 303.944 62.761C303.944 55.2829 297.882 49.2206 290.404 49.2206C282.926 49.2206 276.863 55.2829 276.863 62.761C276.863 70.2391 282.926 76.3014 290.404 76.3014Z" fill="#9F616A"/>
<path d="M264.076 122.94C264.076 122.94 273.103 139.49 277.616 139.49C282.13 139.49 259.562 156.791 259.562 156.791C259.562 156.791 252.04 134.976 250.535 134.224C249.031 133.472 264.076 122.94 264.076 122.94Z" fill="#FFB8B8"/>
<path d="M267.085 137.985C267.085 137.985 247.526 144.755 248.279 147.012C249.031 149.269 243.013 154.534 243.013 156.791C243.013 159.048 241.508 179.358 250.535 195.908C259.562 212.457 273.855 224.493 267.085 232.015C260.315 239.538 249.783 252.326 261.067 252.326C272.35 252.326 290.404 235.777 306.954 241.794C323.503 247.812 319.742 225.245 319.742 225.245C319.742 225.245 321.998 207.944 317.485 202.678C312.971 197.412 297.174 159.8 297.174 155.287C297.174 150.773 282.13 133.472 278.368 133.472C274.607 133.472 267.085 137.985 267.085 137.985Z" fill="#8985A8"/>
<path d="M294.165 71.0356C294.165 71.0356 300.291 82.6821 300.613 84.7574C300.935 86.8327 311.467 71.0356 311.467 71.0356L299.431 62.761L294.165 71.0356Z" fill="#9F616A"/>
<path d="M296.422 80.0626L309.21 66.5222L324.255 73.2924C324.255 73.2924 338.286 104.134 339.169 106.391C340.052 108.648 316.732 119.179 314.475 119.179C312.219 119.179 296.422 95.8596 296.422 95.8596C296.422 95.8596 292.66 84.576 296.422 80.0626Z" fill="#F2F2F2"/>
<path d="M290.404 98.1163V111.656H299.431L296.462 98.1163H290.404Z" fill="#9F616A"/>
<path d="M295.555 108.272C294.414 108.256 293.296 108.589 292.349 109.225C291.402 109.862 290.672 110.772 290.255 111.834C289.667 113.424 289.867 115.095 292.661 115.794C298.679 117.298 299.431 115.794 299.431 115.794C299.431 115.794 309.878 114.29 307.664 111.281C305.449 108.272 299.431 108.272 299.431 108.272H295.555Z" fill="#9F616A"/>
<path d="M328.016 173.34C328.016 173.34 337.043 181.615 334.787 182.367C332.53 183.12 324.255 192.146 322.751 192.899C321.405 193.572 306.954 198.164 309.21 192.899C311.467 187.633 316.733 184.624 316.733 184.624L318.237 175.597L328.016 173.34Z" fill="#F2F2F2"/>
<path d="M246.895 110.201C247.931 109.595 249.154 108.839 249.183 107.639C249.156 107.199 249.001 106.775 248.737 106.421C248.473 106.068 248.111 105.798 247.696 105.647C246.861 105.359 245.978 105.24 245.097 105.297C244.758 105.28 244.42 105.313 244.092 105.397C243.235 105.661 242.741 106.531 242.066 107.121C241.086 107.979 239.736 108.231 238.476 108.557C236.364 109.105 234.339 109.945 232.459 111.051C232.087 111.239 231.762 111.506 231.506 111.834C231.211 112.439 231.079 113.11 231.124 113.782C230.954 116.334 229.424 118.555 228.282 120.844C227.139 123.133 226.389 125.984 227.729 128.162C228.262 128.84 228.758 129.545 229.217 130.274C230.168 132.254 228.982 134.692 229.668 136.778C229.975 137.6 230.468 138.339 231.108 138.938C232.429 140.268 234.057 141.254 235.848 141.808C237.558 142.334 239.679 142.685 240.348 144.344C240.635 145.055 240.577 145.893 240.982 146.545C241.484 147.352 242.519 147.613 243.453 147.785C244.503 148.025 245.582 148.103 246.655 148.017C247.192 147.97 247.713 147.815 248.188 147.561C248.663 147.307 249.081 146.959 249.417 146.538C249.721 145.944 250.096 145.39 250.536 144.889C251.625 143.979 253.279 144.698 254.678 144.456C255.245 144.35 255.769 144.083 256.19 143.688C256.61 143.294 256.91 142.787 257.052 142.228C257.091 141.633 257.255 141.052 257.534 140.525C258.403 139.413 260.689 140.198 261.262 138.909C261.635 138.072 260.855 137.187 260.101 136.665C258.872 135.815 257.498 135.161 256.395 134.151C255.292 133.142 254.477 131.632 254.822 130.178C255.34 127.996 258.187 126.796 258.282 124.556C258.336 123.273 257.414 122.147 256.381 121.383C255.349 120.619 254.153 120.07 253.23 119.177C252.556 118.524 252.047 117.704 251.314 117.118C249.988 116.058 248.174 115.929 246.485 115.756C245.58 115.663 241.966 115.245 242.109 113.865C242.227 112.719 245.976 110.74 246.895 110.201Z" fill="#2F2E41"/>
<path d="M296.422 79.3103C296.422 79.3103 288.147 82.3193 288.147 86.0805C288.147 89.8417 284.386 101.878 288.147 101.878C291.908 101.878 299.431 98.99 299.431 98.99L296.422 79.3103Z" fill="#F2F2F2"/>
<path d="M294.166 133.472C294.166 133.472 315.981 125.949 316.733 125.949C317.485 125.949 328.016 119.931 327.264 117.675L324.255 98.8686C324.255 98.8686 312.219 74.0446 320.494 74.0446C328.769 74.0446 333.282 93.6029 333.282 93.6029C333.282 93.6029 351.336 127.454 341.557 134.976C331.778 142.499 291.157 156.039 288.9 153.782C286.643 151.525 294.166 133.472 294.166 133.472Z" fill="#FFB8B8"/>
<path d="M315.228 84.576L320.306 89.4692L313.724 95.8596C313.724 95.8596 304.697 92.0984 305.449 94.3551C306.201 96.6119 310.715 103.382 313.724 103.382C316.733 103.382 332.393 93.6029 332.461 90.5939C332.53 87.585 322.75 77.0536 320.494 76.3013C318.237 75.549 315.228 84.576 315.228 84.576Z" fill="#9F616A"/>
<path d="M305.681 79.3325C305.681 79.3325 316.733 89.0895 318.237 89.0895C319.742 89.0895 322.478 74.4299 322.478 74.4299C322.478 74.4299 313.561 68.6197 310.257 70.2038C306.954 71.7879 305.681 79.3325 305.681 79.3325Z" fill="#F2F2F2"/>
<path d="M267.085 142.499C267.085 142.499 267.085 131.967 289.652 131.967H299.431L294.918 156.791L279.873 161.305L267.085 142.499Z" fill="#8985A8"/>
<path d="M316.38 57.2731C314.168 57.2625 311.959 57.1262 309.762 56.865C308.038 52.6969 305.841 49.1994 303.464 47.8955C301.778 46.3863 299.177 45.2896 297.136 44.4225C292.123 42.2932 283.78 43.6213 283.292 46.043C273.429 50.7556 275.922 59.0318 275.922 59.0318C277.454 62.2711 280.892 60.8355 283.809 59.3685C284.553 61.7167 286.313 63.7095 288.831 63.8044C293.648 63.9857 295.984 66.003 294.822 68.6603C293.661 71.3176 292.266 77.6318 297.511 76.6717C302.756 75.7116 304.414 77.7998 303.485 79.4047C302.557 81.0097 305.824 76.213 305.824 76.213C305.824 76.213 308.747 80.5675 312.335 77.5193C312.698 77.1698 312.956 76.7266 313.082 76.2389C314.75 76.9569 316.072 77.2295 316.822 76.8938C321.119 74.9712 318.451 70.4564 318.451 70.4564C318.451 70.4564 324.187 69.5763 322.339 69.7222C320.49 69.8681 319.321 67.472 322.449 63.1533C325.577 58.8346 319.278 57.3711 316.38 57.2731Z" fill="#2F2E41"/>
<path d="M287.278 53.8875L285.137 53.1749L282.999 59.5987L285.14 60.3113L287.278 53.8875Z" fill="#60A3D9"/>
<path d="M154.102 174.117C124.836 174.252 101.015 174.685 101.015 174.685C101.015 174.685 129.33 137.178 153.996 151.074C178.662 164.97 206.997 174.196 206.997 174.196C206.997 174.196 183.369 173.982 154.102 174.117Z" fill="#F2F2F2"/>
<path d="M364.697 26.1317C335.431 26.2665 311.609 26.6989 311.609 26.6989C311.609 26.6989 339.925 -10.808 364.591 3.08807C389.257 16.9841 417.592 26.2105 417.592 26.2105C417.592 26.2105 393.963 25.9967 364.697 26.1317Z" fill="#F2F2F2"/>
<path d="M413.324 184.868C442.59 185.003 466.412 185.436 466.412 185.436C466.412 185.436 438.096 147.929 413.43 161.825C388.765 175.721 360.43 184.947 360.43 184.947C360.43 184.947 384.058 184.733 413.324 184.868Z" fill="#F2F2F2"/>
</g>
<defs>
<clipPath id="clip0">
<rect width="550" height="450" fill="white"/>
</clipPath>
</defs>
</svg>
